<?xml version="1.0" encoding="utf-8"?>
<svg xmlns="http://www.w3.org/2000/svg" xmlns:xlink="http://www.w3.org/1999/xlink" viewBox="0 0 256 256" width="256px" height="256px">
<style type="text/css">@keyframes ld-pulse
{
  0% {
    animation-timing-function: cubic-bezier(0.0413,0.3905,0.5086,0.6902);
    transform: scale(1);
  }
  24.3% {
    animation-timing-function: cubic-bezier(0.2248,0.6332,0.5246,1);
    transform: scale(0.8458);
  }
  55% {
    animation-timing-function: cubic-bezier(0.3036,0.3393,0.655,0.6144);
    transform: scale(0.8022);
  }
  70.2% {
    animation-timing-function: cubic-bezier(0.4464,0.2728,0.5562,0.7288);
    transform: scale(0.8294);
  }
  82.3% {
    animation-timing-function: cubic-bezier(0.6826,0.1845,1,0.7358);
    transform: scale(0.869);
  }
  100% {
    transform: scale(1);
  }
}
.ld.ld-pulse {
  animation: ld-pulse 0.5s infinite;
}</style>
<rect x="0" y="0" width="256" height="256" fill="#eee"/>
<defs>
  <g id="id-0.11684361667021359"><!--Generator: Adobe Illustrator 21.0.0, SVG Export Plug-In . SVG Version: 6.00 Build 0)--><g><path style="fill:#fbb03b;stroke:#000;stroke-width:3;stroke-linecap:round;stroke-miterlimit:10" d="M68.5,77.8h-47V37 C21.5,24,32,13.5,45,13.5h0C58,13.5,68.5,24,68.5,37V77.8z"/><path style="fill:#fbb03b;stroke:#000;stroke-width:3;stroke-linecap:round;stroke-miterlimit:10" d="M80.9,48.9 c-1.3,5.2-2.8,8.9-3.4,10.3c-0.4,0.9-1.9,4.4-4.5,8.9c0,0-5,8.5-9.7,10c-0.1,0-0.1,0-0.1,0c-0.1,0-0.2,0.1-0.4,0.1 c-2.6,0.7-8,2.2-12.3-1.2c-0.3-0.2-1.8-1.4-3-3.7c-0.4-0.7-1.6-3-1.9-6.3c-0.2-2.5-0.8-8.6,3.5-12.8c0.7-0.6,4-3.9,8.1-3.6 c2.2,0.2,3.5,1.3,5.6,0.6c1.4-0.4,2.4-1.4,3.3-2.6c4.9-6.2,3.7-11.8,7.9-14.1c0.5-0.3,2-1.1,3.7-0.7c2,0.5,3.2,2.3,3.5,2.8 C81.9,37.5,83.1,39.8,80.9,48.9z"/><g><path style="fill:#fff;stroke:#000;stroke-width:3;stroke-linecap:round;stroke-miterlimit:10" d="M66.8,86.5H22.6 c-2.7,0-4.8-2.2-4.8-4.8v-3.9c0-2.7,2.2-4.8,4.8-4.8h44.2c2.7,0,4.8,2.2,4.8,4.8v3.9C71.6,84.3,69.4,86.5,66.8,86.5z"/><line style="fill:none;stroke:#000;stroke-width:3;stroke-linecap:round;stroke-miterlimit:10" x1="25.8" y1="79.1" x2="25.8" y2="85.3"/><line style="fill:none;stroke:#000;stroke-width:3;stroke-linecap:round;stroke-miterlimit:10" x1="32" y1="79.1" x2="32" y2="85.3"/><line style="fill:none;stroke:#000;stroke-width:3;stroke-linecap:round;stroke-miterlimit:10" x1="38.2" y1="79.1" x2="38.2" y2="85.3"/><line style="fill:none;stroke:#000;stroke-width:3;stroke-linecap:round;stroke-miterlimit:10" x1="44.4" y1="79.1" x2="44.4" y2="85.3"/><line style="fill:none;stroke:#000;stroke-width:3;stroke-linecap:round;stroke-miterlimit:10" x1="50.5" y1="79.1" x2="50.5" y2="85.3"/><line style="fill:none;stroke:#000;stroke-width:3;stroke-linecap:round;stroke-miterlimit:10" x1="56.7" y1="79.1" x2="56.7" y2="85.3"/><line style="fill:none;stroke:#000;stroke-width:3;stroke-linecap:round;stroke-miterlimit:10" x1="62.9" y1="79.1" x2="62.9" y2="85.3"/></g><g><g><line style="fill:none;stroke:#000;stroke-linecap:round;stroke-miterlimit:10" x1="43" y1="20.8" x2="43" y2="33.9"/><line style="fill:none;stroke:#000;stroke-linecap:round;stroke-miterlimit:10" x1="39.9" y1="22.5" x2="43" y2="25.4"/><line style="fill:none;stroke:#000;stroke-linecap:round;stroke-miterlimit:10" x1="46.1" y1="22.5" x2="43" y2="25.4"/></g><g><line style="fill:none;stroke:#000;stroke-linecap:round;stroke-miterlimit:10" x1="38.2" y1="25.1" x2="43" y2="30.1"/><line style="fill:none;stroke:#000;stroke-linecap:round;stroke-miterlimit:10" x1="37.6" y1="26.8" x2="40" y2="26.9"/><line style="fill:none;stroke:#000;stroke-linecap:round;stroke-miterlimit:10" x1="40.1" y1="24.7" x2="40" y2="26.9"/></g><g><line style="fill:none;stroke:#000;stroke-linecap:round;stroke-miterlimit:10" x1="47.9" y1="25.1" x2="43" y2="30.1"/><line style="fill:none;stroke:#000;stroke-linecap:round;stroke-miterlimit:10" x1="48.5" y1="26.8" x2="46.2" y2="26.9"/><line style="fill:none;stroke:#000;stroke-linecap:round;stroke-miterlimit:10" x1="46.1" y1="24.7" x2="46.2" y2="26.9"/></g><g><line style="fill:none;stroke:#000;stroke-linecap:round;stroke-miterlimit:10" x1="28" y1="34.8" x2="41.8" y2="34.8"/><line style="fill:none;stroke:#000;stroke-linecap:round;stroke-miterlimit:10" x1="29.8" y1="37.7" x2="32.9" y2="34.8"/><line style="fill:none;stroke:#000;stroke-linecap:round;stroke-miterlimit:10" x1="29.8" y1="31.8" x2="32.9" y2="34.8"/></g><g><line style="fill:none;stroke:#000;stroke-linecap:round;stroke-miterlimit:10" x1="32.6" y1="39.4" x2="37.8" y2="34.8"/><line style="fill:none;stroke:#000;stroke-linecap:round;stroke-miterlimit:10" x1="34.4" y1="39.9" x2="34.5" y2="37.7"/><line style="fill:none;stroke:#000;stroke-linecap:round;stroke-miterlimit:10" x1="32.1" y1="37.6" x2="34.5" y2="37.7"/></g><g><line style="fill:none;stroke:#000;stroke-linecap:round;stroke-miterlimit:10" x1="32.6" y1="30.1" x2="37.8" y2="34.8"/><line style="fill:none;stroke:#000;stroke-linecap:round;stroke-miterlimit:10" x1="34.4" y1="29.6" x2="34.5" y2="31.8"/><line style="fill:none;stroke:#000;stroke-linecap:round;stroke-miterlimit:10" x1="32.1" y1="31.9" x2="34.5" y2="31.8"/></g><g><line style="fill:none;stroke:#000;stroke-linecap:round;stroke-miterlimit:10" x1="42.8" y1="49" x2="42.8" y2="36"/><line style="fill:none;stroke:#000;stroke-linecap:round;stroke-miterlimit:10" x1="45.9" y1="47.4" x2="42.8" y2="44.4"/><line style="fill:none;stroke:#000;stroke-linecap:round;stroke-miterlimit:10" x1="39.6" y1="47.4" x2="42.8" y2="44.4"/></g><g><line style="fill:none;stroke:#000;stroke-linecap:round;stroke-miterlimit:10" x1="47.6" y1="44.7" x2="42.8" y2="39.8"/><line style="fill:none;stroke:#000;stroke-linecap:round;stroke-miterlimit:10" x1="48.2" y1="43" x2="45.8" y2="42.9"/><line style="fill:none;stroke:#000;stroke-linecap:round;stroke-miterlimit:10" x1="45.7" y1="45.2" x2="45.8" y2="42.9"/></g><g><line style="fill:none;stroke:#000;stroke-linecap:round;stroke-miterlimit:10" x1="37.9" y1="44.7" x2="42.8" y2="39.8"/><line style="fill:none;stroke:#000;stroke-linecap:round;stroke-miterlimit:10" x1="37.3" y1="43" x2="39.6" y2="42.9"/><line style="fill:none;stroke:#000;stroke-linecap:round;stroke-miterlimit:10" x1="39.7" y1="45.2" x2="39.6" y2="42.9"/></g><g><line style="fill:none;stroke:#000;stroke-linecap:round;stroke-miterlimit:10" x1="57.8" y1="35" x2="44" y2="35"/><line style="fill:none;stroke:#000;stroke-linecap:round;stroke-miterlimit:10" x1="56" y1="32.1" x2="52.9" y2="35"/><line style="fill:none;stroke:#000;stroke-linecap:round;stroke-miterlimit:10" x1="56" y1="38" x2="52.9" y2="35"/></g><g><line style="fill:none;stroke:#000;stroke-linecap:round;stroke-miterlimit:10" x1="53.2" y1="30.5" x2="48" y2="35"/><line style="fill:none;stroke:#000;stroke-linecap:round;stroke-miterlimit:10" x1="51.4" y1="29.9" x2="51.3" y2="32.1"/><line style="fill:none;stroke:#000;stroke-linecap:round;stroke-miterlimit:10" x1="53.7" y1="32.2" x2="51.3" y2="32.1"/></g><g><line style="fill:none;stroke:#000;stroke-linecap:round;stroke-miterlimit:10" x1="53.2" y1="39.7" x2="48" y2="35"/><line style="fill:none;stroke:#000;stroke-linecap:round;stroke-miterlimit:10" x1="51.4" y1="40.2" x2="51.3" y2="38"/><line style="fill:none;stroke:#000;stroke-linecap:round;stroke-miterlimit:10" x1="53.7" y1="37.9" x2="51.3" y2="38"/></g></g></g><metadata xmlns:d="https://loading.io/stock/"><d:name>gloves</d:name><d:tags>gloves,christmas</d:tags><d:license>cc-by</d:license><d:slug>bbcq3b</d:slug></metadata></g>
  <g id="id-0.11684361667021359-2">
    
<!-- Generator: Adobe Illustrator 21.0.0, SVG Export Plug-In . SVG Version: 6.00 Build 0)  -->







    <g transform=" translate(192,191.9995) scale(0.8888888888888888)"><g class="ld ld-pulse" style="animation-delay:0s"><g data-icon="">  <use href="#id-0.11684361667021359" x="-50" y="-50"/>
</g></g></g><g transform=" translate(192,63.9995) scale(0.5555555555555556)"><g class="ld ld-pulse" style="animation-delay:-0.125s"><g data-icon="">  <use href="#id-0.11684361667021359" x="-50" y="-50"/>
</g></g></g><g transform=" translate(64,63.9995) scale(0.8888888888888888)"><g class="ld ld-pulse" style="animation-delay:-0.25s"><g data-icon="">  <use href="#id-0.11684361667021359" x="-50" y="-50"/>
</g></g></g><g transform=" translate(64,191.9995) scale(0.5555555555555556)"><g class="ld ld-pulse" style="animation-delay:-0.375s"><g data-icon="">  <use href="#id-0.11684361667021359" x="-50" y="-50"/>
</g></g></g>
  </g>
</defs>
<g>
  <use href="#id-0.11684361667021359-2" x="0" y="0"/>
  <use href="#id-0.11684361667021359-2" x="-256" y="0"/>
  <animateTransform attributeName="transform" type="translate" repeatCount="indefinite" dur="4s"
  keyTimes="0;1" values="0;256"/>
</g>
</svg>