<?xml version="1.0" encoding="utf-8"?>
<svg xmlns="http://www.w3.org/2000/svg" xmlns:xlink="http://www.w3.org/1999/xlink" viewBox="0 0 256 256" width="256px" height="256px">
<style type="text/css">@keyframes ld-pulse
{
  0% {
    animation-timing-function: cubic-bezier(0.0413,0.3905,0.5086,0.6902);
    transform: scale(1);
  }
  24.3% {
    animation-timing-function: cubic-bezier(0.2248,0.6332,0.5246,1);
    transform: scale(0.8458);
  }
  55% {
    animation-timing-function: cubic-bezier(0.3036,0.3393,0.655,0.6144);
    transform: scale(0.8022);
  }
  70.2% {
    animation-timing-function: cubic-bezier(0.4464,0.2728,0.5562,0.7288);
    transform: scale(0.8294);
  }
  82.3% {
    animation-timing-function: cubic-bezier(0.6826,0.1845,1,0.7358);
    transform: scale(0.869);
  }
  100% {
    transform: scale(1);
  }
}
.ld.ld-pulse {
  animation: ld-pulse 0.5s infinite;
}</style>
<rect x="0" y="0" width="256" height="256" fill="#eee"/>
<defs>
  <g id="id-0.9337118038596501"><!--Generator: Adobe Illustrator 21.0.0, SVG Export Plug-In . SVG Version: 6.00 Build 0)--><g><polygon style="fill:#c7b299;stroke:#000;stroke-width:3;stroke-linecap:round;stroke-linejoin:round;stroke-miterlimit:10" points=" 75.6,60.9 24.4,18.6 64.7,10 	"/><rect x="21.8" y="18.8" style="fill:#c7b299;stroke:#000;stroke-width:3;stroke-linecap:round;stroke-linejoin:round;stroke-miterlimit:10" width="56.4" height="71.2"/></g><g><g><path style="fill:#754c24;stroke:#000;stroke-width:3;stroke-miterlimit:10" d="M68.4,27.7c0-0.3-0.2-0.5-0.5-0.7 c-0.6-0.3-1.3-0.1-1.3,0.5c0,1.5-0.3,3.6-1.5,5.7c-1.2,2-2.7,3.3-4,4.1c-0.2-3.5-1.8-6.1-2.8-7.5c-0.2-0.3-0.6-0.5-1.1-0.5 c-0.9,0-1.5,0.7-1.1,1.3c1,1.7,2.1,4.3,2.1,7.5c0,1.2-0.2,2.4-0.4,3.4c-1-0.5-2.2-1.3-3-2.6c-0.9-1.6-0.9-3.2-0.7-4.4 c0.1-0.4-0.5-0.6-1.2-0.2c-0.3,0.2-0.6,0.4-0.6,0.6c-0.3,1.2-0.7,3.3,0.5,5.2c1.2,1.9,3.3,2.7,4.5,3c-0.6,1.8-1.5,3.1-2.1,3.9h2.7 c1-1.3,3-4.2,3.2-8.2l0.4,0.2c1.2-0.5,3.8-1.9,5.5-4.6C68.6,31.7,68.6,29.1,68.4,27.7z"/></g><g><path style="fill:#754c24;stroke:#000;stroke-width:3;stroke-miterlimit:10" d="M31,27.7c0-0.3,0.2-0.5,0.5-0.7 c0.6-0.3,1.3-0.1,1.3,0.5c0,1.5,0.3,3.6,1.5,5.7c1.2,2,2.7,3.3,4,4.1c0.2-3.5,1.8-6.1,2.8-7.5c0.2-0.3,0.6-0.5,1.1-0.5 c0.9,0,1.5,0.7,1.1,1.3c-1,1.7-2.1,4.3-2.1,7.5c0,1.2,0.2,2.4,0.4,3.4c1-0.5,2.2-1.3,3-2.6c0.9-1.6,0.9-3.2,0.7-4.4 c-0.1-0.4,0.5-0.6,1.2-0.2c0.3,0.2,0.6,0.4,0.6,0.6c0.3,1.2,0.7,3.3-0.5,5.2c-1.2,1.9-3.3,2.7-4.5,3c0.6,1.8,1.5,3.1,2.1,3.9h-2.7 c-1-1.3-3-4.2-3.2-8.2L37.9,39c-1.2-0.5-3.8-1.9-5.5-4.6C30.9,31.7,30.8,29.1,31,27.7z"/></g><path style="fill:#a67c52;stroke:#000;stroke-width:3;stroke-miterlimit:10" d="M64,43.4c-2.1,0.9-3.6,2.4-4.1,3.9 C54.3,44,45.7,44,40.1,47.5c-0.4-1.5-2-3.1-4.2-4.1c-3.2-1.4-7.6,0.9-7.6,0.9s0.8,4.7,4,6.1c0.9,0.4,1.8,0.7,2.7,0.8 c1.2,0.2,1.3,0,0.9,1.1c-2.4,7.1-0.4,15.2,3.8,21.2c1.4,2.1,3.1,4.2,5.5,5.2c1.5,0.6,3.2,0.6,4.4,0.6c1.3,0,2.9,0.1,4.4-0.3 c2.6-0.7,4.1-2.5,5.6-4.4c4-4.9,4.8-10.2,5.1-12.3c0.4-2.5,0.3-3.6,0.2-5c-0.1-1.7-0.6-3.2-0.9-4.9c-0.1-0.5-0.1-0.9,0.2-1.1 c0.2-0.2,0.5-0.2,0.9-0.2c2.4-0.1,4.2-1.6,5.2-3.6c0.1-0.2,1.4-2.9,1.1-3.1C71.6,44.3,67.2,42,64,43.4z"/><path style="stroke:#000;stroke-width:3;stroke-miterlimit:10" d="M57.8,58.3c-0.9,0.6-1.9,0.5-2.2,0.4c-0.6-0.1-1-0.3-1.3-0.4 c0-0.3,0.2-0.8,0.5-1.3c0.1-0.2,0.7-1.1,1.8-1.5c0.9-0.3,2.3-0.3,2.7,0.4C59.6,56.6,58.7,57.8,57.8,58.3z"/><path style="stroke:#000;stroke-width:3;stroke-miterlimit:10" d="M42.1,58.3c0.9,0.6,1.9,0.5,2.2,0.4c0.6-0.1,1-0.3,1.3-0.4 c0-0.3-0.2-0.8-0.5-1.3c-0.1-0.2-0.7-1.1-1.8-1.5c-0.9-0.3-2.3-0.3-2.7,0.4C40.3,56.6,41.3,57.8,42.1,58.3z"/><path style="stroke:#000;stroke-width:3;stroke-miterlimit:10" d="M49.7,72.1c1.5,0,3.1,1.1,3,2.4c-0.1,1.2-1.6,2-2.8,2 c-1.3,0-3-0.9-3-2.1C46.9,73.1,48.4,72.1,49.7,72.1z"/></g><metadata xmlns:d="https://loading.io/stock/"><d:name>card</d:name><d:tags>card, wishes, tree, christmas, blessing</d:tags><d:license>cc-by</d:license><d:slug>smx49o</d:slug></metadata></g>
  <g id="id-0.9337118038596501-2">
    
<!-- Generator: Adobe Illustrator 21.0.0, SVG Export Plug-In . SVG Version: 6.00 Build 0)  -->













    <g transform=" translate(151,149.9995) scale(0.6222222222222222)"><g class="ld ld-pulse" style="animation-delay:0s"><g data-icon="">  <use xlink:href="#id-0.9337118038596501" x="-50" y="-50"/>
</g></g></g><g transform="matrix(0.9628 0.2703 -0.2703 0.9628 41.3411 -58.0147) translate(231.293,121.08149999999999) scale(0.5214666666666667)"><g class="ld ld-pulse" style="animation-delay:-0.05s"><g data-icon="">  <use xlink:href="#id-0.9337118038596501" x="-50" y="-50"/>
</g></g></g><g transform="matrix(-0.0456 0.999 -0.999 -0.0456 207.6542 -74.2389) translate(139.293,62.081500000000005) scale(0.5214666666666667)"><g class="ld ld-pulse" style="animation-delay:-0.1s"><g data-icon="">  <use xlink:href="#id-0.9337118038596501" x="-50" y="-50"/>
</g></g></g><g transform="matrix(0.2398 -0.9708 0.9708 0.2398 127.6881 219.61) translate(204.074,28.271) scale(0.3916444444444444)"><g class="ld ld-pulse" style="animation-delay:-0.15s"><g data-icon="">  <use xlink:href="#id-0.9337118038596501" x="-50" y="-50"/>
</g></g></g><g transform="matrix(0.5905 -0.8071 0.8071 0.5905 -96.797 253.4085) translate(201.293,222.0815) scale(0.5214666666666667)"><g class="ld ld-pulse" style="animation-delay:-0.2s"><g data-icon="">  <use xlink:href="#id-0.9337118038596501" x="-50" y="-50"/>
</g></g></g><g transform="matrix(0.8618 0.5073 -0.5073 0.8618 120.0863 -26.4095) translate(108.50649999999999,207.1645) scale(0.44135555555555556)"><g class="ld ld-pulse" style="animation-delay:-0.25s"><g data-icon="">  <use xlink:href="#id-0.9337118038596501" x="-50" y="-50"/>
</g></g></g><g transform="matrix(0.9981 0.0609 -0.0609 0.9981 7.8271 -4.6047) translate(79.461,126.11449999999999) scale(0.43675555555555556)"><g class="ld ld-pulse" style="animation-delay:-0.3s"><g data-icon="">  <use xlink:href="#id-0.9337118038596501" x="-50" y="-50"/>
</g></g></g><g transform="matrix(-0.7024 0.7118 -0.7118 -0.7024 125.7862 11.6317) translate(60.461,32.1145) scale(0.43675555555555556)"><g class="ld ld-pulse" style="animation-delay:-0.35s"><g data-icon="">  <use xlink:href="#id-0.9337118038596501" x="-50" y="-50"/>
</g></g></g><g transform="matrix(0.8596 0.511 -0.511 0.8596 47.5053 -5.4135) translate(33.602,83.7265) scale(0.3879111111111111)"><g class="ld ld-pulse" style="animation-delay:-0.4s"><g data-icon="">  <use xlink:href="#id-0.9337118038596501" x="-50" y="-50"/>
</g></g></g><g transform="matrix(0.5692 -0.8222 0.8222 0.5692 -149.2038 124.5031) translate(44.2025,204.6265) scale(0.5011777777777778)"><g class="ld ld-pulse" style="animation-delay:-0.45s"><g data-icon="">  <use xlink:href="#id-0.9337118038596501" x="-50" y="-50"/>
</g></g></g>
  </g>
</defs>
<g>
  <use xlink:href="#id-0.9337118038596501-2" x="0" y="0"/>
  <use xlink:href="#id-0.9337118038596501-2" x="-256" y="0"/>
  <animateTransform attributeName="transform" type="translate" repeatCount="indefinite" dur="4s"
  keyTimes="0;1" values="0;256"/>
</g>
</svg>