<?xml version="1.0" encoding="utf-8"?>
<svg xmlns="http://www.w3.org/2000/svg" xmlns:xlink="http://www.w3.org/1999/xlink" viewBox="0 0 256 256" width="256px" height="256px">
<style type="text/css">@keyframes ld-pulse
{
  0% {
    animation-timing-function: cubic-bezier(0.0413,0.3905,0.5086,0.6902);
    transform: scale(1);
  }
  24.3% {
    animation-timing-function: cubic-bezier(0.2248,0.6332,0.5246,1);
    transform: scale(0.8458);
  }
  55% {
    animation-timing-function: cubic-bezier(0.3036,0.3393,0.655,0.6144);
    transform: scale(0.8022);
  }
  70.2% {
    animation-timing-function: cubic-bezier(0.4464,0.2728,0.5562,0.7288);
    transform: scale(0.8294);
  }
  82.3% {
    animation-timing-function: cubic-bezier(0.6826,0.1845,1,0.7358);
    transform: scale(0.869);
  }
  100% {
    transform: scale(1);
  }
}
.ld.ld-pulse {
  animation: ld-pulse 0.5s infinite;
}</style>
<rect x="0" y="0" width="256" height="256" fill="#eee"/>
<defs>
  <g id="id-0.8159880359321399"><!--Generator: Adobe Illustrator 21.0.0, SVG Export Plug-In . SVG Version: 6.00 Build 0)--><g><polygon style="fill:#333;stroke:#333;stroke-width:3;stroke-linecap:round;stroke-linejoin:round;stroke-miterlimit:10" points=" 28.6,43.9 86.6,44.2 86.6,39.1 28.6,38.8 	"/><polygon style="fill:#333;stroke:#333;stroke-width:3;stroke-linecap:round;stroke-linejoin:round;stroke-miterlimit:10" points=" 28.6,55.9 86.6,56.2 86.6,51.1 28.6,50.8 	"/></g><g><ellipse transform="matrix(0.866 -0.5 0.5 0.866 -35.5 20.1174)" style="fill:#333" cx="19.8" cy="76.3" rx="10.8" ry="7.2"/><line style="fill:none;stroke:#333;stroke-width:3;stroke-linecap:round;stroke-miterlimit:10" x1="28.6" y1="72.3" x2="28.6" y2="38.8"/></g><g><ellipse transform="matrix(0.866 -0.5 0.5 0.866 -31.6948 34.6339)" style="fill:#333" cx="48.8" cy="76.5" rx="10.8" ry="7.2"/><line style="fill:none;stroke:#333;stroke-width:3;stroke-linecap:round;stroke-miterlimit:10" x1="57.6" y1="72.4" x2="57.6" y2="39"/></g><g><ellipse transform="matrix(0.866 -0.5 0.5 0.866 -27.8896 49.1504)" style="fill:#333" cx="77.8" cy="76.6" rx="10.8" ry="7.2"/><line style="fill:none;stroke:#333;stroke-width:3;stroke-linecap:round;stroke-miterlimit:10" x1="86.6" y1="72.6" x2="86.6" y2="39.1"/></g><g><g><path style="fill:#333" d="M28.6,33.5c4-3.3,8.6-5.9,13.5-7.7C47,24,52.3,23,57.6,23c5.3,0,10.6,1,15.5,2.8 c4.9,1.8,9.5,4.4,13.5,7.7c-4.8-1.8-9.6-3.5-14.4-4.7c-4.8-1.2-9.7-1.8-14.6-1.8c-4.9,0-9.8,0.6-14.6,1.8 C38.2,29.9,33.4,31.7,28.6,33.5z"/></g><path d="M59.1,12.1c2.1,0.6,3.2,1.6,3.2,3.1c0,1-0.5,1.7-1.4,2.3c-0.9,0.6-2,0.9-3.3,0.9c-1,0-1.8-0.2-2.4-0.5 c-0.6-0.3-1-0.8-1-1.3c0-0.3,0.1-0.5,0.4-0.7c0.3-0.2,0.6-0.3,1-0.3c0.4,0,0.7,0.1,0.9,0.2c0.2,0.2,0.4,0.4,0.4,0.6 c0,0.3-0.1,0.5-0.4,0.7c-0.1,0.1-0.1,0.1-0.1,0.1c0,0.1,0.1,0.2,0.3,0.2s0.5,0.1,0.8,0.1c1.5,0,2.2-0.8,2.2-2.5 c0-0.6-0.1-1.1-0.3-1.5S59,13,58.7,12.8s-0.7-0.2-1.2-0.3c-0.3,0-0.4-0.1-0.4-0.2v-0.5c0-0.1,0.1-0.2,0.4-0.2c1.3-0.1,2-0.8,2-2.2 c0-1.2-0.6-1.8-1.7-1.8c-0.3,0-0.5,0-0.8,0.1S56.7,7.9,56.7,8c0,0.1,0.1,0.1,0.2,0.2c0.2,0.1,0.2,0.3,0.2,0.5 c0,0.2-0.1,0.4-0.4,0.5c-0.2,0.2-0.5,0.2-0.8,0.2c-0.4,0-0.7-0.1-0.9-0.3s-0.3-0.4-0.3-0.6c0-0.4,0.3-0.8,1-1.2s1.5-0.5,2.3-0.5 c1.1,0,2.1,0.2,2.8,0.7c0.7,0.5,1.1,1.1,1.1,1.8C61.9,10.5,61,11.4,59.1,12.1z"/></g><metadata xmlns:d="https://loading.io/stock/"><d:name>triplet node</d:name><d:tags>triplet node,beamed note,sixteenth,semiquarver</d:tags><d:license>cc-by</d:license><d:slug>rmjvf7</d:slug></metadata></g>
  <g id="id-0.8159880359321399-2">
    
<!-- Generator: Adobe Illustrator 21.0.0, SVG Export Plug-In . SVG Version: 6.00 Build 0)  -->













    <g transform=" translate(151,149.9995) scale(0.6222222222222222)"><g class="ld ld-pulse" style="animation-delay:0s"><g data-icon="">  <use href="#id-0.8159880359321399" x="-50" y="-50"/>
</g></g></g><g transform="matrix(0.9628 0.2703 -0.2703 0.9628 41.3411 -58.0147) translate(231.293,121.08149999999999) scale(0.5214666666666667)"><g class="ld ld-pulse" style="animation-delay:-0.05s"><g data-icon="">  <use href="#id-0.8159880359321399" x="-50" y="-50"/>
</g></g></g><g transform="matrix(-0.0456 0.999 -0.999 -0.0456 207.6542 -74.2389) translate(139.293,62.081500000000005) scale(0.5214666666666667)"><g class="ld ld-pulse" style="animation-delay:-0.1s"><g data-icon="">  <use href="#id-0.8159880359321399" x="-50" y="-50"/>
</g></g></g><g transform="matrix(0.2398 -0.9708 0.9708 0.2398 127.6881 219.61) translate(204.074,28.271) scale(0.3916444444444444)"><g class="ld ld-pulse" style="animation-delay:-0.15s"><g data-icon="">  <use href="#id-0.8159880359321399" x="-50" y="-50"/>
</g></g></g><g transform="matrix(0.5905 -0.8071 0.8071 0.5905 -96.797 253.4085) translate(201.293,222.0815) scale(0.5214666666666667)"><g class="ld ld-pulse" style="animation-delay:-0.2s"><g data-icon="">  <use href="#id-0.8159880359321399" x="-50" y="-50"/>
</g></g></g><g transform="matrix(0.8618 0.5073 -0.5073 0.8618 120.0863 -26.4095) translate(108.50649999999999,207.1645) scale(0.44135555555555556)"><g class="ld ld-pulse" style="animation-delay:-0.25s"><g data-icon="">  <use href="#id-0.8159880359321399" x="-50" y="-50"/>
</g></g></g><g transform="matrix(0.9981 0.0609 -0.0609 0.9981 7.8271 -4.6047) translate(79.461,126.11449999999999) scale(0.43675555555555556)"><g class="ld ld-pulse" style="animation-delay:-0.3s"><g data-icon="">  <use href="#id-0.8159880359321399" x="-50" y="-50"/>
</g></g></g><g transform="matrix(-0.7024 0.7118 -0.7118 -0.7024 125.7862 11.6317) translate(60.461,32.1145) scale(0.43675555555555556)"><g class="ld ld-pulse" style="animation-delay:-0.35s"><g data-icon="">  <use href="#id-0.8159880359321399" x="-50" y="-50"/>
</g></g></g><g transform="matrix(0.8596 0.511 -0.511 0.8596 47.5053 -5.4135) translate(33.602,83.7265) scale(0.3879111111111111)"><g class="ld ld-pulse" style="animation-delay:-0.4s"><g data-icon="">  <use href="#id-0.8159880359321399" x="-50" y="-50"/>
</g></g></g><g transform="matrix(0.5692 -0.8222 0.8222 0.5692 -149.2038 124.5031) translate(44.2025,204.6265) scale(0.5011777777777778)"><g class="ld ld-pulse" style="animation-delay:-0.45s"><g data-icon="">  <use href="#id-0.8159880359321399" x="-50" y="-50"/>
</g></g></g>
  </g>
</defs>
<g>
  <use href="#id-0.8159880359321399-2" x="0" y="0"/>
  <use href="#id-0.8159880359321399-2" x="-256" y="0"/>
  <animateTransform attributeName="transform" type="translate" repeatCount="indefinite" dur="4s"
  keyTimes="0;1" values="0;256"/>
</g>
</svg>