<?xml version="1.0" encoding="utf-8"?>
<svg xmlns="http://www.w3.org/2000/svg" xmlns:xlink="http://www.w3.org/1999/xlink" viewBox="0 0 256 256" width="256px" height="256px">
<style type="text/css">@keyframes ld-pulse
{
  0% {
    animation-timing-function: cubic-bezier(0.0413,0.3905,0.5086,0.6902);
    transform: scale(1);
  }
  24.3% {
    animation-timing-function: cubic-bezier(0.2248,0.6332,0.5246,1);
    transform: scale(0.8458);
  }
  55% {
    animation-timing-function: cubic-bezier(0.3036,0.3393,0.655,0.6144);
    transform: scale(0.8022);
  }
  70.2% {
    animation-timing-function: cubic-bezier(0.4464,0.2728,0.5562,0.7288);
    transform: scale(0.8294);
  }
  82.3% {
    animation-timing-function: cubic-bezier(0.6826,0.1845,1,0.7358);
    transform: scale(0.869);
  }
  100% {
    transform: scale(1);
  }
}
.ld.ld-pulse {
  animation: ld-pulse 0.5s infinite;
}</style>
<rect x="0" y="0" width="256" height="256" fill="#eee"/>
<defs>
  <g id="id-0.3497391673145662"><!--Generator: Adobe Illustrator 21.0.0, SVG Export Plug-In . SVG Version: 6.00 Build 0)--><path style="fill:#f8b26a" d="M81.31,68.485l-13.698-7.909C64.095,66.655,57.527,70.747,50,70.747s-14.095-4.092-17.612-10.171 L18.69,68.485c5.546,9.584,15.362,16.379,26.847,17.795L50,94.25l4.463-7.97C65.948,84.864,75.764,78.07,81.31,68.485z"/><path style="fill:#e15b64" d="M87.968,28.487l-9.139,0.12C72.229,19.889,61.778,14.25,50,14.25v15.819 c7.527,0,14.095,4.092,17.612,10.171c1.731,2.992,2.727,6.463,2.727,10.168s-0.996,7.176-2.727,10.168l13.698,7.909 c3.078-5.319,4.848-11.489,4.848-18.077c0-4.996-1.022-9.75-2.857-14.077L87.968,28.487z"/><path style="fill:#abbd81" d="M21.17,28.607l-9.139-0.12l4.667,7.844c-1.835,4.327-2.857,9.081-2.857,14.077 c0,6.587,1.77,12.758,4.848,18.077l13.698-7.909c-1.731-2.992-2.727-6.463-2.727-10.168s0.996-7.176,2.727-10.168 C35.905,34.162,42.473,30.069,50,30.069V14.25C38.222,14.25,27.771,19.889,21.17,28.607z"/><metadata xmlns:d="https://loading.io/stock/"><d:name>component</d:name><d:tags>component,composition,ingredient,infographics</d:tags><d:license>cc-by</d:license><d:slug>mnivy8</d:slug></metadata></g>
  <g id="id-0.3497391673145662-2">
    
<!-- Generator: Adobe Illustrator 21.0.0, SVG Export Plug-In . SVG Version: 6.00 Build 0)  -->







    <g transform=" translate(192,191.9995) scale(0.8888888888888888)"><g class="ld ld-pulse" style="animation-delay:0s"><g data-icon="">  <use href="#id-0.3497391673145662" x="-50" y="-50"/>
</g></g></g><g transform=" translate(192,63.9995) scale(0.5555555555555556)"><g class="ld ld-pulse" style="animation-delay:-0.125s"><g data-icon="">  <use href="#id-0.3497391673145662" x="-50" y="-50"/>
</g></g></g><g transform=" translate(64,63.9995) scale(0.8888888888888888)"><g class="ld ld-pulse" style="animation-delay:-0.25s"><g data-icon="">  <use href="#id-0.3497391673145662" x="-50" y="-50"/>
</g></g></g><g transform=" translate(64,191.9995) scale(0.5555555555555556)"><g class="ld ld-pulse" style="animation-delay:-0.375s"><g data-icon="">  <use href="#id-0.3497391673145662" x="-50" y="-50"/>
</g></g></g>
  </g>
</defs>
<g>
  <use href="#id-0.3497391673145662-2" x="0" y="0"/>
  <use href="#id-0.3497391673145662-2" x="-256" y="0"/>
  <animateTransform attributeName="transform" type="translate" repeatCount="indefinite" dur="4s"
  keyTimes="0;1" values="0;256"/>
</g>
</svg>