<?xml version="1.0" encoding="utf-8"?>
<svg xmlns="http://www.w3.org/2000/svg" xmlns:xlink="http://www.w3.org/1999/xlink" viewBox="0 0 256 256" width="256px" height="256px">
<style type="text/css">@keyframes ld-pulse
{
  0% {
    animation-timing-function: cubic-bezier(0.0413,0.3905,0.5086,0.6902);
    transform: scale(1);
  }
  24.3% {
    animation-timing-function: cubic-bezier(0.2248,0.6332,0.5246,1);
    transform: scale(0.8458);
  }
  55% {
    animation-timing-function: cubic-bezier(0.3036,0.3393,0.655,0.6144);
    transform: scale(0.8022);
  }
  70.2% {
    animation-timing-function: cubic-bezier(0.4464,0.2728,0.5562,0.7288);
    transform: scale(0.8294);
  }
  82.3% {
    animation-timing-function: cubic-bezier(0.6826,0.1845,1,0.7358);
    transform: scale(0.869);
  }
  100% {
    transform: scale(1);
  }
}
.ld.ld-pulse {
  animation: ld-pulse 0.5s infinite;
}</style>
<rect x="0" y="0" width="256" height="256" fill="#eee"/>
<defs>
  <g id="id-0.909554518037905"><!--Generator: Adobe Illustrator 21.0.0, SVG Export Plug-In . SVG Version: 6.00 Build 0)--><rect x="21.4" y="22.7" style="fill:#3fa9f5;stroke:#000;stroke-width:3;stroke-linecap:round;stroke-linejoin:round;stroke-miterlimit:10" width="58.1" height="59.1"/><path style="fill:#e6e6e6;stroke:#000;stroke-width:3;stroke-linecap:round;stroke-linejoin:round;stroke-miterlimit:10" d=" M87.3,22.7V10H13.5v12.7h5.8l-0.1,54.7h-5.7V90h73.8V77.3h-5.8l0.1-54.7H87.3z M71.1,77.3H29.6l0.1-54.7h41.6L71.1,77.3z"/><circle style="fill:#fff" cx="50.9" cy="36.3" r="3"/><circle style="fill:#fff" cx="45.5" cy="48.6" r="3.1"/><circle style="fill:#fff" cx="59.1" cy="46" r="0.5"/><circle style="fill:#fff" cx="58.1" cy="60.2" r="2.2"/><circle style="fill:#fff" cx="44.9" cy="59.5" r="0.6"/><circle style="fill:#fff" cx="40" cy="70.1" r="2.4"/><circle style="fill:#fff" cx="54.9" cy="68.8" r="1"/><circle style="fill:#fff" cx="64.2" cy="72.9" r="1"/><circle style="fill:#fff" cx="43.3" cy="26.7" r="0.9"/><g><path style="fill:#ff7bac;stroke:#000;stroke-width:3;stroke-linecap:round;stroke-linejoin:round;stroke-miterlimit:10" d=" M87.4,35.3c-0.1-6-2.8-13.5-6.2-14c-1.2-0.2-1.9,0.5-3.7,0c-2.2-0.7-2.6-2.3-4.1-2.1c-1.2,0.1-1.4,1.2-2.9,2.4 c-2.2,1.6-3.8,0.8-5.4,1.6c-3.6,1.7-4,9.4-3.4,14c1,7.7,5.8,12.7,7.8,14.6c-1.2,2-2.7,5.5-2.8,9.9c-0.1,5.2,1.9,11.8,4.9,12.3 c1.6,0.3,2.2-1.3,5.1-1.3c2,0,2.4,0.9,4.3,0.9c0.1,0,3.7,0.1,5.5-2.1c1.9-2.4,0.8-6.3-0.7-11.1c-0.7-2.4-1.9-5.8-4.1-9.5 C83.3,48.8,87.5,43.1,87.4,35.3z"/><path style="fill:#d4145a;stroke:#000;stroke-miterlimit:10" d="M81.9,36.8c0,5.3-1.4,10-1.8,9.9c-0.3,0,0-2.7,0-9.9 c0-7.2-0.3-9.9,0-9.9C80.5,26.9,81.9,31.5,81.9,36.8z"/><path style="fill:#d4145a;stroke:#000;stroke-miterlimit:10" d="M77.3,36.5c0,5.3-1.4,10-1.8,9.9c-0.3,0,0-2.7,0-9.9 c0-7.2-0.3-9.9,0-9.9C75.9,26.6,77.3,31.2,77.3,36.5z"/><path style="fill:#d4145a;stroke:#000;stroke-miterlimit:10" d="M72.6,36.4c0.9,5.1,0.1,9.8-0.4,9.9c-0.4,0-0.5-2.6-1.8-9.5 c-1.3-6.9-2.1-9.4-1.8-9.5C69.2,27.2,71.7,31.3,72.6,36.4z"/><path style="fill:#d4145a;stroke:#000;stroke-miterlimit:10" d="M81.4,61.9c0,3.6-1.6,6.8-2,6.7c-0.3-0.1,0-1.8,0-6.7 s-0.3-6.6,0-6.7C79.8,55.1,81.4,58.3,81.4,61.9z"/><path style="fill:#d4145a;stroke:#000;stroke-miterlimit:10" d="M76.5,61.5c0,3.6-1.6,6.8-2,6.7c-0.3-0.1,0-1.8,0-6.7 s-0.3-6.6,0-6.7C74.9,54.8,76.5,57.9,76.5,61.5z"/></g><g><path style="fill:#ff7bac;stroke:#000;stroke-width:3;stroke-linecap:round;stroke-linejoin:round;stroke-miterlimit:10" d=" M38.3,36.9c0.9-6.1-0.4-14.2-3.7-15.3c-1.1-0.4-2,0.2-3.6-0.6c-2-1.1-2.2-2.8-3.6-2.9c-1.2-0.1-1.6,1-3.3,1.9 c-2.4,1.2-3.9,0.2-5.6,0.6c-3.8,1-5.6,8.8-5.8,13.5c-0.4,8,3.5,13.9,5.1,16.1c-1.5,1.8-3.6,5-4.5,9.5C12.3,64.9,13.1,72,16,73 c1.5,0.6,2.4-1,5.2-0.4c2,0.4,2.2,1.3,4.1,1.7c0.1,0,3.6,0.7,5.7-1.2c2.3-2.1,1.8-6.2,1.3-11.3c-0.3-2.6-0.9-6.2-2.4-10.3 C32,49.8,37.1,44.8,38.3,36.9z"/><path style="fill:#d4145a;stroke:#000;stroke-miterlimit:10" d="M19.1,36.6c0,5.3,1.4,10,1.8,9.9c0.3,0,0-2.7,0-9.9 c0-7.2,0.3-9.9,0-9.9C20.5,26.7,19.1,31.3,19.1,36.6z"/><path style="fill:#d4145a;stroke:#000;stroke-miterlimit:10" d="M23.8,36.3c0,5.3,1.4,10,1.8,9.9c0.3,0,0-2.7,0-9.9 c0-7.2,0.3-9.9,0-9.9C25.2,26.4,23.8,31,23.8,36.3z"/><path style="fill:#d4145a;stroke:#000;stroke-miterlimit:10" d="M28.5,36.2c-0.9,5.1-0.1,9.8,0.4,9.9c0.4,0,0.5-2.6,1.8-9.5 c1.3-6.9,2.1-9.4,1.8-9.5C31.9,26.9,29.4,31.1,28.5,36.2z"/><path style="fill:#d4145a;stroke:#000;stroke-miterlimit:10" d="M19.6,61.9c0,3.6,1.6,6.8,2,6.7c0.3-0.1,0-1.8,0-6.7 s0.3-6.6,0-6.7C21.1,55.1,19.6,58.3,19.6,61.9z"/><path style="fill:#d4145a;stroke:#000;stroke-miterlimit:10" d="M24.5,61.5c0,3.6,1.6,6.8,2,6.7c0.3-0.1,0-1.8,0-6.7 s0.3-6.6,0-6.7C26.1,54.8,24.5,57.9,24.5,61.5z"/></g><metadata xmlns:d="https://loading.io/stock/"><d:name>window</d:name><d:tags>window, snow, christmas , curtain, winter</d:tags><d:license>cc-by</d:license><d:slug>ac1ywy</d:slug></metadata></g>
  <g id="id-0.909554518037905-2">
    
<!-- Generator: Adobe Illustrator 21.0.0, SVG Export Plug-In . SVG Version: 6.00 Build 0)  -->






<ellipse transform="matrix(0.7249 -0.6888 0.6888 0.7249 -96.2592 93.9447)" fill="#B3B4B4" cx="69.5" cy="167.5" rx="5.5" ry="5.5"/>
<ellipse transform="matrix(0.7249 -0.6888 0.6888 0.7249 15.9378 184.9119)" fill="#B3B4B4" cx="239.5" cy="72.5" rx="5.5" ry="5.5"/>
<g>
	
		<line fill="none" stroke="#B3B4B5" stroke-width="4" stroke-linecap="round" stroke-linejoin="round" stroke-miterlimit="10" x1="194" y1="125.5" x2="209" y2="125.5"/>
	
		<line fill="none" stroke="#B3B4B5" stroke-width="4" stroke-linecap="round" stroke-linejoin="round" stroke-miterlimit="10" x1="201.5" y1="133" x2="201.5" y2="118"/>
</g>
<g>
	
		<line fill="none" stroke="#B3B4B5" stroke-width="4" stroke-linecap="round" stroke-linejoin="round" stroke-miterlimit="10" x1="186" y1="244" x2="198" y2="244"/>
	
		<line fill="none" stroke="#B3B4B5" stroke-width="4" stroke-linecap="round" stroke-linejoin="round" stroke-miterlimit="10" x1="192" y1="250" x2="192" y2="238"/>
</g>
<g>
	
		<line fill="none" stroke="#B3B4B5" stroke-width="4" stroke-linecap="round" stroke-linejoin="round" stroke-miterlimit="10" x1="12" y1="46.5" x2="29" y2="46.5"/>
	
		<line fill="none" stroke="#B3B4B5" stroke-width="4" stroke-linecap="round" stroke-linejoin="round" stroke-miterlimit="10" x1="20.5" y1="55" x2="20.5" y2="38"/>
</g>
<ellipse transform="matrix(0.4903 -0.8715 0.8715 0.4903 7.2038 156.6452)" fill="#B3B4B4" cx="137.531" cy="72.163" rx="6.525" ry="6.525"/>
<ellipse transform="matrix(0.7249 -0.6888 0.6888 0.7249 -109.6566 158.3945)" fill="#B3B4B4" cx="143.5" cy="216.5" rx="5.5" ry="5.5"/>
<ellipse transform="matrix(0.7249 -0.6888 0.6888 0.7249 0.2332 72.5839)" fill="#B3B4B4" cx="91" cy="36" rx="4" ry="4"/>
<ellipse transform="matrix(0.7249 -0.6888 0.6888 0.7249 -34.1432 212.4976)" fill="#B3B4B4" cx="249" cy="149" rx="4" ry="4"/>
<ellipse transform="matrix(0.7249 -0.6888 0.6888 0.7249 -163.3891 70.8358)" fill="#B3B4B4" cx="7" cy="240" rx="4" ry="4"/>


    <g transform="matrix(0.9912 0.1325 -0.1325 0.9912 19.5946 -16.4002) translate(133,138.9995) scale(0.6222222222222222)"><g class="ld ld-pulse" style="animation-delay:0s"><g data-icon="">  <use xlink:href="#id-0.909554518037905" x="-50" y="-50"/>
</g></g></g><g transform="matrix(0.8102 -0.5862 0.5862 0.8102 10.3558 116.5189) translate(185.074,42.271) scale(0.3916444444444444)"><g class="ld ld-pulse" style="animation-delay:-0.1s"><g data-icon="">  <use xlink:href="#id-0.909554518037905" x="-50" y="-50"/>
</g></g></g><g transform="matrix(0.7153 0.6988 -0.6988 0.7153 199.1367 -101.9661) translate(224.712,193.41799999999998) scale(0.3647555555555556)"><g class="ld ld-pulse" style="animation-delay:-0.2s"><g data-icon="">  <use xlink:href="#id-0.909554518037905" x="-50" y="-50"/>
</g></g></g><g transform="matrix(0.7812 0.6242 -0.6242 0.7812 76.8196 -5.7423) translate(46.602000000000004,106.7265) scale(0.3879111111111111)"><g class="ld ld-pulse" style="animation-delay:-0.3s"><g data-icon="">  <use xlink:href="#id-0.909554518037905" x="-50" y="-50"/>
</g></g></g><g transform="matrix(0.7381 -0.6747 0.6747 0.7381 -136.8065 106.8361) translate(69.2025,229.6265) scale(0.5011777777777778)"><g class="ld ld-pulse" style="animation-delay:-0.4s"><g data-icon="">  <use xlink:href="#id-0.909554518037905" x="-50" y="-50"/>
</g></g></g>
  </g>
</defs>
<g>
  <use xlink:href="#id-0.909554518037905-2" x="0" y="0"/>
  <use xlink:href="#id-0.909554518037905-2" x="-256" y="0"/>
  <animateTransform attributeName="transform" type="translate" repeatCount="indefinite" dur="4s"
  keyTimes="0;1" values="0;256"/>
</g>
</svg>