<?xml version="1.0" encoding="utf-8"?>
<svg xmlns="http://www.w3.org/2000/svg" xmlns:xlink="http://www.w3.org/1999/xlink" viewBox="0 0 256 256" width="256px" height="256px">
<style type="text/css">@keyframes ld-pulse
{
  0% {
    animation-timing-function: cubic-bezier(0.0413,0.3905,0.5086,0.6902);
    transform: scale(1);
  }
  24.3% {
    animation-timing-function: cubic-bezier(0.2248,0.6332,0.5246,1);
    transform: scale(0.8458);
  }
  55% {
    animation-timing-function: cubic-bezier(0.3036,0.3393,0.655,0.6144);
    transform: scale(0.8022);
  }
  70.2% {
    animation-timing-function: cubic-bezier(0.4464,0.2728,0.5562,0.7288);
    transform: scale(0.8294);
  }
  82.3% {
    animation-timing-function: cubic-bezier(0.6826,0.1845,1,0.7358);
    transform: scale(0.869);
  }
  100% {
    transform: scale(1);
  }
}
.ld.ld-pulse {
  animation: ld-pulse 0.5s infinite;
}</style>
<rect x="0" y="0" width="256" height="256" fill="#eee"/>
<defs>
  <g id="id-0.24862545556576987"><!--Generator: Adobe Illustrator 21.0.0, SVG Export Plug-In . SVG Version: 6.00 Build 0)--><path style="fill:#c8dc96" d="M78.962,44.68c3.993,2.26,7.686,4.92,11.038,7.916c-1.195-12.369-9.886-23.277-22.596-26.682 c-0.233-0.062-0.466-0.1-0.698-0.157c4.426-1.226,8.922-1.954,13.414-2.206c-9.591-7.901-23.45-9.468-34.845-2.889 c-0.207,0.119-0.396,0.257-0.599,0.38c2.262-3.994,4.922-7.689,7.92-11.042c-12.368,1.195-23.277,9.886-26.682,22.596 c-0.058,0.217-0.106,0.434-0.16,0.651c-1.219-4.411-1.952-8.89-2.203-13.367c-7.901,9.591-9.468,23.45-2.89,34.845 c0.117,0.203,0.252,0.389,0.374,0.589c-3.991-2.26-7.686-4.915-11.036-7.91c1.195,12.369,9.886,23.277,22.596,26.682 c0.23,0.062,0.46,0.099,0.69,0.155c-4.423,1.224-8.917,1.956-13.406,2.207c9.591,7.901,23.45,9.468,34.845,2.889 c0.208-0.12,0.399-0.257,0.603-0.381c-2.263,3.995-4.927,7.689-7.924,11.043c12.368-1.195,23.277-9.887,26.682-22.596 c0.061-0.228,0.1-0.457,0.155-0.685c1.225,4.422,1.956,8.914,2.207,13.402c7.901-9.591,9.468-23.45,2.89-34.845 C79.219,45.07,79.085,44.882,78.962,44.68z M37.423,50c0-7.088,5.746-12.834,12.834-12.834S63.09,42.912,63.09,50 s-5.746,12.834-12.834,12.834S37.423,57.088,37.423,50z"/><metadata xmlns:d="https://loading.io/stock/"><d:name>typhoon</d:name><d:tags>typhoon,hurricane,wheel,whirl,tornado,vortex,spiral,saw,disk,rotate</d:tags><d:license>cc-by</d:license><d:slug>snup5k</d:slug></metadata></g>
  <g id="id-0.24862545556576987-2">
    
<!-- Generator: Adobe Illustrator 21.0.0, SVG Export Plug-In . SVG Version: 6.00 Build 0)  -->





    <g transform=" translate(192,191.9995) scale(0.8888888888888888)"><g class="ld ld-pulse" style="animation-delay:0s"><g data-icon="">  <use href="#id-0.24862545556576987" x="-50" y="-50"/>
</g></g></g><g transform=" translate(64,63.9995) scale(0.8888888888888888)"><g class="ld ld-pulse" style="animation-delay:-0.25s"><g data-icon="">  <use href="#id-0.24862545556576987" x="-50" y="-50"/>
</g></g></g>
  </g>
</defs>
<g>
  <use href="#id-0.24862545556576987-2" x="0" y="0"/>
  <use href="#id-0.24862545556576987-2" x="-256" y="0"/>
  <animateTransform attributeName="transform" type="translate" repeatCount="indefinite" dur="4s"
  keyTimes="0;1" values="0;256"/>
</g>
</svg>