<?xml version="1.0" encoding="utf-8"?>
<svg xmlns="http://www.w3.org/2000/svg" xmlns:xlink="http://www.w3.org/1999/xlink" viewBox="0 0 256 256" width="256px" height="256px">
<style type="text/css">@keyframes ld-pulse
{
  0% {
    animation-timing-function: cubic-bezier(0.0413,0.3905,0.5086,0.6902);
    transform: scale(1);
  }
  24.3% {
    animation-timing-function: cubic-bezier(0.2248,0.6332,0.5246,1);
    transform: scale(0.8458);
  }
  55% {
    animation-timing-function: cubic-bezier(0.3036,0.3393,0.655,0.6144);
    transform: scale(0.8022);
  }
  70.2% {
    animation-timing-function: cubic-bezier(0.4464,0.2728,0.5562,0.7288);
    transform: scale(0.8294);
  }
  82.3% {
    animation-timing-function: cubic-bezier(0.6826,0.1845,1,0.7358);
    transform: scale(0.869);
  }
  100% {
    transform: scale(1);
  }
}
.ld.ld-pulse {
  animation: ld-pulse 0.5s infinite;
}</style>
<rect x="0" y="0" width="256" height="256" fill="#eee"/>
<defs>
  <g id="id-0.317412512516948"><!--Generator: Adobe Illustrator 21.0.0, SVG Export Plug-In . SVG Version: 6.00 Build 0)--><g><g><path style="fill:#f2f2f2;stroke:#000;stroke-width:3;stroke-miterlimit:10" d="M78.5,77.9c2.1-1.2,2.8-4,1.5-6.3l-7.7,4.3 C73.7,78.2,76.4,79.1,78.5,77.9z"/><path style="fill:#f2f2f2;stroke:#000;stroke-width:3;stroke-miterlimit:10" d="M21.4,77.2c2.1,1.2,4.9,0.4,6.2-1.8L20,70.9 C18.7,73.2,19.3,76,21.4,77.2z"/><g><path style="fill:#d9b621;stroke:#000;stroke-width:3;stroke-miterlimit:10" d="M77.1,41.5c-4.5-7.8-14.5-10.5-22.4-6 s-10.5,14.5-6,22.4l2.3,3c2.9,3.8,5.1,8.1,6.6,12.6c0.3,1.1,1.1,2.2,1.3,3.9c0.3,2.6-0.7,3.7-0.3,4.3c1.2,1.4,8.8-3.5,18.2-9 c8.5-4.8,15.7-8.5,15.1-10.3c-0.2-0.6-1.2-0.5-2.9-1.7c-1.7-1.2-2.4-2.8-3.3-3.8c-3-3.5-5.4-7.4-7.1-11.6L77.1,41.5z"/><path style="fill:none;stroke:#000;stroke-width:3;stroke-miterlimit:10" d="M52.1,31.6c1.2-0.7,3.2,0.6,4.5,2.9l-4.4,2.5 C50.9,34.6,50.9,32.2,52.1,31.6z"/><path style="fill:#d9b621;stroke:#000;stroke-width:3;stroke-miterlimit:10" d="M65.2,33.5c-1.4,3.2-3.7,6-6.9,7.8 c-3.3,1.9-7,2.5-10.5,2.1"/><path style="fill:#d9b621;stroke:#000;stroke-width:3;stroke-miterlimit:10" d="M72.8,36.9c-2.6,3.9-6.5,7.6-11.4,10.4 c-5,2.9-10.2,4.4-15,4.7"/><path style="fill:#d9b621;stroke:#000;stroke-width:3;stroke-miterlimit:10" d="M82.3,53.3c-2.7,3.9-6.7,7.7-11.7,10.6 c-5.1,3-10.5,4.6-15.3,4.9"/><path style="fill:#d9b621;stroke:#000;stroke-width:3;stroke-miterlimit:10" d="M85.8,56.7c-2.9,4.1-7.2,8-12.6,11.1 c-5.4,3.1-11.1,4.9-16.2,5.4"/><path style="fill:#fcee21;stroke:#000;stroke-width:3;stroke-miterlimit:10" d="M52.2,57.7c4.5-7.8,1.8-17.8-6-22.4 s-17.9-1.9-22.4,6l-1.5,3.5c-1.9,4.4-4.4,8.5-7.7,12c-0.7,0.8-1.4,2.1-2.8,3.1c-2.1,1.5-3.6,1.2-3.8,1.9 c-0.6,1.7,7.4,5.8,16.9,11.3c8.4,4.9,15.2,9.4,16.5,8c0.4-0.5-0.2-1.2,0-3.3c0.2-2.1,1.2-3.4,1.7-4.8c1.5-4.3,3.7-8.4,6.5-12 L52.2,57.7z"/><path style="fill:none;stroke:#000;stroke-width:3;stroke-miterlimit:10" d="M48.3,31.1c1.2,0.7,1.1,3.1-0.2,5.4l-4.3-2.6 C45.1,31.6,47.1,30.4,48.3,31.1z"/><path style="fill:#fcee21;stroke:#000;stroke-width:3;stroke-miterlimit:10" d="M53.2,43.4c-3.4,0.4-7-0.2-10.2-2.1 c-3.3-1.9-5.7-4.8-7-8"/><path style="fill:#fcee21;stroke:#000;stroke-width:3;stroke-miterlimit:10" d="M54.1,51.7c-4.7-0.3-9.8-1.9-14.7-4.7 c-5-2.9-9-6.7-11.6-10.6"/><path style="fill:#fcee21;stroke:#000;stroke-width:3;stroke-miterlimit:10" d="M44.6,68.1c-4.8-0.4-10-2-15-4.9 c-5.1-3-9.2-6.8-11.9-10.8"/></g><path style="fill:#fcee21;stroke:#000;stroke-width:3;stroke-miterlimit:10" d="M43.4,72.9c-5-0.5-10.5-2.3-15.9-5.4 c-5.4-3.1-9.8-7.1-12.8-11.3"/></g><g><path style="fill:#f15a24;stroke:#000;stroke-width:3;stroke-miterlimit:10" d="M46.4,58.4c-2.1-7.1-6.8-3.1-7.9-2.1 c-0.1,0.1-0.2,0-0.2-0.1c-0.3-2.6-0.5-6.9,1-11.9c1.2-4,3-7,4.4-8.8c2.7,0.7,5.5,1.4,8.2,2.2c0,0-4.8,18.1-5.5,20.7 C46.6,58.5,46.5,58.5,46.4,58.4z"/><path style="fill:#f15a24;stroke:#000;stroke-width:3;stroke-miterlimit:10" d="M62,55.5c-0.5-7.4,5.3-5.3,6.7-4.7 c0.1,0,0.2-0.1,0.1-0.1c-0.6-2.5-1.9-6.6-5.1-10.8c-2.5-3.3-5.2-5.5-7.2-6.8c-2.3,1.6-4.6,3.2-6.9,4.8c0,0,10.7,15.4,12.3,17.6 C61.9,55.6,62,55.6,62,55.5z"/><g><path style="fill:#f15a24;stroke:#000;stroke-width:3;stroke-miterlimit:10" d="M67.4,18.1c2.2-0.3,4.3,1.2,4.6,3.4l1.4,9.8 c0.3,2.2-1.2,4.3-3.4,4.6c0,0-14.1,0.2-14.5-2l-1.4-9.8C53.7,21.9,67.4,18.1,67.4,18.1z"/><path style="fill:#f15a24;stroke:#000;stroke-width:3;stroke-miterlimit:10" d="M27.5,24c-2.2,0.3-3.8,2.4-3.4,4.6l1.5,9.8 c0.3,2.2,2.4,3.8,4.6,3.4c0,0,13.6-3.9,13.3-6.1L41.9,26C41.6,23.8,27.5,24,27.5,24z"/><ellipse transform="matrix(0.5483 -0.8363 0.8363 0.5483 -3.1305 54.1863)" style="fill:#f15a24;stroke:#000;stroke-width:3;stroke-miterlimit:10" cx="48.6" cy="30" rx="7.7" ry="7.9"/><path style="fill:none;stroke:#000;stroke-width:3;stroke-miterlimit:10" d="M26.9,40.8c4.9-4.3,10.2-5.9,15.9-5.1"/><path style="fill:none;stroke:#000;stroke-width:3;stroke-miterlimit:10" d="M56,33.8c6.4-1.7,11.8-1.4,16.3,0.8"/></g></g></g><metadata xmlns:d="https://loading.io/stock/"><d:name>bell</d:name><d:tags>bell,christmas</d:tags><d:license>cc-by</d:license><d:slug>631wgn</d:slug></metadata></g>
  <g id="id-0.317412512516948-2">
    
<!-- Generator: Adobe Illustrator 21.0.0, SVG Export Plug-In . SVG Version: 6.00 Build 0)  -->






<polygon fill="#B3B4B4" points="95.261,98.953 73.345,96.2 74.22,90.577 94.461,93.724 "/>
<path fill="#B3B4B4" d="M38.105,224.49c-0.05,0-0.099,0-0.149-0.001c-2.943-0.039-5.694-1.221-7.748-3.33
	c-4.239-4.352-4.147-11.342,0.205-15.581c2.108-2.054,4.884-3.157,7.833-3.124c2.943,0.039,5.694,1.222,7.748,3.33
	c4.239,4.352,4.147,11.342-0.205,15.58C43.716,223.383,40.992,224.49,38.105,224.49z M38.098,207.494
	c-1.567,0-3.044,0.6-4.169,1.695c-2.361,2.3-2.411,6.092-0.111,8.453c1.114,1.144,2.607,1.785,4.204,1.806
	c1.609,0.014,3.106-0.581,4.25-1.695c2.361-2.3,2.411-6.092,0.112-8.453l0,0c-1.114-1.144-2.607-1.785-4.204-1.806
	C38.152,207.494,38.125,207.494,38.098,207.494z"/>
<ellipse transform="matrix(0.7249 -0.6888 0.6888 0.7249 31.7828 174.5914)" fill="#B3B4B4" cx="234.5" cy="47.5" rx="4.4" ry="4.4"/>
<path fill="#B3B4B4" d="M156.299,159.176l-1.714-5.053c3.929-1.333,6.042-5.614,4.709-9.543c-0.645-1.903-1.994-3.442-3.796-4.331
	c-1.803-0.89-3.844-1.024-5.747-0.378l-1.714-5.053c3.254-1.103,6.741-0.874,9.822,0.646c3.08,1.52,5.385,4.149,6.488,7.402
	C166.625,149.582,163.015,156.898,156.299,159.176z"/>
<ellipse transform="matrix(0.7249 -0.6888 0.6888 0.7249 -74.7837 111.7244)" fill="#B3B4B4" cx="102.5" cy="149.5" rx="4.4" ry="4.4"/>
<polygon fill="#B3B4B4" points="231.486,249.178 247.065,235.877 252.857,238.786 235.18,253.505 "/>
<polygon fill="#B3B4B4" points="115.367,21.954 103.961,43.014 100.239,36.891 110.431,19.123 "/>
<path fill="#B3B4B4" d="M222.104,130.57c-0.044,0-0.088,0-0.132-0.001c-2.596-0.034-5.024-1.077-6.835-2.937
	c-3.74-3.84-3.659-10.006,0.181-13.746c1.86-1.812,4.308-2.785,6.91-2.756c2.596,0.034,5.024,1.078,6.835,2.938
	c3.74,3.839,3.659,10.006-0.181,13.745C227.054,129.594,224.651,130.57,222.104,130.57z M222.099,115.576
	c-1.382,0-2.686,0.53-3.678,1.496c-2.083,2.029-2.127,5.374-0.098,7.458c0.983,1.009,2.3,1.575,3.708,1.594
	c1.42,0.013,2.74-0.512,3.749-1.495c2.083-2.029,2.127-5.374,0.098-7.457l0,0c-0.983-1.009-2.3-1.575-3.708-1.594
	C222.146,115.576,222.122,115.576,222.099,115.576z"/>
<path fill="#B3B4B4" d="M184.509,10.022l-4.015,1.058c-0.822-3.122-4.032-4.993-7.154-4.17c-1.512,0.398-2.779,1.362-3.567,2.713
	c-0.788,1.352-1.003,2.929-0.603,4.44l-4.015,1.058c-0.681-2.585-0.315-5.28,1.031-7.589c1.346-2.309,3.511-3.956,6.096-4.637
	C177.619,1.489,183.103,4.687,184.509,10.022z"/>


    <g transform="matrix(0.9912 0.1325 -0.1325 0.9912 30.542 -14.083) translate(121.067,222.398) scale(0.6786666666666666)"><g class="ld ld-pulse" style="animation-delay:0s"><g data-icon="">  <use xlink:href="#id-0.317412512516948" x="-50" y="-50"/>
</g></g></g><g transform="matrix(-0.0456 0.999 -0.999 -0.0456 243.7065 -82.5047) translate(161.268,75.17099999999999) scale(0.47706666666666664)"><g class="ld ld-pulse" style="animation-delay:-0.1s"><g data-icon="">  <use xlink:href="#id-0.317412512516948" x="-50" y="-50"/>
</g></g></g><g transform="matrix(0.5905 -0.8071 0.8071 0.5905 -67.6584 252.8308) translate(215.293,193.0815) scale(0.5214666666666667)"><g class="ld ld-pulse" style="animation-delay:-0.2s"><g data-icon="">  <use xlink:href="#id-0.317412512516948" x="-50" y="-50"/>
</g></g></g><g transform="matrix(-0.4749 -0.8801 0.8801 -0.4749 38.8277 99.7848) translate(49.185,38.308499999999995) scale(0.5980444444444444)"><g class="ld ld-pulse" style="animation-delay:-0.3s"><g data-icon="">  <use xlink:href="#id-0.317412512516948" x="-50" y="-50"/>
</g></g></g><g transform="matrix(0.7381 -0.6747 0.6747 0.7381 -85.9069 63.1885) translate(38.434,142.243) scale(0.607688888888889)"><g class="ld ld-pulse" style="animation-delay:-0.4s"><g data-icon="">  <use xlink:href="#id-0.317412512516948" x="-50" y="-50"/>
</g></g></g>
  </g>
</defs>
<g>
  <use xlink:href="#id-0.317412512516948-2" x="0" y="0"/>
  <use xlink:href="#id-0.317412512516948-2" x="-256" y="0"/>
  <animateTransform attributeName="transform" type="translate" repeatCount="indefinite" dur="4s"
  keyTimes="0;1" values="0;256"/>
</g>
</svg>