<?xml version="1.0" encoding="utf-8"?>
<svg xmlns="http://www.w3.org/2000/svg" xmlns:xlink="http://www.w3.org/1999/xlink" viewBox="0 0 256 256" width="256px" height="256px">
<style type="text/css">@keyframes ld-pulse
{
  0% {
    animation-timing-function: cubic-bezier(0.0413,0.3905,0.5086,0.6902);
    transform: scale(1);
  }
  24.3% {
    animation-timing-function: cubic-bezier(0.2248,0.6332,0.5246,1);
    transform: scale(0.8458);
  }
  55% {
    animation-timing-function: cubic-bezier(0.3036,0.3393,0.655,0.6144);
    transform: scale(0.8022);
  }
  70.2% {
    animation-timing-function: cubic-bezier(0.4464,0.2728,0.5562,0.7288);
    transform: scale(0.8294);
  }
  82.3% {
    animation-timing-function: cubic-bezier(0.6826,0.1845,1,0.7358);
    transform: scale(0.869);
  }
  100% {
    transform: scale(1);
  }
}
.ld.ld-pulse {
  animation: ld-pulse 0.5s infinite;
}</style>
<rect x="0" y="0" width="256" height="256" fill="#eee"/>
<defs>
  <g id="id-0.15867301910039466"><!--Generator: Adobe Illustrator 21.0.0, SVG Export Plug-In . SVG Version: 6.00 Build 0)--><ellipse transform="matrix(0.8404 -0.5419 0.5419 0.8404 -7.6469 45.9495)" style="fill:#603813;stroke:#000;stroke-width:3;stroke-linecap:round;stroke-miterlimit:10" cx="74.2" cy="36" rx="7.9" ry="4.8"/><ellipse transform="matrix(0.5419 -0.8404 0.8404 0.5419 -17.6341 37.7377)" style="fill:#603813;stroke:#000;stroke-width:3;stroke-linecap:round;stroke-miterlimit:10" cx="25.8" cy="35" rx="4.8" ry="7.9"/><path style="fill:#8c6239" d="M53.1,18.4l6,5.7c0.5,0.5,1.4,0.3,1.6-0.4l1.5-4.1c0.1-0.4,0-0.8-0.2-1.1l-7.3-7 c-0.4-0.4-0.4-1,0-1.4l0.2-0.2c0.4-0.4,1-0.4,1.4,0l6,5.7c0.5,0.5,1.4,0.3,1.6-0.4l0.7-1.9c0.2-0.5,0.8-0.8,1.3-0.6v0 c0.5,0.2,0.8,0.8,0.6,1.3l-0.7,1.9c-0.3,0.7,0.3,1.4,1,1.4l8.2-0.3c0.6,0,1,0.4,1,1l0,0.3c0,0.6-0.4,1-1,1l-10,0.4 c-0.4,0-0.8,0.3-0.9,0.6l-1.5,4.1c-0.3,0.7,0.3,1.4,1,1.4l8.2-0.3c0.6,0,1,0.4,1,1l0,0.3c0,0.6-0.4,1-1,1l-10,0.4 c-0.4,0-0.8,0.3-0.9,0.6l-1.5,4.1c-0.2,0.5-0.8,0.8-1.3,0.6l0,0c-0.5-0.2-0.8-0.8-0.6-1.3l1.5-4.1c0.1-0.4,0-0.8-0.2-1.1l-7.3-7 c-0.4-0.4-0.4-1,0-1.4l0.2-0.2C52.1,18,52.7,18,53.1,18.4z"/><path style="fill:#8c6239" d="M46.7,18.4l-6,5.7c-0.5,0.5-1.4,0.3-1.6-0.4l-1.5-4.1c-0.1-0.4,0-0.8,0.2-1.1l7.3-7 c0.4-0.4,0.4-1,0-1.4l-0.2-0.2c-0.4-0.4-1-0.4-1.4,0l-6,5.7c-0.5,0.5-1.4,0.3-1.6-0.4l-0.7-1.9c-0.2-0.5-0.8-0.8-1.3-0.6v0 c-0.5,0.2-0.8,0.8-0.6,1.3l0.7,1.9c0.3,0.7-0.3,1.4-1,1.4l-8.2-0.3c-0.6,0-1,0.4-1,1l0,0.3c0,0.6,0.4,1,1,1l10,0.4 c0.4,0,0.8,0.3,0.9,0.6l1.5,4.1c0.3,0.7-0.3,1.4-1,1.4l-8.2-0.3c-0.6,0-1,0.4-1,1l0,0.3c0,0.6,0.4,1,1,1l10,0.4 c0.4,0,0.8,0.3,0.9,0.6l1.5,4.1c0.2,0.5,0.8,0.8,1.3,0.6l0,0c0.5-0.2,0.8-0.8,0.6-1.3l-1.5-4.1c-0.1-0.4,0-0.8,0.2-1.1l7.3-7 c0.4-0.4,0.4-1,0-1.4l-0.2-0.2C47.7,18,47.1,18,46.7,18.4z"/><g><path style="fill:#c69c6d;stroke:#000;stroke-width:3;stroke-linecap:round;stroke-miterlimit:10" d="M73.7,60.5 C73.6,44.2,62.6,31,49.1,31c-13.6,0-24.6,13.2-24.7,29.6C42.3,56,58.9,55.5,73.7,60.5z"/><path style="fill:#fff;stroke:#000;stroke-width:3;stroke-linecap:round;stroke-miterlimit:10" d="M49.1,90.4 c13.6,0,24.7-13.3,24.7-29.7c0-0.1,0-0.2,0-0.2c-14.9-5-31.5-4.5-49.3,0.1c0,0,0,0.1,0,0.1C24.4,77.1,35.5,90.4,49.1,90.4z"/></g><path style="stroke:#000;stroke-width:2;stroke-linecap:round;stroke-miterlimit:10" d="M56.1,52.8c-1.4,0-2.5-1.1-2.5-2.5 c0-1.4,1.2-2.5,2.6-2.6c1.4,0,2.5,1.1,2.5,2.5C58.6,51.6,57.5,52.8,56.1,52.8z"/><ellipse style="fill:#c69c6d;stroke:#000;stroke-width:3;stroke-linecap:round;stroke-miterlimit:10" cx="49.2" cy="68.3" rx="5.9" ry="3.4"/><path style="stroke:#000;stroke-width:2;stroke-linecap:round;stroke-miterlimit:10" d="M40.8,48.3c1.1-0.9,2.7-0.7,3.6,0.3 c0.9,1.1,0.7,2.7-0.4,3.6c-1.1,0.9-2.7,0.7-3.6-0.3C39.5,50.8,39.7,49.2,40.8,48.3z"/><metadata xmlns:d="https://loading.io/stock/"><d:name>reindeer</d:name><d:tags>reindeer, christmas, animal, santa, deer</d:tags><d:license>cc-by</d:license><d:slug>13sv50</d:slug></metadata></g>
  <g id="id-0.15867301910039466-2">
    
<!-- Generator: Adobe Illustrator 21.0.0, SVG Export Plug-In . SVG Version: 6.00 Build 0)  -->






<ellipse transform="matrix(0.7249 -0.6888 0.6888 0.7249 -96.2592 93.9447)" fill="#B3B4B4" cx="69.5" cy="167.5" rx="5.5" ry="5.5"/>
<ellipse transform="matrix(0.7249 -0.6888 0.6888 0.7249 15.9378 184.9119)" fill="#B3B4B4" cx="239.5" cy="72.5" rx="5.5" ry="5.5"/>
<g>
	
		<line fill="none" stroke="#B3B4B5" stroke-width="6.3333" stroke-linecap="round" stroke-linejoin="round" stroke-miterlimit="10" x1="192" y1="125.5" x2="211" y2="125.5"/>
	
		<line fill="none" stroke="#B3B4B5" stroke-width="6.3333" stroke-linecap="round" stroke-linejoin="round" stroke-miterlimit="10" x1="201.5" y1="135" x2="201.5" y2="116"/>
</g>
<g>
	
		<line fill="none" stroke="#B3B4B5" stroke-width="4" stroke-linecap="round" stroke-linejoin="round" stroke-miterlimit="10" x1="186" y1="244" x2="198" y2="244"/>
	
		<line fill="none" stroke="#B3B4B5" stroke-width="4" stroke-linecap="round" stroke-linejoin="round" stroke-miterlimit="10" x1="192" y1="250" x2="192" y2="238"/>
</g>
<g>
	
		<line fill="none" stroke="#B3B4B5" stroke-width="7.3333" stroke-linecap="round" stroke-linejoin="round" stroke-miterlimit="10" x1="9.5" y1="46.5" x2="31.5" y2="46.5"/>
	
		<line fill="none" stroke="#B3B4B5" stroke-width="7.3333" stroke-linecap="round" stroke-linejoin="round" stroke-miterlimit="10" x1="20.5" y1="57.5" x2="20.5" y2="35.5"/>
</g>
<ellipse transform="matrix(0.4903 -0.8715 0.8715 0.4903 7.2038 156.6452)" fill="#B3B4B4" cx="137.531" cy="72.163" rx="6.525" ry="6.525"/>
<ellipse transform="matrix(0.7249 -0.6888 0.6888 0.7249 -109.6566 158.3945)" fill="#B3B4B4" cx="143.5" cy="216.5" rx="5.5" ry="5.5"/>
<ellipse transform="matrix(0.7249 -0.6888 0.6888 0.7249 0.2332 72.5839)" fill="#B3B4B4" cx="91" cy="36" rx="4" ry="4"/>
<ellipse transform="matrix(0.7249 -0.6888 0.6888 0.7249 -34.1432 212.4976)" fill="#B3B4B4" cx="249" cy="149" rx="4" ry="4"/>
<ellipse transform="matrix(0.7249 -0.6888 0.6888 0.7249 -163.3891 70.8358)" fill="#B3B4B4" cx="7" cy="240" rx="4" ry="4"/>


    <g transform="matrix(0.9912 0.1325 -0.1325 0.9912 19.5946 -16.4002) translate(133,138.9995) scale(0.6222222222222222)"><g class="ld ld-pulse" style="animation-delay:0s"><g data-icon="">  <use href="#id-0.15867301910039466" x="-50" y="-50"/>
</g></g></g><g transform="matrix(0.8102 -0.5862 0.5862 0.8102 21.907 110.1873) translate(181.074,21.271) scale(0.3916444444444444)"><g class="ld ld-pulse" style="animation-delay:-0.1s"><g data-icon="">  <use href="#id-0.15867301910039466" x="-50" y="-50"/>
</g></g></g><g transform="matrix(0.7153 0.6988 -0.6988 0.7153 199.1367 -101.9661) translate(224.712,193.41799999999998) scale(0.3647555555555556)"><g class="ld ld-pulse" style="animation-delay:-0.2s"><g data-icon="">  <use href="#id-0.15867301910039466" x="-50" y="-50"/>
</g></g></g><g transform="matrix(0.7812 0.6242 -0.6242 0.7812 76.8196 -5.7423) translate(46.602000000000004,106.7265) scale(0.3879111111111111)"><g class="ld ld-pulse" style="animation-delay:-0.3s"><g data-icon="">  <use href="#id-0.15867301910039466" x="-50" y="-50"/>
</g></g></g><g transform="matrix(0.7381 -0.6747 0.6747 0.7381 -136.8065 106.8361) translate(69.2025,229.6265) scale(0.5011777777777778)"><g class="ld ld-pulse" style="animation-delay:-0.4s"><g data-icon="">  <use href="#id-0.15867301910039466" x="-50" y="-50"/>
</g></g></g>
  </g>
</defs>
<g>
  <use href="#id-0.15867301910039466-2" x="0" y="0"/>
  <use href="#id-0.15867301910039466-2" x="-256" y="0"/>
  <animateTransform attributeName="transform" type="translate" repeatCount="indefinite" dur="4s"
  keyTimes="0;1" values="0;256"/>
</g>
</svg>