<?xml version="1.0" encoding="utf-8"?>
<svg xmlns="http://www.w3.org/2000/svg" xmlns:xlink="http://www.w3.org/1999/xlink" viewBox="0 0 256 256" width="256px" height="256px">
<style type="text/css">@keyframes ld-pulse
{
  0% {
    animation-timing-function: cubic-bezier(0.0413,0.3905,0.5086,0.6902);
    transform: scale(1);
  }
  24.3% {
    animation-timing-function: cubic-bezier(0.2248,0.6332,0.5246,1);
    transform: scale(0.8458);
  }
  55% {
    animation-timing-function: cubic-bezier(0.3036,0.3393,0.655,0.6144);
    transform: scale(0.8022);
  }
  70.2% {
    animation-timing-function: cubic-bezier(0.4464,0.2728,0.5562,0.7288);
    transform: scale(0.8294);
  }
  82.3% {
    animation-timing-function: cubic-bezier(0.6826,0.1845,1,0.7358);
    transform: scale(0.869);
  }
  100% {
    transform: scale(1);
  }
}
.ld.ld-pulse {
  animation: ld-pulse 0.5s infinite;
}</style>
<rect x="0" y="0" width="256" height="256" fill="#eee"/>
<defs>
  <g id="id-0.28258463596986716"><!--Generator: Adobe Illustrator 21.0.0, SVG Export Plug-In . SVG Version: 6.00 Build 0)--><g><g><path style="fill:#d4145a;stroke:#000;stroke-width:3;stroke-linecap:round;stroke-linejoin:round;stroke-miterlimit:10" d=" M58.6,15.7c1,0.2,1.8,1.4,1.7,2.3c0,1.4-1.8,2.4-2.5,2.9c-1.9,1.4-3.3,5-1.4,14.6c-7.1-1.9-14.2-3.9-21.3-5.8c1-0.8,4.5-4,5.4-9.5 c0.3-1.8,0.3-3.4,0.1-4.8c-0.3-2.4,3.1-3.3,3.9-1c0,0,0,0.1,0,0.1c0.2,0.6,0.4,2.5,0.8,2.8c0.8,0.5,3.1-3.9,5.2-3.5 c0.8,0.1,1.3,0.9,1.5,1.2c1.2,1.7,0.1,3.6,0.8,4C53.8,19.5,56.3,15.1,58.6,15.7z"/><path style="fill:#d4145a;stroke:#000;stroke-width:3;stroke-linecap:round;stroke-linejoin:round;stroke-miterlimit:10" d=" M69,57.5c0.7,2.7,4.2,17.4-3.9,25c-4.2,3.9-11.1,3.9-24.8,3.6c-14.7-0.3-22.1-0.5-26.3-5.1c-6.6-7.3-3.3-19.7-2.3-23.5 c2.6-9.9,11.9-28.6,28.6-28.6C56.7,28.9,66.4,46.5,69,57.5z"/><path style="fill:#8cc63f;stroke:#000;stroke-width:3;stroke-linecap:round;stroke-linejoin:round;stroke-miterlimit:10" d=" M52.6,36.8l-16.1-3.4c-1.8-0.4-3-2.2-2.6-4l0.1-0.6c0.4-1.8,2.2-3,4-2.6l16.1,3.4c1.8,0.4,3,2.2,2.6,4l-0.1,0.6 C56.2,36.1,54.4,37.2,52.6,36.8z"/></g><g><g><line style="fill:none;stroke:#000;stroke-linecap:round;stroke-miterlimit:10" x1="40.3" y1="44.1" x2="40.3" y2="57.4"/><line style="fill:none;stroke:#000;stroke-linecap:round;stroke-miterlimit:10" x1="37.1" y1="45.8" x2="40.3" y2="48.8"/><line style="fill:none;stroke:#000;stroke-linecap:round;stroke-miterlimit:10" x1="43.4" y1="45.8" x2="40.3" y2="48.8"/></g><g><line style="fill:none;stroke:#000;stroke-linecap:round;stroke-miterlimit:10" x1="35.4" y1="48.4" x2="40.3" y2="53.5"/><line style="fill:none;stroke:#000;stroke-linecap:round;stroke-miterlimit:10" x1="34.8" y1="50.2" x2="37.2" y2="50.3"/><line style="fill:none;stroke:#000;stroke-linecap:round;stroke-miterlimit:10" x1="37.3" y1="48" x2="37.2" y2="50.3"/></g><g><line style="fill:none;stroke:#000;stroke-linecap:round;stroke-miterlimit:10" x1="45.3" y1="48.4" x2="40.3" y2="53.5"/><line style="fill:none;stroke:#000;stroke-linecap:round;stroke-miterlimit:10" x1="45.8" y1="50.2" x2="43.5" y2="50.3"/><line style="fill:none;stroke:#000;stroke-linecap:round;stroke-miterlimit:10" x1="43.4" y1="48" x2="43.5" y2="50.3"/></g><g><line style="fill:none;stroke:#000;stroke-linecap:round;stroke-miterlimit:10" x1="25" y1="58.3" x2="39" y2="58.3"/><line style="fill:none;stroke:#000;stroke-linecap:round;stroke-miterlimit:10" x1="26.8" y1="61.3" x2="30" y2="58.3"/><line style="fill:none;stroke:#000;stroke-linecap:round;stroke-miterlimit:10" x1="26.8" y1="55.3" x2="30" y2="58.3"/></g><g><line style="fill:none;stroke:#000;stroke-linecap:round;stroke-miterlimit:10" x1="29.6" y1="63" x2="35" y2="58.3"/><line style="fill:none;stroke:#000;stroke-linecap:round;stroke-miterlimit:10" x1="31.5" y1="63.5" x2="31.6" y2="61.3"/><line style="fill:none;stroke:#000;stroke-linecap:round;stroke-miterlimit:10" x1="29.2" y1="61.2" x2="31.6" y2="61.3"/></g><g><line style="fill:none;stroke:#000;stroke-linecap:round;stroke-miterlimit:10" x1="29.6" y1="53.6" x2="35" y2="58.3"/><line style="fill:none;stroke:#000;stroke-linecap:round;stroke-miterlimit:10" x1="31.5" y1="53" x2="31.6" y2="55.3"/><line style="fill:none;stroke:#000;stroke-linecap:round;stroke-miterlimit:10" x1="29.2" y1="55.4" x2="31.6" y2="55.3"/></g><g><line style="fill:none;stroke:#000;stroke-linecap:round;stroke-miterlimit:10" x1="40" y1="72.8" x2="40" y2="59.5"/><line style="fill:none;stroke:#000;stroke-linecap:round;stroke-miterlimit:10" x1="43.2" y1="71.1" x2="40" y2="68.1"/><line style="fill:none;stroke:#000;stroke-linecap:round;stroke-miterlimit:10" x1="36.8" y1="71.1" x2="40" y2="68.1"/></g><g><line style="fill:none;stroke:#000;stroke-linecap:round;stroke-miterlimit:10" x1="44.9" y1="68.5" x2="40" y2="63.4"/><line style="fill:none;stroke:#000;stroke-linecap:round;stroke-miterlimit:10" x1="45.5" y1="66.7" x2="43.1" y2="66.6"/><line style="fill:none;stroke:#000;stroke-linecap:round;stroke-miterlimit:10" x1="43" y1="68.9" x2="43.1" y2="66.6"/></g><g><line style="fill:none;stroke:#000;stroke-linecap:round;stroke-miterlimit:10" x1="35" y1="68.5" x2="40" y2="63.4"/><line style="fill:none;stroke:#000;stroke-linecap:round;stroke-miterlimit:10" x1="34.4" y1="66.7" x2="36.8" y2="66.6"/><line style="fill:none;stroke:#000;stroke-linecap:round;stroke-miterlimit:10" x1="36.9" y1="68.9" x2="36.8" y2="66.6"/></g><g><line style="fill:none;stroke:#000;stroke-linecap:round;stroke-miterlimit:10" x1="55.3" y1="58.6" x2="41.2" y2="58.6"/><line style="fill:none;stroke:#000;stroke-linecap:round;stroke-miterlimit:10" x1="53.5" y1="55.6" x2="50.3" y2="58.6"/><line style="fill:none;stroke:#000;stroke-linecap:round;stroke-miterlimit:10" x1="53.5" y1="61.6" x2="50.3" y2="58.6"/></g><g><line style="fill:none;stroke:#000;stroke-linecap:round;stroke-miterlimit:10" x1="50.7" y1="53.9" x2="45.3" y2="58.6"/><line style="fill:none;stroke:#000;stroke-linecap:round;stroke-miterlimit:10" x1="48.8" y1="53.4" x2="48.7" y2="55.6"/><line style="fill:none;stroke:#000;stroke-linecap:round;stroke-miterlimit:10" x1="51.1" y1="55.7" x2="48.7" y2="55.6"/></g><g><line style="fill:none;stroke:#000;stroke-linecap:round;stroke-miterlimit:10" x1="50.7" y1="63.3" x2="45.3" y2="58.6"/><line style="fill:none;stroke:#000;stroke-linecap:round;stroke-miterlimit:10" x1="48.8" y1="63.9" x2="48.7" y2="61.6"/><line style="fill:none;stroke:#000;stroke-linecap:round;stroke-miterlimit:10" x1="51.1" y1="61.5" x2="48.7" y2="61.6"/></g></g></g><g><rect x="49.9" y="57" style="fill:#8cc63f;stroke:#000;stroke-width:3;stroke-linecap:round;stroke-linejoin:round;stroke-miterlimit:10" width="39.5" height="6.2"/><rect x="54" y="63.7" style="fill:#8cc63f;stroke:#000;stroke-width:3;stroke-linecap:round;stroke-linejoin:round;stroke-miterlimit:10" width="30.3" height="27.9"/><g><path style="fill:#f15a24;stroke:#000;stroke-width:3;stroke-miterlimit:10" d="M74.6,56.7c0-2.6-2.2-4.6-4.9-4.6 s-4.9,2.1-4.9,4.6c0,0.1,0,0.2,0,0.3h9.8C74.6,56.9,74.6,56.8,74.6,56.7z"/></g><path style="fill:#f15a24;stroke:#000;stroke-width:3;stroke-linejoin:round;stroke-miterlimit:10" d="M83.3,44.1 c-3.5-0.4-6,1.7-6.6,2.2c-2.7,2.2-4.4,6.3-3.1,8c1.8,2.3,7.7-0.1,8.9-0.5c0,0,0.1,0,0.1-0.1c3.8-1.6,7-2.9,7.2-4.6 C90.2,47.2,86.8,44.5,83.3,44.1z"/><path style="fill:#f15a24;stroke:#000;stroke-width:3;stroke-linejoin:round;stroke-miterlimit:10" d="M54.3,43.9 c3.5-0.4,6,1.7,6.6,2.2c2.7,2.2,4.4,6.3,3.1,8c-1.8,2.3-7.7-0.1-8.9-0.5c0,0-0.1,0-0.1-0.1c-3.8-1.6-7-2.9-7.2-4.6 C47.5,46.9,50.8,44.3,54.3,43.9z"/><path style="fill:#f15a24;stroke:#000;stroke-width:3;stroke-linecap:round;stroke-miterlimit:10" d="M74.6,54.6 c0.3-0.7,1.8-3.6,5.3-5c2.3-0.9,4.3-0.8,5.3-0.6"/><path style="fill:#f15a24;stroke:#000;stroke-width:3;stroke-linecap:round;stroke-miterlimit:10" d="M63.7,54.3 c-0.3-0.7-1.8-3.6-5.3-5c-2.3-0.9-4.3-0.8-5.3-0.6"/><rect x="64.5" y="57" style="fill:#009245;stroke:#000;stroke-width:3;stroke-miterlimit:10" width="9.9" height="6.2"/><rect x="66.9" y="63.2" style="fill:#009245;stroke:#000;stroke-width:3;stroke-miterlimit:10" width="5" height="28.4"/></g><metadata xmlns:d="https://loading.io/stock/"><d:name>christmas present</d:name><d:tags>christmas present, gift, party, santa, happiness</d:tags><d:license>cc-by</d:license><d:slug>uit5ad</d:slug></metadata></g>
  <g id="id-0.28258463596986716-2">
    
<!-- Generator: Adobe Illustrator 21.0.0, SVG Export Plug-In . SVG Version: 6.00 Build 0)  -->






<polygon fill="#B3B4B4" points="98,100 70.606,96.559 71.699,89.53 97,93.464 "/>
<path fill="#B3B4B4" d="M38.106,227.244c-0.062,0-0.124,0-0.187-0.001c-3.679-0.049-7.118-1.527-9.685-4.162
	c-5.299-5.44-5.184-14.177,0.257-19.476c2.635-2.567,6.105-3.946,9.791-3.905c3.679,0.049,7.118,1.527,9.685,4.162
	c5.299,5.44,5.184,14.177-0.257,19.476C45.119,225.861,41.715,227.244,38.106,227.244z M38.098,205.999
	c-1.958,0-3.805,0.75-5.211,2.119c-2.952,2.875-3.014,7.615-0.139,10.567c1.393,1.43,3.259,2.232,5.254,2.258
	c2.012,0.018,3.882-0.726,5.312-2.119c2.952-2.875,3.014-7.615,0.139-10.566l0,0c-1.393-1.43-3.259-2.232-5.254-2.258
	C38.165,205.999,38.131,205.999,38.098,205.999z"/>
<ellipse transform="matrix(0.7249 -0.6888 0.6888 0.7249 31.7828 174.5914)" fill="#B3B4B4" cx="234.5" cy="47.5" rx="5.5" ry="5.5"/>
<path fill="#B3B4B4" d="M156.241,162.307l-2.142-6.316c4.911-1.666,7.552-7.017,5.886-11.929c-0.807-2.379-2.492-4.302-4.745-5.414
	c-2.254-1.112-4.805-1.28-7.183-0.473l-2.143-6.316c4.067-1.379,8.427-1.092,12.277,0.808c3.851,1.9,6.731,5.186,8.11,9.253
	C169.148,150.314,164.635,159.46,156.241,162.307z"/>
<ellipse transform="matrix(0.7249 -0.6888 0.6888 0.7249 -74.7837 111.7244)" fill="#B3B4B4" cx="102.5" cy="149.5" rx="5.5" ry="5.5"/>
<polygon fill="#B3B4B4" points="228.814,250.299 248.288,233.674 255.528,237.31 233.433,255.709 "/>
<polygon fill="#B3B4B4" points="117.258,19.675 103,46 98.348,38.347 111.088,16.136 "/>
<path fill="#B3B4B4" d="M222.105,133c-0.055,0-0.109,0-0.165-0.001c-3.245-0.043-6.28-1.347-8.544-3.672
	c-4.675-4.8-4.573-12.507,0.226-17.182c2.325-2.265,5.386-3.481,8.638-3.445c3.245,0.043,6.28,1.347,8.544,3.672
	c4.674,4.799,4.573,12.507-0.226,17.182C228.293,131.78,225.289,133,222.105,133z M222.098,114.257c-1.728,0-3.357,0.662-4.597,1.87
	c-2.604,2.536-2.659,6.718-0.123,9.322c1.229,1.261,2.875,1.969,4.636,1.992c1.775,0.016,3.425-0.641,4.686-1.869
	c2.604-2.536,2.659-6.718,0.123-9.322l0,0c-1.229-1.261-2.875-1.969-4.636-1.992C222.157,114.257,222.128,114.257,222.098,114.257z"
	/>
<path fill="#B3B4B4" d="M186.97,10.317l-5.018,1.322c-1.028-3.902-5.04-6.241-8.942-5.213c-1.89,0.498-3.474,1.702-4.458,3.391
	c-0.985,1.689-1.253,3.661-0.754,5.55l-5.018,1.322c-0.851-3.232-0.393-6.6,1.289-9.486c1.683-2.886,4.389-4.945,7.62-5.796
	C178.357-0.349,185.213,3.648,186.97,10.317z"/>


    <g transform="matrix(0.9912 0.1325 -0.1325 0.9912 30.542 -14.083) translate(121.067,222.398) scale(0.6786666666666666)"><g class="ld ld-pulse" style="animation-delay:0s"><g data-icon="">  <use href="#id-0.28258463596986716" x="-50" y="-50"/>
</g></g></g><g transform="matrix(-0.0456 0.999 -0.999 -0.0456 243.7065 -82.5047) translate(161.268,75.17099999999999) scale(0.47706666666666664)"><g class="ld ld-pulse" style="animation-delay:-0.1s"><g data-icon="">  <use href="#id-0.28258463596986716" x="-50" y="-50"/>
</g></g></g><g transform="matrix(0.5905 -0.8071 0.8071 0.5905 -67.6584 252.8308) translate(215.293,193.0815) scale(0.5214666666666667)"><g class="ld ld-pulse" style="animation-delay:-0.2s"><g data-icon="">  <use href="#id-0.28258463596986716" x="-50" y="-50"/>
</g></g></g><g transform="matrix(-0.4749 -0.8801 0.8801 -0.4749 38.8277 99.7848) translate(49.185,38.308499999999995) scale(0.5980444444444444)"><g class="ld ld-pulse" style="animation-delay:-0.3s"><g data-icon="">  <use href="#id-0.28258463596986716" x="-50" y="-50"/>
</g></g></g><g transform="matrix(0.7381 -0.6747 0.6747 0.7381 -85.9069 63.1885) translate(38.434,142.243) scale(0.607688888888889)"><g class="ld ld-pulse" style="animation-delay:-0.4s"><g data-icon="">  <use href="#id-0.28258463596986716" x="-50" y="-50"/>
</g></g></g>
  </g>
</defs>
<g>
  <use href="#id-0.28258463596986716-2" x="0" y="0"/>
  <use href="#id-0.28258463596986716-2" x="-256" y="0"/>
  <animateTransform attributeName="transform" type="translate" repeatCount="indefinite" dur="4s"
  keyTimes="0;1" values="0;256"/>
</g>
</svg>