<?xml version="1.0" encoding="utf-8"?>
<svg xmlns="http://www.w3.org/2000/svg" xmlns:xlink="http://www.w3.org/1999/xlink" viewBox="0 0 256 256" width="256px" height="256px">
<style type="text/css">@keyframes ld-pulse
{
  0% {
    animation-timing-function: cubic-bezier(0.0413,0.3905,0.5086,0.6902);
    transform: scale(1);
  }
  24.3% {
    animation-timing-function: cubic-bezier(0.2248,0.6332,0.5246,1);
    transform: scale(0.8458);
  }
  55% {
    animation-timing-function: cubic-bezier(0.3036,0.3393,0.655,0.6144);
    transform: scale(0.8022);
  }
  70.2% {
    animation-timing-function: cubic-bezier(0.4464,0.2728,0.5562,0.7288);
    transform: scale(0.8294);
  }
  82.3% {
    animation-timing-function: cubic-bezier(0.6826,0.1845,1,0.7358);
    transform: scale(0.869);
  }
  100% {
    transform: scale(1);
  }
}
.ld.ld-pulse {
  animation: ld-pulse 0.5s infinite;
}</style>
<rect x="0" y="0" width="256" height="256" fill="#eee"/>
<defs>
  <g id="id-0.49861017335364877"><!--Generator: Adobe Illustrator 21.0.0, SVG Export Plug-In . SVG Version: 6.00 Build 0)--><ellipse transform="matrix(0.8404 -0.5419 0.5419 0.8404 -7.6469 45.9495)" style="fill:#603813;stroke:#000;stroke-width:3;stroke-linecap:round;stroke-miterlimit:10" cx="74.2" cy="36" rx="7.9" ry="4.8"/><ellipse transform="matrix(0.5419 -0.8404 0.8404 0.5419 -17.6341 37.7377)" style="fill:#603813;stroke:#000;stroke-width:3;stroke-linecap:round;stroke-miterlimit:10" cx="25.8" cy="35" rx="4.8" ry="7.9"/><path style="fill:#8c6239" d="M53.1,18.4l6,5.7c0.5,0.5,1.4,0.3,1.6-0.4l1.5-4.1c0.1-0.4,0-0.8-0.2-1.1l-7.3-7 c-0.4-0.4-0.4-1,0-1.4l0.2-0.2c0.4-0.4,1-0.4,1.4,0l6,5.7c0.5,0.5,1.4,0.3,1.6-0.4l0.7-1.9c0.2-0.5,0.8-0.8,1.3-0.6v0 c0.5,0.2,0.8,0.8,0.6,1.3l-0.7,1.9c-0.3,0.7,0.3,1.4,1,1.4l8.2-0.3c0.6,0,1,0.4,1,1l0,0.3c0,0.6-0.4,1-1,1l-10,0.4 c-0.4,0-0.8,0.3-0.9,0.6l-1.5,4.1c-0.3,0.7,0.3,1.4,1,1.4l8.2-0.3c0.6,0,1,0.4,1,1l0,0.3c0,0.6-0.4,1-1,1l-10,0.4 c-0.4,0-0.8,0.3-0.9,0.6l-1.5,4.1c-0.2,0.5-0.8,0.8-1.3,0.6l0,0c-0.5-0.2-0.8-0.8-0.6-1.3l1.5-4.1c0.1-0.4,0-0.8-0.2-1.1l-7.3-7 c-0.4-0.4-0.4-1,0-1.4l0.2-0.2C52.1,18,52.7,18,53.1,18.4z"/><path style="fill:#8c6239" d="M46.7,18.4l-6,5.7c-0.5,0.5-1.4,0.3-1.6-0.4l-1.5-4.1c-0.1-0.4,0-0.8,0.2-1.1l7.3-7 c0.4-0.4,0.4-1,0-1.4l-0.2-0.2c-0.4-0.4-1-0.4-1.4,0l-6,5.7c-0.5,0.5-1.4,0.3-1.6-0.4l-0.7-1.9c-0.2-0.5-0.8-0.8-1.3-0.6v0 c-0.5,0.2-0.8,0.8-0.6,1.3l0.7,1.9c0.3,0.7-0.3,1.4-1,1.4l-8.2-0.3c-0.6,0-1,0.4-1,1l0,0.3c0,0.6,0.4,1,1,1l10,0.4 c0.4,0,0.8,0.3,0.9,0.6l1.5,4.1c0.3,0.7-0.3,1.4-1,1.4l-8.2-0.3c-0.6,0-1,0.4-1,1l0,0.3c0,0.6,0.4,1,1,1l10,0.4 c0.4,0,0.8,0.3,0.9,0.6l1.5,4.1c0.2,0.5,0.8,0.8,1.3,0.6l0,0c0.5-0.2,0.8-0.8,0.6-1.3l-1.5-4.1c-0.1-0.4,0-0.8,0.2-1.1l7.3-7 c0.4-0.4,0.4-1,0-1.4l-0.2-0.2C47.7,18,47.1,18,46.7,18.4z"/><g><path style="fill:#c69c6d;stroke:#000;stroke-width:3;stroke-linecap:round;stroke-miterlimit:10" d="M73.7,60.5 C73.6,44.2,62.6,31,49.1,31c-13.6,0-24.6,13.2-24.7,29.6C42.3,56,58.9,55.5,73.7,60.5z"/><path style="fill:#fff;stroke:#000;stroke-width:3;stroke-linecap:round;stroke-miterlimit:10" d="M49.1,90.4 c13.6,0,24.7-13.3,24.7-29.7c0-0.1,0-0.2,0-0.2c-14.9-5-31.5-4.5-49.3,0.1c0,0,0,0.1,0,0.1C24.4,77.1,35.5,90.4,49.1,90.4z"/></g><path style="stroke:#000;stroke-width:2;stroke-linecap:round;stroke-miterlimit:10" d="M56.1,52.8c-1.4,0-2.5-1.1-2.5-2.5 c0-1.4,1.2-2.5,2.6-2.6c1.4,0,2.5,1.1,2.5,2.5C58.6,51.6,57.5,52.8,56.1,52.8z"/><ellipse style="fill:#c69c6d;stroke:#000;stroke-width:3;stroke-linecap:round;stroke-miterlimit:10" cx="49.2" cy="68.3" rx="5.9" ry="3.4"/><path style="stroke:#000;stroke-width:2;stroke-linecap:round;stroke-miterlimit:10" d="M40.8,48.3c1.1-0.9,2.7-0.7,3.6,0.3 c0.9,1.1,0.7,2.7-0.4,3.6c-1.1,0.9-2.7,0.7-3.6-0.3C39.5,50.8,39.7,49.2,40.8,48.3z"/><metadata xmlns:d="https://loading.io/stock/"><d:name>reindeer</d:name><d:tags>reindeer, christmas, animal, santa, deer</d:tags><d:license>cc-by</d:license><d:slug>13sv50</d:slug></metadata></g>
  <g id="id-0.49861017335364877-2">
    
<!-- Generator: Adobe Illustrator 21.0.0, SVG Export Plug-In . SVG Version: 6.00 Build 0)  -->













    <g transform=" translate(151,149.9995) scale(0.6222222222222222)"><g class="ld ld-pulse" style="animation-delay:0s"><g data-icon="">  <use href="#id-0.49861017335364877" x="-50" y="-50"/>
</g></g></g><g transform="matrix(0.9628 0.2703 -0.2703 0.9628 41.3411 -58.0147) translate(231.293,121.08149999999999) scale(0.5214666666666667)"><g class="ld ld-pulse" style="animation-delay:-0.05s"><g data-icon="">  <use href="#id-0.49861017335364877" x="-50" y="-50"/>
</g></g></g><g transform="matrix(-0.0456 0.999 -0.999 -0.0456 207.6542 -74.2389) translate(139.293,62.081500000000005) scale(0.5214666666666667)"><g class="ld ld-pulse" style="animation-delay:-0.1s"><g data-icon="">  <use href="#id-0.49861017335364877" x="-50" y="-50"/>
</g></g></g><g transform="matrix(0.2398 -0.9708 0.9708 0.2398 127.6881 219.61) translate(204.074,28.271) scale(0.3916444444444444)"><g class="ld ld-pulse" style="animation-delay:-0.15s"><g data-icon="">  <use href="#id-0.49861017335364877" x="-50" y="-50"/>
</g></g></g><g transform="matrix(0.5905 -0.8071 0.8071 0.5905 -96.797 253.4085) translate(201.293,222.0815) scale(0.5214666666666667)"><g class="ld ld-pulse" style="animation-delay:-0.2s"><g data-icon="">  <use href="#id-0.49861017335364877" x="-50" y="-50"/>
</g></g></g><g transform="matrix(0.8618 0.5073 -0.5073 0.8618 120.0863 -26.4095) translate(108.50649999999999,207.1645) scale(0.44135555555555556)"><g class="ld ld-pulse" style="animation-delay:-0.25s"><g data-icon="">  <use href="#id-0.49861017335364877" x="-50" y="-50"/>
</g></g></g><g transform="matrix(0.9981 0.0609 -0.0609 0.9981 7.8271 -4.6047) translate(79.461,126.11449999999999) scale(0.43675555555555556)"><g class="ld ld-pulse" style="animation-delay:-0.3s"><g data-icon="">  <use href="#id-0.49861017335364877" x="-50" y="-50"/>
</g></g></g><g transform="matrix(-0.7024 0.7118 -0.7118 -0.7024 125.7862 11.6317) translate(60.461,32.1145) scale(0.43675555555555556)"><g class="ld ld-pulse" style="animation-delay:-0.35s"><g data-icon="">  <use href="#id-0.49861017335364877" x="-50" y="-50"/>
</g></g></g><g transform="matrix(0.8596 0.511 -0.511 0.8596 47.5053 -5.4135) translate(33.602,83.7265) scale(0.3879111111111111)"><g class="ld ld-pulse" style="animation-delay:-0.4s"><g data-icon="">  <use href="#id-0.49861017335364877" x="-50" y="-50"/>
</g></g></g><g transform="matrix(0.5692 -0.8222 0.8222 0.5692 -149.2038 124.5031) translate(44.2025,204.6265) scale(0.5011777777777778)"><g class="ld ld-pulse" style="animation-delay:-0.45s"><g data-icon="">  <use href="#id-0.49861017335364877" x="-50" y="-50"/>
</g></g></g>
  </g>
</defs>
<g>
  <use href="#id-0.49861017335364877-2" x="0" y="0"/>
  <use href="#id-0.49861017335364877-2" x="-256" y="0"/>
  <animateTransform attributeName="transform" type="translate" repeatCount="indefinite" dur="4s"
  keyTimes="0;1" values="0;256"/>
</g>
</svg>