<?xml version="1.0" encoding="utf-8"?>
<svg xmlns="http://www.w3.org/2000/svg" xmlns:xlink="http://www.w3.org/1999/xlink" viewBox="0 0 256 256" width="256px" height="256px">
<style type="text/css">@keyframes ld-pulse
{
  0% {
    animation-timing-function: cubic-bezier(0.0413,0.3905,0.5086,0.6902);
    transform: scale(1);
  }
  24.3% {
    animation-timing-function: cubic-bezier(0.2248,0.6332,0.5246,1);
    transform: scale(0.8458);
  }
  55% {
    animation-timing-function: cubic-bezier(0.3036,0.3393,0.655,0.6144);
    transform: scale(0.8022);
  }
  70.2% {
    animation-timing-function: cubic-bezier(0.4464,0.2728,0.5562,0.7288);
    transform: scale(0.8294);
  }
  82.3% {
    animation-timing-function: cubic-bezier(0.6826,0.1845,1,0.7358);
    transform: scale(0.869);
  }
  100% {
    transform: scale(1);
  }
}
.ld.ld-pulse {
  animation: ld-pulse 0.5s infinite;
}</style>
<rect x="0" y="0" width="256" height="256" fill="#eee"/>
<defs>
  <g id="id-0.49349631239303227"><!--Generator: Adobe Illustrator 21.0.0, SVG Export Plug-In . SVG Version: 6.00 Build 0)--><path style="fill:#77a4bd" d="M50,10c-11.046,0-21.046,4.477-28.284,11.716L50,50V10z"/><path style="fill:#a0c8d7" d="M21.716,21.716C14.477,28.954,10,38.954,10,50h40L21.716,21.716z"/><path style="fill:#e15b64" d="M90,50c0-11.046-4.477-21.046-11.716-28.284L50,50H90z"/><path style="fill:#c33737" d="M78.284,21.716C71.046,14.477,61.046,10,50,10v40L78.284,21.716z"/><path style="fill:#f8b26a" d="M50,90c11.046,0,21.046-4.477,28.284-11.716L50,50V90z"/><path style="fill:#849b87" d="M10,50c0,11.046,4.477,21.046,11.716,28.284L50,50H10z"/><path style="fill:#f47e60" d="M50,50l28.284,28.284C85.523,71.046,90,61.046,90,50H50z"/><path style="fill:#abbd81" d="M21.716,78.284C28.954,85.523,38.954,90,50,90V50L21.716,78.284z"/><metadata xmlns:d="https://loading.io/stock/"><d:name>pie</d:name><d:tags>pie,donut,circle,percent,proportion,ratio,chart,wheel,infographics</d:tags><d:license>cc-by</d:license><d:slug>ti31y3</d:slug></metadata></g>
  <g id="id-0.49349631239303227-2">
    
<!-- Generator: Adobe Illustrator 21.0.0, SVG Export Plug-In . SVG Version: 6.00 Build 0)  -->





    <g transform=" translate(192,191.9995) scale(0.8888888888888888)"><g class="ld ld-pulse" style="animation-delay:0s"><g data-icon="">  <use href="#id-0.49349631239303227" x="-50" y="-50"/>
</g></g></g><g transform=" translate(64,63.9995) scale(0.8888888888888888)"><g class="ld ld-pulse" style="animation-delay:-0.25s"><g data-icon="">  <use href="#id-0.49349631239303227" x="-50" y="-50"/>
</g></g></g>
  </g>
</defs>
<g>
  <use href="#id-0.49349631239303227-2" x="0" y="0"/>
  <use href="#id-0.49349631239303227-2" x="-256" y="0"/>
  <animateTransform attributeName="transform" type="translate" repeatCount="indefinite" dur="4s"
  keyTimes="0;1" values="0;256"/>
</g>
</svg>