<?xml version="1.0" encoding="utf-8"?>
<svg xmlns="http://www.w3.org/2000/svg" xmlns:xlink="http://www.w3.org/1999/xlink" viewBox="0 0 256 256" width="256px" height="256px">
<style type="text/css">@keyframes ld-pulse
{
  0% {
    animation-timing-function: cubic-bezier(0.0413,0.3905,0.5086,0.6902);
    transform: scale(1);
  }
  24.3% {
    animation-timing-function: cubic-bezier(0.2248,0.6332,0.5246,1);
    transform: scale(0.8458);
  }
  55% {
    animation-timing-function: cubic-bezier(0.3036,0.3393,0.655,0.6144);
    transform: scale(0.8022);
  }
  70.2% {
    animation-timing-function: cubic-bezier(0.4464,0.2728,0.5562,0.7288);
    transform: scale(0.8294);
  }
  82.3% {
    animation-timing-function: cubic-bezier(0.6826,0.1845,1,0.7358);
    transform: scale(0.869);
  }
  100% {
    transform: scale(1);
  }
}
.ld.ld-pulse {
  animation: ld-pulse 0.5s infinite;
}</style>
<rect x="0" y="0" width="256" height="256" fill="#eee"/>
<defs>
  <g id="id-0.13422024344987427"><!--Generator: Adobe Illustrator 21.0.0, SVG Export Plug-In . SVG Version: 6.00 Build 0)--><g><g><path fill="#F8EDCF" stroke="#000000" stroke-width="3" stroke-linecap="round" stroke-linejoin="round" stroke-miterlimit="10" d=" M49.552,87.256c-1.783,0.095-3.5,0.072-4.505-0.763c-0.622-0.518-0.758-1.17-0.781-1.609c0.014-0.326,0.028-0.651,0.042-0.977 c0.088-0.27,0.241-0.669,0.512-1.11c1.676-2.726,5.571-3.348,7.16-3.669c2.977-0.601,5.649-1.791,8.336-3.103 c1.893-0.925,3.527-2.207,4.955-3.679c0.327-0.337,1.949-1.766,1.659-2.189c-0.181-0.264-1.144,0.213-3.117,0.92 c-3.477,1.245-5.433,1.533-5.972,1.606c-2.94,0.397-3.743-0.041-4.101-0.324c-0.561-0.442-1.112-1.248-1.021-2.096 c0.069-0.637,0.495-1.259,1.898-2.134c1.816-1.133,3.069-1.318,4.744-1.896c3.56-1.228,3.494-2.322,7.048-3.374 c1.657-0.49,3.011-0.649,3.684-0.709c2.461-0.22,4.507,0.093,5.879,0.409c1.083-0.136,2.34-0.392,3.695-0.863 c0.549-0.191,1.058-0.398,1.528-0.611c1.425,3.565,2.85,7.131,4.274,10.696c-1.77,1.066-3.54,2.132-5.31,3.198 c-0.82,0.612-6.47,4.815-10.821,7.261c-1.641,0.923-2.856,1.46-3.766,1.823c-1.549,0.618-2.934,1.021-4.027,1.286 C58.595,86.061,54.003,87.019,49.552,87.256z"/><rect x="78.548" y="61.175" transform="matrix(-0.371 -0.9286 0.9286 -0.371 58.8953 169.966)" fill="#EE7D54" stroke="#000000" stroke-width="3" stroke-linecap="round" stroke-linejoin="round" stroke-miterlimit="10" width="16.922" height="7.724"/></g><g><path fill="#F8EDCF" stroke="#000000" stroke-width="3" stroke-linecap="round" stroke-linejoin="round" stroke-miterlimit="10" d=" M50.448,87.256c1.783,0.095,3.5,0.072,4.505-0.763c0.622-0.518,0.758-1.17,0.781-1.609c-0.014-0.326-0.028-0.651-0.042-0.977 c-0.088-0.27-0.241-0.669-0.512-1.11c-1.676-2.726-5.571-3.348-7.16-3.669c-2.977-0.601-5.649-1.791-8.336-3.103 c-1.893-0.925-3.527-2.207-4.955-3.679c-0.327-0.337-1.949-1.766-1.659-2.189c0.181-0.264,1.144,0.213,3.117,0.92 c3.477,1.245,5.433,1.533,5.972,1.606c2.94,0.397,3.743-0.041,4.101-0.324c0.561-0.442,1.112-1.248,1.021-2.096 c-0.069-0.637-0.495-1.259-1.898-2.134c-1.816-1.133-3.069-1.318-4.744-1.896c-3.56-1.228-3.494-2.322-7.048-3.374 c-1.657-0.49-3.011-0.649-3.684-0.709c-2.461-0.22-4.507,0.093-5.879,0.409c-1.083-0.136-2.34-0.392-3.695-0.863 c-0.549-0.191-1.058-0.398-1.528-0.611c-1.425,3.565-2.85,7.131-4.274,10.696c1.77,1.066,3.54,2.132,5.31,3.198 c0.82,0.612,6.47,4.815,10.821,7.261c1.641,0.923,2.856,1.46,3.766,1.823c1.549,0.618,2.934,1.021,4.027,1.286 C41.405,86.061,45.997,87.019,50.448,87.256z"/><rect x="4.53" y="61.175" transform="matrix(0.371 -0.9286 0.9286 0.371 -52.2243 52.9712)" fill="#EE7D54" stroke="#000000" stroke-width="3" stroke-linecap="round" stroke-linejoin="round" stroke-miterlimit="10" width="16.922" height="7.724"/></g></g><g><path fill="#FCE9F2" stroke="#000000" stroke-width="3" stroke-linecap="round" stroke-linejoin="round" stroke-miterlimit="10" d=" M72.113,35.388c0-10.087-9.811-18.265-21.913-18.265c-9.129,0-16.951,4.654-20.245,11.27h-2.277c-1.644,0-2.977,1.311-2.977,2.928 v7.357c0,1.617,1.333,2.928,2.977,2.928h1.916c1.357,3.123,3.704,5.851,6.729,7.917l-1.456,5.287l10.004,2.622 c0.448-1.648,0.896-3.296,1.345-4.944c0.957,0.45,2.308,0.95,3.984,1.166c3.176,0.409,5.72-0.434,6.972-0.95l1.302,4.728 l10.004-2.622l-1.986-7.21C69.986,44.364,72.113,40.083,72.113,35.388z"/><path fill="#FFFFFF" stroke="#000000" stroke-width="3" stroke-linecap="round" stroke-linejoin="round" stroke-miterlimit="10" d=" M57.678,24.07c-2.547-0.994-5.319-1.472-8.196-1.32c-0.568,0.03-1.128,0.084-1.682,0.161"/><path fill="#EF66B2" stroke="#000000" stroke-width="3" stroke-linecap="round" stroke-linejoin="round" stroke-miterlimit="10" d=" M41.079,15.341c-2.623-2.136-6.481-1.741-8.617,0.882l9.5,7.735C44.097,21.336,43.702,17.478,41.079,15.341z"/><ellipse transform="matrix(0.7071 -0.7071 0.7071 0.7071 -9.9233 35.7031)" stroke="#000000" stroke-width="0.25" stroke-linecap="round" stroke-linejoin="round" stroke-miterlimit="10" cx="38.136" cy="29.83" rx="2.178" ry="2.178"/><path fill="none" stroke="#000000" stroke-width="3" stroke-linecap="round" stroke-linejoin="round" stroke-miterlimit="10" d=" M66.795,23.502c0.202-2.341,1.602-4.436,3.328-6.03c0.935-0.864,2.196-1.656,3.409-1.272c1.014,0.321,1.633,1.4,1.746,2.458 c0.114,1.069-0.265,2.257-1.183,2.816c-0.823,0.501-1.933,0.384-2.735-0.151c-0.802-0.535-1.317-1.427-1.556-2.361 c-0.506-1.974,0.208-4.208,1.765-5.523c0.497-0.42,1.174-0.739,1.8-0.734"/></g><metadata xmlns:d="https://loading.io/stock/"><d:name>protect</d:name><d:tags>protect, save, deposit, accumulate, fund,</d:tags><d:license>cc-by</d:license><d:slug>1x1jes</d:slug></metadata></g>
  <g id="id-0.13422024344987427-2">
    
<!-- Generator: Adobe Illustrator 21.0.0, SVG Export Plug-In . SVG Version: 6.00 Build 0)  -->







    <g transform=" translate(192,191.9995) scale(0.8888888888888888)"><g class="ld ld-pulse" style="animation-delay:0s"><g data-icon="">  <use href="#id-0.13422024344987427" x="-50" y="-50"/>
</g></g></g><g transform=" translate(192,63.9995) scale(0.5555555555555556)"><g class="ld ld-pulse" style="animation-delay:-0.125s"><g data-icon="">  <use href="#id-0.13422024344987427" x="-50" y="-50"/>
</g></g></g><g transform=" translate(64,63.9995) scale(0.8888888888888888)"><g class="ld ld-pulse" style="animation-delay:-0.25s"><g data-icon="">  <use href="#id-0.13422024344987427" x="-50" y="-50"/>
</g></g></g><g transform=" translate(64,191.9995) scale(0.5555555555555556)"><g class="ld ld-pulse" style="animation-delay:-0.375s"><g data-icon="">  <use href="#id-0.13422024344987427" x="-50" y="-50"/>
</g></g></g>
  </g>
</defs>
<g>
  <use href="#id-0.13422024344987427-2" x="0" y="0"/>
  <use href="#id-0.13422024344987427-2" x="-256" y="0"/>
  <animateTransform attributeName="transform" type="translate" repeatCount="indefinite" dur="4s"
  keyTimes="0;1" values="0;256"/>
</g>
</svg>