<?xml version="1.0" encoding="utf-8"?>
<svg xmlns="http://www.w3.org/2000/svg" xmlns:xlink="http://www.w3.org/1999/xlink" viewBox="0 0 256 256" width="256px" height="256px">
<style type="text/css">@keyframes ld-pulse
{
  0% {
    animation-timing-function: cubic-bezier(0.0413,0.3905,0.5086,0.6902);
    transform: scale(1);
  }
  24.3% {
    animation-timing-function: cubic-bezier(0.2248,0.6332,0.5246,1);
    transform: scale(0.8458);
  }
  55% {
    animation-timing-function: cubic-bezier(0.3036,0.3393,0.655,0.6144);
    transform: scale(0.8022);
  }
  70.2% {
    animation-timing-function: cubic-bezier(0.4464,0.2728,0.5562,0.7288);
    transform: scale(0.8294);
  }
  82.3% {
    animation-timing-function: cubic-bezier(0.6826,0.1845,1,0.7358);
    transform: scale(0.869);
  }
  100% {
    transform: scale(1);
  }
}
.ld.ld-pulse {
  animation: ld-pulse 0.5s infinite;
}</style>
<rect x="0" y="0" width="256" height="256" fill="#eee"/>
<defs>
  <g id="id-0.8525468643328751"><!--Generator: Adobe Illustrator 21.0.0, SVG Export Plug-In . SVG Version: 6.00 Build 0)--><ellipse transform="matrix(0.9463 -0.3233 0.3233 0.9463 -13.4812 18.8529)" style="fill:none;stroke:#000;stroke-width:3;stroke-miterlimit:10" cx="50" cy="50" rx="5.5" ry="5.5"/><g><g><line style="fill:none;stroke:#000;stroke-width:3;stroke-linecap:round;stroke-miterlimit:10" x1="50" y1="10" x2="50" y2="44"/><line style="fill:none;stroke:#000;stroke-width:3;stroke-linecap:round;stroke-miterlimit:10" x1="43.5" y1="10" x2="50" y2="20.2"/><line style="fill:none;stroke:#000;stroke-width:3;stroke-linecap:round;stroke-miterlimit:10" x1="56.5" y1="10" x2="50" y2="20.2"/><path style="fill:none;stroke:#000;stroke-width:3;stroke-linecap:round;stroke-miterlimit:10" d="M40.7,16.5 c3.1,3.4,6.2,6.8,9.3,10.2"/></g><path style="fill:none;stroke:#000;stroke-width:3;stroke-linecap:round;stroke-miterlimit:10" d="M59.8,17 c-3.3,3.3-6.5,6.5-9.8,9.8"/></g><g><g><line style="fill:none;stroke:#000;stroke-width:3;stroke-linecap:round;stroke-miterlimit:10" x1="21.7" y1="21.7" x2="45.8" y2="45.7"/><line style="fill:none;stroke:#000;stroke-width:3;stroke-linecap:round;stroke-miterlimit:10" x1="17.1" y1="26.3" x2="29" y2="28.9"/><line style="fill:none;stroke:#000;stroke-width:3;stroke-linecap:round;stroke-miterlimit:10" x1="26.3" y1="17.1" x2="29" y2="28.9"/><path style="fill:none;stroke:#000;stroke-width:3;stroke-linecap:round;stroke-miterlimit:10" d="M19.8,32.9 c4.6,0.2,9.2,0.4,13.8,0.7"/></g><path style="fill:none;stroke:#000;stroke-width:3;stroke-linecap:round;stroke-miterlimit:10" d="M33.6,19.7 c0,4.6,0,9.2,0,13.9"/></g><g><g><line style="fill:none;stroke:#000;stroke-width:3;stroke-linecap:round;stroke-miterlimit:10" x1="10" y1="50" x2="44" y2="50"/><line style="fill:none;stroke:#000;stroke-width:3;stroke-linecap:round;stroke-miterlimit:10" x1="10" y1="56.5" x2="20.2" y2="50"/><line style="fill:none;stroke:#000;stroke-width:3;stroke-linecap:round;stroke-miterlimit:10" x1="10" y1="43.5" x2="20.2" y2="50"/><path style="fill:none;stroke:#000;stroke-width:3;stroke-linecap:round;stroke-miterlimit:10" d="M16.5,59.3 c3.4-3.1,6.8-6.2,10.2-9.3"/></g><path style="fill:none;stroke:#000;stroke-width:3;stroke-linecap:round;stroke-miterlimit:10" d="M17,40.2 c3.3,3.3,6.5,6.5,9.8,9.8"/></g><g><g><line style="fill:none;stroke:#000;stroke-width:3;stroke-linecap:round;stroke-miterlimit:10" x1="21.7" y1="78.3" x2="45.7" y2="54.2"/><line style="fill:none;stroke:#000;stroke-width:3;stroke-linecap:round;stroke-miterlimit:10" x1="26.3" y1="82.9" x2="28.9" y2="71"/><line style="fill:none;stroke:#000;stroke-width:3;stroke-linecap:round;stroke-miterlimit:10" x1="17.1" y1="73.7" x2="28.9" y2="71"/><path style="fill:none;stroke:#000;stroke-width:3;stroke-linecap:round;stroke-miterlimit:10" d="M32.9,80.2 c0.2-4.6,0.4-9.2,0.7-13.8"/></g><path style="fill:none;stroke:#000;stroke-width:3;stroke-linecap:round;stroke-miterlimit:10" d="M19.7,66.4 c4.6,0,9.2,0,13.9,0"/></g><g><g><line style="fill:none;stroke:#000;stroke-width:3;stroke-linecap:round;stroke-miterlimit:10" x1="50" y1="90" x2="50" y2="56"/><line style="fill:none;stroke:#000;stroke-width:3;stroke-linecap:round;stroke-miterlimit:10" x1="56.5" y1="90" x2="50" y2="79.8"/><line style="fill:none;stroke:#000;stroke-width:3;stroke-linecap:round;stroke-miterlimit:10" x1="43.5" y1="90" x2="50" y2="79.8"/><path style="fill:none;stroke:#000;stroke-width:3;stroke-linecap:round;stroke-miterlimit:10" d="M59.3,83.5 c-3.1-3.4-6.2-6.8-9.3-10.2"/></g><path style="fill:none;stroke:#000;stroke-width:3;stroke-linecap:round;stroke-miterlimit:10" d="M40.2,83 c3.3-3.3,6.5-6.5,9.8-9.8"/></g><g><g><line style="fill:none;stroke:#000;stroke-width:3;stroke-linecap:round;stroke-miterlimit:10" x1="78.3" y1="78.3" x2="54.2" y2="54.3"/><line style="fill:none;stroke:#000;stroke-width:3;stroke-linecap:round;stroke-miterlimit:10" x1="82.9" y1="73.7" x2="71" y2="71.1"/><line style="fill:none;stroke:#000;stroke-width:3;stroke-linecap:round;stroke-miterlimit:10" x1="73.7" y1="82.9" x2="71" y2="71.1"/><path style="fill:none;stroke:#000;stroke-width:3;stroke-linecap:round;stroke-miterlimit:10" d="M80.2,67.1 c-4.6-0.2-9.2-0.4-13.8-0.7"/></g><path style="fill:none;stroke:#000;stroke-width:3;stroke-linecap:round;stroke-miterlimit:10" d="M66.4,80.3 c0-4.6,0-9.2,0-13.9"/></g><g><g><line style="fill:none;stroke:#000;stroke-width:3;stroke-linecap:round;stroke-miterlimit:10" x1="90" y1="50" x2="56" y2="50"/><line style="fill:none;stroke:#000;stroke-width:3;stroke-linecap:round;stroke-miterlimit:10" x1="90" y1="43.5" x2="79.8" y2="50"/><line style="fill:none;stroke:#000;stroke-width:3;stroke-linecap:round;stroke-miterlimit:10" x1="90" y1="56.5" x2="79.8" y2="50"/><path style="fill:none;stroke:#000;stroke-width:3;stroke-linecap:round;stroke-miterlimit:10" d="M83.5,40.7 c-3.4,3.1-6.8,6.2-10.2,9.3"/></g><path style="fill:none;stroke:#000;stroke-width:3;stroke-linecap:round;stroke-miterlimit:10" d="M83,59.8 c-3.3-3.3-6.5-6.5-9.8-9.8"/></g><g><g><line style="fill:none;stroke:#000;stroke-width:3;stroke-linecap:round;stroke-miterlimit:10" x1="78.3" y1="21.7" x2="54.3" y2="45.8"/><line style="fill:none;stroke:#000;stroke-width:3;stroke-linecap:round;stroke-miterlimit:10" x1="73.7" y1="17.1" x2="71.1" y2="29"/><line style="fill:none;stroke:#000;stroke-width:3;stroke-linecap:round;stroke-miterlimit:10" x1="82.9" y1="26.3" x2="71.1" y2="29"/><path style="fill:none;stroke:#000;stroke-width:3;stroke-linecap:round;stroke-miterlimit:10" d="M67.1,19.8 c-0.2,4.6-0.4,9.2-0.7,13.8"/></g><path style="fill:none;stroke:#000;stroke-width:3;stroke-linecap:round;stroke-miterlimit:10" d="M80.3,33.6 c-4.6,0-9.2,0-13.9,0"/></g><g><line style="fill:none;stroke:#000;stroke-width:3;stroke-linecap:round;stroke-miterlimit:10" x1="44.7" y1="37.7" x2="47.5" y2="44.6"/><ellipse transform="matrix(0.1322 -0.9912 0.9912 0.1322 3.7942 72.7922)" style="fill:none;stroke:#000;stroke-width:3;stroke-linecap:round;stroke-miterlimit:10" cx="43.5" cy="34.2" rx="3.3" ry="3.3"/></g><g><line style="fill:none;stroke:#000;stroke-width:3;stroke-linecap:round;stroke-miterlimit:10" x1="37.6" y1="44.9" x2="44.4" y2="47.8"/><ellipse transform="matrix(0.7944 -0.6074 0.6074 0.7944 -19.2619 29.7354)" style="fill:none;stroke:#000;stroke-width:3;stroke-linecap:round;stroke-miterlimit:10" cx="34.3" cy="43.3" rx="3.3" ry="3.3"/></g><g><line style="fill:none;stroke:#000;stroke-width:3;stroke-linecap:round;stroke-miterlimit:10" x1="37.7" y1="55" x2="44.6" y2="52.2"/><ellipse transform="matrix(0.1322 -0.9912 0.9912 0.1322 -26.0414 82.7307)" style="fill:none;stroke:#000;stroke-width:3;stroke-linecap:round;stroke-miterlimit:10" cx="34.2" cy="56.2" rx="3.3" ry="3.3"/></g><g><line style="fill:none;stroke:#000;stroke-width:3;stroke-linecap:round;stroke-miterlimit:10" x1="44.9" y1="62.1" x2="47.8" y2="55.3"/><ellipse transform="matrix(0.7944 -0.6074 0.6074 0.7944 -30.8278 39.7625)" style="fill:none;stroke:#000;stroke-width:3;stroke-linecap:round;stroke-miterlimit:10" cx="43.3" cy="65.4" rx="3.3" ry="3.3"/></g><g><line style="fill:none;stroke:#000;stroke-width:3;stroke-linecap:round;stroke-miterlimit:10" x1="55" y1="62" x2="52.2" y2="55.1"/><ellipse transform="matrix(0.1322 -0.9912 0.9912 0.1322 -16.1029 112.5663)" style="fill:none;stroke:#000;stroke-width:3;stroke-linecap:round;stroke-miterlimit:10" cx="56.2" cy="65.5" rx="3.3" ry="3.3"/></g><g><line style="fill:none;stroke:#000;stroke-width:3;stroke-linecap:round;stroke-miterlimit:10" x1="62.1" y1="54.8" x2="55.3" y2="51.9"/><ellipse transform="matrix(0.7944 -0.6074 0.6074 0.7944 -20.8008 51.3284)" style="fill:none;stroke:#000;stroke-width:3;stroke-linecap:round;stroke-miterlimit:10" cx="65.4" cy="56.4" rx="3.3" ry="3.3"/></g><g><line style="fill:none;stroke:#000;stroke-width:3;stroke-linecap:round;stroke-miterlimit:10" x1="62" y1="44.7" x2="55.1" y2="47.5"/><ellipse transform="matrix(0.1322 -0.9912 0.9912 0.1322 13.7327 102.6277)" style="fill:none;stroke:#000;stroke-width:3;stroke-linecap:round;stroke-miterlimit:10" cx="65.5" cy="43.5" rx="3.3" ry="3.3"/></g><g><line style="fill:none;stroke:#000;stroke-width:3;stroke-linecap:round;stroke-miterlimit:10" x1="54.8" y1="37.6" x2="51.9" y2="44.4"/><ellipse transform="matrix(0.7944 -0.6074 0.6074 0.7944 -9.2349 41.3014)" style="fill:none;stroke:#000;stroke-width:3;stroke-linecap:round;stroke-miterlimit:10" cx="56.4" cy="34.3" rx="3.3" ry="3.3"/></g><metadata xmlns:d="https://loading.io/stock/"><d:name>snow flake</d:name><d:tags>snow flake, freeze, christmas, winter, ice</d:tags><d:license>cc-by</d:license><d:slug>89ivqx</d:slug></metadata></g>
  <g id="id-0.8525468643328751-2">
    
<!-- Generator: Adobe Illustrator 21.0.0, SVG Export Plug-In . SVG Version: 6.00 Build 0)  -->







    <g transform=" translate(192,191.9995) scale(0.8888888888888888)"><g class="ld ld-pulse" style="animation-delay:0s"><g data-icon="">  <use href="#id-0.8525468643328751" x="-50" y="-50"/>
</g></g></g><g transform=" translate(192,63.9995) scale(0.5555555555555556)"><g class="ld ld-pulse" style="animation-delay:-0.125s"><g data-icon="">  <use href="#id-0.8525468643328751" x="-50" y="-50"/>
</g></g></g><g transform=" translate(64,63.9995) scale(0.8888888888888888)"><g class="ld ld-pulse" style="animation-delay:-0.25s"><g data-icon="">  <use href="#id-0.8525468643328751" x="-50" y="-50"/>
</g></g></g><g transform=" translate(64,191.9995) scale(0.5555555555555556)"><g class="ld ld-pulse" style="animation-delay:-0.375s"><g data-icon="">  <use href="#id-0.8525468643328751" x="-50" y="-50"/>
</g></g></g>
  </g>
</defs>
<g>
  <use href="#id-0.8525468643328751-2" x="0" y="0"/>
  <use href="#id-0.8525468643328751-2" x="-256" y="0"/>
  <animateTransform attributeName="transform" type="translate" repeatCount="indefinite" dur="4s"
  keyTimes="0;1" values="0;256"/>
</g>
</svg>