<?xml version="1.0" encoding="utf-8"?>
<svg xmlns="http://www.w3.org/2000/svg" xmlns:xlink="http://www.w3.org/1999/xlink" viewBox="0 0 256 256" width="256px" height="256px">
<style type="text/css">@keyframes ld-pulse
{
  0% {
    animation-timing-function: cubic-bezier(0.0413,0.3905,0.5086,0.6902);
    transform: scale(1);
  }
  24.3% {
    animation-timing-function: cubic-bezier(0.2248,0.6332,0.5246,1);
    transform: scale(0.8458);
  }
  55% {
    animation-timing-function: cubic-bezier(0.3036,0.3393,0.655,0.6144);
    transform: scale(0.8022);
  }
  70.2% {
    animation-timing-function: cubic-bezier(0.4464,0.2728,0.5562,0.7288);
    transform: scale(0.8294);
  }
  82.3% {
    animation-timing-function: cubic-bezier(0.6826,0.1845,1,0.7358);
    transform: scale(0.869);
  }
  100% {
    transform: scale(1);
  }
}
.ld.ld-pulse {
  animation: ld-pulse 0.5s infinite;
}</style>
<rect x="0" y="0" width="256" height="256" fill="#eee"/>
<defs>
  <g id="id-0.6894096675720138"><!--Generator: Adobe Illustrator 21.0.0, SVG Export Plug-In . SVG Version: 6.00 Build 0)--><path style="fill:#a0c8d7" d="M33.96,13.362l-7.377-3.921c0,0-0.172,4.629-0.304,8.382c-4.418,3.265-8.152,7.403-10.916,12.18 l15.154,8.749C34.407,32.027,41.673,27.5,50,27.5V10C44.292,10,38.871,11.207,33.96,13.362z"/><path style="fill:#849b87" d="M30.517,38.751l-15.154-8.749c-2.703,4.672-4.475,9.943-5.098,15.561L3.167,50 c0,0,3.917,2.46,7.1,4.45c0.625,5.613,2.396,10.88,5.097,15.548l15.154-8.749C28.602,57.939,27.5,54.099,27.5,50 S28.602,42.061,30.517,38.751z"/><path style="fill:#abbd81" d="M50,72.5c-8.327,0-15.593-4.527-19.483-11.251l-15.154,8.749c2.766,4.781,6.504,8.921,10.927,12.188 l0.293,8.374c0,0,4.077-2.156,7.389-3.916C38.88,88.795,44.297,90,50,90V72.5z"/><path style="fill:#f8b26a" d="M84.637,69.998l-15.154-8.749C65.593,67.973,58.327,72.5,50,72.5V90 c5.708,0,11.129-1.207,16.04-3.363l7.377,3.921c0,0,0.172-4.629,0.304-8.382C78.139,78.912,81.873,74.774,84.637,69.998z"/><path style="fill:#f47e60" d="M96.833,50c0,0-3.917-2.46-7.1-4.45c-0.625-5.613-2.396-10.88-5.097-15.548l-15.154,8.749 C71.398,42.061,72.5,45.901,72.5,50s-1.102,7.939-3.017,11.249l15.154,8.749c2.703-4.672,4.475-9.943,5.098-15.561L96.833,50z"/><path style="fill:#e15b64" d="M73.71,17.815l-0.293-8.374c0,0-4.077,2.156-7.389,3.916C61.12,11.205,55.703,10,50,10v17.5 c8.327,0,15.593,4.527,19.483,11.251l15.154-8.749C81.87,25.222,78.132,21.081,73.71,17.815z"/><metadata xmlns:d="https://loading.io/stock/"><d:name>wheel</d:name><d:tags>wheel,ring,cycle,composition,part,circle,infographics</d:tags><d:license>cc-by</d:license><d:slug>j45axl</d:slug></metadata></g>
  <g id="id-0.6894096675720138-2">
    
<!-- Generator: Adobe Illustrator 21.0.0, SVG Export Plug-In . SVG Version: 6.00 Build 0)  -->





    <g transform=" translate(192,191.9995) scale(0.8888888888888888)"><g class="ld ld-pulse" style="animation-delay:0s"><g data-icon="">  <use href="#id-0.6894096675720138" x="-50" y="-50"/>
</g></g></g><g transform=" translate(64,63.9995) scale(0.8888888888888888)"><g class="ld ld-pulse" style="animation-delay:-0.25s"><g data-icon="">  <use href="#id-0.6894096675720138" x="-50" y="-50"/>
</g></g></g>
  </g>
</defs>
<g>
  <use href="#id-0.6894096675720138-2" x="0" y="0"/>
  <use href="#id-0.6894096675720138-2" x="-256" y="0"/>
  <animateTransform attributeName="transform" type="translate" repeatCount="indefinite" dur="4s"
  keyTimes="0;1" values="0;256"/>
</g>
</svg>