<?xml version="1.0" encoding="utf-8"?>
<svg xmlns="http://www.w3.org/2000/svg" xmlns:xlink="http://www.w3.org/1999/xlink" viewBox="0 0 256 256" width="256px" height="256px">
<style type="text/css">@keyframes ld-pulse
{
  0% {
    animation-timing-function: cubic-bezier(0.0413,0.3905,0.5086,0.6902);
    transform: scale(1);
  }
  24.3% {
    animation-timing-function: cubic-bezier(0.2248,0.6332,0.5246,1);
    transform: scale(0.8458);
  }
  55% {
    animation-timing-function: cubic-bezier(0.3036,0.3393,0.655,0.6144);
    transform: scale(0.8022);
  }
  70.2% {
    animation-timing-function: cubic-bezier(0.4464,0.2728,0.5562,0.7288);
    transform: scale(0.8294);
  }
  82.3% {
    animation-timing-function: cubic-bezier(0.6826,0.1845,1,0.7358);
    transform: scale(0.869);
  }
  100% {
    transform: scale(1);
  }
}
.ld.ld-pulse {
  animation: ld-pulse 0.5s infinite;
}</style>
<rect x="0" y="0" width="256" height="256" fill="#eee"/>
<defs>
  <g id="id-0.09920091943295906"><!--Generator: Adobe Illustrator 21.0.0, SVG Export Plug-In . SVG Version: 6.00 Build 0)--><path style="fill:#fff" d="M48.5,8.5v0.05C49,8.532,49.498,8.5,50,8.5H48.5z"/><path style="fill:#fff" d="M51.5,8.5H50c0.502,0,1,0.032,1.5,0.05V8.5z"/><path style="fill:#abbd81" d="M70.769,63.791c-3.792,5.697-9.773,9.566-16.433,10.753L50,65.875c-0.24,0.48-3.121,6.24-4.336,8.669 c-6.659-1.187-12.641-5.056-16.433-10.753l-13.061,7.541C23.475,82.885,36.295,89.999,50,89.999s26.525-7.114,33.829-18.668 L70.769,63.791z"/><path style="fill:#e15b64" d="M84.637,30.002C77.759,18.116,65.189,10.567,51.558,10.03v15.084 c6.82,0.431,13.162,3.679,17.527,8.862l-5.337,8.086c0.535-0.032,6.954-0.416,9.674-0.579c0.989,2.72,1.513,5.602,1.513,8.516 c0,3.854-0.897,7.657-2.605,11.093l13.061,7.541C88.411,62.906,90,56.497,90,49.999C90,42.981,88.146,36.067,84.637,30.002z"/><path style="fill:#f8b26a" d="M48.442,25.114V10.03c-13.63,0.537-26.2,8.086-33.079,19.973C11.854,36.067,10,42.981,10,49.999 c0,6.498,1.589,12.907,4.609,18.633l13.061-7.541c-1.708-3.435-2.605-7.239-2.605-11.093c0-2.914,0.524-5.796,1.513-8.516 l9.674,0.579c-0.296-0.448-3.84-5.818-5.337-8.086C35.28,28.793,41.621,25.545,48.442,25.114z"/><metadata xmlns:d="https://loading.io/stock/"><d:name>component</d:name><d:tags>component,composition,ingredient,infographics</d:tags><d:license>cc-by</d:license><d:slug>n49oo3</d:slug></metadata></g>
  <g id="id-0.09920091943295906-2">
    
<!-- Generator: Adobe Illustrator 21.0.0, SVG Export Plug-In . SVG Version: 6.00 Build 0)  -->







    <g transform=" translate(192,191.9995) scale(0.8888888888888888)"><g class="ld ld-pulse" style="animation-delay:0s"><g data-icon="">  <use href="#id-0.09920091943295906" x="-50" y="-50"/>
</g></g></g><g transform=" translate(192,63.9995) scale(0.5555555555555556)"><g class="ld ld-pulse" style="animation-delay:-0.125s"><g data-icon="">  <use href="#id-0.09920091943295906" x="-50" y="-50"/>
</g></g></g><g transform=" translate(64,63.9995) scale(0.8888888888888888)"><g class="ld ld-pulse" style="animation-delay:-0.25s"><g data-icon="">  <use href="#id-0.09920091943295906" x="-50" y="-50"/>
</g></g></g><g transform=" translate(64,191.9995) scale(0.5555555555555556)"><g class="ld ld-pulse" style="animation-delay:-0.375s"><g data-icon="">  <use href="#id-0.09920091943295906" x="-50" y="-50"/>
</g></g></g>
  </g>
</defs>
<g>
  <use href="#id-0.09920091943295906-2" x="0" y="0"/>
  <use href="#id-0.09920091943295906-2" x="-256" y="0"/>
  <animateTransform attributeName="transform" type="translate" repeatCount="indefinite" dur="4s"
  keyTimes="0;1" values="0;256"/>
</g>
</svg>