<?xml version="1.0" encoding="utf-8"?>
<svg xmlns="http://www.w3.org/2000/svg" xmlns:xlink="http://www.w3.org/1999/xlink" viewBox="0 0 256 256" width="256px" height="256px">
<style type="text/css">@keyframes ld-pulse
{
  0% {
    animation-timing-function: cubic-bezier(0.0413,0.3905,0.5086,0.6902);
    transform: scale(1);
  }
  24.3% {
    animation-timing-function: cubic-bezier(0.2248,0.6332,0.5246,1);
    transform: scale(0.8458);
  }
  55% {
    animation-timing-function: cubic-bezier(0.3036,0.3393,0.655,0.6144);
    transform: scale(0.8022);
  }
  70.2% {
    animation-timing-function: cubic-bezier(0.4464,0.2728,0.5562,0.7288);
    transform: scale(0.8294);
  }
  82.3% {
    animation-timing-function: cubic-bezier(0.6826,0.1845,1,0.7358);
    transform: scale(0.869);
  }
  100% {
    transform: scale(1);
  }
}
.ld.ld-pulse {
  animation: ld-pulse 0.5s infinite;
}</style>
<rect x="0" y="0" width="256" height="256" fill="#eee"/>
<defs>
  <g id="id-0.9767517004406727"><!--Generator: Adobe Illustrator 21.0.0, SVG Export Plug-In . SVG Version: 6.00 Build 0)--><path style="fill:#cccbca" d="M62.43,42.293c0.219-11.972,6.275-28.691,11.363-34.457c0.555-0.63,1.786-0.315,1.786,0.457l0,50.736 l0,6.161l0,22.906v1.984c0,1.337-1.348,2.42-3.011,2.42c-1.435,0-2.671-0.814-2.952-1.946l-0.195-0.783 c-0.277-1.113-0.395-2.249-0.352-3.384l0.881-23.374C65.897,60.027,62.221,53.696,62.43,42.293z"/><path style="fill:#e0e0e0" d="M42.99,12.272c0-1.509-0.943-2.716-2.103-2.718c-0.07,0-0.138-0.008-0.209-0.002 c-1.092,0.137-1.894,1.411-1.894,2.838L38.152,26.29c0,0.944-0.765,1.709-1.709,1.709s-1.709-0.765-1.709-1.709l-0.403-15.952 c0-1.062-0.494-2.038-1.245-2.525c-0.032-0.02-0.065-0.035-0.098-0.053c-0.092-0.053-0.186-0.102-0.284-0.14 c-0.088-0.033-0.181-0.053-0.274-0.073c-0.058-0.013-0.114-0.033-0.174-0.041C32.173,7.495,32.086,7.503,32,7.502 c-0.086,0-0.173-0.007-0.257,0.003c-0.06,0.008-0.116,0.028-0.174,0.041c-0.093,0.02-0.185,0.041-0.274,0.073 c-0.098,0.038-0.192,0.087-0.284,0.14c-0.033,0.018-0.066,0.034-0.098,0.053c-0.751,0.487-1.245,1.463-1.245,2.525L29.266,26.29 c0,0.944-0.765,1.709-1.709,1.709s-1.709-0.765-1.709-1.709l-0.631-13.901c0-1.427-0.802-2.701-1.894-2.838 c-0.071-0.005-0.139,0.002-0.209,0.002c-1.16,0.002-2.103,1.21-2.103,2.718l-0.631,15.727v5.162c0,3.221,2.086,5.949,4.979,6.922 c0.983,0.52,1.931,0.777,2.531,1.948c0.46,0.899,0.634,1.863,0.693,2.847l-1.139,40.473c0,3.948,1.928,7.148,4.306,7.148h0.503 c2.378,0,4.306-3.2,4.306-7.148c0-7.39-1.139-40.473-1.139-40.473c0.059-0.984,0.232-1.949,0.693-2.847 c0.6-1.171,1.548-1.428,2.531-1.948c2.893-0.973,4.979-3.701,4.979-6.922v-5.162L42.99,12.272z"/><metadata xmlns:d="https://loading.io/stock/"><d:name>food</d:name><d:tags>food,dish,dinner,lunch,breakfast,diet,eat,cuisine,gourmet</d:tags><d:license>cc-by</d:license><d:slug>1g3cj9</d:slug></metadata></g>
  <g id="id-0.9767517004406727-2">
    
<!-- Generator: Adobe Illustrator 21.0.0, SVG Export Plug-In . SVG Version: 6.00 Build 0)  -->





    <g transform=" translate(192,191.9995) scale(0.8888888888888888)"><g class="ld ld-pulse" style="animation-delay:0s"><g data-icon="">  <use xlink:href="#id-0.9767517004406727" x="-50" y="-50"/>
</g></g></g><g transform=" translate(64,63.9995) scale(0.8888888888888888)"><g class="ld ld-pulse" style="animation-delay:-0.25s"><g data-icon="">  <use xlink:href="#id-0.9767517004406727" x="-50" y="-50"/>
</g></g></g>
  </g>
</defs>
<g>
  <use xlink:href="#id-0.9767517004406727-2" x="0" y="0"/>
  <use xlink:href="#id-0.9767517004406727-2" x="-256" y="0"/>
  <animateTransform attributeName="transform" type="translate" repeatCount="indefinite" dur="4s"
  keyTimes="0;1" values="0;256"/>
</g>
</svg>