<?xml version="1.0" encoding="utf-8"?>
<svg xmlns="http://www.w3.org/2000/svg" xmlns:xlink="http://www.w3.org/1999/xlink" viewBox="0 0 256 256" width="256px" height="256px">
<style type="text/css">@keyframes ld-pulse
{
  0% {
    animation-timing-function: cubic-bezier(0.0413,0.3905,0.5086,0.6902);
    transform: scale(1);
  }
  24.3% {
    animation-timing-function: cubic-bezier(0.2248,0.6332,0.5246,1);
    transform: scale(0.8458);
  }
  55% {
    animation-timing-function: cubic-bezier(0.3036,0.3393,0.655,0.6144);
    transform: scale(0.8022);
  }
  70.2% {
    animation-timing-function: cubic-bezier(0.4464,0.2728,0.5562,0.7288);
    transform: scale(0.8294);
  }
  82.3% {
    animation-timing-function: cubic-bezier(0.6826,0.1845,1,0.7358);
    transform: scale(0.869);
  }
  100% {
    transform: scale(1);
  }
}
.ld.ld-pulse {
  animation: ld-pulse 0.5s infinite;
}</style>
<rect x="0" y="0" width="256" height="256" fill="#eee"/>
<defs>
  <g id="id-0.4744175275879674"><!--Generator: Adobe Illustrator 21.0.0, SVG Export Plug-In . SVG Version: 6.00 Build 0)--><path style="fill:#a0c8d7" d="M83.923,41.395c-0.837-3.31-2.144-6.432-3.849-9.291c-0.769-1.289-0.587-2.928,0.474-3.989 l0.826-0.826c1.271-1.271,1.271-3.333,0-4.604l-4.058-4.058c-1.271-1.271-3.333-1.271-4.604,0l-0.826,0.826 c-1.061,1.061-2.7,1.243-3.989,0.474c-2.859-1.705-5.981-3.012-9.291-3.849c-1.453-0.367-2.48-1.656-2.48-3.154v-1.167 c0-1.798-1.458-3.256-3.256-3.256h-5.739c-1.798,0-3.256,1.458-3.256,3.256v1.167c0,1.498-1.028,2.787-2.48,3.154 c-3.31,0.837-6.432,2.144-9.291,3.849c-1.289,0.769-2.928,0.587-3.989-0.474l-0.826-0.826c-1.271-1.271-3.333-1.271-4.604,0 l-4.058,4.058c-1.271,1.271-1.271,3.333,0,4.604l0.826,0.826c1.061,1.061,1.243,2.7,0.474,3.989 c-1.705,2.859-3.012,5.981-3.849,9.291c-0.367,1.453-1.656,2.48-3.154,2.48h-1.167c-1.798,0-3.256,1.458-3.256,3.256v5.739 c0,1.798,1.458,3.256,3.256,3.256h1.167c1.498,0,2.787,1.028,3.154,2.48c0.837,3.31,2.144,6.432,3.849,9.291 c0.769,1.289,0.587,2.928-0.474,3.989l-0.826,0.826c-1.271,1.271-1.271,3.333,0,4.604l4.058,4.058c1.271,1.271,3.333,1.271,4.604,0 l0.826-0.826c1.061-1.061,2.7-1.243,3.989-0.474c2.859,1.705,5.981,3.012,9.291,3.849c1.453,0.367,2.48,1.656,2.48,3.154v1.167 c0,1.798,1.458,3.256,3.256,3.256h5.739c1.798,0,3.256-1.458,3.256-3.256v-1.167c0-1.498,1.028-2.787,2.48-3.154 c3.31-0.837,6.432-2.144,9.291-3.849c1.289-0.769,2.928-0.587,3.989,0.474l0.826,0.826c1.271,1.271,3.333,1.271,4.604,0l4.058-4.058 c1.271-1.271,1.271-3.333,0-4.604l-0.826-0.826c-1.061-1.061-1.243-2.7-0.474-3.989c1.705-2.859,3.012-5.981,3.849-9.291 c0.367-1.453,1.656-2.48,3.154-2.48h1.167c1.798,0,3.256-1.458,3.256-3.256v-5.739c0-1.798-1.458-3.256-3.256-3.256h-1.167 C85.579,43.875,84.29,42.847,83.923,41.395z M71.47,62.808c-2.125,3.555-5.107,6.537-8.662,8.662 c-2.055,1.229-4.301,2.171-6.683,2.771C54.165,74.735,52.114,75,50,75s-4.165-0.265-6.125-0.759c-2.382-0.6-4.628-1.543-6.683-2.771 c-3.555-2.125-6.537-5.107-8.662-8.662c-1.229-2.055-2.171-4.301-2.771-6.683C25.265,54.165,25,52.114,25,50 s0.265-4.165,0.759-6.125c0.6-2.382,1.543-4.628,2.771-6.683c2.125-3.555,5.107-6.537,8.662-8.662 c2.055-1.229,4.301-2.171,6.683-2.771C45.835,25.265,47.886,25,50,25s4.165,0.265,6.125,0.759c2.382,0.6,4.628,1.543,6.683,2.771 c3.555,2.125,6.537,5.107,8.662,8.662c1.229,2.055,2.171,4.301,2.771,6.683C74.735,45.835,75,47.886,75,50s-0.265,4.165-0.759,6.125 C73.641,58.507,72.699,60.753,71.47,62.808z"/><metadata xmlns:d="https://loading.io/stock/"><d:name>gear</d:name><d:tags>gear,config,setting,manage,operation,mechanic,machine,workshop</d:tags><d:license>cc-by</d:license><d:slug>3y4dar</d:slug></metadata></g>
  <g id="id-0.4744175275879674-2">
    
<!-- Generator: Adobe Illustrator 21.0.0, SVG Export Plug-In . SVG Version: 6.00 Build 0)  -->





    <g transform=" translate(192,191.9995) scale(0.8888888888888888)"><g class="ld ld-pulse" style="animation-delay:0s"><g data-icon="">  <use href="#id-0.4744175275879674" x="-50" y="-50"/>
</g></g></g><g transform=" translate(64,63.9995) scale(0.8888888888888888)"><g class="ld ld-pulse" style="animation-delay:-0.25s"><g data-icon="">  <use href="#id-0.4744175275879674" x="-50" y="-50"/>
</g></g></g>
  </g>
</defs>
<g>
  <use href="#id-0.4744175275879674-2" x="0" y="0"/>
  <use href="#id-0.4744175275879674-2" x="-256" y="0"/>
  <animateTransform attributeName="transform" type="translate" repeatCount="indefinite" dur="4s"
  keyTimes="0;1" values="0;256"/>
</g>
</svg>