<?xml version="1.0" encoding="utf-8"?>
<svg xmlns="http://www.w3.org/2000/svg" xmlns:xlink="http://www.w3.org/1999/xlink" viewBox="0 0 256 256" width="256px" height="256px">
<style type="text/css">@keyframes ld-pulse
{
  0% {
    animation-timing-function: cubic-bezier(0.0413,0.3905,0.5086,0.6902);
    transform: scale(1);
  }
  24.3% {
    animation-timing-function: cubic-bezier(0.2248,0.6332,0.5246,1);
    transform: scale(0.8458);
  }
  55% {
    animation-timing-function: cubic-bezier(0.3036,0.3393,0.655,0.6144);
    transform: scale(0.8022);
  }
  70.2% {
    animation-timing-function: cubic-bezier(0.4464,0.2728,0.5562,0.7288);
    transform: scale(0.8294);
  }
  82.3% {
    animation-timing-function: cubic-bezier(0.6826,0.1845,1,0.7358);
    transform: scale(0.869);
  }
  100% {
    transform: scale(1);
  }
}
.ld.ld-pulse {
  animation: ld-pulse 0.5s infinite;
}</style>
<rect x="0" y="0" width="256" height="256" fill="#eee"/>
<defs>
  <g id="id-0.44467131352124944"><!--Generator: Adobe Illustrator 21.0.0, SVG Export Plug-In . SVG Version: 6.00 Build 0)--><path style="fill:#abbd81" d="M48.442,10.03c-13.113,0.517-25.245,7.523-32.271,18.638L40.53,42.733l7.912,4.568V10.03z"/><path style="fill:#f8b26a" d="M10,50c0,21.534,17.105,39.148,38.442,39.97V50.9L14.609,31.367C11.589,37.093,10,43.501,10,50z"/><path style="fill:#e15b64" d="M51.558,89.97c13.63-0.537,26.2-8.086,33.079-19.974C88.145,63.934,90,57.019,90,50 c0-21.534-17.105-39.148-38.442-39.97V49.1v3.599V89.97z"/><metadata xmlns:d="https://loading.io/stock/"><d:name>pie</d:name><d:tags>pie,donut,circle,percent,proportion,ratio,chart</d:tags><d:license>cc-by</d:license><d:slug>z6idj2</d:slug></metadata></g>
  <g id="id-0.44467131352124944-2">
    
<!-- Generator: Adobe Illustrator 21.0.0, SVG Export Plug-In . SVG Version: 6.00 Build 0)  -->







    <g transform=" translate(192,191.9995) scale(0.8888888888888888)"><g class="ld ld-pulse" style="animation-delay:0s"><g data-icon="">  <use href="#id-0.44467131352124944" x="-50" y="-50"/>
</g></g></g><g transform=" translate(192,63.9995) scale(0.5555555555555556)"><g class="ld ld-pulse" style="animation-delay:-0.125s"><g data-icon="">  <use href="#id-0.44467131352124944" x="-50" y="-50"/>
</g></g></g><g transform=" translate(64,63.9995) scale(0.8888888888888888)"><g class="ld ld-pulse" style="animation-delay:-0.25s"><g data-icon="">  <use href="#id-0.44467131352124944" x="-50" y="-50"/>
</g></g></g><g transform=" translate(64,191.9995) scale(0.5555555555555556)"><g class="ld ld-pulse" style="animation-delay:-0.375s"><g data-icon="">  <use href="#id-0.44467131352124944" x="-50" y="-50"/>
</g></g></g>
  </g>
</defs>
<g>
  <use href="#id-0.44467131352124944-2" x="0" y="0"/>
  <use href="#id-0.44467131352124944-2" x="-256" y="0"/>
  <animateTransform attributeName="transform" type="translate" repeatCount="indefinite" dur="4s"
  keyTimes="0;1" values="0;256"/>
</g>
</svg>