<?xml version="1.0" encoding="utf-8"?>
<svg xmlns="http://www.w3.org/2000/svg" xmlns:xlink="http://www.w3.org/1999/xlink" viewBox="0 0 256 256" width="256px" height="256px">
<style type="text/css">@keyframes ld-pulse
{
  0% {
    animation-timing-function: cubic-bezier(0.0413,0.3905,0.5086,0.6902);
    transform: scale(1);
  }
  24.3% {
    animation-timing-function: cubic-bezier(0.2248,0.6332,0.5246,1);
    transform: scale(0.8458);
  }
  55% {
    animation-timing-function: cubic-bezier(0.3036,0.3393,0.655,0.6144);
    transform: scale(0.8022);
  }
  70.2% {
    animation-timing-function: cubic-bezier(0.4464,0.2728,0.5562,0.7288);
    transform: scale(0.8294);
  }
  82.3% {
    animation-timing-function: cubic-bezier(0.6826,0.1845,1,0.7358);
    transform: scale(0.869);
  }
  100% {
    transform: scale(1);
  }
}
.ld.ld-pulse {
  animation: ld-pulse 0.5s infinite;
}</style>
<rect x="0" y="0" width="256" height="256" fill="#eee"/>
<defs>
  <g id="id-0.0060779341272954035"><!--Generator: Adobe Illustrator 21.0.0, SVG Export Plug-In . SVG Version: 6.00 Build 0)--><path style="fill:#fff" d="M48.5,8.5v0.05C49,8.532,49.498,8.5,50,8.5H48.5z"/><path style="fill:#fff" d="M51.5,8.5H50c0.502,0,1,0.032,1.5,0.05V8.5z"/><path style="fill:#f8b26a" d="M80.591,69.697l-11.81-6.819C64.62,69.128,57.549,72.956,50,72.956s-14.62-3.827-18.78-10.077 l-11.81,6.819c5.804,9.181,15.461,15.258,26.127,16.597L50,94.265l4.463-7.97C65.129,84.955,74.786,78.879,80.591,69.697z"/><path style="fill:#e15b64" d="M87.981,28.48l-9.142,0.12c-6.508-8.581-16.597-13.908-27.43-14.335v13.64 c7.478,0.472,14.328,4.684,18.115,11.229c1.978,3.419,3.024,7.318,3.024,11.274c0,3.485-0.811,6.924-2.356,10.031l11.81,6.819 c2.731-5.178,4.168-10.974,4.168-16.849c0-4.848-0.985-9.638-2.862-14.075L87.981,28.48z"/><path style="fill:#abbd81" d="M21.161,28.6l-9.142-0.12l4.672,7.852c-1.876,4.438-2.862,9.228-2.862,14.075 c0,5.876,1.437,11.671,4.168,16.849l11.81-6.819c-1.545-3.107-2.356-6.546-2.356-10.031c0-3.956,1.045-7.854,3.024-11.274 c3.787-6.545,10.637-10.756,18.115-11.229v-13.64C37.758,14.691,27.669,20.019,21.161,28.6z"/><metadata xmlns:d="https://loading.io/stock/"><d:name>component</d:name><d:tags>component,composition,ingredient,infographics</d:tags><d:license>cc-by</d:license><d:slug>odvkpk</d:slug></metadata></g>
  <g id="id-0.0060779341272954035-2">
    
<!-- Generator: Adobe Illustrator 21.0.0, SVG Export Plug-In . SVG Version: 6.00 Build 0)  -->







    <g transform=" translate(192,191.9995) scale(0.8888888888888888)"><g class="ld ld-pulse" style="animation-delay:0s"><g data-icon="">  <use href="#id-0.0060779341272954035" x="-50" y="-50"/>
</g></g></g><g transform=" translate(192,63.9995) scale(0.5555555555555556)"><g class="ld ld-pulse" style="animation-delay:-0.125s"><g data-icon="">  <use href="#id-0.0060779341272954035" x="-50" y="-50"/>
</g></g></g><g transform=" translate(64,63.9995) scale(0.8888888888888888)"><g class="ld ld-pulse" style="animation-delay:-0.25s"><g data-icon="">  <use href="#id-0.0060779341272954035" x="-50" y="-50"/>
</g></g></g><g transform=" translate(64,191.9995) scale(0.5555555555555556)"><g class="ld ld-pulse" style="animation-delay:-0.375s"><g data-icon="">  <use href="#id-0.0060779341272954035" x="-50" y="-50"/>
</g></g></g>
  </g>
</defs>
<g>
  <use href="#id-0.0060779341272954035-2" x="0" y="0"/>
  <use href="#id-0.0060779341272954035-2" x="-256" y="0"/>
  <animateTransform attributeName="transform" type="translate" repeatCount="indefinite" dur="4s"
  keyTimes="0;1" values="0;256"/>
</g>
</svg>