<?xml version="1.0" encoding="utf-8"?>
<svg xmlns="http://www.w3.org/2000/svg" xmlns:xlink="http://www.w3.org/1999/xlink" viewBox="0 0 256 256" width="256px" height="256px">
<style type="text/css">@keyframes ld-pulse
{
  0% {
    animation-timing-function: cubic-bezier(0.0413,0.3905,0.5086,0.6902);
    transform: scale(1);
  }
  24.3% {
    animation-timing-function: cubic-bezier(0.2248,0.6332,0.5246,1);
    transform: scale(0.8458);
  }
  55% {
    animation-timing-function: cubic-bezier(0.3036,0.3393,0.655,0.6144);
    transform: scale(0.8022);
  }
  70.2% {
    animation-timing-function: cubic-bezier(0.4464,0.2728,0.5562,0.7288);
    transform: scale(0.8294);
  }
  82.3% {
    animation-timing-function: cubic-bezier(0.6826,0.1845,1,0.7358);
    transform: scale(0.869);
  }
  100% {
    transform: scale(1);
  }
}
.ld.ld-pulse {
  animation: ld-pulse 0.5s infinite;
}</style>
<rect x="0" y="0" width="256" height="256" fill="#eee"/>
<defs>
  <g id="id-0.7335571742299112"><!--Generator: Adobe Illustrator 21.0.0, SVG Export Plug-In . SVG Version: 6.00 Build 0)--><g><path style="fill:#a67c52;stroke:#000;stroke-width:3;stroke-linecap:round;stroke-miterlimit:10" d="M52.7,17.4h-5.5 c-1.4,0-2.5-1.1-2.5-2.5v-2.5c0-1.4,1.1-2.5,2.5-2.5h5.5c1.4,0,2.5,1.1,2.5,2.5v2.5C55.3,16.3,54.1,17.4,52.7,17.4z"/><g><path style="fill:#c8b400;stroke:#000;stroke-width:3;stroke-linecap:round;stroke-miterlimit:10" d="M56.4,83.3 c-0.5,2.2-2.2,3.9-2.6,4.4c-1.4,1.4-2.9,2.1-3.8,2.4c-0.9-0.3-2.4-0.9-3.8-2.4c-0.7-0.7-2.5-2.8-2.6-5.6c-0.1-3.8,2.8-8.3,6.4-8.4 C53.9,73.7,57.2,79.3,56.4,83.3z"/><g><path style="fill:#d9b621;stroke:#000;stroke-width:3;stroke-linecap:round;stroke-miterlimit:10" d="M41.5,82.2 c0.2,0,1.6,0.1,2.8-0.9c1.4-1.2,1.3-3.1,1.8-3.1c0.6,0,0.4,2.7,2.1,4c1.2,0.9,3.2,0.9,4.3,0c1.5-1.2,1-3.8,1.6-3.8 c0.6-0.1,0.8,2.8,2.8,3.9c0.9,0.5,2.1,0.6,3.2,0.1c1.7-0.8,2.1-2.7,2.1-2.8C61.8,73,56.4,67.8,50,67.8c-6.4,0-11.8,5.1-12.2,11.5 C38.5,81,39.9,82.1,41.5,82.2z"/></g><g><path style="fill:#754c24;stroke:#000;stroke-width:3;stroke-linecap:round;stroke-miterlimit:10" d="M37.6,73.5 c0.3,0,2.4,0.1,4.1-1.3c2.1-1.8,1.9-4.5,2.6-4.5c0.9,0,0.6,4,3.1,5.8c1.7,1.3,4.6,1.3,6.2,0c2.2-1.8,1.4-5.5,2.3-5.6 c0.9-0.1,1.1,4.1,4.1,5.7c1.3,0.7,3.1,0.8,4.6,0.2c2.5-1.1,3.1-3.9,3.1-4.2c-0.5-9.4-8.4-16.9-17.8-16.9 c-9.4,0-17.2,7.4-17.8,16.8C33.2,71.7,35.3,73.4,37.6,73.5z"/></g><g><path style="fill:#d9b621;stroke:#000;stroke-width:3;stroke-linecap:round;stroke-miterlimit:10" d="M34.2,62.2 c0.4,0,3,0.2,5.2-1.7c2.6-2.3,2.4-5.8,3.3-5.8c1.1,0,0.8,5,4,7.4c2.2,1.6,5.9,1.7,7.9,0c2.7-2.2,1.8-7,2.9-7.1 c1.2-0.1,1.5,5.2,5.3,7.2c1.7,0.9,3.9,1.1,5.9,0.2c3.2-1.4,3.9-4.9,4-5.3C72,45.1,62,35.5,50,35.5c-11.9,0-21.9,9.4-22.7,21.4 C28.6,59.9,31.3,62,34.2,62.2z"/></g><path style="fill:#754c24;stroke:#000;stroke-width:3;stroke-linecap:round;stroke-miterlimit:10" d="M30.5,48 c0.4,0,3.8,0.2,6.4-2.1c3.3-2.8,2.9-7.1,4.1-7.2c1.4,0,0.9,6.2,4.9,9.1c2.8,2,7.3,2.1,9.8,0c3.4-2.8,2.2-8.7,3.6-8.8 c1.5-0.2,1.8,6.5,6.5,9c2.1,1.1,4.9,1.3,7.3,0.2c4-1.8,4.9-6.1,4.9-6.6C77.3,26.9,64.8,15,50,15c-14.8,0-27.2,11.7-28.1,26.5 C23.6,45.2,26.8,47.8,30.5,48z"/></g></g><metadata xmlns:d="https://loading.io/stock/"><d:name>pine cone</d:name><d:tags>pine cone, tree, fruit, gains, conifer</d:tags><d:license>cc-by</d:license><d:slug>igu0k</d:slug></metadata></g>
  <g id="id-0.7335571742299112-2">
    
<!-- Generator: Adobe Illustrator 21.0.0, SVG Export Plug-In . SVG Version: 6.00 Build 0)  -->













    <g transform=" translate(151,149.9995) scale(0.6222222222222222)"><g class="ld ld-pulse" style="animation-delay:0s"><g data-icon="">  <use href="#id-0.7335571742299112" x="-50" y="-50"/>
</g></g></g><g transform="matrix(0.9628 0.2703 -0.2703 0.9628 41.3411 -58.0147) translate(231.293,121.08149999999999) scale(0.5214666666666667)"><g class="ld ld-pulse" style="animation-delay:-0.05s"><g data-icon="">  <use href="#id-0.7335571742299112" x="-50" y="-50"/>
</g></g></g><g transform="matrix(-0.0456 0.999 -0.999 -0.0456 207.6542 -74.2389) translate(139.293,62.081500000000005) scale(0.5214666666666667)"><g class="ld ld-pulse" style="animation-delay:-0.1s"><g data-icon="">  <use href="#id-0.7335571742299112" x="-50" y="-50"/>
</g></g></g><g transform="matrix(0.2398 -0.9708 0.9708 0.2398 127.6881 219.61) translate(204.074,28.271) scale(0.3916444444444444)"><g class="ld ld-pulse" style="animation-delay:-0.15s"><g data-icon="">  <use href="#id-0.7335571742299112" x="-50" y="-50"/>
</g></g></g><g transform="matrix(0.5905 -0.8071 0.8071 0.5905 -96.797 253.4085) translate(201.293,222.0815) scale(0.5214666666666667)"><g class="ld ld-pulse" style="animation-delay:-0.2s"><g data-icon="">  <use href="#id-0.7335571742299112" x="-50" y="-50"/>
</g></g></g><g transform="matrix(0.8618 0.5073 -0.5073 0.8618 120.0863 -26.4095) translate(108.50649999999999,207.1645) scale(0.44135555555555556)"><g class="ld ld-pulse" style="animation-delay:-0.25s"><g data-icon="">  <use href="#id-0.7335571742299112" x="-50" y="-50"/>
</g></g></g><g transform="matrix(0.9981 0.0609 -0.0609 0.9981 7.8271 -4.6047) translate(79.461,126.11449999999999) scale(0.43675555555555556)"><g class="ld ld-pulse" style="animation-delay:-0.3s"><g data-icon="">  <use href="#id-0.7335571742299112" x="-50" y="-50"/>
</g></g></g><g transform="matrix(-0.7024 0.7118 -0.7118 -0.7024 125.7862 11.6317) translate(60.461,32.1145) scale(0.43675555555555556)"><g class="ld ld-pulse" style="animation-delay:-0.35s"><g data-icon="">  <use href="#id-0.7335571742299112" x="-50" y="-50"/>
</g></g></g><g transform="matrix(0.8596 0.511 -0.511 0.8596 47.5053 -5.4135) translate(33.602,83.7265) scale(0.3879111111111111)"><g class="ld ld-pulse" style="animation-delay:-0.4s"><g data-icon="">  <use href="#id-0.7335571742299112" x="-50" y="-50"/>
</g></g></g><g transform="matrix(0.5692 -0.8222 0.8222 0.5692 -149.2038 124.5031) translate(44.2025,204.6265) scale(0.5011777777777778)"><g class="ld ld-pulse" style="animation-delay:-0.45s"><g data-icon="">  <use href="#id-0.7335571742299112" x="-50" y="-50"/>
</g></g></g>
  </g>
</defs>
<g>
  <use href="#id-0.7335571742299112-2" x="0" y="0"/>
  <use href="#id-0.7335571742299112-2" x="-256" y="0"/>
  <animateTransform attributeName="transform" type="translate" repeatCount="indefinite" dur="4s"
  keyTimes="0;1" values="0;256"/>
</g>
</svg>