<?xml version="1.0" encoding="utf-8"?>
<svg xmlns="http://www.w3.org/2000/svg" xmlns:xlink="http://www.w3.org/1999/xlink" viewBox="0 0 256 256" width="256px" height="256px">
<style type="text/css">@keyframes ld-pulse
{
  0% {
    animation-timing-function: cubic-bezier(0.0413,0.3905,0.5086,0.6902);
    transform: scale(1);
  }
  24.3% {
    animation-timing-function: cubic-bezier(0.2248,0.6332,0.5246,1);
    transform: scale(0.8458);
  }
  55% {
    animation-timing-function: cubic-bezier(0.3036,0.3393,0.655,0.6144);
    transform: scale(0.8022);
  }
  70.2% {
    animation-timing-function: cubic-bezier(0.4464,0.2728,0.5562,0.7288);
    transform: scale(0.8294);
  }
  82.3% {
    animation-timing-function: cubic-bezier(0.6826,0.1845,1,0.7358);
    transform: scale(0.869);
  }
  100% {
    transform: scale(1);
  }
}
.ld.ld-pulse {
  animation: ld-pulse 0.5s infinite;
}</style>
<rect x="0" y="0" width="256" height="256" fill="#eee"/>
<defs>
  <g id="id-0.6338116641119853"><!--Generator: Adobe Illustrator 21.0.0, SVG Export Plug-In . SVG Version: 6.00 Build 0)--><path style="fill:#abbd81" d="M28.408,32.308c0.351-0.07,0.703-0.137,1.055-0.193c0.279-0.044,0.559-0.081,0.839-0.116 c0.346-0.044,0.691-0.082,1.038-0.113c0.285-0.025,0.569-0.046,0.854-0.062c0.344-0.02,0.688-0.031,1.033-0.037 c0.172-0.003,0.344-0.019,0.516-0.019c0.104,0,0.208,0.011,0.312,0.012c0.443,0.005,0.886,0.026,1.328,0.052 c0.222,0.013,0.444,0.019,0.665,0.038c0.648,0.055,1.294,0.128,1.937,0.228c0.134,0.021,0.266,0.052,0.4,0.075 c0.519,0.089,1.035,0.188,1.548,0.306c0.238,0.055,0.473,0.12,0.709,0.181c0.41,0.106,0.817,0.218,1.222,0.343 c0.251,0.077,0.5,0.159,0.749,0.244c0.395,0.134,0.787,0.28,1.177,0.432c0.236,0.093,0.473,0.183,0.707,0.282 c0.436,0.185,0.865,0.386,1.292,0.594c0.175,0.085,0.353,0.162,0.527,0.251c0.587,0.301,1.164,0.624,1.731,0.968 c0.159,0.096,0.311,0.204,0.468,0.304c0.413,0.263,0.821,0.532,1.221,0.818c0.064,0.046,0.132,0.085,0.195,0.131l0.026-0.02 l0.025,0.02c0.08-0.055,0.164-0.103,0.244-0.157c0.186-0.125,0.376-0.244,0.564-0.364c0.295-0.187,0.592-0.37,0.893-0.545 c0.203-0.118,0.407-0.233,0.612-0.345c0.297-0.163,0.596-0.318,0.897-0.469c0.212-0.106,0.423-0.212,0.637-0.312 c0.306-0.144,0.616-0.278,0.926-0.409c0.212-0.09,0.423-0.183,0.637-0.268c0.337-0.133,0.678-0.254,1.02-0.373 c0.191-0.067,0.379-0.14,0.571-0.202c0.525-0.171,1.054-0.328,1.588-0.467c0.129-0.034,0.26-0.058,0.39-0.09 c0.414-0.101,0.83-0.199,1.248-0.281c0.221-0.043,0.443-0.076,0.665-0.114c0.33-0.057,0.661-0.113,0.993-0.157 c0.242-0.032,0.485-0.056,0.727-0.082c0.316-0.034,0.631-0.065,0.948-0.088c0.249-0.018,0.498-0.03,0.747-0.042 c0.314-0.014,0.628-0.023,0.943-0.026c0.248-0.003,0.496-0.003,0.745,0.001c0.322,0.005,0.644,0.019,0.965,0.036 c0.239,0.012,0.479,0.023,0.718,0.042c0.343,0.027,0.684,0.065,1.026,0.105c0.217,0.025,0.435,0.045,0.651,0.076 c0.423,0.059,0.845,0.134,1.266,0.214c0.133,0.025,0.267,0.043,0.4,0.07c0.552,0.113,1.101,0.244,1.647,0.391 c0.156,0.042,0.31,0.094,0.466,0.139c0.332,0.096,0.665,0.188,0.994,0.297c0.038-0.558,0.058-1.117,0.058-1.674 c0-13.308-10.827-24.135-24.135-24.135S25.9,18.629,25.9,31.937c0,0.324,0.007,0.648,0.021,0.975 c0.191-0.057,0.385-0.097,0.577-0.15c0.367-0.101,0.735-0.202,1.105-0.287C27.87,32.413,28.139,32.362,28.408,32.308z"/><path style="fill:#f8b26a" d="M45.602,78.501c-0.389-0.411-0.765-0.832-1.126-1.264c-0.081-0.097-0.155-0.199-0.235-0.297 c-0.277-0.341-0.549-0.685-0.809-1.039c-0.12-0.164-0.232-0.332-0.349-0.498c-0.208-0.297-0.414-0.594-0.609-0.898 c-0.12-0.187-0.235-0.378-0.35-0.568c-0.178-0.292-0.352-0.586-0.519-0.884c-0.112-0.2-0.22-0.401-0.327-0.604 c-0.158-0.299-0.309-0.601-0.456-0.905c-0.098-0.205-0.196-0.409-0.289-0.616c-0.142-0.315-0.276-0.634-0.406-0.955 c-0.081-0.2-0.165-0.399-0.242-0.601c-0.133-0.351-0.254-0.706-0.373-1.062c-0.059-0.176-0.123-0.351-0.178-0.529 c-0.153-0.49-0.291-0.985-0.416-1.484c-0.011-0.045-0.026-0.09-0.037-0.135c-0.134-0.547-0.25-1.099-0.35-1.655 c-0.03-0.164-0.05-0.329-0.077-0.494c-0.064-0.392-0.124-0.785-0.171-1.18c-0.025-0.208-0.041-0.417-0.061-0.626 c-0.034-0.356-0.064-0.712-0.084-1.069c-0.012-0.224-0.019-0.449-0.026-0.674c-0.011-0.346-0.016-0.693-0.013-1.041 c0.002-0.229,0.006-0.458,0.013-0.687c0.011-0.35,0.031-0.699,0.056-1.049c0.016-0.225,0.031-0.449,0.052-0.673 c0.009-0.096,0.012-0.191,0.022-0.287l-0.03-0.012l0.005-0.032c-0.086-0.041-0.169-0.089-0.255-0.131 c-0.202-0.099-0.401-0.204-0.6-0.308c-0.312-0.163-0.622-0.33-0.926-0.505c-0.197-0.113-0.392-0.228-0.586-0.346 c-0.3-0.182-0.596-0.37-0.888-0.563c-0.185-0.122-0.369-0.243-0.55-0.369c-0.299-0.208-0.59-0.424-0.88-0.643 c-0.163-0.123-0.328-0.243-0.487-0.37c-0.32-0.253-0.63-0.517-0.937-0.783c-0.119-0.103-0.242-0.201-0.358-0.306 c-0.422-0.379-0.833-0.768-1.23-1.171c-0.028-0.029-0.054-0.059-0.082-0.088c-0.364-0.373-0.718-0.756-1.06-1.149 c-0.119-0.137-0.231-0.279-0.347-0.418c-0.244-0.292-0.486-0.585-0.717-0.886c-0.13-0.17-0.255-0.343-0.381-0.516 c-0.206-0.281-0.409-0.565-0.604-0.854c-0.126-0.187-0.249-0.376-0.37-0.566c-0.183-0.286-0.361-0.574-0.533-0.867 c-0.116-0.197-0.231-0.394-0.342-0.594c-0.166-0.299-0.324-0.601-0.479-0.906c-0.101-0.199-0.204-0.397-0.301-0.599 c-0.156-0.326-0.301-0.657-0.444-0.99c-0.08-0.186-0.165-0.37-0.241-0.559c-0.167-0.413-0.32-0.832-0.467-1.254 c-0.039-0.113-0.085-0.223-0.123-0.336c-0.179-0.536-0.34-1.078-0.486-1.626c-0.042-0.158-0.074-0.319-0.114-0.479 c-0.082-0.334-0.169-0.667-0.239-1.005c-0.501,0.246-0.996,0.509-1.479,0.788c-5.583,3.224-9.576,8.428-11.245,14.655 s-0.812,12.731,2.411,18.313c6.654,11.524,21.443,15.486,32.968,8.835c0.28-0.162,0.558-0.33,0.834-0.507 c-0.251-0.236-0.488-0.484-0.728-0.729C45.836,78.733,45.715,78.621,45.602,78.501z"/><path style="fill:#e0e0e0" d="M39.044,52.519c0.148-0.552,0.311-1.1,0.493-1.641c0.082-0.244,0.169-0.486,0.259-0.728 c0.189-0.512,0.395-1.017,0.615-1.518c0.095-0.215,0.184-0.432,0.284-0.646c0.328-0.697,0.677-1.385,1.065-2.057 c0.421-0.73,0.88-1.429,1.36-2.11c0.152-0.216,0.316-0.422,0.474-0.633c0.346-0.462,0.703-0.915,1.077-1.353 c0.192-0.225,0.387-0.446,0.585-0.664c0.385-0.423,0.786-0.831,1.198-1.229c0.192-0.186,0.378-0.376,0.576-0.556 c0.075-0.069,0.143-0.144,0.219-0.212c-0.205-0.138-0.412-0.272-0.62-0.404c-0.149-0.094-0.296-0.192-0.447-0.282 c-0.386-0.231-0.777-0.45-1.174-0.657c-0.042-0.022-0.082-0.047-0.125-0.069c-0.439-0.227-0.885-0.438-1.335-0.637 c-0.145-0.064-0.294-0.121-0.44-0.182c-0.31-0.13-0.621-0.257-0.935-0.373c-0.176-0.065-0.353-0.124-0.53-0.185 c-0.292-0.101-0.585-0.198-0.88-0.287c-0.185-0.056-0.371-0.108-0.558-0.16c-0.294-0.081-0.589-0.157-0.886-0.227 c-0.186-0.044-0.371-0.087-0.557-0.127c-0.31-0.066-0.621-0.122-0.933-0.176c-0.173-0.03-0.345-0.062-0.518-0.088 c-0.361-0.054-0.723-0.095-1.086-0.133c-0.125-0.013-0.25-0.031-0.375-0.042c-0.494-0.043-0.99-0.072-1.487-0.085 c-0.05-0.001-0.1,0.001-0.151,0c-0.441-0.009-0.883-0.006-1.324,0.01c-0.155,0.006-0.31,0.018-0.465,0.027 c-0.338,0.019-0.675,0.041-1.012,0.074c-0.181,0.018-0.361,0.041-0.542,0.062c-0.313,0.038-0.626,0.08-0.938,0.13 c-0.188,0.03-0.375,0.063-0.562,0.098c-0.306,0.057-0.612,0.121-0.917,0.189c-0.186,0.042-0.372,0.084-0.558,0.13 c-0.314,0.079-0.626,0.168-0.937,0.26c-0.171,0.05-0.342,0.097-0.513,0.151c-0.049,0.015-0.096,0.035-0.145,0.051 c0.009,0.051,0.015,0.104,0.025,0.155c0.033,0.175,0.073,0.347,0.11,0.521c0.067,0.317,0.136,0.634,0.216,0.947 c0.048,0.19,0.101,0.377,0.154,0.565c0.082,0.294,0.169,0.587,0.262,0.877c0.061,0.19,0.124,0.38,0.19,0.568 c0.1,0.287,0.207,0.571,0.318,0.853c0.071,0.181,0.141,0.362,0.216,0.541c0.124,0.296,0.258,0.587,0.393,0.876 c0.074,0.157,0.143,0.317,0.22,0.472c0.179,0.363,0.37,0.72,0.568,1.073c0.042,0.076,0.08,0.154,0.124,0.23 c0.243,0.425,0.501,0.842,0.77,1.251c0.08,0.123,0.168,0.241,0.25,0.362c0.194,0.284,0.391,0.567,0.597,0.843 c0.111,0.149,0.229,0.294,0.343,0.441c0.189,0.241,0.38,0.48,0.577,0.713c0.128,0.151,0.259,0.299,0.39,0.447 c0.198,0.223,0.4,0.442,0.606,0.657c0.137,0.144,0.276,0.286,0.417,0.427c0.214,0.213,0.435,0.421,0.657,0.626 c0.142,0.131,0.282,0.263,0.427,0.39c0.246,0.216,0.5,0.424,0.755,0.631c0.129,0.105,0.255,0.214,0.387,0.316 c0.387,0.3,0.782,0.591,1.188,0.868c0.056,0.038,0.115,0.072,0.172,0.11c0.355,0.238,0.715,0.468,1.083,0.687 c0.159,0.095,0.324,0.182,0.486,0.273c0.208,0.117,0.417,0.231,0.629,0.343c0.016-0.067,0.038-0.131,0.054-0.198 C38.93,52.909,38.991,52.715,39.044,52.519z"/><path style="fill:#e15b64" d="M75.788,41.351c-0.041,0.112-0.089,0.22-0.132,0.331c-0.159,0.417-0.324,0.831-0.503,1.238 c-0.082,0.187-0.172,0.369-0.258,0.553c-0.152,0.326-0.306,0.652-0.47,0.971c-0.104,0.201-0.213,0.398-0.322,0.597 c-0.162,0.297-0.327,0.591-0.5,0.881c-0.119,0.201-0.242,0.399-0.366,0.596c-0.177,0.28-0.358,0.557-0.545,0.831 c-0.132,0.194-0.265,0.386-0.401,0.576c-0.197,0.273-0.4,0.54-0.607,0.806c-0.138,0.178-0.275,0.358-0.417,0.532 c-0.228,0.279-0.466,0.551-0.705,0.821c-0.133,0.15-0.261,0.304-0.397,0.451c-0.323,0.35-0.658,0.689-0.999,1.022 c-0.06,0.059-0.117,0.122-0.177,0.18c-0.402,0.385-0.817,0.757-1.243,1.117c-0.146,0.124-0.298,0.239-0.447,0.36 c-0.289,0.234-0.578,0.467-0.876,0.69c-0.182,0.136-0.369,0.265-0.555,0.396c-0.276,0.196-0.553,0.389-0.837,0.575 c-0.201,0.132-0.406,0.258-0.611,0.385c-0.28,0.173-0.562,0.341-0.848,0.505c-0.213,0.121-0.428,0.24-0.644,0.356 c-0.291,0.156-0.587,0.304-0.885,0.45c-0.219,0.107-0.437,0.214-0.659,0.315c-0.081,0.037-0.159,0.079-0.24,0.115l0.004,0.032 l-0.03,0.012c0.007,0.094,0.007,0.188,0.014,0.282c0.015,0.23,0.024,0.459,0.034,0.689c0.014,0.345,0.024,0.69,0.025,1.035 c0.001,0.234-0.001,0.468-0.007,0.701c-0.008,0.342-0.022,0.683-0.043,1.024c-0.014,0.23-0.027,0.46-0.047,0.689 c-0.03,0.349-0.07,0.697-0.113,1.044c-0.027,0.215-0.05,0.431-0.081,0.645c-0.057,0.385-0.127,0.767-0.2,1.149 c-0.033,0.172-0.059,0.345-0.095,0.516c-0.116,0.55-0.247,1.096-0.396,1.636c-0.018,0.066-0.041,0.13-0.06,0.196 c-0.135,0.474-0.28,0.946-0.44,1.412c-0.063,0.182-0.134,0.361-0.2,0.542c-0.127,0.346-0.256,0.691-0.396,1.032 c-0.084,0.204-0.176,0.405-0.265,0.608c-0.138,0.312-0.279,0.623-0.428,0.93c-0.101,0.208-0.206,0.413-0.312,0.618 c-0.153,0.296-0.312,0.59-0.476,0.881c-0.115,0.203-0.231,0.405-0.351,0.605c-0.173,0.289-0.353,0.573-0.537,0.855 c-0.124,0.191-0.247,0.383-0.376,0.572c-0.201,0.293-0.412,0.579-0.624,0.865c-0.125,0.167-0.245,0.337-0.373,0.502 c-0.267,0.341-0.546,0.674-0.829,1.003c-0.086,0.1-0.166,0.204-0.253,0.302c-0.372,0.42-0.759,0.829-1.159,1.227 c-0.126,0.126-0.261,0.245-0.39,0.368c-0.239,0.229-0.474,0.461-0.722,0.682c0.464,0.313,0.938,0.608,1.42,0.886 c5.583,3.224,12.087,4.08,18.315,2.412c6.227-1.668,11.431-5.662,14.655-11.245c6.653-11.525,2.691-26.314-8.834-32.969h0.001 c-0.281-0.161-0.565-0.317-0.856-0.469c-0.082,0.346-0.18,0.686-0.275,1.027c-0.041,0.147-0.075,0.296-0.119,0.442 C76.16,40.281,75.982,40.82,75.788,41.351z"/><path style="fill:#e0e0e0" d="M53.187,39.841c0.398,0.399,0.786,0.808,1.159,1.231c0.173,0.197,0.342,0.396,0.509,0.598 c0.346,0.416,0.678,0.844,0.999,1.281c0.141,0.192,0.287,0.381,0.423,0.577c0.439,0.632,0.86,1.277,1.248,1.948 c0.33,0.572,0.631,1.155,0.917,1.743c0.06,0.124,0.121,0.248,0.18,0.372c0.27,0.577,0.522,1.16,0.75,1.751 c0.039,0.1,0.073,0.201,0.11,0.302c0.203,0.546,0.389,1.098,0.557,1.655c0.03,0.098,0.062,0.195,0.091,0.294 c0.176,0.609,0.327,1.226,0.46,1.847c0.012,0.056,0.03,0.11,0.041,0.166c0.237-0.116,0.472-0.235,0.705-0.358 c0.137-0.073,0.277-0.142,0.413-0.217c0.422-0.235,0.838-0.481,1.243-0.739c0.013-0.008,0.027-0.015,0.04-0.024 c0.419-0.268,0.828-0.551,1.228-0.844c0.123-0.09,0.241-0.186,0.362-0.278c0.272-0.207,0.543-0.417,0.805-0.635 c0.143-0.118,0.281-0.241,0.421-0.363c0.233-0.203,0.464-0.408,0.689-0.619c0.143-0.134,0.283-0.271,0.422-0.408 c0.214-0.211,0.425-0.426,0.631-0.645c0.134-0.142,0.267-0.284,0.398-0.43c0.206-0.23,0.406-0.465,0.603-0.702 c0.118-0.142,0.237-0.281,0.352-0.426c0.215-0.271,0.421-0.549,0.624-0.829c0.085-0.117,0.175-0.232,0.258-0.351 c0.281-0.401,0.55-0.81,0.806-1.228c0.043-0.071,0.082-0.145,0.125-0.217c0.209-0.35,0.412-0.703,0.603-1.064 c0.081-0.152,0.154-0.307,0.232-0.461c0.145-0.287,0.287-0.574,0.42-0.867c0.08-0.176,0.155-0.355,0.231-0.533 c0.119-0.279,0.234-0.559,0.342-0.843c0.071-0.186,0.139-0.373,0.206-0.561c0.101-0.287,0.197-0.576,0.287-0.868 c0.058-0.186,0.116-0.372,0.17-0.56c0.088-0.31,0.167-0.623,0.242-0.937c0.042-0.173,0.087-0.345,0.125-0.519 c0.011-0.05,0.018-0.101,0.029-0.152c-0.054-0.019-0.107-0.043-0.161-0.062c-0.15-0.053-0.302-0.098-0.453-0.148 c-0.324-0.107-0.649-0.209-0.977-0.302c-0.18-0.051-0.362-0.097-0.543-0.143c-0.302-0.078-0.605-0.15-0.909-0.216 c-0.192-0.041-0.384-0.081-0.577-0.117c-0.299-0.057-0.6-0.107-0.9-0.152c-0.193-0.029-0.386-0.059-0.58-0.084 c-0.313-0.039-0.626-0.069-0.939-0.096c-0.179-0.015-0.358-0.035-0.537-0.047c-0.384-0.025-0.768-0.036-1.152-0.043 c-0.108-0.002-0.215-0.01-0.323-0.01c-0.484-0.002-0.968,0.013-1.452,0.04c-0.167,0.009-0.334,0.028-0.501,0.041 c-0.322,0.025-0.643,0.051-0.963,0.089c-0.199,0.023-0.397,0.054-0.595,0.082c-0.288,0.041-0.576,0.085-0.863,0.136 c-0.206,0.037-0.412,0.079-0.617,0.121c-0.279,0.058-0.556,0.12-0.833,0.187c-0.204,0.05-0.408,0.101-0.612,0.156 c-0.28,0.076-0.559,0.16-0.836,0.246c-0.193,0.06-0.387,0.118-0.579,0.183c-0.301,0.102-0.598,0.214-0.895,0.328 c-0.164,0.063-0.329,0.121-0.492,0.187c-0.452,0.184-0.899,0.38-1.34,0.592c-0.062,0.03-0.122,0.065-0.184,0.095 c-0.383,0.188-0.763,0.385-1.137,0.595c-0.156,0.088-0.309,0.183-0.464,0.275c-0.21,0.124-0.419,0.251-0.625,0.382 c0.049,0.046,0.092,0.096,0.14,0.142C52.895,39.537,53.038,39.692,53.187,39.841z"/><path style="fill:#e0e0e0" d="M56.981,58.44c-0.507,0.133-1.014,0.257-1.528,0.36c-0.319,0.064-0.639,0.117-0.961,0.17 c-0.44,0.072-0.88,0.134-1.322,0.185c-0.349,0.04-0.697,0.077-1.048,0.104c-0.447,0.034-0.894,0.05-1.341,0.062 c-0.25,0.007-0.497,0.034-0.748,0.034c-0.118,0-0.235-0.007-0.353-0.009c-0.046-0.001-0.091-0.003-0.137-0.003 c-0.665-0.012-1.326-0.044-1.982-0.103c-0.008-0.001-0.017-0.001-0.025-0.002c-0.666-0.06-1.327-0.146-1.983-0.254 c-0.069-0.011-0.137-0.024-0.206-0.036c-0.61-0.105-1.217-0.228-1.818-0.375c-0.045-0.011-0.09-0.02-0.135-0.031 c-0.597-0.149-1.188-0.322-1.775-0.511c-0.06-0.019-0.121-0.032-0.181-0.052c-0.018,0.257-0.032,0.513-0.041,0.769 c-0.006,0.163-0.017,0.327-0.019,0.49c-0.008,0.479-0.002,0.957,0.019,1.433c0.001,0.019,0,0.037,0.001,0.056 c0.023,0.498,0.063,0.993,0.117,1.487c0.016,0.149,0.04,0.297,0.059,0.445c0.043,0.342,0.09,0.684,0.148,1.024 c0.031,0.181,0.068,0.36,0.103,0.54c0.059,0.305,0.122,0.61,0.193,0.913c0.044,0.188,0.092,0.376,0.14,0.563 c0.076,0.294,0.158,0.587,0.246,0.878c0.056,0.185,0.111,0.369,0.171,0.553c0.096,0.295,0.201,0.588,0.308,0.879 c0.063,0.171,0.124,0.343,0.191,0.513c0.128,0.323,0.266,0.642,0.408,0.96c0.058,0.131,0.112,0.264,0.173,0.394 c0.207,0.444,0.427,0.882,0.661,1.313c0.04,0.074,0.085,0.144,0.126,0.218c0.198,0.356,0.403,0.708,0.619,1.053 c0.091,0.146,0.189,0.287,0.283,0.431c0.176,0.269,0.355,0.536,0.542,0.798c0.112,0.156,0.228,0.31,0.344,0.463 c0.183,0.244,0.369,0.485,0.562,0.722c0.125,0.154,0.252,0.306,0.381,0.457c0.198,0.232,0.401,0.459,0.608,0.683 c0.132,0.143,0.264,0.287,0.4,0.427c0.226,0.233,0.46,0.459,0.696,0.684c0.127,0.12,0.25,0.243,0.38,0.361 c0.039,0.035,0.081,0.068,0.12,0.103c0.041-0.034,0.084-0.066,0.125-0.101c0.131-0.113,0.257-0.231,0.386-0.346 c0.245-0.22,0.488-0.442,0.723-0.671c0.137-0.134,0.271-0.27,0.404-0.407c0.217-0.222,0.43-0.447,0.638-0.676 c0.131-0.145,0.26-0.291,0.388-0.438c0.203-0.235,0.4-0.475,0.593-0.717c0.117-0.146,0.234-0.292,0.347-0.441 c0.2-0.264,0.392-0.533,0.581-0.805c0.094-0.134,0.191-0.266,0.281-0.402c0.237-0.355,0.463-0.717,0.68-1.084 c0.033-0.056,0.07-0.11,0.103-0.166c0.248-0.427,0.483-0.862,0.704-1.302c0.061-0.121,0.115-0.245,0.174-0.367 c0.155-0.321,0.306-0.643,0.446-0.97c0.07-0.164,0.134-0.33,0.201-0.495c0.118-0.292,0.232-0.586,0.339-0.882 c0.064-0.18,0.125-0.361,0.185-0.542c0.096-0.29,0.187-0.581,0.272-0.874c0.054-0.185,0.107-0.37,0.156-0.556 c0.08-0.301,0.152-0.605,0.22-0.909c0.04-0.179,0.082-0.357,0.118-0.536c0.067-0.336,0.124-0.674,0.177-1.014 c0.024-0.15,0.052-0.299,0.073-0.45c0.067-0.49,0.122-0.983,0.159-1.478c0.002-0.032,0.002-0.064,0.004-0.096 c0.033-0.463,0.052-0.927,0.058-1.393c0.002-0.167-0.004-0.336-0.005-0.503c-0.002-0.253-0.009-0.506-0.019-0.759 c-0.061,0.018-0.124,0.03-0.186,0.048C57.463,58.323,57.221,58.377,56.981,58.44z"/><path style="fill:#666" d="M49.438,41.645c-0.223,0.199-0.442,0.4-0.657,0.607c-0.338,0.325-0.663,0.663-0.981,1.007 c-0.193,0.209-0.388,0.415-0.573,0.63c-0.334,0.388-0.648,0.793-0.957,1.203c-0.144,0.191-0.297,0.375-0.436,0.571 c-0.436,0.615-0.85,1.249-1.231,1.909c-0.35,0.606-0.667,1.227-0.961,1.856c-0.096,0.204-0.177,0.414-0.266,0.62 c-0.187,0.432-0.368,0.866-0.53,1.308c-0.091,0.248-0.171,0.5-0.254,0.751c-0.135,0.412-0.262,0.827-0.375,1.246 c-0.071,0.266-0.139,0.533-0.201,0.801c-0.038,0.161-0.064,0.326-0.099,0.488c0.187,0.067,0.371,0.142,0.56,0.204 c0.241,0.079,0.484,0.155,0.727,0.227c0.483,0.142,0.97,0.266,1.461,0.377c0.217,0.049,0.433,0.102,0.651,0.145 c0.557,0.11,1.118,0.195,1.682,0.265c0.157,0.02,0.313,0.048,0.47,0.065c1.467,0.154,2.948,0.176,4.422,0.063 c0.153-0.012,0.305-0.035,0.458-0.05c0.572-0.055,1.144-0.125,1.712-0.22c0.215-0.036,0.428-0.082,0.642-0.124 c0.502-0.098,1-0.21,1.496-0.341c0.242-0.064,0.484-0.132,0.724-0.204c0.194-0.058,0.385-0.13,0.578-0.192 c-0.036-0.198-0.064-0.397-0.105-0.594c-0.06-0.29-0.125-0.579-0.196-0.866c-0.113-0.457-0.243-0.909-0.383-1.358 c-0.084-0.27-0.164-0.541-0.258-0.808c-0.17-0.484-0.364-0.96-0.565-1.434c-0.093-0.219-0.175-0.442-0.275-0.659 c-0.315-0.685-0.657-1.361-1.038-2.021c-0.35-0.606-0.729-1.19-1.127-1.759c-0.131-0.187-0.274-0.365-0.41-0.548 c-0.278-0.374-0.56-0.745-0.859-1.102c-0.173-0.207-0.354-0.406-0.534-0.607c-0.286-0.319-0.578-0.632-0.88-0.935 c-0.197-0.198-0.397-0.393-0.602-0.584c-0.119-0.112-0.247-0.216-0.369-0.325C49.747,41.387,49.588,41.511,49.438,41.645z"/><metadata xmlns:d="https://loading.io/stock/"><d:name>venn diagram</d:name><d:tags>venn diagram,component,circle,join</d:tags><d:license>cc-by</d:license><d:slug>f5zuir</d:slug></metadata></g>
  <g id="id-0.6338116641119853-2">
    
<!-- Generator: Adobe Illustrator 21.0.0, SVG Export Plug-In . SVG Version: 6.00 Build 0)  -->






<polygon fill="#B3B4B4" points="98,100 70.606,96.559 71.699,89.53 97,93.464 "/>
<path fill="#B3B4B4" d="M38.106,227.244c-0.062,0-0.124,0-0.187-0.001c-3.679-0.049-7.118-1.527-9.685-4.162
	c-5.299-5.44-5.184-14.177,0.257-19.476c2.635-2.567,6.105-3.946,9.791-3.905c3.679,0.049,7.118,1.527,9.685,4.162
	c5.299,5.44,5.184,14.177-0.257,19.476C45.119,225.861,41.715,227.244,38.106,227.244z M38.098,205.999
	c-1.958,0-3.805,0.75-5.211,2.119c-2.952,2.875-3.014,7.615-0.139,10.567c1.393,1.43,3.259,2.232,5.254,2.258
	c2.012,0.018,3.882-0.726,5.312-2.119c2.952-2.875,3.014-7.615,0.139-10.566l0,0c-1.393-1.43-3.259-2.232-5.254-2.258
	C38.165,205.999,38.131,205.999,38.098,205.999z"/>
<ellipse transform="matrix(0.7249 -0.6888 0.6888 0.7249 31.7828 174.5914)" fill="#B3B4B4" cx="234.5" cy="47.5" rx="5.5" ry="5.5"/>
<path fill="#B3B4B4" d="M156.241,162.307l-2.142-6.316c4.911-1.666,7.552-7.017,5.886-11.929c-0.807-2.379-2.492-4.302-4.745-5.414
	c-2.254-1.112-4.805-1.28-7.183-0.473l-2.143-6.316c4.067-1.379,8.427-1.092,12.277,0.808c3.851,1.9,6.731,5.186,8.11,9.253
	C169.148,150.314,164.635,159.46,156.241,162.307z"/>
<ellipse transform="matrix(0.7249 -0.6888 0.6888 0.7249 -74.7837 111.7244)" fill="#B3B4B4" cx="102.5" cy="149.5" rx="5.5" ry="5.5"/>
<polygon fill="#B3B4B4" points="228.814,250.299 248.288,233.674 255.528,237.31 233.433,255.709 "/>
<polygon fill="#B3B4B4" points="117.258,19.675 103,46 98.348,38.347 111.088,16.136 "/>
<path fill="#B3B4B4" d="M222.105,133c-0.055,0-0.109,0-0.165-0.001c-3.245-0.043-6.28-1.347-8.544-3.672
	c-4.675-4.8-4.573-12.507,0.226-17.182c2.325-2.265,5.386-3.481,8.638-3.445c3.245,0.043,6.28,1.347,8.544,3.672
	c4.674,4.799,4.573,12.507-0.226,17.182C228.293,131.78,225.289,133,222.105,133z M222.098,114.257c-1.728,0-3.357,0.662-4.597,1.87
	c-2.604,2.536-2.659,6.718-0.123,9.322c1.229,1.261,2.875,1.969,4.636,1.992c1.775,0.016,3.425-0.641,4.686-1.869
	c2.604-2.536,2.659-6.718,0.123-9.322l0,0c-1.229-1.261-2.875-1.969-4.636-1.992C222.157,114.257,222.128,114.257,222.098,114.257z"
	/>
<path fill="#B3B4B4" d="M186.97,10.317l-5.018,1.322c-1.028-3.902-5.04-6.241-8.942-5.213c-1.89,0.498-3.474,1.702-4.458,3.391
	c-0.985,1.689-1.253,3.661-0.754,5.55l-5.018,1.322c-0.851-3.232-0.393-6.6,1.289-9.486c1.683-2.886,4.389-4.945,7.62-5.796
	C178.357-0.349,185.213,3.648,186.97,10.317z"/>


    <g transform="matrix(0.9912 0.1325 -0.1325 0.9912 30.542 -14.083) translate(121.067,222.398) scale(0.6786666666666666)"><g class="ld ld-pulse" style="animation-delay:0s"><g data-icon="">  <use href="#id-0.6338116641119853" x="-50" y="-50"/>
</g></g></g><g transform="matrix(-0.0456 0.999 -0.999 -0.0456 243.7065 -82.5047) translate(161.268,75.17099999999999) scale(0.47706666666666664)"><g class="ld ld-pulse" style="animation-delay:-0.1s"><g data-icon="">  <use href="#id-0.6338116641119853" x="-50" y="-50"/>
</g></g></g><g transform="matrix(0.5905 -0.8071 0.8071 0.5905 -67.6584 252.8308) translate(215.293,193.0815) scale(0.5214666666666667)"><g class="ld ld-pulse" style="animation-delay:-0.2s"><g data-icon="">  <use href="#id-0.6338116641119853" x="-50" y="-50"/>
</g></g></g><g transform="matrix(-0.4749 -0.8801 0.8801 -0.4749 38.8277 99.7848) translate(49.185,38.308499999999995) scale(0.5980444444444444)"><g class="ld ld-pulse" style="animation-delay:-0.3s"><g data-icon="">  <use href="#id-0.6338116641119853" x="-50" y="-50"/>
</g></g></g><g transform="matrix(0.7381 -0.6747 0.6747 0.7381 -85.9069 63.1885) translate(38.434,142.243) scale(0.607688888888889)"><g class="ld ld-pulse" style="animation-delay:-0.4s"><g data-icon="">  <use href="#id-0.6338116641119853" x="-50" y="-50"/>
</g></g></g>
  </g>
</defs>
<g>
  <use href="#id-0.6338116641119853-2" x="0" y="0"/>
  <use href="#id-0.6338116641119853-2" x="-256" y="0"/>
  <animateTransform attributeName="transform" type="translate" repeatCount="indefinite" dur="4s"
  keyTimes="0;1" values="0;256"/>
</g>
</svg>