<?xml version="1.0" encoding="utf-8"?>
<svg xmlns="http://www.w3.org/2000/svg" xmlns:xlink="http://www.w3.org/1999/xlink" viewBox="0 0 256 256" width="256px" height="256px">
<style type="text/css">@keyframes ld-pulse
{
  0% {
    animation-timing-function: cubic-bezier(0.0413,0.3905,0.5086,0.6902);
    transform: scale(1);
  }
  24.3% {
    animation-timing-function: cubic-bezier(0.2248,0.6332,0.5246,1);
    transform: scale(0.8458);
  }
  55% {
    animation-timing-function: cubic-bezier(0.3036,0.3393,0.655,0.6144);
    transform: scale(0.8022);
  }
  70.2% {
    animation-timing-function: cubic-bezier(0.4464,0.2728,0.5562,0.7288);
    transform: scale(0.8294);
  }
  82.3% {
    animation-timing-function: cubic-bezier(0.6826,0.1845,1,0.7358);
    transform: scale(0.869);
  }
  100% {
    transform: scale(1);
  }
}
.ld.ld-pulse {
  animation: ld-pulse 0.5s infinite;
}</style>
<rect x="0" y="0" width="256" height="256" fill="#eee"/>
<defs>
  <g id="id-0.8705183034398369"><!--Generator: Adobe Illustrator 21.0.0, SVG Export Plug-In . SVG Version: 6.00 Build 0)--><g><path style="fill:#39b54a;stroke:#000;stroke-width:3;stroke-linecap:round;stroke-linejoin:round;stroke-miterlimit:10" d=" M14,42.8c-0.2,0.8,1.6,1.3,3.7,4.2c1,1.4,2.5,3.5,2.2,5.7c-0.3,2.7-3.3,5-7.1,6c3.6,1.2,6.3,4.4,6.7,8.1c0.5,4-1.5,8-5.2,9.9 c0.5,0.1,4,1.2,5.5,4.8c1.8,4.2-0.8,8-1,8.2c0.3-0.3,3.3-3.5,7.6-3c2.3,0.3,3.9,1.6,4.5,2.2c-0.6-3.1,0.4-6.3,2.8-8.4 c3.5-3,7.7-1.8,8.1-1.7c-1.6-2.8-1.5-6.1,0.1-8.6c2.1-3.1,6.3-4.4,10.1-2.8c-0.5-0.9-1.2-2.1-1.8-3.7C50,63,48.5,59,48.5,56.1 c0-6.3,7.3-10.9,8.2-11.4c-3.8-1.4-7.7-4.1-10.6-8.3c-4.1-5.8-1.5-12.9-3.1-13.3c-2.2-0.6-3.8,12.5-13,17.1 C23,43.6,14.4,40.9,14,42.8z"/><path style="fill:#8cc63f;stroke:#000;stroke-width:3;stroke-linecap:round;stroke-linejoin:round;stroke-miterlimit:10" d=" M41.4,62.5c0.5,0.7,2.1-0.4,5.6,0c1.7,0.2,4.3,0.5,5.7,2.1c1.8,2,1.6,5.7-0.3,9.3c3.3-1.9,7.4-1.8,10.5,0.3c3.3,2.3,4.9,6.4,4,10.4 c0.4-0.3,3.5-2.2,7.2-0.9c4.4,1.5,5.5,5.9,5.5,6.2c0-0.4-0.5-4.8,2.8-7.7c1.8-1.5,3.8-1.9,4.6-1.9c-2.8-1.6-4.4-4.5-4.4-7.6 c0.1-4.6,3.8-7,4.1-7.2c-3.1-0.7-5.6-2.9-6.3-5.8c-0.9-3.6,0.9-7.6,4.6-9.4c-1-0.2-2.4-0.5-4-1.1c-0.7-0.2-4.7-1.7-6.9-3.7 c-4.7-4.2-3.3-12.7-3.1-13.7c-3.6,1.9-8.2,3-13.3,2.4c-7.1-0.8-10.6-7.5-12-6.5c-1.9,1.3,6.8,11.1,4.2,21 C47.9,56.3,40.2,61,41.4,62.5z"/><circle style="fill:#f15a24;stroke:#000;stroke-width:3;stroke-linecap:round;stroke-linejoin:round;stroke-miterlimit:10" cx="50" cy="23.2" r="13.2"/><circle style="fill:#c1272d;stroke:#000;stroke-width:3;stroke-linecap:round;stroke-linejoin:round;stroke-miterlimit:10" cx="41.5" cy="39.2" r="13.2"/><circle style="fill:red;stroke:#000;stroke-width:3;stroke-linecap:round;stroke-linejoin:round;stroke-miterlimit:10" cx="63.1" cy="38.2" r="13.2"/><path style="fill:none;stroke:#000;stroke-width:3;stroke-linecap:round;stroke-linejoin:round;stroke-miterlimit:10" d=" M64.1,51.4c1.4,0.7,5.2,2.9,7.5,7.5c1.8,3.5,1.9,6.8,1.9,8.5"/><path style="fill:none;stroke:#000;stroke-width:3;stroke-linecap:round;stroke-linejoin:round;stroke-miterlimit:10" d=" M34.9,52.3c-1.8,1.4-4.5,3.8-6.6,7.5c-3.6,6.4-3.1,12.7-2.8,15.1"/></g><metadata xmlns:d="https://loading.io/stock/"><d:name>leaf</d:name><d:tags>leaf, christmas, poinsettia, flower, plant</d:tags><d:license>cc-by</d:license><d:slug>1hdvun</d:slug></metadata></g>
  <g id="id-0.8705183034398369-2">
    
<!-- Generator: Adobe Illustrator 21.0.0, SVG Export Plug-In . SVG Version: 6.00 Build 0)  -->






<ellipse transform="matrix(0.7249 -0.6888 0.6888 0.7249 -96.2592 93.9447)" fill="#B3B4B4" cx="69.5" cy="167.5" rx="5.5" ry="5.5"/>
<ellipse transform="matrix(0.7249 -0.6888 0.6888 0.7249 15.9378 184.9119)" fill="#B3B4B4" cx="239.5" cy="72.5" rx="5.5" ry="5.5"/>
<g>
	
		<line fill="none" stroke="#B3B4B5" stroke-width="6.3333" stroke-linecap="round" stroke-linejoin="round" stroke-miterlimit="10" x1="192" y1="125.5" x2="211" y2="125.5"/>
	
		<line fill="none" stroke="#B3B4B5" stroke-width="6.3333" stroke-linecap="round" stroke-linejoin="round" stroke-miterlimit="10" x1="201.5" y1="135" x2="201.5" y2="116"/>
</g>
<g>
	
		<line fill="none" stroke="#B3B4B5" stroke-width="4" stroke-linecap="round" stroke-linejoin="round" stroke-miterlimit="10" x1="186" y1="244" x2="198" y2="244"/>
	
		<line fill="none" stroke="#B3B4B5" stroke-width="4" stroke-linecap="round" stroke-linejoin="round" stroke-miterlimit="10" x1="192" y1="250" x2="192" y2="238"/>
</g>
<g>
	
		<line fill="none" stroke="#B3B4B5" stroke-width="7.3333" stroke-linecap="round" stroke-linejoin="round" stroke-miterlimit="10" x1="9.5" y1="46.5" x2="31.5" y2="46.5"/>
	
		<line fill="none" stroke="#B3B4B5" stroke-width="7.3333" stroke-linecap="round" stroke-linejoin="round" stroke-miterlimit="10" x1="20.5" y1="57.5" x2="20.5" y2="35.5"/>
</g>
<ellipse transform="matrix(0.4903 -0.8715 0.8715 0.4903 7.2038 156.6452)" fill="#B3B4B4" cx="137.531" cy="72.163" rx="6.525" ry="6.525"/>
<ellipse transform="matrix(0.7249 -0.6888 0.6888 0.7249 -109.6566 158.3945)" fill="#B3B4B4" cx="143.5" cy="216.5" rx="5.5" ry="5.5"/>
<ellipse transform="matrix(0.7249 -0.6888 0.6888 0.7249 0.2332 72.5839)" fill="#B3B4B4" cx="91" cy="36" rx="4" ry="4"/>
<ellipse transform="matrix(0.7249 -0.6888 0.6888 0.7249 -34.1432 212.4976)" fill="#B3B4B4" cx="249" cy="149" rx="4" ry="4"/>
<ellipse transform="matrix(0.7249 -0.6888 0.6888 0.7249 -163.3891 70.8358)" fill="#B3B4B4" cx="7" cy="240" rx="4" ry="4"/>


    <g transform="matrix(0.9912 0.1325 -0.1325 0.9912 19.5946 -16.4002) translate(133,138.9995) scale(0.6222222222222222)"><g class="ld ld-pulse" style="animation-delay:0s"><g data-icon="">  <use href="#id-0.8705183034398369" x="-50" y="-50"/>
</g></g></g><g transform="matrix(0.8102 -0.5862 0.5862 0.8102 21.907 110.1873) translate(181.074,21.271) scale(0.3916444444444444)"><g class="ld ld-pulse" style="animation-delay:-0.1s"><g data-icon="">  <use href="#id-0.8705183034398369" x="-50" y="-50"/>
</g></g></g><g transform="matrix(0.7153 0.6988 -0.6988 0.7153 199.1367 -101.9661) translate(224.712,193.41799999999998) scale(0.3647555555555556)"><g class="ld ld-pulse" style="animation-delay:-0.2s"><g data-icon="">  <use href="#id-0.8705183034398369" x="-50" y="-50"/>
</g></g></g><g transform="matrix(0.7812 0.6242 -0.6242 0.7812 76.8196 -5.7423) translate(46.602000000000004,106.7265) scale(0.3879111111111111)"><g class="ld ld-pulse" style="animation-delay:-0.3s"><g data-icon="">  <use href="#id-0.8705183034398369" x="-50" y="-50"/>
</g></g></g><g transform="matrix(0.7381 -0.6747 0.6747 0.7381 -136.8065 106.8361) translate(69.2025,229.6265) scale(0.5011777777777778)"><g class="ld ld-pulse" style="animation-delay:-0.4s"><g data-icon="">  <use href="#id-0.8705183034398369" x="-50" y="-50"/>
</g></g></g>
  </g>
</defs>
<g>
  <use href="#id-0.8705183034398369-2" x="0" y="0"/>
  <use href="#id-0.8705183034398369-2" x="-256" y="0"/>
  <animateTransform attributeName="transform" type="translate" repeatCount="indefinite" dur="4s"
  keyTimes="0;1" values="0;256"/>
</g>
</svg>