<?xml version="1.0" encoding="utf-8"?>
<svg xmlns="http://www.w3.org/2000/svg" xmlns:xlink="http://www.w3.org/1999/xlink" viewBox="0 0 256 256" width="256px" height="256px">
<style type="text/css">@keyframes ld-pulse
{
  0% {
    animation-timing-function: cubic-bezier(0.0413,0.3905,0.5086,0.6902);
    transform: scale(1);
  }
  24.3% {
    animation-timing-function: cubic-bezier(0.2248,0.6332,0.5246,1);
    transform: scale(0.8458);
  }
  55% {
    animation-timing-function: cubic-bezier(0.3036,0.3393,0.655,0.6144);
    transform: scale(0.8022);
  }
  70.2% {
    animation-timing-function: cubic-bezier(0.4464,0.2728,0.5562,0.7288);
    transform: scale(0.8294);
  }
  82.3% {
    animation-timing-function: cubic-bezier(0.6826,0.1845,1,0.7358);
    transform: scale(0.869);
  }
  100% {
    transform: scale(1);
  }
}
.ld.ld-pulse {
  animation: ld-pulse 0.5s infinite;
}</style>
<rect x="0" y="0" width="256" height="256" fill="#eee"/>
<defs>
  <g id="id-0.5991861322531344"><!--Generator: Adobe Illustrator 21.0.0, SVG Export Plug-In . SVG Version: 6.00 Build 0)--><g><g><path style="fill:#f2f2f2;stroke:#000;stroke-width:3;stroke-linecap:round;stroke-linejoin:round;stroke-miterlimit:10" d=" M84.7,35.2c0-16.8-16.9-29.6-35.3-23.1c-6.5,2.3-11.7,7.3-14.2,13.5c-2.7,7-2.3,13.7,0.2,19.4c0,0,0,0,0,0c-6-5.1-11.9-7.2-15.3-5 c-2.2,1.4-3.6,3-4.3,4.9c-3,7.5,5.8,16.7,10.1,21.2c3.3,3.5,9.1,8.7,18.1,13c0,0,0,0,0,0c3.4,1.3,14.6,5.2,23.9,0 c6.8-3.8,9.1-10.5,13.7-24C84.9,45.5,84.7,39.3,84.7,35.2z"/><path style="fill:#f2f2f2;stroke:#000;stroke-width:3;stroke-linecap:round;stroke-linejoin:round;stroke-miterlimit:10" d=" M69.7,60.3L69.7,60.3c-0.8,0-1.4-0.7-1.2-1.5c0.8-4,1.5-8.9,1.6-14.4c0.1-6.5-0.7-12.1-1.6-16.5c-0.2-0.8,0.4-1.5,1.2-1.5h0 c0.5,0,0.9,0.3,1.1,0.7c1.6,3.1,4.4,9.4,4.1,17.6c-0.2,6.9-2.5,12.1-4.1,15.1C70.6,60,70.1,60.3,69.7,60.3z"/><path style="fill:#f2f2f2;stroke:#000;stroke-width:3;stroke-linecap:round;stroke-linejoin:round;stroke-miterlimit:10" d=" M58.9,58.7L58.9,58.7c-0.8,0-1.4-0.7-1.2-1.5c0.8-4,1.5-8.9,1.6-14.4c0.1-6.5-0.7-12.1-1.6-16.5c-0.2-0.8,0.4-1.5,1.2-1.5l0,0 c0.5,0,0.9,0.3,1.1,0.7c1.6,3.1,4.4,9.4,4.1,17.6C63.8,49.9,61.5,55.1,60,58C59.8,58.5,59.3,58.7,58.9,58.7z"/><path style="fill:#f2f2f2;stroke:#000;stroke-width:3;stroke-linecap:round;stroke-linejoin:round;stroke-miterlimit:10" d=" M47.2,60.3L47.2,60.3c-0.8,0-1.4-0.7-1.2-1.5c0.8-4,1.5-8.9,1.6-14.4c0.1-6.5-0.7-12.1-1.6-16.5c-0.2-0.8,0.4-1.5,1.2-1.5h0 c0.5,0,0.9,0.3,1.1,0.7c1.6,3.1,4.4,9.4,4.1,17.6c-0.2,6.9-2.5,12.1-4.1,15.1C48.1,60.1,47.7,60.3,47.2,60.3z"/></g><g><path style="fill:#f2f2f2;stroke:#000;stroke-width:3;stroke-linecap:round;stroke-linejoin:round;stroke-miterlimit:10" d=" M76.5,89.6H31.2c-2.1,0-3.9-1.7-3.9-3.9v-7.6c0-2.1,1.7-3.9,3.9-3.9h45.3c2.1,0,3.9,1.7,3.9,3.9v7.6 C80.4,87.9,78.6,89.6,76.5,89.6z"/><rect x="27.3" y="78.8" style="fill:#8cc63f;stroke:#000;stroke-width:3;stroke-linecap:round;stroke-miterlimit:10" width="53.1" height="6.3"/></g></g><metadata xmlns:d="https://loading.io/stock/"><d:name>gloves</d:name><d:tags>gloves,christmas</d:tags><d:license>cc-by</d:license><d:slug>c8yjao</d:slug></metadata></g>
  <g id="id-0.5991861322531344-2">
    
<!-- Generator: Adobe Illustrator 21.0.0, SVG Export Plug-In . SVG Version: 6.00 Build 0)  -->













    <g transform=" translate(151,149.9995) scale(0.6222222222222222)"><g class="ld ld-pulse" style="animation-delay:0s"><g data-icon="">  <use href="#id-0.5991861322531344" x="-50" y="-50"/>
</g></g></g><g transform="matrix(0.9628 0.2703 -0.2703 0.9628 41.3411 -58.0147) translate(231.293,121.08149999999999) scale(0.5214666666666667)"><g class="ld ld-pulse" style="animation-delay:-0.05s"><g data-icon="">  <use href="#id-0.5991861322531344" x="-50" y="-50"/>
</g></g></g><g transform="matrix(-0.0456 0.999 -0.999 -0.0456 207.6542 -74.2389) translate(139.293,62.081500000000005) scale(0.5214666666666667)"><g class="ld ld-pulse" style="animation-delay:-0.1s"><g data-icon="">  <use href="#id-0.5991861322531344" x="-50" y="-50"/>
</g></g></g><g transform="matrix(0.2398 -0.9708 0.9708 0.2398 127.6881 219.61) translate(204.074,28.271) scale(0.3916444444444444)"><g class="ld ld-pulse" style="animation-delay:-0.15s"><g data-icon="">  <use href="#id-0.5991861322531344" x="-50" y="-50"/>
</g></g></g><g transform="matrix(0.5905 -0.8071 0.8071 0.5905 -96.797 253.4085) translate(201.293,222.0815) scale(0.5214666666666667)"><g class="ld ld-pulse" style="animation-delay:-0.2s"><g data-icon="">  <use href="#id-0.5991861322531344" x="-50" y="-50"/>
</g></g></g><g transform="matrix(0.8618 0.5073 -0.5073 0.8618 120.0863 -26.4095) translate(108.50649999999999,207.1645) scale(0.44135555555555556)"><g class="ld ld-pulse" style="animation-delay:-0.25s"><g data-icon="">  <use href="#id-0.5991861322531344" x="-50" y="-50"/>
</g></g></g><g transform="matrix(0.9981 0.0609 -0.0609 0.9981 7.8271 -4.6047) translate(79.461,126.11449999999999) scale(0.43675555555555556)"><g class="ld ld-pulse" style="animation-delay:-0.3s"><g data-icon="">  <use href="#id-0.5991861322531344" x="-50" y="-50"/>
</g></g></g><g transform="matrix(-0.7024 0.7118 -0.7118 -0.7024 125.7862 11.6317) translate(60.461,32.1145) scale(0.43675555555555556)"><g class="ld ld-pulse" style="animation-delay:-0.35s"><g data-icon="">  <use href="#id-0.5991861322531344" x="-50" y="-50"/>
</g></g></g><g transform="matrix(0.8596 0.511 -0.511 0.8596 47.5053 -5.4135) translate(33.602,83.7265) scale(0.3879111111111111)"><g class="ld ld-pulse" style="animation-delay:-0.4s"><g data-icon="">  <use href="#id-0.5991861322531344" x="-50" y="-50"/>
</g></g></g><g transform="matrix(0.5692 -0.8222 0.8222 0.5692 -149.2038 124.5031) translate(44.2025,204.6265) scale(0.5011777777777778)"><g class="ld ld-pulse" style="animation-delay:-0.45s"><g data-icon="">  <use href="#id-0.5991861322531344" x="-50" y="-50"/>
</g></g></g>
  </g>
</defs>
<g>
  <use href="#id-0.5991861322531344-2" x="0" y="0"/>
  <use href="#id-0.5991861322531344-2" x="-256" y="0"/>
  <animateTransform attributeName="transform" type="translate" repeatCount="indefinite" dur="4s"
  keyTimes="0;1" values="0;256"/>
</g>
</svg>