<?xml version="1.0" encoding="utf-8"?>
<svg xmlns="http://www.w3.org/2000/svg" xmlns:xlink="http://www.w3.org/1999/xlink" viewBox="0 0 256 256" width="256px" height="256px">
<style type="text/css">@keyframes ld-pulse
{
  0% {
    animation-timing-function: cubic-bezier(0.0413,0.3905,0.5086,0.6902);
    transform: scale(1);
  }
  24.3% {
    animation-timing-function: cubic-bezier(0.2248,0.6332,0.5246,1);
    transform: scale(0.8458);
  }
  55% {
    animation-timing-function: cubic-bezier(0.3036,0.3393,0.655,0.6144);
    transform: scale(0.8022);
  }
  70.2% {
    animation-timing-function: cubic-bezier(0.4464,0.2728,0.5562,0.7288);
    transform: scale(0.8294);
  }
  82.3% {
    animation-timing-function: cubic-bezier(0.6826,0.1845,1,0.7358);
    transform: scale(0.869);
  }
  100% {
    transform: scale(1);
  }
}
.ld.ld-pulse {
  animation: ld-pulse 0.5s infinite;
}</style>
<rect x="0" y="0" width="256" height="256" fill="#eee"/>
<defs>
  <g id="id-0.22495757250989934"><!--Generator: Adobe Illustrator 21.0.0, SVG Export Plug-In . SVG Version: 6.00 Build 0)--><path style="fill:#77a4bd" d="M49,26.37L49,26.37c-3.039,0.125-5.966,0.84-8.676,2.057C43.034,27.211,45.961,26.496,49,26.37z"/><path style="fill:#a0c8d7" d="M35.708,13.701c0.703-0.277,1.414-0.533,2.133-0.768C37.122,13.168,36.411,13.424,35.708,13.701z"/><path style="fill:#c33737" d="M33.998,32.584c1.894-1.743,4.033-3.127,6.326-4.157C38.031,29.457,35.892,30.841,33.998,32.584 L33.998,32.584z"/><path style="fill:#c33737" d="M28.783,17.261c2.189-1.425,4.51-2.61,6.925-3.56C33.293,14.651,30.972,15.836,28.783,17.261z"/><rect x="49" y="21.527" transform="matrix(0.8944 -0.4472 0.4472 0.8944 -5.537 24.4418)" style="fill:#c33737" width="0" height="4.843"/><path style="fill:#c33737" d="M37.841,12.933c1.314-0.43,2.651-0.798,4.011-1.085C40.492,12.135,39.156,12.503,37.841,12.933z"/><path style="fill:#77a4bd" d="M49,15.896v-4.884c-1.821,0.046-3.62,0.215-5.389,0.505c-0.59,0.097-1.176,0.207-1.758,0.33 c-1.36,0.288-2.697,0.656-4.011,1.085c-0.719,0.235-1.43,0.491-2.133,0.768c-2.415,0.95-4.736,2.135-6.925,3.56 c-0.499,0.325-0.991,0.662-1.476,1.01c-1.456,1.046-2.848,2.199-4.168,3.454l2.74,2.74l7.69-2.387l-2.298,7.778l2.728,2.728 c1.894-1.743,4.033-3.127,6.326-4.157c2.709-1.217,5.637-1.932,8.676-2.057v-4.843l0,0l6-2.861L49,15.896z"/><path style="fill:#a0c8d7" d="M32.584,33.998L32.584,33.998c-2.06,2.237-3.625,4.813-4.68,7.589 C28.96,38.812,30.524,36.236,32.584,33.998z"/><path style="fill:#a0c8d7" d="M25.178,26.592l-3.453-3.453c-1.255,1.32-2.408,2.712-3.454,4.168 c-0.349,0.485-0.685,0.978-1.01,1.476c-0.758,1.165-1.443,2.371-2.069,3.604c-0.342,0.675-0.664,1.358-0.965,2.051 c-1.036,2.38-1.839,4.859-2.379,7.414c-0.123,0.582-0.233,1.169-0.33,1.758c-0.29,1.769-0.459,3.569-0.505,5.389l3.874,0l3.75-7.125 L22.512,49l3.858,0c0.106-2.572,0.64-5.063,1.534-7.412c1.056-2.776,2.62-5.352,4.68-7.59l-3.425-3.425l0,0l2.219-6.266 L25.178,26.592z"/><path style="fill:#849b87" d="M26.37,51L26.37,51c0.125,3.039,0.84,5.966,2.057,8.676C27.211,56.966,26.496,54.039,26.37,51z"/><path style="fill:#849b87" d="M15.896,51h-4.884c0.046,1.821,0.215,3.62,0.505,5.389c0.097,0.59,0.207,1.176,0.33,1.758 c0.288,1.36,0.656,2.697,1.085,4.011c0.235,0.719,0.491,1.43,0.768,2.133c0.95,2.415,2.135,4.736,3.56,6.925 c0.325,0.499,0.662,0.991,1.01,1.476c1.046,1.456,2.199,2.848,3.454,4.168l2.74-2.74l-2.387-7.69l7.778,2.298l2.728-2.728 c-1.743-1.894-3.127-4.033-4.157-6.326c-1.217-2.709-1.932-5.637-2.057-8.676h-4.843l0,0l-2.861-6L15.896,51z"/><path style="fill:#a0c8d7" d="M33.998,67.416L33.998,67.416c2.237,2.06,4.813,3.625,7.589,4.68 C38.812,71.04,36.236,69.476,33.998,67.416z"/><path style="fill:#abbd81" d="M26.592,74.822l-3.453,3.453c1.32,1.255,2.712,2.408,4.168,3.454c0.485,0.349,0.978,0.685,1.476,1.01 c1.165,0.758,2.371,1.443,3.604,2.069c0.675,0.342,1.358,0.664,2.051,0.965c2.38,1.036,4.859,1.839,7.414,2.379 c0.582,0.123,1.169,0.233,1.758,0.33c1.769,0.29,3.569,0.459,5.389,0.505l0-3.874l-7.125-3.75L49,77.488l0-3.858 c-2.572-0.106-5.063-0.64-7.412-1.534c-2.776-1.056-5.352-2.62-7.59-4.68l-3.425,3.425l0,0l-6.266-2.219L26.592,74.822z"/><path style="fill:#a0c8d7" d="M51,73.63L51,73.63c3.039-0.125,5.966-0.84,8.676-2.057C56.966,72.789,54.039,73.504,51,73.63z"/><path style="fill:#f8b26a" d="M51,84.104v4.884c1.821-0.046,3.62-0.215,5.389-0.505c0.59-0.097,1.176-0.207,1.758-0.33 c1.36-0.288,2.697-0.656,4.011-1.085c0.719-0.235,1.43-0.491,2.133-0.768c2.415-0.95,4.736-2.135,6.925-3.56 c0.499-0.325,0.991-0.662,1.476-1.01c1.456-1.046,2.848-2.199,4.168-3.454l-2.74-2.74l-7.69,2.387l2.298-7.778l-2.728-2.728 c-1.894,1.743-4.033,3.127-6.326,4.157c-2.709,1.217-5.637,1.932-8.676,2.057v4.843l0,0l-6,2.861L51,84.104z"/><path style="fill:#a0c8d7" d="M67.416,66.002L67.416,66.002c2.06-2.237,3.625-4.813,4.68-7.589 C71.04,61.188,69.476,63.764,67.416,66.002z"/><path style="fill:#f47e60" d="M74.822,73.408l3.453,3.453c1.255-1.32,2.408-2.712,3.454-4.168c0.349-0.485,0.685-0.978,1.01-1.476 c0.758-1.165,1.443-2.371,2.069-3.604c0.342-0.675,0.664-1.358,0.965-2.051c1.036-2.38,1.839-4.859,2.379-7.414 c0.123-0.582,0.233-1.169,0.33-1.758c0.29-1.769,0.459-3.569,0.505-5.389l-3.874,0l-3.75,7.125L77.488,51l-3.858,0 c-0.106,2.572-0.64,5.063-1.534,7.412c-1.056,2.776-2.62,5.352-4.68,7.59l3.425,3.425l0,0l-2.219,6.266L74.822,73.408z"/><path style="fill:#a0c8d7" d="M73.63,49L73.63,49c-0.125-3.039-0.84-5.966-2.057-8.676C72.789,43.034,73.504,45.961,73.63,49z"/><path style="fill:#e15b64" d="M84.104,49h4.884c-0.046-1.821-0.215-3.62-0.505-5.389c-0.097-0.59-0.207-1.176-0.33-1.758 c-0.288-1.36-0.656-2.697-1.085-4.011c-0.235-0.719-0.491-1.43-0.768-2.133c-0.95-2.415-2.135-4.736-3.56-6.925 c-0.325-0.499-0.662-0.991-1.01-1.476c-1.046-1.456-2.199-2.848-3.454-4.168l-2.74,2.74l2.387,7.69l-7.778-2.298l-2.728,2.728 c1.743,1.894,3.127,4.033,4.157,6.326c1.217,2.709,1.932,5.637,2.057,8.676h4.843l0,0l2.861,6L84.104,49z"/><path style="fill:#a0c8d7" d="M66.002,32.584L66.002,32.584c-2.237-2.06-4.813-3.625-7.589-4.68 C61.188,28.96,63.764,30.524,66.002,32.584z"/><path style="fill:#c33737" d="M73.408,25.178l3.453-3.453c-1.32-1.255-2.712-2.408-4.168-3.454 c-0.485-0.349-0.978-0.685-1.476-1.01c-1.165-0.758-2.371-1.443-3.604-2.069c-0.675-0.342-1.358-0.664-2.051-0.965 c-2.38-1.036-4.859-1.839-7.414-2.379c-0.582-0.123-1.169-0.233-1.758-0.33c-1.769-0.29-3.569-0.459-5.389-0.505l0,3.874l7.125,3.75 L51,22.512l0,3.858c2.572,0.106,5.063,0.64,7.412,1.534c2.776,1.056,5.352,2.62,7.59,4.68l3.425-3.425l0,0l6.266,2.219 L73.408,25.178z"/><metadata xmlns:d="https://loading.io/stock/"><d:name>ball</d:name><d:tags>ball,step,group,layer,cluster,ring,infographics</d:tags><d:license>cc-by</d:license><d:slug>ixt933</d:slug></metadata></g>
  <g id="id-0.22495757250989934-2">
    
<!-- Generator: Adobe Illustrator 21.0.0, SVG Export Plug-In . SVG Version: 6.00 Build 0)  -->





    <g transform=" translate(192,191.9995) scale(0.8888888888888888)"><g class="ld ld-pulse" style="animation-delay:0s"><g data-icon="">  <use href="#id-0.22495757250989934" x="-50" y="-50"/>
</g></g></g><g transform=" translate(64,63.9995) scale(0.8888888888888888)"><g class="ld ld-pulse" style="animation-delay:-0.25s"><g data-icon="">  <use href="#id-0.22495757250989934" x="-50" y="-50"/>
</g></g></g>
  </g>
</defs>
<g>
  <use href="#id-0.22495757250989934-2" x="0" y="0"/>
  <use href="#id-0.22495757250989934-2" x="-256" y="0"/>
  <animateTransform attributeName="transform" type="translate" repeatCount="indefinite" dur="4s"
  keyTimes="0;1" values="0;256"/>
</g>
</svg>