<?xml version="1.0" encoding="utf-8"?>
<svg xmlns="http://www.w3.org/2000/svg" xmlns:xlink="http://www.w3.org/1999/xlink" viewBox="0 0 256 256" width="256px" height="256px">
<style type="text/css">@keyframes ld-pulse
{
  0% {
    animation-timing-function: cubic-bezier(0.0413,0.3905,0.5086,0.6902);
    transform: scale(1);
  }
  24.3% {
    animation-timing-function: cubic-bezier(0.2248,0.6332,0.5246,1);
    transform: scale(0.8458);
  }
  55% {
    animation-timing-function: cubic-bezier(0.3036,0.3393,0.655,0.6144);
    transform: scale(0.8022);
  }
  70.2% {
    animation-timing-function: cubic-bezier(0.4464,0.2728,0.5562,0.7288);
    transform: scale(0.8294);
  }
  82.3% {
    animation-timing-function: cubic-bezier(0.6826,0.1845,1,0.7358);
    transform: scale(0.869);
  }
  100% {
    transform: scale(1);
  }
}
.ld.ld-pulse {
  animation: ld-pulse 0.5s infinite;
}</style>
<rect x="0" y="0" width="256" height="256" fill="#eee"/>
<defs>
  <g id="id-0.09980492848198042"><!--Generator: Adobe Illustrator 21.0.0, SVG Export Plug-In . SVG Version: 6.00 Build 0)--><g><path fill="#FCE9F2" stroke="#000000" stroke-width="3" stroke-linecap="round" stroke-linejoin="round" stroke-miterlimit="10" d=" M77.697,71.129c0-9.78-9.511-17.708-21.244-17.708c-8.85,0-16.434,4.512-19.627,10.926h-2.207c-1.594,0-2.886,1.271-2.886,2.839 v7.133c0,1.568,1.292,2.839,2.886,2.839h1.858c1.316,3.028,3.591,5.673,6.524,7.675l-1.412,5.126l9.699,2.542 c0.435-1.598,0.869-3.196,1.304-4.793c0.928,0.436,2.238,0.921,3.863,1.13c3.079,0.396,5.545-0.42,6.759-0.921l1.263,4.584 l9.699-2.542l-1.925-6.99C75.635,79.831,77.697,75.681,77.697,71.129z"/><path fill="#FFFFFF" stroke="#000000" stroke-width="3" stroke-linecap="round" stroke-linejoin="round" stroke-miterlimit="10" d=" M62.492,60.481c-1.85-1.031-3.793-1.476-5.732-1.209c-0.383,0.053-0.758,0.132-1.125,0.237"/><path fill="#EF66B2" stroke="#000000" stroke-width="3" stroke-linecap="round" stroke-linejoin="round" stroke-miterlimit="10" d=" M47.609,51.694c-2.543-2.071-6.284-1.688-8.355,0.855l9.21,7.5C50.535,57.506,50.152,53.765,47.609,51.694z"/><ellipse transform="matrix(0.7071 -0.7071 0.7071 0.7071 -33.3772 50.9022)" stroke="#000000" stroke-width="0.25" stroke-linecap="round" stroke-linejoin="round" stroke-miterlimit="10" cx="44.756" cy="65.741" rx="2.112" ry="2.112"/><path fill="none" stroke="#000000" stroke-width="3" stroke-linecap="round" stroke-linejoin="round" stroke-miterlimit="10" d=" M72.541,59.605c0.196-2.269,1.554-4.301,3.227-5.846c0.907-0.838,2.129-1.606,3.305-1.234c0.984,0.311,1.584,1.358,1.693,2.383 c0.11,1.036-0.257,2.188-1.147,2.73c-0.798,0.486-1.874,0.373-2.651-0.146c-0.778-0.519-1.277-1.383-1.509-2.289 c-0.49-1.914,0.202-4.08,1.711-5.354c0.482-0.407,1.139-0.716,1.745-0.711"/></g><g><path fill="#F7E75D" stroke="#000000" stroke-width="3" stroke-linecap="round" stroke-linejoin="round" stroke-miterlimit="10" d=" M72.598,38.631l-44.032,9.486l-4.823-22.389c4.126,2.235,8.252,4.47,12.378,6.705c3.462-3.869,6.923-7.739,10.385-11.608 c4.748,2.101,9.496,4.202,14.244,6.303c2.342-3.628,4.684-7.257,7.026-10.885L72.598,38.631z"/><ellipse transform="matrix(0.9776 -0.2106 0.2106 0.9776 -3.9015 5.3837)" fill="#F7E75D" stroke="#000000" stroke-width="3" stroke-linecap="round" stroke-linejoin="round" stroke-miterlimit="10" cx="23.327" cy="21.011" rx="4.111" ry="4.111"/><ellipse transform="matrix(0.9776 -0.2106 0.2106 0.9776 -2.3448 10.1086)" fill="#F7E75D" stroke="#000000" stroke-width="3" stroke-linecap="round" stroke-linejoin="round" stroke-miterlimit="10" cx="46.291" cy="16.064" rx="4.111" ry="4.111"/><ellipse transform="matrix(0.9776 -0.2106 0.2106 0.9776 -0.9437 14.3611)" fill="#F7E75D" stroke="#000000" stroke-width="3" stroke-linecap="round" stroke-linejoin="round" stroke-miterlimit="10" cx="66.958" cy="11.612" rx="4.111" ry="4.111"/></g><metadata xmlns:d="https://loading.io/stock/"><d:name>champion</d:name><d:tags>champion, achieve, attain, goal, win,</d:tags><d:license>cc-by</d:license><d:slug>tk00zc</d:slug></metadata></g>
  <g id="id-0.09980492848198042-2">
    
<!-- Generator: Adobe Illustrator 21.0.0, SVG Export Plug-In . SVG Version: 6.00 Build 0)  -->







    <g transform=" translate(192,191.9995) scale(0.8888888888888888)"><g class="ld ld-pulse" style="animation-delay:0s"><g data-icon="">  <use href="#id-0.09980492848198042" x="-50" y="-50"/>
</g></g></g><g transform=" translate(192,63.9995) scale(0.5555555555555556)"><g class="ld ld-pulse" style="animation-delay:-0.125s"><g data-icon="">  <use href="#id-0.09980492848198042" x="-50" y="-50"/>
</g></g></g><g transform=" translate(64,63.9995) scale(0.8888888888888888)"><g class="ld ld-pulse" style="animation-delay:-0.25s"><g data-icon="">  <use href="#id-0.09980492848198042" x="-50" y="-50"/>
</g></g></g><g transform=" translate(64,191.9995) scale(0.5555555555555556)"><g class="ld ld-pulse" style="animation-delay:-0.375s"><g data-icon="">  <use href="#id-0.09980492848198042" x="-50" y="-50"/>
</g></g></g>
  </g>
</defs>
<g>
  <use href="#id-0.09980492848198042-2" x="0" y="0"/>
  <use href="#id-0.09980492848198042-2" x="-256" y="0"/>
  <animateTransform attributeName="transform" type="translate" repeatCount="indefinite" dur="4s"
  keyTimes="0;1" values="0;256"/>
</g>
</svg>