<?xml version="1.0" encoding="utf-8"?>
<svg xmlns="http://www.w3.org/2000/svg" xmlns:xlink="http://www.w3.org/1999/xlink" viewBox="0 0 256 256" width="256px" height="256px">
<style type="text/css">@keyframes ld-pulse
{
  0% {
    animation-timing-function: cubic-bezier(0.0413,0.3905,0.5086,0.6902);
    transform: scale(1);
  }
  24.3% {
    animation-timing-function: cubic-bezier(0.2248,0.6332,0.5246,1);
    transform: scale(0.8458);
  }
  55% {
    animation-timing-function: cubic-bezier(0.3036,0.3393,0.655,0.6144);
    transform: scale(0.8022);
  }
  70.2% {
    animation-timing-function: cubic-bezier(0.4464,0.2728,0.5562,0.7288);
    transform: scale(0.8294);
  }
  82.3% {
    animation-timing-function: cubic-bezier(0.6826,0.1845,1,0.7358);
    transform: scale(0.869);
  }
  100% {
    transform: scale(1);
  }
}
.ld.ld-pulse {
  animation: ld-pulse 0.5s infinite;
}</style>
<rect x="0" y="0" width="256" height="256" fill="#eee"/>
<defs>
  <g id="id-0.5186390830424052"><!--Generator: Adobe Illustrator 21.0.0, SVG Export Plug-In . SVG Version: 6.00 Build 0)--><g><polygon style="fill:#333;stroke:#333;stroke-width:3;stroke-linecap:round;stroke-linejoin:round;stroke-miterlimit:10" points=" 28.6,43.9 86.6,44.2 86.6,39.1 28.6,38.8 	"/><polygon style="fill:#333;stroke:#333;stroke-width:3;stroke-linecap:round;stroke-linejoin:round;stroke-miterlimit:10" points=" 28.6,55.9 86.6,56.2 86.6,51.1 28.6,50.8 	"/></g><g><ellipse transform="matrix(0.866 -0.5 0.5 0.866 -35.5 20.1174)" style="fill:#333" cx="19.8" cy="76.3" rx="10.8" ry="7.2"/><line style="fill:none;stroke:#333;stroke-width:3;stroke-linecap:round;stroke-miterlimit:10" x1="28.6" y1="72.3" x2="28.6" y2="38.8"/></g><g><ellipse transform="matrix(0.866 -0.5 0.5 0.866 -31.6948 34.6339)" style="fill:#333" cx="48.8" cy="76.5" rx="10.8" ry="7.2"/><line style="fill:none;stroke:#333;stroke-width:3;stroke-linecap:round;stroke-miterlimit:10" x1="57.6" y1="72.4" x2="57.6" y2="39"/></g><g><ellipse transform="matrix(0.866 -0.5 0.5 0.866 -27.8896 49.1504)" style="fill:#333" cx="77.8" cy="76.6" rx="10.8" ry="7.2"/><line style="fill:none;stroke:#333;stroke-width:3;stroke-linecap:round;stroke-miterlimit:10" x1="86.6" y1="72.6" x2="86.6" y2="39.1"/></g><g><g><path style="fill:#333" d="M28.6,33.5c4-3.3,8.6-5.9,13.5-7.7C47,24,52.3,23,57.6,23c5.3,0,10.6,1,15.5,2.8 c4.9,1.8,9.5,4.4,13.5,7.7c-4.8-1.8-9.6-3.5-14.4-4.7c-4.8-1.2-9.7-1.8-14.6-1.8c-4.9,0-9.8,0.6-14.6,1.8 C38.2,29.9,33.4,31.7,28.6,33.5z"/></g><path d="M59.1,12.1c2.1,0.6,3.2,1.6,3.2,3.1c0,1-0.5,1.7-1.4,2.3c-0.9,0.6-2,0.9-3.3,0.9c-1,0-1.8-0.2-2.4-0.5 c-0.6-0.3-1-0.8-1-1.3c0-0.3,0.1-0.5,0.4-0.7c0.3-0.2,0.6-0.3,1-0.3c0.4,0,0.7,0.1,0.9,0.2c0.2,0.2,0.4,0.4,0.4,0.6 c0,0.3-0.1,0.5-0.4,0.7c-0.1,0.1-0.1,0.1-0.1,0.1c0,0.1,0.1,0.2,0.3,0.2s0.5,0.1,0.8,0.1c1.5,0,2.2-0.8,2.2-2.5 c0-0.6-0.1-1.1-0.3-1.5S59,13,58.7,12.8s-0.7-0.2-1.2-0.3c-0.3,0-0.4-0.1-0.4-0.2v-0.5c0-0.1,0.1-0.2,0.4-0.2c1.3-0.1,2-0.8,2-2.2 c0-1.2-0.6-1.8-1.7-1.8c-0.3,0-0.5,0-0.8,0.1S56.7,7.9,56.7,8c0,0.1,0.1,0.1,0.2,0.2c0.2,0.1,0.2,0.3,0.2,0.5 c0,0.2-0.1,0.4-0.4,0.5c-0.2,0.2-0.5,0.2-0.8,0.2c-0.4,0-0.7-0.1-0.9-0.3s-0.3-0.4-0.3-0.6c0-0.4,0.3-0.8,1-1.2s1.5-0.5,2.3-0.5 c1.1,0,2.1,0.2,2.8,0.7c0.7,0.5,1.1,1.1,1.1,1.8C61.9,10.5,61,11.4,59.1,12.1z"/></g><metadata xmlns:d="https://loading.io/stock/"><d:name>triplet node</d:name><d:tags>triplet node,beamed note,sixteenth,semiquarver</d:tags><d:license>cc-by</d:license><d:slug>rmjvf7</d:slug></metadata></g>
  <g id="id-0.5186390830424052-2">
    
<!-- Generator: Adobe Illustrator 21.0.0, SVG Export Plug-In . SVG Version: 6.00 Build 0)  -->






<ellipse transform="matrix(0.7249 -0.6888 0.6888 0.7249 -96.2592 93.9447)" fill="#B3B4B4" cx="69.5" cy="167.5" rx="5.5" ry="5.5"/>
<ellipse transform="matrix(0.7249 -0.6888 0.6888 0.7249 15.9378 184.9119)" fill="#B3B4B4" cx="239.5" cy="72.5" rx="5.5" ry="5.5"/>
<g>
	
		<line fill="none" stroke="#B3B4B5" stroke-width="6.3333" stroke-linecap="round" stroke-linejoin="round" stroke-miterlimit="10" x1="192" y1="125.5" x2="211" y2="125.5"/>
	
		<line fill="none" stroke="#B3B4B5" stroke-width="6.3333" stroke-linecap="round" stroke-linejoin="round" stroke-miterlimit="10" x1="201.5" y1="135" x2="201.5" y2="116"/>
</g>
<g>
	
		<line fill="none" stroke="#B3B4B5" stroke-width="4" stroke-linecap="round" stroke-linejoin="round" stroke-miterlimit="10" x1="186" y1="244" x2="198" y2="244"/>
	
		<line fill="none" stroke="#B3B4B5" stroke-width="4" stroke-linecap="round" stroke-linejoin="round" stroke-miterlimit="10" x1="192" y1="250" x2="192" y2="238"/>
</g>
<g>
	
		<line fill="none" stroke="#B3B4B5" stroke-width="7.3333" stroke-linecap="round" stroke-linejoin="round" stroke-miterlimit="10" x1="9.5" y1="46.5" x2="31.5" y2="46.5"/>
	
		<line fill="none" stroke="#B3B4B5" stroke-width="7.3333" stroke-linecap="round" stroke-linejoin="round" stroke-miterlimit="10" x1="20.5" y1="57.5" x2="20.5" y2="35.5"/>
</g>
<ellipse transform="matrix(0.4903 -0.8715 0.8715 0.4903 7.2038 156.6452)" fill="#B3B4B4" cx="137.531" cy="72.163" rx="6.525" ry="6.525"/>
<ellipse transform="matrix(0.7249 -0.6888 0.6888 0.7249 -109.6566 158.3945)" fill="#B3B4B4" cx="143.5" cy="216.5" rx="5.5" ry="5.5"/>
<ellipse transform="matrix(0.7249 -0.6888 0.6888 0.7249 0.2332 72.5839)" fill="#B3B4B4" cx="91" cy="36" rx="4" ry="4"/>
<ellipse transform="matrix(0.7249 -0.6888 0.6888 0.7249 -34.1432 212.4976)" fill="#B3B4B4" cx="249" cy="149" rx="4" ry="4"/>
<ellipse transform="matrix(0.7249 -0.6888 0.6888 0.7249 -163.3891 70.8358)" fill="#B3B4B4" cx="7" cy="240" rx="4" ry="4"/>


    <g transform="matrix(0.9912 0.1325 -0.1325 0.9912 19.5946 -16.4002) translate(133,138.9995) scale(0.6222222222222222)"><g class="ld ld-pulse" style="animation-delay:0s"><g data-icon="">  <use href="#id-0.5186390830424052" x="-50" y="-50"/>
</g></g></g><g transform="matrix(0.8102 -0.5862 0.5862 0.8102 21.907 110.1873) translate(181.074,21.271) scale(0.3916444444444444)"><g class="ld ld-pulse" style="animation-delay:-0.1s"><g data-icon="">  <use href="#id-0.5186390830424052" x="-50" y="-50"/>
</g></g></g><g transform="matrix(0.7153 0.6988 -0.6988 0.7153 199.1367 -101.9661) translate(224.712,193.41799999999998) scale(0.3647555555555556)"><g class="ld ld-pulse" style="animation-delay:-0.2s"><g data-icon="">  <use href="#id-0.5186390830424052" x="-50" y="-50"/>
</g></g></g><g transform="matrix(0.7812 0.6242 -0.6242 0.7812 76.8196 -5.7423) translate(46.602000000000004,106.7265) scale(0.3879111111111111)"><g class="ld ld-pulse" style="animation-delay:-0.3s"><g data-icon="">  <use href="#id-0.5186390830424052" x="-50" y="-50"/>
</g></g></g><g transform="matrix(0.7381 -0.6747 0.6747 0.7381 -136.8065 106.8361) translate(69.2025,229.6265) scale(0.5011777777777778)"><g class="ld ld-pulse" style="animation-delay:-0.4s"><g data-icon="">  <use href="#id-0.5186390830424052" x="-50" y="-50"/>
</g></g></g>
  </g>
</defs>
<g>
  <use href="#id-0.5186390830424052-2" x="0" y="0"/>
  <use href="#id-0.5186390830424052-2" x="-256" y="0"/>
  <animateTransform attributeName="transform" type="translate" repeatCount="indefinite" dur="4s"
  keyTimes="0;1" values="0;256"/>
</g>
</svg>