<?xml version="1.0"?>
<svg xmlns="http://www.w3.org/2000/svg" xmlns:xlink="http://www.w3.org/1999/xlink"
viewBox="0 0 256 256" width="64px" height="64px">
  <style type="text/css">
    @keyframes ld-pulse
{
  0% {
    animation-timing-function: cubic-bezier(0.0413,0.3905,0.5086,0.6902);
    transform: scale(1);
  }
  24.3% {
    animation-timing-function: cubic-bezier(0.2248,0.6332,0.5246,1);
    transform: scale(0.8458);
  }
  55% {
    animation-timing-function: cubic-bezier(0.3036,0.3393,0.655,0.6144);
    transform: scale(0.8022);
  }
  70.2% {
    animation-timing-function: cubic-bezier(0.4464,0.2728,0.5562,0.7288);
    transform: scale(0.8294);
  }
  82.3% {
    animation-timing-function: cubic-bezier(0.6826,0.1845,1,0.7358);
    transform: scale(0.869);
  }
  100% {
    transform: scale(1);
  }
}
.ld.ld-pulse {
  animation: ld-pulse 0.5s infinite;
}
    @keyframes ld-move {
      0% { transform: translate(0,0) }
      100% { transform: translate(256px,0) }
    }
  </style>
  <defs><g id="id-0.059316640778088736">
    
<!-- Generator: Adobe Illustrator 21.0.0, SVG Export Plug-In . SVG Version: 6.00 Build 0)  -->


<rect x="-13.255" y="50.745" transform="matrix(0.7071 -0.7071 0.7071 0.7071 -58.5097 50.7452)" fill="#97353D" width="90.51" height="90.51"/>
<rect x="114.745" y="50.745" transform="matrix(0.7071 -0.7071 0.7071 0.7071 -21.0193 141.2548)" fill="#97353D" width="90.51" height="90.51"/>
<rect x="-13.255" y="178.745" transform="matrix(0.7071 -0.7071 0.7071 0.7071 -149.0193 88.2355)" fill="#97353D" width="90.51" height="90.51"/>
<rect x="114.745" y="178.745" transform="matrix(0.7071 -0.7071 0.7071 0.7071 -111.529 178.7452)" fill="#97353D" width="90.51" height="90.51"/>
<rect x="50.745" y="-13.255" transform="matrix(0.7071 -0.7071 0.7071 0.7071 5.4903 77.2548)" fill="#E15C64" width="90.51" height="90.51"/>
<rect x="178.745" y="-13.255" transform="matrix(0.7071 -0.7071 0.7071 0.7071 42.9807 167.7645)" fill="#E15C64" width="90.51" height="90.51"/>
<rect x="50.745" y="114.745" transform="matrix(0.7071 -0.7071 0.7071 0.7071 -85.0193 114.7452)" fill="#E15C64" width="90.51" height="90.51"/>
<rect x="178.745" y="114.745" transform="matrix(0.7071 -0.7071 0.7071 0.7071 -47.529 205.2548)" fill="#E15C64" width="90.51" height="90.51"/>


  </g></defs>
  <rect y="0" fill="#F4E6C8" width="256" height="256"/>
  <g>
    <use xlink:href="#id-0.059316640778088736" x="-256" y="-256"/><use xlink:href="#id-0.059316640778088736" x="0" y="-256"/><use xlink:href="#id-0.059316640778088736" x="256" y="-256"/><use xlink:href="#id-0.059316640778088736" x="-256" y="0"/><use xlink:href="#id-0.059316640778088736" x="0" y="0"/><use xlink:href="#id-0.059316640778088736" x="256" y="0"/><use xlink:href="#id-0.059316640778088736" x="-256" y="256"/><use xlink:href="#id-0.059316640778088736" x="0" y="256"/><use xlink:href="#id-0.059316640778088736" x="256" y="256"/>
    <animateTransform attributeName="transform" type="translate"
    dur="4s" repeatCount="indefinite" keyTimes="0;1" values="0;256"/>
  </g>
</svg>