<?xml version="1.0"?>
<svg xmlns="http://www.w3.org/2000/svg" xmlns:xlink="http://www.w3.org/1999/xlink"
viewBox="0 0 256 256" width="64px" height="64px">
  <style type="text/css">
    @keyframes ld-pulse
{
  0% {
    animation-timing-function: cubic-bezier(0.0413,0.3905,0.5086,0.6902);
    transform: scale(1);
  }
  24.3% {
    animation-timing-function: cubic-bezier(0.2248,0.6332,0.5246,1);
    transform: scale(0.8458);
  }
  55% {
    animation-timing-function: cubic-bezier(0.3036,0.3393,0.655,0.6144);
    transform: scale(0.8022);
  }
  70.2% {
    animation-timing-function: cubic-bezier(0.4464,0.2728,0.5562,0.7288);
    transform: scale(0.8294);
  }
  82.3% {
    animation-timing-function: cubic-bezier(0.6826,0.1845,1,0.7358);
    transform: scale(0.869);
  }
  100% {
    transform: scale(1);
  }
}
.ld.ld-pulse {
  animation: ld-pulse 0.5s infinite;
}
    @keyframes ld-move {
      0% { transform: translate(0,0) }
      100% { transform: translate(256px,0) }
    }
  </style>
  <defs><g id="id-0.21971001418884573">
    
<!-- Generator: Adobe Illustrator 21.0.0, SVG Export Plug-In . SVG Version: 6.00 Build 0)  -->


<path fill="#F1F2F3" d="M257-23.001c-16.586-0.316-33.302,7.272-43.656,22.804l-0.002,0.003l-0.009-0.014
	c-20.296-30.441-65.027-30.441-85.323,0L128-0.194v0c-20.295-30.445-65.032-30.445-85.327,0l0,0L42.67-0.198
	C32.312-15.734,15.591-23.322-1-23.001v86.807h43.602c0.015,0.022,0.031,0.042,0.045,0.064l0,0.001l0,0
	c0.015-0.022,0.031-0.042,0.046-0.064h85.143c0.045,0.066,0.094,0.127,0.138,0.194v0l0-0.194H128h129V-23.001z"/>
<path fill="#D2D2D3" d="M257,52.97c-22.506-19.012-58.159-15.415-75.656,10.833l-0.002,0.003l-0.009-0.014
	C168.95,45.22,147.475,38.001,128,42.091c-12.446,2.614-24.078,9.833-31.991,21.701L96,63.806v0
	c-20.295-30.445-65.032-30.445-85.327,0l0,0l-0.002-0.004C7.361,58.84,3.396,54.701-1,51.356v76.45h11.602
	c0.015,0.022,0.031,0.042,0.045,0.064l0,0.001l0,0c0.015-0.022,0.031-0.042,0.046-0.064h85.143c0.045,0.066,0.094,0.127,0.138,0.194
	v0l0-0.194H96h32h129V52.97z"/>
<path fill="#F1F2F3" d="M257,104.999c-16.586-0.316-33.302,7.272-43.656,22.804l-0.002,0.003l-0.009-0.014
	c-20.296-30.441-65.027-30.441-85.323,0L128,127.806v0c-20.295-30.445-65.032-30.445-85.327,0l0,0l-0.002-0.004
	C32.312,112.266,15.591,104.678-1,104.999v86.807h43.602c0.015,0.022,0.031,0.042,0.045,0.064l0,0.001l0,0
	c0.015-0.022,0.031-0.042,0.046-0.064h85.143c0.045,0.066,0.094,0.127,0.138,0.194v0l0-0.194H128h129V104.999z"/>
<path fill="#D2D2D3" d="M257,180.97c-22.506-19.012-58.159-15.415-75.656,10.833l-0.002,0.003l-0.009-0.014
	C168.95,173.22,147.475,166.001,128,170.091c-12.446,2.614-24.078,9.833-31.991,21.701L96,191.806v0
	c-20.295-30.445-65.032-30.445-85.327,0l0,0l-0.002-0.004C7.361,186.84,3.396,182.701-1,179.356v53.643
	c16.591-0.321,33.312,7.267,43.67,22.803l0.002,0.004l0,0c20.295-30.445,65.032-30.445,85.327,0v0l0.009-0.014
	c20.296-30.441,65.028-30.441,85.323,0l0.009,0.014l0.002-0.003c10.354-15.532,27.07-23.121,43.656-22.804V180.97z"/>


  </g></defs>
  <rect fill="#D2D2D3" width="256" height="256"/>
  <g>
    <use xlink:href="#id-0.21971001418884573" x="-256" y="-256"/><use xlink:href="#id-0.21971001418884573" x="0" y="-256"/><use xlink:href="#id-0.21971001418884573" x="256" y="-256"/><use xlink:href="#id-0.21971001418884573" x="-256" y="0"/><use xlink:href="#id-0.21971001418884573" x="0" y="0"/><use xlink:href="#id-0.21971001418884573" x="256" y="0"/><use xlink:href="#id-0.21971001418884573" x="-256" y="256"/><use xlink:href="#id-0.21971001418884573" x="0" y="256"/><use xlink:href="#id-0.21971001418884573" x="256" y="256"/>
    <animateTransform attributeName="transform" type="translate"
    dur="4s" repeatCount="indefinite" keyTimes="0;1" values="0;256"/>
  </g>
</svg>