<?xml version="1.0" encoding="utf-8"?>
<svg xmlns="http://www.w3.org/2000/svg" xmlns:xlink="http://www.w3.org/1999/xlink" viewBox="0 0 256 256" width="256px" height="256px">
<style type="text/css">@keyframes ld-pulse
{
  0% {
    animation-timing-function: cubic-bezier(0.0413,0.3905,0.5086,0.6902);
    transform: scale(1);
  }
  24.3% {
    animation-timing-function: cubic-bezier(0.2248,0.6332,0.5246,1);
    transform: scale(0.8458);
  }
  55% {
    animation-timing-function: cubic-bezier(0.3036,0.3393,0.655,0.6144);
    transform: scale(0.8022);
  }
  70.2% {
    animation-timing-function: cubic-bezier(0.4464,0.2728,0.5562,0.7288);
    transform: scale(0.8294);
  }
  82.3% {
    animation-timing-function: cubic-bezier(0.6826,0.1845,1,0.7358);
    transform: scale(0.869);
  }
  100% {
    transform: scale(1);
  }
}
.ld.ld-pulse {
  animation: ld-pulse 0.5s infinite;
}</style>
<rect x="0" y="0" width="256" height="256" fill="#eee"/>
<defs>
  <g id="id-0.4509332980782992"><!--Generator: Adobe Illustrator 21.0.0, SVG Export Plug-In . SVG Version: 6.00 Build 0)--><g><path style="fill:none" d="M53.643,35.354c-1.105,0-2.108,0.42-2.898,1.215c-0.289,0.291-0.539,0.621-0.756,0.977 c-0.782-1.281-1.947-2.192-3.631-2.192c-5.439,0-5.439,4.808-5.439,7.119V50h2.835v-7.527c0-3.665,0.65-4.284,2.604-4.284 c1.648,0,2.216,3.625,2.225,5.298c0,0.009,0,0.018,0,0.027c0.005,0.78,0.638,1.409,1.417,1.409c0.001,0,0.003,0,0.004,0 c0.781-0.002,1.413-0.636,1.413-1.417c0-0.017,0-0.032,0-0.049c0.002-0.966,0.245-3.791,1.338-4.889 c0.261-0.262,0.535-0.379,0.888-0.379c1.986,0,2.604,0.591,2.604,4.284V50h2.835v-7.527C59.082,40.163,59.082,35.354,53.643,35.354 z"/><path style="fill:#e0e0e0" d="M40.918,42.473c0-2.31,0-7.119,5.439-7.119c1.684,0,2.849,0.912,3.631,2.192 c0.217-0.356,0.467-0.687,0.756-0.977c0.79-0.795,1.792-1.215,2.898-1.215c5.439,0,5.439,4.808,5.439,7.119V50h14.466 c2.154-3.871,3.382-8.327,3.382-13.071c0-15.442-12.997-27.848-28.648-26.876c-13.923,0.865-25.029,12.574-25.208,26.522 c-0.063,4.877,1.178,9.457,3.386,13.424h14.46V42.473z"/><path style="fill:#e0e0e0" d="M53.643,38.189c-0.353,0-0.627,0.117-0.888,0.379c-1.093,1.098-1.336,3.923-1.338,4.889 c0,0.017,0,0.032,0,0.049c0,0.782-0.632,1.416-1.413,1.417c-0.001,0-0.003,0-0.004,0c-0.779,0-1.413-0.629-1.417-1.409 c0-0.008,0-0.018,0-0.027c-0.009-1.673-0.577-5.298-2.225-5.298c-1.954,0-2.604,0.619-2.604,4.284V50h12.494v-7.527 C56.247,38.78,55.629,38.189,53.643,38.189z"/></g><path style="fill:#f5e169" d="M37.087,70.248v0.854v7.339C37.087,84.825,42.262,90,48.645,90h2.709 c6.384,0,11.559-5.175,11.559-11.559v-7.339v-0.855c0-5.222,2.005-10.301,5.766-13.924c1.919-1.848,3.563-3.979,4.868-6.324H59.082 v1.26c0,0.782-0.634,1.417-1.417,1.417s-1.417-0.635-1.417-1.417V50H43.753v1.26c0,0.782-0.634,1.417-1.417,1.417 s-1.417-0.635-1.417-1.417V50h-14.46c1.225,2.202,2.745,4.217,4.515,5.984C34.789,59.793,37.087,64.857,37.087,70.248z"/><metadata xmlns:d="https://loading.io/stock/"><d:name>light bulb</d:name><d:tags>light bulb,creativity,bright,smart,idea,lamp,flashlight,think,percent,ratio</d:tags><d:license>cc-by</d:license><d:slug>a9plvw</d:slug></metadata></g>
  <g id="id-0.4509332980782992-2">
    
<!-- Generator: Adobe Illustrator 21.0.0, SVG Export Plug-In . SVG Version: 6.00 Build 0)  -->






<polygon fill="#B3B4B4" points="98,100 70.606,96.559 71.699,89.53 97,93.464 "/>
<path fill="#B3B4B4" d="M38.106,227.244c-0.062,0-0.124,0-0.187-0.001c-3.679-0.049-7.118-1.527-9.685-4.162
	c-5.299-5.44-5.184-14.177,0.257-19.476c2.635-2.567,6.105-3.946,9.791-3.905c3.679,0.049,7.118,1.527,9.685,4.162
	c5.299,5.44,5.184,14.177-0.257,19.476C45.119,225.861,41.715,227.244,38.106,227.244z M38.098,205.999
	c-1.958,0-3.805,0.75-5.211,2.119c-2.952,2.875-3.014,7.615-0.139,10.567c1.393,1.43,3.259,2.232,5.254,2.258
	c2.012,0.018,3.882-0.726,5.312-2.119c2.952-2.875,3.014-7.615,0.139-10.566l0,0c-1.393-1.43-3.259-2.232-5.254-2.258
	C38.165,205.999,38.131,205.999,38.098,205.999z"/>
<ellipse transform="matrix(0.7249 -0.6888 0.6888 0.7249 31.7828 174.5914)" fill="#B3B4B4" cx="234.5" cy="47.5" rx="5.5" ry="5.5"/>
<path fill="#B3B4B4" d="M156.241,162.307l-2.142-6.316c4.911-1.666,7.552-7.017,5.886-11.929c-0.807-2.379-2.492-4.302-4.745-5.414
	c-2.254-1.112-4.805-1.28-7.183-0.473l-2.143-6.316c4.067-1.379,8.427-1.092,12.277,0.808c3.851,1.9,6.731,5.186,8.11,9.253
	C169.148,150.314,164.635,159.46,156.241,162.307z"/>
<ellipse transform="matrix(0.7249 -0.6888 0.6888 0.7249 -74.7837 111.7244)" fill="#B3B4B4" cx="102.5" cy="149.5" rx="5.5" ry="5.5"/>
<polygon fill="#B3B4B4" points="228.814,250.299 248.288,233.674 255.528,237.31 233.433,255.709 "/>
<polygon fill="#B3B4B4" points="117.258,19.675 103,46 98.348,38.347 111.088,16.136 "/>
<path fill="#B3B4B4" d="M222.105,133c-0.055,0-0.109,0-0.165-0.001c-3.245-0.043-6.28-1.347-8.544-3.672
	c-4.675-4.8-4.573-12.507,0.226-17.182c2.325-2.265,5.386-3.481,8.638-3.445c3.245,0.043,6.28,1.347,8.544,3.672
	c4.674,4.799,4.573,12.507-0.226,17.182C228.293,131.78,225.289,133,222.105,133z M222.098,114.257c-1.728,0-3.357,0.662-4.597,1.87
	c-2.604,2.536-2.659,6.718-0.123,9.322c1.229,1.261,2.875,1.969,4.636,1.992c1.775,0.016,3.425-0.641,4.686-1.869
	c2.604-2.536,2.659-6.718,0.123-9.322l0,0c-1.229-1.261-2.875-1.969-4.636-1.992C222.157,114.257,222.128,114.257,222.098,114.257z"
	/>
<path fill="#B3B4B4" d="M186.97,10.317l-5.018,1.322c-1.028-3.902-5.04-6.241-8.942-5.213c-1.89,0.498-3.474,1.702-4.458,3.391
	c-0.985,1.689-1.253,3.661-0.754,5.55l-5.018,1.322c-0.851-3.232-0.393-6.6,1.289-9.486c1.683-2.886,4.389-4.945,7.62-5.796
	C178.357-0.349,185.213,3.648,186.97,10.317z"/>


    <g transform="matrix(0.9912 0.1325 -0.1325 0.9912 30.542 -14.083) translate(121.067,222.398) scale(0.6786666666666666)"><g class="ld ld-pulse" style="animation-delay:0s"><g data-icon="">  <use href="#id-0.4509332980782992" x="-50" y="-50"/>
</g></g></g><g transform="matrix(-0.0456 0.999 -0.999 -0.0456 243.7065 -82.5047) translate(161.268,75.17099999999999) scale(0.47706666666666664)"><g class="ld ld-pulse" style="animation-delay:-0.1s"><g data-icon="">  <use href="#id-0.4509332980782992" x="-50" y="-50"/>
</g></g></g><g transform="matrix(0.5905 -0.8071 0.8071 0.5905 -67.6584 252.8308) translate(215.293,193.0815) scale(0.5214666666666667)"><g class="ld ld-pulse" style="animation-delay:-0.2s"><g data-icon="">  <use href="#id-0.4509332980782992" x="-50" y="-50"/>
</g></g></g><g transform="matrix(-0.4749 -0.8801 0.8801 -0.4749 38.8277 99.7848) translate(49.185,38.308499999999995) scale(0.5980444444444444)"><g class="ld ld-pulse" style="animation-delay:-0.3s"><g data-icon="">  <use href="#id-0.4509332980782992" x="-50" y="-50"/>
</g></g></g><g transform="matrix(0.7381 -0.6747 0.6747 0.7381 -85.9069 63.1885) translate(38.434,142.243) scale(0.607688888888889)"><g class="ld ld-pulse" style="animation-delay:-0.4s"><g data-icon="">  <use href="#id-0.4509332980782992" x="-50" y="-50"/>
</g></g></g>
  </g>
</defs>
<g>
  <use href="#id-0.4509332980782992-2" x="0" y="0"/>
  <use href="#id-0.4509332980782992-2" x="-256" y="0"/>
  <animateTransform attributeName="transform" type="translate" repeatCount="indefinite" dur="4s"
  keyTimes="0;1" values="0;256"/>
</g>
</svg>