<?xml version="1.0" encoding="utf-8"?>
<svg xmlns="http://www.w3.org/2000/svg" xmlns:xlink="http://www.w3.org/1999/xlink" viewBox="0 0 256 256" width="256px" height="256px">
<style type="text/css">@keyframes ld-pulse
{
  0% {
    animation-timing-function: cubic-bezier(0.0413,0.3905,0.5086,0.6902);
    transform: scale(1);
  }
  24.3% {
    animation-timing-function: cubic-bezier(0.2248,0.6332,0.5246,1);
    transform: scale(0.8458);
  }
  55% {
    animation-timing-function: cubic-bezier(0.3036,0.3393,0.655,0.6144);
    transform: scale(0.8022);
  }
  70.2% {
    animation-timing-function: cubic-bezier(0.4464,0.2728,0.5562,0.7288);
    transform: scale(0.8294);
  }
  82.3% {
    animation-timing-function: cubic-bezier(0.6826,0.1845,1,0.7358);
    transform: scale(0.869);
  }
  100% {
    transform: scale(1);
  }
}
.ld.ld-pulse {
  animation: ld-pulse 0.5s infinite;
}</style>
<rect x="0" y="0" width="256" height="256" fill="#eee"/>
<defs>
  <g id="id-0.5357243139901624"><!--Generator: Adobe Illustrator 21.0.0, SVG Export Plug-In . SVG Version: 6.00 Build 0)--><path style="fill-rule:evenodd;clip-rule:evenodd;fill:none;stroke:#333;stroke-width:3.5;stroke-miterlimit:10" d=" M92.5,82.768c0-5.095-3.64-9.409-8.677-10.918c0.175-1.064,0.267-2.153,0.267-3.262c0-12.064-10.731-21.844-23.968-21.844 c-11.367,0-22.302,9.479-22.302,18.923c-9.668-1.924-18.487,5.803-18.487,14.269c0,8.466,7.531,14.329,16.82,14.329h45.414 C87.885,94.264,92.5,88.596,92.5,82.768z"/><g><defs><path id="SVGID_3_" d="M-200-200v500h500v-500H-200z M81.567,94.264H36.153c-9.289,0-16.82-5.863-16.82-14.329 c0-8.466,8.819-16.192,18.487-14.269c0-9.444,10.934-18.923,22.302-18.923c13.237,0,23.968,9.78,23.968,21.844 c0,1.109-0.092,2.197-0.267,3.262c5.037,1.508,8.677,5.823,8.677,10.918C92.5,88.596,87.885,94.264,81.567,94.264z"/></defs><clipPath data-delay-sync="path" id="SVGID_2_"><use xlink:href="#SVGID_3_" style="overflow:visible"/></clipPath><g style="clip-path:url(#SVGID_2_)"><circle style="fill:none;stroke:#333;stroke-width:3.5;stroke-miterlimit:10" cx="42.972" cy="41.22" r="20.652"/><line style="fill:none;stroke:#333;stroke-width:3.5;stroke-linecap:round;stroke-miterlimit:10" x1="42.972" y1="8.052" x2="42.972" y2="15.937"/><line style="fill:none;stroke:#333;stroke-width:3.5;stroke-linecap:round;stroke-miterlimit:10" x1="19.519" y1="17.767" x2="25.095" y2="23.342"/><line style="fill:none;stroke:#333;stroke-width:3.5;stroke-linecap:round;stroke-miterlimit:10" x1="9.804" y1="41.22" x2="17.69" y2="41.22"/><line style="fill:none;stroke:#333;stroke-width:3.5;stroke-linecap:round;stroke-miterlimit:10" x1="19.519" y1="64.673" x2="25.095" y2="59.097"/><line style="fill:none;stroke:#333;stroke-width:3.5;stroke-linecap:round;stroke-miterlimit:10" x1="42.972" y1="74.388" x2="42.972" y2="66.503"/><line style="fill:none;stroke:#333;stroke-width:3.5;stroke-linecap:round;stroke-miterlimit:10" x1="66.426" y1="64.673" x2="60.85" y2="59.097"/><line style="fill:none;stroke:#333;stroke-width:3.5;stroke-linecap:round;stroke-miterlimit:10" x1="76.14" y1="41.22" x2="68.255" y2="41.22"/><line style="fill:none;stroke:#333;stroke-width:3.5;stroke-linecap:round;stroke-miterlimit:10" x1="66.426" y1="17.767" x2="60.85" y2="23.342"/></g></g><metadata xmlns:d="https://loading.io/stock/"><d:name>wf</d:name><d:tags>wf</d:tags><d:license>cc-by</d:license><d:slug>20b7xn</d:slug></metadata></g>
  <g id="id-0.5357243139901624-2">
    
<!-- Generator: Adobe Illustrator 21.0.0, SVG Export Plug-In . SVG Version: 6.00 Build 0)  -->






<ellipse transform="matrix(0.7249 -0.6888 0.6888 0.7249 -96.2592 93.9447)" fill="#B3B4B4" cx="69.5" cy="167.5" rx="5.5" ry="5.5"/>
<ellipse transform="matrix(0.7249 -0.6888 0.6888 0.7249 15.9378 184.9119)" fill="#B3B4B4" cx="239.5" cy="72.5" rx="5.5" ry="5.5"/>
<g>
	
		<line fill="none" stroke="#B3B4B5" stroke-width="6.3333" stroke-linecap="round" stroke-linejoin="round" stroke-miterlimit="10" x1="192" y1="125.5" x2="211" y2="125.5"/>
	
		<line fill="none" stroke="#B3B4B5" stroke-width="6.3333" stroke-linecap="round" stroke-linejoin="round" stroke-miterlimit="10" x1="201.5" y1="135" x2="201.5" y2="116"/>
</g>
<g>
	
		<line fill="none" stroke="#B3B4B5" stroke-width="4" stroke-linecap="round" stroke-linejoin="round" stroke-miterlimit="10" x1="186" y1="244" x2="198" y2="244"/>
	
		<line fill="none" stroke="#B3B4B5" stroke-width="4" stroke-linecap="round" stroke-linejoin="round" stroke-miterlimit="10" x1="192" y1="250" x2="192" y2="238"/>
</g>
<g>
	
		<line fill="none" stroke="#B3B4B5" stroke-width="7.3333" stroke-linecap="round" stroke-linejoin="round" stroke-miterlimit="10" x1="9.5" y1="46.5" x2="31.5" y2="46.5"/>
	
		<line fill="none" stroke="#B3B4B5" stroke-width="7.3333" stroke-linecap="round" stroke-linejoin="round" stroke-miterlimit="10" x1="20.5" y1="57.5" x2="20.5" y2="35.5"/>
</g>
<ellipse transform="matrix(0.4903 -0.8715 0.8715 0.4903 7.2038 156.6452)" fill="#B3B4B4" cx="137.531" cy="72.163" rx="6.525" ry="6.525"/>
<ellipse transform="matrix(0.7249 -0.6888 0.6888 0.7249 -109.6566 158.3945)" fill="#B3B4B4" cx="143.5" cy="216.5" rx="5.5" ry="5.5"/>
<ellipse transform="matrix(0.7249 -0.6888 0.6888 0.7249 0.2332 72.5839)" fill="#B3B4B4" cx="91" cy="36" rx="4" ry="4"/>
<ellipse transform="matrix(0.7249 -0.6888 0.6888 0.7249 -34.1432 212.4976)" fill="#B3B4B4" cx="249" cy="149" rx="4" ry="4"/>
<ellipse transform="matrix(0.7249 -0.6888 0.6888 0.7249 -163.3891 70.8358)" fill="#B3B4B4" cx="7" cy="240" rx="4" ry="4"/>


    <g transform="matrix(0.9912 0.1325 -0.1325 0.9912 19.5946 -16.4002) translate(133,138.9995) scale(0.6222222222222222)"><g class="ld ld-pulse" style="animation-delay:0s"><g data-icon="">  <use href="#id-0.5357243139901624" x="-50" y="-50"/>
</g></g></g><g transform="matrix(0.8102 -0.5862 0.5862 0.8102 21.907 110.1873) translate(181.074,21.271) scale(0.3916444444444444)"><g class="ld ld-pulse" style="animation-delay:-0.1s"><g data-icon="">  <use href="#id-0.5357243139901624" x="-50" y="-50"/>
</g></g></g><g transform="matrix(0.7153 0.6988 -0.6988 0.7153 199.1367 -101.9661) translate(224.712,193.41799999999998) scale(0.3647555555555556)"><g class="ld ld-pulse" style="animation-delay:-0.2s"><g data-icon="">  <use href="#id-0.5357243139901624" x="-50" y="-50"/>
</g></g></g><g transform="matrix(0.7812 0.6242 -0.6242 0.7812 76.8196 -5.7423) translate(46.602000000000004,106.7265) scale(0.3879111111111111)"><g class="ld ld-pulse" style="animation-delay:-0.3s"><g data-icon="">  <use href="#id-0.5357243139901624" x="-50" y="-50"/>
</g></g></g><g transform="matrix(0.7381 -0.6747 0.6747 0.7381 -136.8065 106.8361) translate(69.2025,229.6265) scale(0.5011777777777778)"><g class="ld ld-pulse" style="animation-delay:-0.4s"><g data-icon="">  <use href="#id-0.5357243139901624" x="-50" y="-50"/>
</g></g></g>
  </g>
</defs>
<g>
  <use href="#id-0.5357243139901624-2" x="0" y="0"/>
  <use href="#id-0.5357243139901624-2" x="-256" y="0"/>
  <animateTransform attributeName="transform" type="translate" repeatCount="indefinite" dur="4s"
  keyTimes="0;1" values="0;256"/>
</g>
</svg>