<?xml version="1.0" encoding="utf-8"?>
<svg xmlns="http://www.w3.org/2000/svg" xmlns:xlink="http://www.w3.org/1999/xlink" viewBox="0 0 256 256" width="256px" height="256px">
<style type="text/css">@keyframes ld-pulse
{
  0% {
    animation-timing-function: cubic-bezier(0.0413,0.3905,0.5086,0.6902);
    transform: scale(1);
  }
  24.3% {
    animation-timing-function: cubic-bezier(0.2248,0.6332,0.5246,1);
    transform: scale(0.8458);
  }
  55% {
    animation-timing-function: cubic-bezier(0.3036,0.3393,0.655,0.6144);
    transform: scale(0.8022);
  }
  70.2% {
    animation-timing-function: cubic-bezier(0.4464,0.2728,0.5562,0.7288);
    transform: scale(0.8294);
  }
  82.3% {
    animation-timing-function: cubic-bezier(0.6826,0.1845,1,0.7358);
    transform: scale(0.869);
  }
  100% {
    transform: scale(1);
  }
}
.ld.ld-pulse {
  animation: ld-pulse 0.5s infinite;
}</style>
<rect x="0" y="0" width="256" height="256" fill="#eee"/>
<defs>
  <g id="id-0.974838079922048"><!--Generator: Adobe Illustrator 21.0.0, SVG Export Plug-In . SVG Version: 6.00 Build 0)--><g><ellipse transform="matrix(0.866 -0.5 0.5 0.866 -31.1938 31.7111)" style="fill:#333" cx="43.6" cy="74.1" rx="14.3" ry="9.5"/></g><g><path style="fill:#333" d="M56.8,15c0,1.2,0.5,2.4,1.5,3.2c0.5,0.4,1,0.8,1.5,1.2c0.5,0.4,1.1,0.8,1.5,1.3 c1.8,2,3.9,4.2,5.8,6.7c0.9,1.3,1.8,2.7,2.5,4.2c0.2,0.4,0.3,0.8,0.5,1.2c0.1,0.4,0.3,0.8,0.4,1.2c0.2,0.8,0.4,1.6,0.5,2.4 c0.2,1.7-0.1,3.5-0.7,4.9c-0.3,0.7-0.7,1.4-1.1,2.1c-0.4,0.6-0.6,1.3-1.2,1.8l0,0c-0.3,0.2-0.7,0.2-0.9,0c-0.1-0.1-0.2-0.3-0.2-0.4 c-0.1-0.9,0.3-1.5,0.6-2.2c0.3-0.7,0.5-1.4,0.7-2c0.4-1.3,0.4-2.5,0.1-3.7c-0.7-2.5-2.3-4.6-4.4-6.4c-2-1.8-4.5-3.4-6.7-5.7 c-0.6-0.6-1.1-1.2-1.4-2c-0.4-0.8-0.7-1.6-1-2.4c-0.2-0.9-0.4-1.7-0.5-2.6c-0.2-0.8-0.2-1.7-0.4-2.6c-0.2-0.8,0.4-1.6,1.2-1.8 c0.8-0.2,1.6,0.4,1.8,1.2c0,0.1,0,0.2,0,0.3L56.8,15z"/></g><line style="fill:none;stroke:#333;stroke-width:3;stroke-linecap:round;stroke-linejoin:round;stroke-miterlimit:10" x1="55.3" y1="68.7" x2="55.3" y2="15"/><g><path style="fill:#333" d="M56.8,26.2c0,1.2,0.5,2.4,1.5,3.2c0.5,0.4,1,0.8,1.5,1.2c0.5,0.4,1.1,0.8,1.5,1.3 c1.8,2,3.9,4.2,5.8,6.7c0.9,1.3,1.8,2.7,2.5,4.2c0.2,0.4,0.3,0.8,0.5,1.2c0.1,0.4,0.3,0.8,0.4,1.2c0.2,0.8,0.4,1.6,0.5,2.4 c0.2,1.7-0.1,3.5-0.7,4.9c-0.3,0.7-0.7,1.4-1.1,2.1c-0.4,0.6-0.6,1.3-1.2,1.8l0,0c-0.3,0.2-0.7,0.2-0.9,0c-0.1-0.1-0.2-0.3-0.2-0.4 c-0.1-0.9,0.3-1.5,0.6-2.2c0.3-0.7,0.5-1.4,0.7-2c0.4-1.3,0.4-2.5,0.1-3.7c-0.7-2.5-2.3-4.6-4.4-6.4c-2-1.8-4.5-3.4-6.7-5.7 c-0.6-0.6-1.1-1.2-1.4-2c-0.4-0.8-0.7-1.6-1-2.4c-0.2-0.9-0.4-1.7-0.5-2.6c-0.2-0.8-0.2-1.7-0.4-2.6c-0.2-0.8,0.4-1.6,1.2-1.8 c0.8-0.2,1.6,0.4,1.8,1.2c0,0.1,0,0.2,0,0.3L56.8,26.2z"/></g><g><path style="fill:#333" d="M56.8,37.5c0,1.2,0.5,2.4,1.5,3.2c0.5,0.4,1,0.8,1.5,1.2c0.5,0.4,1.1,0.8,1.5,1.3 c1.8,2,3.9,4.2,5.8,6.7c0.9,1.3,1.8,2.7,2.5,4.2c0.2,0.4,0.3,0.8,0.5,1.2c0.1,0.4,0.3,0.8,0.4,1.2c0.2,0.8,0.4,1.6,0.5,2.4 c0.2,1.7-0.1,3.5-0.7,4.9c-0.3,0.7-0.7,1.4-1.1,2.1c-0.4,0.6-0.6,1.3-1.2,1.8l0,0c-0.3,0.2-0.7,0.2-0.9,0c-0.1-0.1-0.2-0.3-0.2-0.4 c-0.1-0.9,0.3-1.5,0.6-2.2c0.3-0.7,0.5-1.4,0.7-2c0.4-1.3,0.4-2.5,0.1-3.7c-0.7-2.5-2.3-4.6-4.4-6.4c-2-1.8-4.5-3.4-6.7-5.7 c-0.6-0.6-1.1-1.2-1.4-2c-0.4-0.8-0.7-1.6-1-2.4c-0.2-0.9-0.4-1.7-0.5-2.6c-0.2-0.8-0.2-1.7-0.4-2.6c-0.2-0.8,0.4-1.6,1.2-1.8 c0.8-0.2,1.6,0.4,1.8,1.2c0,0.1,0,0.2,0,0.3L56.8,37.5z"/></g><circle style="fill:#333" cx="63.7" cy="67.3" r="3"/><line style="fill:none;stroke:#333;stroke-width:3;stroke-linecap:round;stroke-miterlimit:10" x1="20.8" y1="74.1" x2="67.2" y2="74.1"/><metadata xmlns:d="https://loading.io/stock/"><d:name>note</d:name><d:tags>note,thirty-second,demisemiquaver</d:tags><d:license>cc-by</d:license><d:slug>ehani7</d:slug></metadata></g>
  <g id="id-0.974838079922048-2">
    
<!-- Generator: Adobe Illustrator 21.0.0, SVG Export Plug-In . SVG Version: 6.00 Build 0)  -->





    <g transform=" translate(192,191.9995) scale(0.8888888888888888)"><g class="ld ld-pulse" style="animation-delay:0s"><g data-icon="">  <use href="#id-0.974838079922048" x="-50" y="-50"/>
</g></g></g><g transform=" translate(64,63.9995) scale(0.8888888888888888)"><g class="ld ld-pulse" style="animation-delay:-0.25s"><g data-icon="">  <use href="#id-0.974838079922048" x="-50" y="-50"/>
</g></g></g>
  </g>
</defs>
<g>
  <use href="#id-0.974838079922048-2" x="0" y="0"/>
  <use href="#id-0.974838079922048-2" x="-256" y="0"/>
  <animateTransform attributeName="transform" type="translate" repeatCount="indefinite" dur="4s"
  keyTimes="0;1" values="0;256"/>
</g>
</svg>