<?xml version="1.0" encoding="utf-8"?>
<svg xmlns="http://www.w3.org/2000/svg" xmlns:xlink="http://www.w3.org/1999/xlink" viewBox="0 0 256 256" width="256px" height="256px">
<style type="text/css">@keyframes ld-pulse
{
  0% {
    animation-timing-function: cubic-bezier(0.0413,0.3905,0.5086,0.6902);
    transform: scale(1);
  }
  24.3% {
    animation-timing-function: cubic-bezier(0.2248,0.6332,0.5246,1);
    transform: scale(0.8458);
  }
  55% {
    animation-timing-function: cubic-bezier(0.3036,0.3393,0.655,0.6144);
    transform: scale(0.8022);
  }
  70.2% {
    animation-timing-function: cubic-bezier(0.4464,0.2728,0.5562,0.7288);
    transform: scale(0.8294);
  }
  82.3% {
    animation-timing-function: cubic-bezier(0.6826,0.1845,1,0.7358);
    transform: scale(0.869);
  }
  100% {
    transform: scale(1);
  }
}
.ld.ld-pulse {
  animation: ld-pulse 0.5s infinite;
}</style>
<rect x="0" y="0" width="256" height="256" fill="#eee"/>
<defs>
  <g id="id-0.8103840712199255"><!--Generator: Adobe Illustrator 21.0.0, SVG Export Plug-In . SVG Version: 6.00 Build 0)--><path style="fill:#a0c8d7" d="M30.711,36.601c0.16-0.229,0.322-0.456,0.489-0.678c0.133-0.177,0.269-0.352,0.406-0.525 c0.173-0.217,0.349-0.429,0.528-0.639c0.143-0.167,0.286-0.332,0.434-0.495c0.187-0.206,0.378-0.407,0.572-0.606 c0.15-0.155,0.3-0.31,0.454-0.46c0.203-0.197,0.411-0.388,0.621-0.578c0.155-0.14,0.307-0.282,0.465-0.418 c0.223-0.192,0.453-0.375,0.683-0.558c0.153-0.122,0.304-0.248,0.46-0.366c0.259-0.196,0.526-0.381,0.792-0.566 c0.135-0.094,0.266-0.192,0.403-0.283c0.407-0.27,0.821-0.528,1.244-0.773c0.008-0.004,0.015-0.008,0.023-0.012 c0.416-0.239,0.839-0.465,1.269-0.679c0.146-0.073,0.297-0.137,0.444-0.206c0.294-0.139,0.589-0.278,0.889-0.404 c0.179-0.076,0.362-0.143,0.543-0.214c0.274-0.108,0.548-0.216,0.827-0.314c0.196-0.069,0.394-0.13,0.592-0.193 c0.27-0.087,0.54-0.172,0.813-0.249c0.206-0.058,0.413-0.11,0.62-0.162c0.271-0.068,0.542-0.134,0.816-0.193 c0.212-0.046,0.425-0.087,0.638-0.127c0.273-0.051,0.548-0.097,0.823-0.138c0.217-0.032,0.433-0.062,0.651-0.088 c0.278-0.034,0.557-0.061,0.836-0.084c0.218-0.018,0.435-0.036,0.653-0.048c0.1-0.006,0.199-0.018,0.299-0.022v-4.638l4.961-3.134 L49,15.616v-4.604c-13.157,0.341-25.361,7.39-32.259,18.63l3.027,1.749l7.021-3.69l0.314,7.925l3.066,1.77 c0.054-0.084,0.114-0.164,0.168-0.247C30.46,36.964,30.585,36.782,30.711,36.601z"/><path style="fill:#849b87" d="M29.034,60.596c-0.09-0.179-0.176-0.359-0.262-0.54c-0.126-0.265-0.247-0.531-0.363-0.801 c-0.081-0.19-0.16-0.381-0.236-0.573c-0.106-0.267-0.207-0.535-0.303-0.806c-0.07-0.197-0.138-0.393-0.203-0.592 c-0.089-0.273-0.171-0.548-0.25-0.824c-0.057-0.199-0.114-0.398-0.166-0.598c-0.073-0.282-0.136-0.565-0.198-0.85 c-0.043-0.198-0.089-0.395-0.127-0.594c-0.057-0.296-0.103-0.595-0.148-0.894c-0.029-0.189-0.062-0.378-0.086-0.568 c-0.042-0.328-0.07-0.657-0.098-0.987c-0.014-0.163-0.034-0.325-0.044-0.488C26.518,50.99,26.5,50.495,26.5,50 s0.018-0.99,0.049-1.483c0.01-0.163,0.031-0.325,0.044-0.488c0.028-0.33,0.056-0.659,0.098-0.987 c0.024-0.19,0.058-0.379,0.086-0.568c0.045-0.299,0.091-0.597,0.148-0.894c0.038-0.199,0.084-0.396,0.127-0.594 c0.062-0.284,0.126-0.568,0.198-0.85c0.052-0.201,0.109-0.399,0.166-0.598c0.079-0.276,0.161-0.551,0.25-0.824 c0.065-0.198,0.133-0.395,0.203-0.592c0.096-0.27,0.197-0.539,0.303-0.806c0.076-0.192,0.155-0.383,0.236-0.573 c0.115-0.269,0.237-0.536,0.363-0.801c0.086-0.181,0.171-0.361,0.262-0.54c0.046-0.091,0.086-0.186,0.134-0.276l-4.019-2.319 l-0.232-5.862l-5.193,2.729l-3.984-2.301C12.636,37.074,11,43.491,11,50s1.636,12.926,4.739,18.626l3.029-1.749l0.314-7.926 l7.021,3.69l3.063-1.769C29.12,60.782,29.08,60.688,29.034,60.596z"/><path style="fill:#abbd81" d="M48.048,73.408c-0.28-0.024-0.559-0.051-0.836-0.084c-0.218-0.026-0.435-0.056-0.651-0.088 c-0.276-0.041-0.55-0.088-0.823-0.138c-0.213-0.04-0.426-0.081-0.638-0.126c-0.274-0.059-0.546-0.125-0.817-0.193 c-0.207-0.052-0.414-0.104-0.619-0.162c-0.273-0.077-0.543-0.162-0.812-0.249c-0.198-0.064-0.397-0.125-0.593-0.194 c-0.278-0.098-0.552-0.206-0.827-0.313c-0.181-0.071-0.364-0.138-0.543-0.214c-0.3-0.127-0.594-0.265-0.889-0.404 c-0.148-0.07-0.298-0.134-0.444-0.207c-0.43-0.214-0.853-0.44-1.269-0.679c-0.008-0.004-0.015-0.008-0.023-0.012 c-0.423-0.244-0.837-0.503-1.244-0.773c-0.137-0.091-0.268-0.19-0.403-0.283c-0.267-0.185-0.533-0.37-0.792-0.566 c-0.156-0.118-0.307-0.244-0.46-0.366c-0.23-0.183-0.46-0.366-0.683-0.558c-0.158-0.136-0.311-0.278-0.466-0.418 c-0.209-0.19-0.417-0.38-0.62-0.577c-0.154-0.15-0.304-0.305-0.454-0.459c-0.194-0.199-0.385-0.4-0.572-0.607 c-0.147-0.162-0.291-0.328-0.433-0.495c-0.18-0.21-0.356-0.423-0.528-0.639c-0.138-0.173-0.273-0.348-0.406-0.525 c-0.167-0.223-0.329-0.449-0.489-0.678c-0.126-0.181-0.252-0.362-0.373-0.548c-0.055-0.084-0.115-0.163-0.169-0.247l-4.021,2.321 l-5.193-2.729l-0.232,5.861l-3.982,2.301C23.639,81.598,35.843,88.646,49,88.987v-3.502l-6.705-4.235L49,77.015v-3.536 c-0.1-0.004-0.199-0.016-0.299-0.022C48.483,73.444,48.265,73.427,48.048,73.408z"/><path style="fill:#f8b26a" d="M69.289,63.399c-0.16,0.229-0.322,0.456-0.489,0.678c-0.133,0.177-0.269,0.352-0.406,0.525 c-0.173,0.217-0.349,0.429-0.528,0.639c-0.143,0.167-0.286,0.332-0.434,0.495c-0.187,0.206-0.378,0.407-0.572,0.606 c-0.15,0.155-0.3,0.309-0.454,0.46C66.203,67,65.994,67.19,65.785,67.38c-0.155,0.14-0.307,0.282-0.466,0.418 c-0.223,0.192-0.453,0.375-0.683,0.558c-0.153,0.122-0.304,0.248-0.46,0.366c-0.259,0.196-0.526,0.381-0.792,0.566 c-0.135,0.094-0.266,0.192-0.403,0.283c-0.407,0.27-0.821,0.528-1.244,0.773c-0.008,0.004-0.015,0.008-0.023,0.012 c-0.416,0.24-0.839,0.465-1.269,0.679c-0.146,0.073-0.297,0.137-0.444,0.207c-0.294,0.139-0.589,0.278-0.889,0.404 c-0.179,0.076-0.362,0.143-0.543,0.214c-0.274,0.108-0.548,0.216-0.827,0.313c-0.196,0.069-0.395,0.13-0.593,0.194 c-0.27,0.087-0.539,0.172-0.813,0.249c-0.205,0.058-0.412,0.11-0.619,0.162c-0.271,0.069-0.543,0.134-0.817,0.193 c-0.212,0.046-0.425,0.087-0.638,0.126c-0.273,0.051-0.548,0.097-0.823,0.138c-0.217,0.032-0.433,0.062-0.651,0.088 c-0.278,0.034-0.557,0.061-0.836,0.084c-0.218,0.018-0.435,0.036-0.653,0.048c-0.1,0.006-0.199,0.018-0.299,0.022v4.638 l-4.961,3.134L51,84.384v4.604c13.157-0.341,25.361-7.39,32.259-18.63l-3.027-1.749l-7.021,3.69l-0.314-7.925l-3.066-1.77 c-0.054,0.084-0.114,0.164-0.168,0.247C69.54,63.036,69.415,63.218,69.289,63.399z"/><path style="fill:#f47e60" d="M73.896,37.358l-3.063,1.769c0.047,0.091,0.088,0.185,0.134,0.277c0.09,0.179,0.176,0.359,0.262,0.54 c0.126,0.265,0.248,0.532,0.363,0.801c0.081,0.189,0.159,0.38,0.235,0.571c0.107,0.268,0.208,0.537,0.304,0.808 c0.07,0.196,0.138,0.392,0.203,0.59c0.089,0.273,0.171,0.548,0.25,0.824c0.057,0.199,0.114,0.398,0.166,0.598 c0.073,0.282,0.136,0.565,0.198,0.85c0.043,0.198,0.089,0.395,0.127,0.594c0.057,0.297,0.103,0.596,0.148,0.896 c0.029,0.188,0.062,0.376,0.086,0.565c0.042,0.329,0.07,0.66,0.098,0.991c0.014,0.162,0.034,0.323,0.044,0.485 C73.482,49.01,73.5,49.505,73.5,50s-0.018,0.99-0.049,1.483c-0.01,0.162-0.03,0.323-0.044,0.485 c-0.028,0.331-0.056,0.662-0.098,0.991c-0.024,0.189-0.057,0.377-0.086,0.565c-0.045,0.299-0.091,0.599-0.148,0.896 c-0.038,0.199-0.084,0.396-0.127,0.594c-0.062,0.284-0.126,0.568-0.198,0.85c-0.052,0.201-0.109,0.399-0.166,0.598 c-0.079,0.276-0.161,0.551-0.25,0.824c-0.065,0.198-0.133,0.394-0.203,0.59c-0.097,0.271-0.198,0.541-0.304,0.808 c-0.076,0.191-0.154,0.382-0.235,0.571c-0.116,0.269-0.237,0.536-0.363,0.801c-0.086,0.181-0.171,0.361-0.262,0.54 c-0.046,0.091-0.086,0.186-0.134,0.276l4.019,2.319l0.232,5.862l5.193-2.729l3.984,2.301C87.364,62.926,89,56.509,89,50 s-1.636-12.926-4.739-18.626l-3.029,1.749l-0.314,7.926L73.896,37.358z"/><path style="fill:#e15b64" d="M51.952,26.592c0.28,0.024,0.559,0.051,0.836,0.084c0.218,0.026,0.435,0.056,0.651,0.088 c0.276,0.041,0.55,0.088,0.823,0.138c0.214,0.04,0.426,0.081,0.638,0.127c0.273,0.059,0.545,0.125,0.815,0.193 c0.207,0.052,0.415,0.104,0.62,0.162c0.273,0.077,0.543,0.163,0.813,0.25c0.198,0.064,0.396,0.125,0.592,0.193 c0.278,0.098,0.553,0.206,0.827,0.314c0.181,0.071,0.364,0.138,0.543,0.214c0.3,0.127,0.594,0.265,0.889,0.404 c0.148,0.07,0.298,0.134,0.444,0.206c0.43,0.214,0.853,0.44,1.269,0.679c0.008,0.004,0.015,0.008,0.023,0.012 c0.423,0.244,0.837,0.503,1.244,0.773c0.137,0.091,0.268,0.19,0.403,0.283c0.267,0.185,0.533,0.37,0.792,0.566 c0.156,0.118,0.307,0.244,0.46,0.366c0.23,0.183,0.46,0.366,0.684,0.558c0.158,0.136,0.311,0.277,0.465,0.417 c0.21,0.19,0.418,0.38,0.621,0.578c0.154,0.15,0.304,0.305,0.455,0.46c0.193,0.199,0.385,0.4,0.571,0.606 c0.147,0.163,0.291,0.328,0.434,0.495c0.18,0.21,0.356,0.423,0.528,0.639c0.138,0.173,0.273,0.348,0.406,0.525 c0.167,0.223,0.329,0.449,0.489,0.678c0.126,0.181,0.252,0.362,0.373,0.548c0.055,0.084,0.115,0.163,0.169,0.247l4.021-2.321 l5.193,2.729l0.232-5.861l3.982-2.301C76.361,18.402,64.157,11.354,51,11.013v3.502l6.705,4.235L51,22.985v3.536 c0.1,0.004,0.199,0.016,0.299,0.022C51.517,26.556,51.735,26.574,51.952,26.592z"/><metadata xmlns:d="https://loading.io/stock/"><d:name>step</d:name><d:tags>step,flow,process,progress,direction,followup,infographics,wheel,ring,circle</d:tags><d:license>cc-by</d:license><d:slug>ah5xob</d:slug></metadata></g>
  <g id="id-0.8103840712199255-2">
    
<!-- Generator: Adobe Illustrator 21.0.0, SVG Export Plug-In . SVG Version: 6.00 Build 0)  -->






<polygon fill="#B3B4B4" points="98,100 70.606,96.559 71.699,89.53 97,93.464 "/>
<path fill="#B3B4B4" d="M38.106,227.244c-0.062,0-0.124,0-0.187-0.001c-3.679-0.049-7.118-1.527-9.685-4.162
	c-5.299-5.44-5.184-14.177,0.257-19.476c2.635-2.567,6.105-3.946,9.791-3.905c3.679,0.049,7.118,1.527,9.685,4.162
	c5.299,5.44,5.184,14.177-0.257,19.476C45.119,225.861,41.715,227.244,38.106,227.244z M38.098,205.999
	c-1.958,0-3.805,0.75-5.211,2.119c-2.952,2.875-3.014,7.615-0.139,10.567c1.393,1.43,3.259,2.232,5.254,2.258
	c2.012,0.018,3.882-0.726,5.312-2.119c2.952-2.875,3.014-7.615,0.139-10.566l0,0c-1.393-1.43-3.259-2.232-5.254-2.258
	C38.165,205.999,38.131,205.999,38.098,205.999z"/>
<ellipse transform="matrix(0.7249 -0.6888 0.6888 0.7249 31.7828 174.5914)" fill="#B3B4B4" cx="234.5" cy="47.5" rx="5.5" ry="5.5"/>
<path fill="#B3B4B4" d="M156.241,162.307l-2.142-6.316c4.911-1.666,7.552-7.017,5.886-11.929c-0.807-2.379-2.492-4.302-4.745-5.414
	c-2.254-1.112-4.805-1.28-7.183-0.473l-2.143-6.316c4.067-1.379,8.427-1.092,12.277,0.808c3.851,1.9,6.731,5.186,8.11,9.253
	C169.148,150.314,164.635,159.46,156.241,162.307z"/>
<ellipse transform="matrix(0.7249 -0.6888 0.6888 0.7249 -74.7837 111.7244)" fill="#B3B4B4" cx="102.5" cy="149.5" rx="5.5" ry="5.5"/>
<polygon fill="#B3B4B4" points="228.814,250.299 248.288,233.674 255.528,237.31 233.433,255.709 "/>
<polygon fill="#B3B4B4" points="117.258,19.675 103,46 98.348,38.347 111.088,16.136 "/>
<path fill="#B3B4B4" d="M222.105,133c-0.055,0-0.109,0-0.165-0.001c-3.245-0.043-6.28-1.347-8.544-3.672
	c-4.675-4.8-4.573-12.507,0.226-17.182c2.325-2.265,5.386-3.481,8.638-3.445c3.245,0.043,6.28,1.347,8.544,3.672
	c4.674,4.799,4.573,12.507-0.226,17.182C228.293,131.78,225.289,133,222.105,133z M222.098,114.257c-1.728,0-3.357,0.662-4.597,1.87
	c-2.604,2.536-2.659,6.718-0.123,9.322c1.229,1.261,2.875,1.969,4.636,1.992c1.775,0.016,3.425-0.641,4.686-1.869
	c2.604-2.536,2.659-6.718,0.123-9.322l0,0c-1.229-1.261-2.875-1.969-4.636-1.992C222.157,114.257,222.128,114.257,222.098,114.257z"
	/>
<path fill="#B3B4B4" d="M186.97,10.317l-5.018,1.322c-1.028-3.902-5.04-6.241-8.942-5.213c-1.89,0.498-3.474,1.702-4.458,3.391
	c-0.985,1.689-1.253,3.661-0.754,5.55l-5.018,1.322c-0.851-3.232-0.393-6.6,1.289-9.486c1.683-2.886,4.389-4.945,7.62-5.796
	C178.357-0.349,185.213,3.648,186.97,10.317z"/>


    <g transform="matrix(0.9912 0.1325 -0.1325 0.9912 30.542 -14.083) translate(121.067,222.398) scale(0.6786666666666666)"><g class="ld ld-pulse" style="animation-delay:0s"><g data-icon="">  <use href="#id-0.8103840712199255" x="-50" y="-50"/>
</g></g></g><g transform="matrix(-0.0456 0.999 -0.999 -0.0456 243.7065 -82.5047) translate(161.268,75.17099999999999) scale(0.47706666666666664)"><g class="ld ld-pulse" style="animation-delay:-0.1s"><g data-icon="">  <use href="#id-0.8103840712199255" x="-50" y="-50"/>
</g></g></g><g transform="matrix(0.5905 -0.8071 0.8071 0.5905 -67.6584 252.8308) translate(215.293,193.0815) scale(0.5214666666666667)"><g class="ld ld-pulse" style="animation-delay:-0.2s"><g data-icon="">  <use href="#id-0.8103840712199255" x="-50" y="-50"/>
</g></g></g><g transform="matrix(-0.4749 -0.8801 0.8801 -0.4749 38.8277 99.7848) translate(49.185,38.308499999999995) scale(0.5980444444444444)"><g class="ld ld-pulse" style="animation-delay:-0.3s"><g data-icon="">  <use href="#id-0.8103840712199255" x="-50" y="-50"/>
</g></g></g><g transform="matrix(0.7381 -0.6747 0.6747 0.7381 -85.9069 63.1885) translate(38.434,142.243) scale(0.607688888888889)"><g class="ld ld-pulse" style="animation-delay:-0.4s"><g data-icon="">  <use href="#id-0.8103840712199255" x="-50" y="-50"/>
</g></g></g>
  </g>
</defs>
<g>
  <use href="#id-0.8103840712199255-2" x="0" y="0"/>
  <use href="#id-0.8103840712199255-2" x="-256" y="0"/>
  <animateTransform attributeName="transform" type="translate" repeatCount="indefinite" dur="4s"
  keyTimes="0;1" values="0;256"/>
</g>
</svg>