<?xml version="1.0" encoding="utf-8"?>
<svg xmlns="http://www.w3.org/2000/svg" xmlns:xlink="http://www.w3.org/1999/xlink" viewBox="0 0 256 256" width="256px" height="256px">
<style type="text/css">@keyframes ld-pulse
{
  0% {
    animation-timing-function: cubic-bezier(0.0413,0.3905,0.5086,0.6902);
    transform: scale(1);
  }
  24.3% {
    animation-timing-function: cubic-bezier(0.2248,0.6332,0.5246,1);
    transform: scale(0.8458);
  }
  55% {
    animation-timing-function: cubic-bezier(0.3036,0.3393,0.655,0.6144);
    transform: scale(0.8022);
  }
  70.2% {
    animation-timing-function: cubic-bezier(0.4464,0.2728,0.5562,0.7288);
    transform: scale(0.8294);
  }
  82.3% {
    animation-timing-function: cubic-bezier(0.6826,0.1845,1,0.7358);
    transform: scale(0.869);
  }
  100% {
    transform: scale(1);
  }
}
.ld.ld-pulse {
  animation: ld-pulse 0.5s infinite;
}</style>
<rect x="0" y="0" width="256" height="256" fill="#eee"/>
<defs>
  <g id="id-0.6778716797382409"><!--Generator: Adobe Illustrator 21.0.0, SVG Export Plug-In . SVG Version: 6.00 Build 0)--><rect x="21.4" y="22.7" style="fill:#3fa9f5;stroke:#000;stroke-width:3;stroke-linecap:round;stroke-linejoin:round;stroke-miterlimit:10" width="58.1" height="59.1"/><path style="fill:#e6e6e6;stroke:#000;stroke-width:3;stroke-linecap:round;stroke-linejoin:round;stroke-miterlimit:10" d=" M87.3,22.7V10H13.5v12.7h5.8l-0.1,54.7h-5.7V90h73.8V77.3h-5.8l0.1-54.7H87.3z M71.1,77.3H29.6l0.1-54.7h41.6L71.1,77.3z"/><circle style="fill:#fff" cx="50.9" cy="36.3" r="3"/><circle style="fill:#fff" cx="45.5" cy="48.6" r="3.1"/><circle style="fill:#fff" cx="59.1" cy="46" r="0.5"/><circle style="fill:#fff" cx="58.1" cy="60.2" r="2.2"/><circle style="fill:#fff" cx="44.9" cy="59.5" r="0.6"/><circle style="fill:#fff" cx="40" cy="70.1" r="2.4"/><circle style="fill:#fff" cx="54.9" cy="68.8" r="1"/><circle style="fill:#fff" cx="64.2" cy="72.9" r="1"/><circle style="fill:#fff" cx="43.3" cy="26.7" r="0.9"/><g><path style="fill:#ff7bac;stroke:#000;stroke-width:3;stroke-linecap:round;stroke-linejoin:round;stroke-miterlimit:10" d=" M87.4,35.3c-0.1-6-2.8-13.5-6.2-14c-1.2-0.2-1.9,0.5-3.7,0c-2.2-0.7-2.6-2.3-4.1-2.1c-1.2,0.1-1.4,1.2-2.9,2.4 c-2.2,1.6-3.8,0.8-5.4,1.6c-3.6,1.7-4,9.4-3.4,14c1,7.7,5.8,12.7,7.8,14.6c-1.2,2-2.7,5.5-2.8,9.9c-0.1,5.2,1.9,11.8,4.9,12.3 c1.6,0.3,2.2-1.3,5.1-1.3c2,0,2.4,0.9,4.3,0.9c0.1,0,3.7,0.1,5.5-2.1c1.9-2.4,0.8-6.3-0.7-11.1c-0.7-2.4-1.9-5.8-4.1-9.5 C83.3,48.8,87.5,43.1,87.4,35.3z"/><path style="fill:#d4145a;stroke:#000;stroke-miterlimit:10" d="M81.9,36.8c0,5.3-1.4,10-1.8,9.9c-0.3,0,0-2.7,0-9.9 c0-7.2-0.3-9.9,0-9.9C80.5,26.9,81.9,31.5,81.9,36.8z"/><path style="fill:#d4145a;stroke:#000;stroke-miterlimit:10" d="M77.3,36.5c0,5.3-1.4,10-1.8,9.9c-0.3,0,0-2.7,0-9.9 c0-7.2-0.3-9.9,0-9.9C75.9,26.6,77.3,31.2,77.3,36.5z"/><path style="fill:#d4145a;stroke:#000;stroke-miterlimit:10" d="M72.6,36.4c0.9,5.1,0.1,9.8-0.4,9.9c-0.4,0-0.5-2.6-1.8-9.5 c-1.3-6.9-2.1-9.4-1.8-9.5C69.2,27.2,71.7,31.3,72.6,36.4z"/><path style="fill:#d4145a;stroke:#000;stroke-miterlimit:10" d="M81.4,61.9c0,3.6-1.6,6.8-2,6.7c-0.3-0.1,0-1.8,0-6.7 s-0.3-6.6,0-6.7C79.8,55.1,81.4,58.3,81.4,61.9z"/><path style="fill:#d4145a;stroke:#000;stroke-miterlimit:10" d="M76.5,61.5c0,3.6-1.6,6.8-2,6.7c-0.3-0.1,0-1.8,0-6.7 s-0.3-6.6,0-6.7C74.9,54.8,76.5,57.9,76.5,61.5z"/></g><g><path style="fill:#ff7bac;stroke:#000;stroke-width:3;stroke-linecap:round;stroke-linejoin:round;stroke-miterlimit:10" d=" M38.3,36.9c0.9-6.1-0.4-14.2-3.7-15.3c-1.1-0.4-2,0.2-3.6-0.6c-2-1.1-2.2-2.8-3.6-2.9c-1.2-0.1-1.6,1-3.3,1.9 c-2.4,1.2-3.9,0.2-5.6,0.6c-3.8,1-5.6,8.8-5.8,13.5c-0.4,8,3.5,13.9,5.1,16.1c-1.5,1.8-3.6,5-4.5,9.5C12.3,64.9,13.1,72,16,73 c1.5,0.6,2.4-1,5.2-0.4c2,0.4,2.2,1.3,4.1,1.7c0.1,0,3.6,0.7,5.7-1.2c2.3-2.1,1.8-6.2,1.3-11.3c-0.3-2.6-0.9-6.2-2.4-10.3 C32,49.8,37.1,44.8,38.3,36.9z"/><path style="fill:#d4145a;stroke:#000;stroke-miterlimit:10" d="M19.1,36.6c0,5.3,1.4,10,1.8,9.9c0.3,0,0-2.7,0-9.9 c0-7.2,0.3-9.9,0-9.9C20.5,26.7,19.1,31.3,19.1,36.6z"/><path style="fill:#d4145a;stroke:#000;stroke-miterlimit:10" d="M23.8,36.3c0,5.3,1.4,10,1.8,9.9c0.3,0,0-2.7,0-9.9 c0-7.2,0.3-9.9,0-9.9C25.2,26.4,23.8,31,23.8,36.3z"/><path style="fill:#d4145a;stroke:#000;stroke-miterlimit:10" d="M28.5,36.2c-0.9,5.1-0.1,9.8,0.4,9.9c0.4,0,0.5-2.6,1.8-9.5 c1.3-6.9,2.1-9.4,1.8-9.5C31.9,26.9,29.4,31.1,28.5,36.2z"/><path style="fill:#d4145a;stroke:#000;stroke-miterlimit:10" d="M19.6,61.9c0,3.6,1.6,6.8,2,6.7c0.3-0.1,0-1.8,0-6.7 s0.3-6.6,0-6.7C21.1,55.1,19.6,58.3,19.6,61.9z"/><path style="fill:#d4145a;stroke:#000;stroke-miterlimit:10" d="M24.5,61.5c0,3.6,1.6,6.8,2,6.7c0.3-0.1,0-1.8,0-6.7 s0.3-6.6,0-6.7C26.1,54.8,24.5,57.9,24.5,61.5z"/></g><metadata xmlns:d="https://loading.io/stock/"><d:name>window</d:name><d:tags>window, snow, christmas , curtain, winter</d:tags><d:license>cc-by</d:license><d:slug>ac1ywy</d:slug></metadata></g>
  <g id="id-0.6778716797382409-2">
    
<!-- Generator: Adobe Illustrator 21.0.0, SVG Export Plug-In . SVG Version: 6.00 Build 0)  -->






<polygon fill="#B3B4B4" points="98,100 70.606,96.559 71.699,89.53 97,93.464 "/>
<path fill="#B3B4B4" d="M38.106,227.244c-0.062,0-0.124,0-0.187-0.001c-3.679-0.049-7.118-1.527-9.685-4.162
	c-5.299-5.44-5.184-14.177,0.257-19.476c2.635-2.567,6.105-3.946,9.791-3.905c3.679,0.049,7.118,1.527,9.685,4.162
	c5.299,5.44,5.184,14.177-0.257,19.476C45.119,225.861,41.715,227.244,38.106,227.244z M38.098,205.999
	c-1.958,0-3.805,0.75-5.211,2.119c-2.952,2.875-3.014,7.615-0.139,10.567c1.393,1.43,3.259,2.232,5.254,2.258
	c2.012,0.018,3.882-0.726,5.312-2.119c2.952-2.875,3.014-7.615,0.139-10.566l0,0c-1.393-1.43-3.259-2.232-5.254-2.258
	C38.165,205.999,38.131,205.999,38.098,205.999z"/>
<ellipse transform="matrix(0.7249 -0.6888 0.6888 0.7249 31.7828 174.5914)" fill="#B3B4B4" cx="234.5" cy="47.5" rx="5.5" ry="5.5"/>
<path fill="#B3B4B4" d="M156.241,162.307l-2.142-6.316c4.911-1.666,7.552-7.017,5.886-11.929c-0.807-2.379-2.492-4.302-4.745-5.414
	c-2.254-1.112-4.805-1.28-7.183-0.473l-2.143-6.316c4.067-1.379,8.427-1.092,12.277,0.808c3.851,1.9,6.731,5.186,8.11,9.253
	C169.148,150.314,164.635,159.46,156.241,162.307z"/>
<ellipse transform="matrix(0.7249 -0.6888 0.6888 0.7249 -74.7837 111.7244)" fill="#B3B4B4" cx="102.5" cy="149.5" rx="5.5" ry="5.5"/>
<polygon fill="#B3B4B4" points="228.814,250.299 248.288,233.674 255.528,237.31 233.433,255.709 "/>
<polygon fill="#B3B4B4" points="117.258,19.675 103,46 98.348,38.347 111.088,16.136 "/>
<path fill="#B3B4B4" d="M222.105,133c-0.055,0-0.109,0-0.165-0.001c-3.245-0.043-6.28-1.347-8.544-3.672
	c-4.675-4.8-4.573-12.507,0.226-17.182c2.325-2.265,5.386-3.481,8.638-3.445c3.245,0.043,6.28,1.347,8.544,3.672
	c4.674,4.799,4.573,12.507-0.226,17.182C228.293,131.78,225.289,133,222.105,133z M222.098,114.257c-1.728,0-3.357,0.662-4.597,1.87
	c-2.604,2.536-2.659,6.718-0.123,9.322c1.229,1.261,2.875,1.969,4.636,1.992c1.775,0.016,3.425-0.641,4.686-1.869
	c2.604-2.536,2.659-6.718,0.123-9.322l0,0c-1.229-1.261-2.875-1.969-4.636-1.992C222.157,114.257,222.128,114.257,222.098,114.257z"
	/>
<path fill="#B3B4B4" d="M186.97,10.317l-5.018,1.322c-1.028-3.902-5.04-6.241-8.942-5.213c-1.89,0.498-3.474,1.702-4.458,3.391
	c-0.985,1.689-1.253,3.661-0.754,5.55l-5.018,1.322c-0.851-3.232-0.393-6.6,1.289-9.486c1.683-2.886,4.389-4.945,7.62-5.796
	C178.357-0.349,185.213,3.648,186.97,10.317z"/>


    <g transform="matrix(0.9912 0.1325 -0.1325 0.9912 30.542 -14.083) translate(121.067,222.398) scale(0.6786666666666666)"><g class="ld ld-pulse" style="animation-delay:0s"><g data-icon="">  <use href="#id-0.6778716797382409" x="-50" y="-50"/>
</g></g></g><g transform="matrix(-0.0456 0.999 -0.999 -0.0456 243.7065 -82.5047) translate(161.268,75.17099999999999) scale(0.47706666666666664)"><g class="ld ld-pulse" style="animation-delay:-0.1s"><g data-icon="">  <use href="#id-0.6778716797382409" x="-50" y="-50"/>
</g></g></g><g transform="matrix(0.5905 -0.8071 0.8071 0.5905 -67.6584 252.8308) translate(215.293,193.0815) scale(0.5214666666666667)"><g class="ld ld-pulse" style="animation-delay:-0.2s"><g data-icon="">  <use href="#id-0.6778716797382409" x="-50" y="-50"/>
</g></g></g><g transform="matrix(-0.4749 -0.8801 0.8801 -0.4749 38.8277 99.7848) translate(49.185,38.308499999999995) scale(0.5980444444444444)"><g class="ld ld-pulse" style="animation-delay:-0.3s"><g data-icon="">  <use href="#id-0.6778716797382409" x="-50" y="-50"/>
</g></g></g><g transform="matrix(0.7381 -0.6747 0.6747 0.7381 -85.9069 63.1885) translate(38.434,142.243) scale(0.607688888888889)"><g class="ld ld-pulse" style="animation-delay:-0.4s"><g data-icon="">  <use href="#id-0.6778716797382409" x="-50" y="-50"/>
</g></g></g>
  </g>
</defs>
<g>
  <use href="#id-0.6778716797382409-2" x="0" y="0"/>
  <use href="#id-0.6778716797382409-2" x="-256" y="0"/>
  <animateTransform attributeName="transform" type="translate" repeatCount="indefinite" dur="4s"
  keyTimes="0;1" values="0;256"/>
</g>
</svg>