<?xml version="1.0" encoding="utf-8"?>
<svg xmlns="http://www.w3.org/2000/svg" xmlns:xlink="http://www.w3.org/1999/xlink" viewBox="0 0 256 256" width="256px" height="256px">
<style type="text/css">@keyframes ld-pulse
{
  0% {
    animation-timing-function: cubic-bezier(0.0413,0.3905,0.5086,0.6902);
    transform: scale(1);
  }
  24.3% {
    animation-timing-function: cubic-bezier(0.2248,0.6332,0.5246,1);
    transform: scale(0.8458);
  }
  55% {
    animation-timing-function: cubic-bezier(0.3036,0.3393,0.655,0.6144);
    transform: scale(0.8022);
  }
  70.2% {
    animation-timing-function: cubic-bezier(0.4464,0.2728,0.5562,0.7288);
    transform: scale(0.8294);
  }
  82.3% {
    animation-timing-function: cubic-bezier(0.6826,0.1845,1,0.7358);
    transform: scale(0.869);
  }
  100% {
    transform: scale(1);
  }
}
.ld.ld-pulse {
  animation: ld-pulse 0.5s infinite;
}</style>
<rect x="0" y="0" width="256" height="256" fill="#eee"/>
<defs>
  <g id="id-0.12522935456439188"><!--Generator: Adobe Illustrator 21.0.0, SVG Export Plug-In . SVG Version: 6.00 Build 0)--><path style="fill:#e15b64" d="M82.727,50c0,5.671-1.482,11.267-4.286,16.183C72.88,75.934,62.683,82.156,51.558,82.69v7.28 c13.73-0.539,26.346-8.169,33.2-20.183C88.188,63.775,90,56.934,90,50c0-21.534-17.105-39.148-38.442-39.97v7.279 C68.884,18.125,82.727,32.476,82.727,50z"/><path style="fill:#abbd81" d="M48.442,17.31v-7.279c-13.016,0.514-25.096,7.439-32.138,18.425l3.043,1.786l3.236,1.899 C28.314,23.366,37.994,17.815,48.442,17.31z"/><path style="fill:#f8b26a" d="M17.273,50c0-5.294,1.286-10.506,3.731-15.171l-3.386-1.987l-2.893-1.698 C11.63,36.928,10,43.414,10,50c0,21.534,17.105,39.148,38.442,39.97v-7.279C31.116,81.875,17.273,67.524,17.273,50z"/><metadata xmlns:d="https://loading.io/stock/"><d:name>pie</d:name><d:tags>pie,donut,circle,percent,proportion,ratio,chart</d:tags><d:license>cc-by</d:license><d:slug>yplyi1</d:slug></metadata></g>
  <g id="id-0.12522935456439188-2">
    
<!-- Generator: Adobe Illustrator 21.0.0, SVG Export Plug-In . SVG Version: 6.00 Build 0)  -->







    <g transform=" translate(192,191.9995) scale(0.8888888888888888)"><g class="ld ld-pulse" style="animation-delay:0s"><g data-icon="">  <use href="#id-0.12522935456439188" x="-50" y="-50"/>
</g></g></g><g transform=" translate(192,63.9995) scale(0.5555555555555556)"><g class="ld ld-pulse" style="animation-delay:-0.125s"><g data-icon="">  <use href="#id-0.12522935456439188" x="-50" y="-50"/>
</g></g></g><g transform=" translate(64,63.9995) scale(0.8888888888888888)"><g class="ld ld-pulse" style="animation-delay:-0.25s"><g data-icon="">  <use href="#id-0.12522935456439188" x="-50" y="-50"/>
</g></g></g><g transform=" translate(64,191.9995) scale(0.5555555555555556)"><g class="ld ld-pulse" style="animation-delay:-0.375s"><g data-icon="">  <use href="#id-0.12522935456439188" x="-50" y="-50"/>
</g></g></g>
  </g>
</defs>
<g>
  <use href="#id-0.12522935456439188-2" x="0" y="0"/>
  <use href="#id-0.12522935456439188-2" x="-256" y="0"/>
  <animateTransform attributeName="transform" type="translate" repeatCount="indefinite" dur="4s"
  keyTimes="0;1" values="0;256"/>
</g>
</svg>