<?xml version="1.0" encoding="utf-8"?>
<svg xmlns="http://www.w3.org/2000/svg" xmlns:xlink="http://www.w3.org/1999/xlink" viewBox="0 0 256 256" width="256px" height="256px">
<style type="text/css">@keyframes ld-pulse
{
  0% {
    animation-timing-function: cubic-bezier(0.0413,0.3905,0.5086,0.6902);
    transform: scale(1);
  }
  24.3% {
    animation-timing-function: cubic-bezier(0.2248,0.6332,0.5246,1);
    transform: scale(0.8458);
  }
  55% {
    animation-timing-function: cubic-bezier(0.3036,0.3393,0.655,0.6144);
    transform: scale(0.8022);
  }
  70.2% {
    animation-timing-function: cubic-bezier(0.4464,0.2728,0.5562,0.7288);
    transform: scale(0.8294);
  }
  82.3% {
    animation-timing-function: cubic-bezier(0.6826,0.1845,1,0.7358);
    transform: scale(0.869);
  }
  100% {
    transform: scale(1);
  }
}
.ld.ld-pulse {
  animation: ld-pulse 0.5s infinite;
}</style>
<rect x="0" y="0" width="256" height="256" fill="#eee"/>
<defs>
  <g id="id-0.818984835495862"><!--Generator: Adobe Illustrator 21.0.0, SVG Export Plug-In . SVG Version: 6.00 Build 0)--><g><path style="fill:#e0e0e0" d="M50,25.812c-9.736,0-17.629-4.099-17.629-9.156v22.077c0,5.057,7.893,9.156,17.629,9.156 s17.628-4.099,17.629-9.156V16.656C67.629,21.713,59.736,25.812,50,25.812z"/><ellipse style="fill:#ccc" cx="50" cy="16.656" rx="17.629" ry="9.156"/></g><g><path style="fill:#abbd81" d="M50,47.889c-9.736,0-17.629-4.099-17.629-9.156v0v44.611c0,5.057,7.893,9.156,17.629,9.156 s17.629-4.099,17.629-9.156V38.733v0C67.629,43.79,59.736,47.889,50,47.889z"/><ellipse style="fill:#849b87" cx="50" cy="38.733" rx="17.629" ry="9.156"/></g><metadata xmlns:d="https://loading.io/stock/"><d:name>bar</d:name><d:tags>bar,column,cylinder,percent,progress</d:tags><d:license>cc-by</d:license><d:slug>k7e2is</d:slug></metadata></g>
  <g id="id-0.818984835495862-2">
    
<!-- Generator: Adobe Illustrator 21.0.0, SVG Export Plug-In . SVG Version: 6.00 Build 0)  -->





    <g transform=" translate(192,191.9995) scale(0.8888888888888888)"><g class="ld ld-pulse" style="animation-delay:0s"><g data-icon="">  <use href="#id-0.818984835495862" x="-50" y="-50"/>
</g></g></g><g transform=" translate(64,63.9995) scale(0.8888888888888888)"><g class="ld ld-pulse" style="animation-delay:-0.25s"><g data-icon="">  <use href="#id-0.818984835495862" x="-50" y="-50"/>
</g></g></g>
  </g>
</defs>
<g>
  <use href="#id-0.818984835495862-2" x="0" y="0"/>
  <use href="#id-0.818984835495862-2" x="-256" y="0"/>
  <animateTransform attributeName="transform" type="translate" repeatCount="indefinite" dur="4s"
  keyTimes="0;1" values="0;256"/>
</g>
</svg>