<?xml version="1.0" encoding="utf-8"?>
<svg xmlns="http://www.w3.org/2000/svg" xmlns:xlink="http://www.w3.org/1999/xlink" viewBox="0 0 256 256" width="256px" height="256px">
<style type="text/css">@keyframes ld-pulse
{
  0% {
    animation-timing-function: cubic-bezier(0.0413,0.3905,0.5086,0.6902);
    transform: scale(1);
  }
  24.3% {
    animation-timing-function: cubic-bezier(0.2248,0.6332,0.5246,1);
    transform: scale(0.8458);
  }
  55% {
    animation-timing-function: cubic-bezier(0.3036,0.3393,0.655,0.6144);
    transform: scale(0.8022);
  }
  70.2% {
    animation-timing-function: cubic-bezier(0.4464,0.2728,0.5562,0.7288);
    transform: scale(0.8294);
  }
  82.3% {
    animation-timing-function: cubic-bezier(0.6826,0.1845,1,0.7358);
    transform: scale(0.869);
  }
  100% {
    transform: scale(1);
  }
}
.ld.ld-pulse {
  animation: ld-pulse 0.5s infinite;
}</style>
<rect x="0" y="0" width="256" height="256" fill="#eee"/>
<defs>
  <g id="id-0.7043670256243009"><!--Generator: Adobe Illustrator 21.0.0, SVG Export Plug-In . SVG Version: 6.00 Build 0)--><g><path style="fill:#fff;stroke:#000;stroke-width:3;stroke-miterlimit:10" d="M22.1,72.4c0.3,1.6,0.1,2.7,0.1,2.7 c0,0-0.2,1.4-0.2,1.4l0,0c0,0,7.6-2.2,9.5-3.4c4-2.5,7.4-4.7,9.6-9.1c0.7-1.5,1.9-4,1.7-7c-0.5-6.2-6.8-13.4-14-12.5 c-6,0.7-10.7,7-10.8,12.1C18,61.3,21.6,69.5,22.1,72.4z"/><path style="fill:#fff;stroke:#000;stroke-width:3;stroke-miterlimit:10" d="M77.9,72.4c-0.3,1.6-0.1,2.7-0.1,2.7 c0,0,0.2,1.4,0.2,1.4l0,0c0,0-7.6-2.2-9.5-3.4c-4-2.5-7.4-4.7-9.6-9.1c-0.7-1.5-1.9-4-1.7-7c0.5-6.2,6.8-13.4,14-12.5 c6,0.7,10.7,7,10.8,12.1C82,61.3,78.4,69.5,77.9,72.4z"/><path style="fill:#fff;stroke:#000;stroke-width:3;stroke-miterlimit:10" d="M32.3,86.9c-3.9-5.7,8.5-23.8,8.8-30.2 c0-0.1,0.1-0.5,0.2-1.1c0.3-3.1,2.9-5.6,6.1-5.6h5.1c3.2,0,5.8,2.5,6.1,5.6c0,0.5,0.1,0.8,0.1,1C58.9,63,69.8,82.6,65.2,88 c-0.6,0.7-2.6,1-6.7,1.5c-8,1-14.4,0.3-18.4-0.4C35.3,88.2,32.9,87.8,32.3,86.9z"/><circle style="fill:#fbb03b;stroke:#000;stroke-width:3;stroke-miterlimit:10" cx="49.9" cy="43.7" r="12.2"/></g><path style="fill:#ff0;stroke:#000;stroke-width:3;stroke-miterlimit:10" d="M51,10c-13.8,0-25.1,3.7-25.1,8.2 c0,4.5,11.2,8.2,25.1,8.2c13.8,0,25.1-3.7,25.1-8.2C76,13.7,64.8,10,51,10z M51,22.3c-6.9,0-12.5-1.8-12.5-4.1 c0-2.3,5.6-4.1,12.5-4.1c6.9,0,12.5,1.8,12.5,4.1C63.5,20.5,57.9,22.3,51,22.3z"/><metadata xmlns:d="https://loading.io/stock/"><d:name>envoy</d:name><d:tags>envoy, angel, love, peace, christmas</d:tags><d:license>cc-by</d:license><d:slug>tod5j6</d:slug></metadata></g>
  <g id="id-0.7043670256243009-2">
    
<!-- Generator: Adobe Illustrator 21.0.0, SVG Export Plug-In . SVG Version: 6.00 Build 0)  -->







    <g transform=" translate(192,191.9995) scale(0.8888888888888888)"><g class="ld ld-pulse" style="animation-delay:0s"><g data-icon="">  <use xlink:href="#id-0.7043670256243009" x="-50" y="-50"/>
</g></g></g><g transform=" translate(192,63.9995) scale(0.5555555555555556)"><g class="ld ld-pulse" style="animation-delay:-0.125s"><g data-icon="">  <use xlink:href="#id-0.7043670256243009" x="-50" y="-50"/>
</g></g></g><g transform=" translate(64,63.9995) scale(0.8888888888888888)"><g class="ld ld-pulse" style="animation-delay:-0.25s"><g data-icon="">  <use xlink:href="#id-0.7043670256243009" x="-50" y="-50"/>
</g></g></g><g transform=" translate(64,191.9995) scale(0.5555555555555556)"><g class="ld ld-pulse" style="animation-delay:-0.375s"><g data-icon="">  <use xlink:href="#id-0.7043670256243009" x="-50" y="-50"/>
</g></g></g>
  </g>
</defs>
<g>
  <use xlink:href="#id-0.7043670256243009-2" x="0" y="0"/>
  <use xlink:href="#id-0.7043670256243009-2" x="-256" y="0"/>
  <animateTransform attributeName="transform" type="translate" repeatCount="indefinite" dur="4s"
  keyTimes="0;1" values="0;256"/>
</g>
</svg>