<?xml version="1.0" encoding="utf-8"?>
<svg xmlns="http://www.w3.org/2000/svg" xmlns:xlink="http://www.w3.org/1999/xlink" viewBox="0 0 256 256" width="256px" height="256px">
<style type="text/css">@keyframes ld-pulse
{
  0% {
    animation-timing-function: cubic-bezier(0.0413,0.3905,0.5086,0.6902);
    transform: scale(1);
  }
  24.3% {
    animation-timing-function: cubic-bezier(0.2248,0.6332,0.5246,1);
    transform: scale(0.8458);
  }
  55% {
    animation-timing-function: cubic-bezier(0.3036,0.3393,0.655,0.6144);
    transform: scale(0.8022);
  }
  70.2% {
    animation-timing-function: cubic-bezier(0.4464,0.2728,0.5562,0.7288);
    transform: scale(0.8294);
  }
  82.3% {
    animation-timing-function: cubic-bezier(0.6826,0.1845,1,0.7358);
    transform: scale(0.869);
  }
  100% {
    transform: scale(1);
  }
}
.ld.ld-pulse {
  animation: ld-pulse 0.5s infinite;
}</style>
<rect x="0" y="0" width="256" height="256" fill="#eee"/>
<defs>
  <g id="id-0.38506614399909256"><!--Generator: Adobe Illustrator 21.0.0, SVG Export Plug-In . SVG Version: 6.00 Build 0)--><path id="path" style="fill-rule:evenodd;clip-rule:evenodd;fill:none;stroke:#333;stroke-width:3.5;stroke-miterlimit:10" d=" M92.5,82.768c0-5.095-3.64-9.409-8.677-10.918c0.175-1.064,0.267-2.153,0.267-3.262c0-12.064-10.731-21.844-23.968-21.844 c-11.367,0-22.302,9.479-22.302,18.923c-9.668-1.924-18.487,5.803-18.487,14.269c0,8.466,7.531,14.329,16.82,14.329h45.414 C87.885,94.264,92.5,88.596,92.5,82.768z"/><g><defs><path id="SVGID_3_" d="M-100-100v300h300v-300H-100z M81.567,94.264H36.153c-9.289,0-16.82-5.863-16.82-14.329 c0-8.466,8.819-16.192,18.487-14.269c0-9.444,10.934-18.923,22.302-18.923c13.237,0,23.968,9.78,23.968,21.844 c0,1.109-0.092,2.197-0.267,3.262c5.037,1.508,8.677,5.823,8.677,10.918C92.5,88.596,87.885,94.264,81.567,94.264z"/></defs><clipPath data-delay-sync="#path" id="SVGID_2_"><use xlink:href="#SVGID_3_" style="overflow:visible"/></clipPath><g style="clip-path:url(#SVGID_2_)"><circle style="fill:none;stroke:#333;stroke-width:3.5;stroke-miterlimit:10" cx="42.972" cy="41.22" r="20.652"/><line style="fill:none;stroke:#333;stroke-width:3.5;stroke-linecap:round;stroke-miterlimit:10" x1="42.972" y1="8.052" x2="42.972" y2="15.937"/><line style="fill:none;stroke:#333;stroke-width:3.5;stroke-linecap:round;stroke-miterlimit:10" x1="19.519" y1="17.767" x2="25.095" y2="23.342"/><line style="fill:none;stroke:#333;stroke-width:3.5;stroke-linecap:round;stroke-miterlimit:10" x1="9.804" y1="41.22" x2="17.69" y2="41.22"/><line style="fill:none;stroke:#333;stroke-width:3.5;stroke-linecap:round;stroke-miterlimit:10" x1="19.519" y1="64.673" x2="25.095" y2="59.097"/><line style="fill:none;stroke:#333;stroke-width:3.5;stroke-linecap:round;stroke-miterlimit:10" x1="42.972" y1="74.388" x2="42.972" y2="66.503"/><line style="fill:none;stroke:#333;stroke-width:3.5;stroke-linecap:round;stroke-miterlimit:10" x1="66.426" y1="64.673" x2="60.85" y2="59.097"/><line style="fill:none;stroke:#333;stroke-width:3.5;stroke-linecap:round;stroke-miterlimit:10" x1="76.14" y1="41.22" x2="68.255" y2="41.22"/><line style="fill:none;stroke:#333;stroke-width:3.5;stroke-linecap:round;stroke-miterlimit:10" x1="66.426" y1="17.767" x2="60.85" y2="23.342"/></g></g><metadata xmlns:d="https://loading.io/stock/"><d:name>wx</d:name><d:tags>wx</d:tags><d:license>cc-by</d:license><d:slug>xpn64o</d:slug></metadata></g>
  <g id="id-0.38506614399909256-2">
    
<!-- Generator: Adobe Illustrator 21.0.0, SVG Export Plug-In . SVG Version: 6.00 Build 0)  -->













    <g transform=" translate(151,149.9995) scale(0.6222222222222222)"><g class="ld ld-pulse" style="animation-delay:0s"><g data-icon="">  <use href="#id-0.38506614399909256" x="-50" y="-50"/>
</g></g></g><g transform="matrix(0.9628 0.2703 -0.2703 0.9628 41.3411 -58.0147) translate(231.293,121.08149999999999) scale(0.5214666666666667)"><g class="ld ld-pulse" style="animation-delay:-0.05s"><g data-icon="">  <use href="#id-0.38506614399909256" x="-50" y="-50"/>
</g></g></g><g transform="matrix(-0.0456 0.999 -0.999 -0.0456 207.6542 -74.2389) translate(139.293,62.081500000000005) scale(0.5214666666666667)"><g class="ld ld-pulse" style="animation-delay:-0.1s"><g data-icon="">  <use href="#id-0.38506614399909256" x="-50" y="-50"/>
</g></g></g><g transform="matrix(0.2398 -0.9708 0.9708 0.2398 127.6881 219.61) translate(204.074,28.271) scale(0.3916444444444444)"><g class="ld ld-pulse" style="animation-delay:-0.15s"><g data-icon="">  <use href="#id-0.38506614399909256" x="-50" y="-50"/>
</g></g></g><g transform="matrix(0.5905 -0.8071 0.8071 0.5905 -96.797 253.4085) translate(201.293,222.0815) scale(0.5214666666666667)"><g class="ld ld-pulse" style="animation-delay:-0.2s"><g data-icon="">  <use href="#id-0.38506614399909256" x="-50" y="-50"/>
</g></g></g><g transform="matrix(0.8618 0.5073 -0.5073 0.8618 120.0863 -26.4095) translate(108.50649999999999,207.1645) scale(0.44135555555555556)"><g class="ld ld-pulse" style="animation-delay:-0.25s"><g data-icon="">  <use href="#id-0.38506614399909256" x="-50" y="-50"/>
</g></g></g><g transform="matrix(0.9981 0.0609 -0.0609 0.9981 7.8271 -4.6047) translate(79.461,126.11449999999999) scale(0.43675555555555556)"><g class="ld ld-pulse" style="animation-delay:-0.3s"><g data-icon="">  <use href="#id-0.38506614399909256" x="-50" y="-50"/>
</g></g></g><g transform="matrix(-0.7024 0.7118 -0.7118 -0.7024 125.7862 11.6317) translate(60.461,32.1145) scale(0.43675555555555556)"><g class="ld ld-pulse" style="animation-delay:-0.35s"><g data-icon="">  <use href="#id-0.38506614399909256" x="-50" y="-50"/>
</g></g></g><g transform="matrix(0.8596 0.511 -0.511 0.8596 47.5053 -5.4135) translate(33.602,83.7265) scale(0.3879111111111111)"><g class="ld ld-pulse" style="animation-delay:-0.4s"><g data-icon="">  <use href="#id-0.38506614399909256" x="-50" y="-50"/>
</g></g></g><g transform="matrix(0.5692 -0.8222 0.8222 0.5692 -149.2038 124.5031) translate(44.2025,204.6265) scale(0.5011777777777778)"><g class="ld ld-pulse" style="animation-delay:-0.45s"><g data-icon="">  <use href="#id-0.38506614399909256" x="-50" y="-50"/>
</g></g></g>
  </g>
</defs>
<g>
  <use href="#id-0.38506614399909256-2" x="0" y="0"/>
  <use href="#id-0.38506614399909256-2" x="-256" y="0"/>
  <animateTransform attributeName="transform" type="translate" repeatCount="indefinite" dur="4s"
  keyTimes="0;1" values="0;256"/>
</g>
</svg>