<?xml version="1.0" encoding="utf-8"?>
<svg xmlns="http://www.w3.org/2000/svg" xmlns:xlink="http://www.w3.org/1999/xlink" viewBox="0 0 256 256" width="256px" height="256px">
<style type="text/css">@keyframes ld-pulse
{
  0% {
    animation-timing-function: cubic-bezier(0.0413,0.3905,0.5086,0.6902);
    transform: scale(1);
  }
  24.3% {
    animation-timing-function: cubic-bezier(0.2248,0.6332,0.5246,1);
    transform: scale(0.8458);
  }
  55% {
    animation-timing-function: cubic-bezier(0.3036,0.3393,0.655,0.6144);
    transform: scale(0.8022);
  }
  70.2% {
    animation-timing-function: cubic-bezier(0.4464,0.2728,0.5562,0.7288);
    transform: scale(0.8294);
  }
  82.3% {
    animation-timing-function: cubic-bezier(0.6826,0.1845,1,0.7358);
    transform: scale(0.869);
  }
  100% {
    transform: scale(1);
  }
}
.ld.ld-pulse {
  animation: ld-pulse 0.5s infinite;
}</style>
<rect x="0" y="0" width="256" height="256" fill="#eee"/>
<defs>
  <g id="id-0.8306620227747947"><!--Generator: Adobe Illustrator 21.0.0, SVG Export Plug-In . SVG Version: 6.00 Build 0)--><path style="fill:#e0e0e0" d="M60.876,15.876C60.876,9.87,56.007,5,50,5S39.124,9.87,39.124,15.876c0,3.83,1.984,7.188,4.977,9.124 H55.9C58.892,23.064,60.876,19.706,60.876,15.876z"/><path style="fill:#849b87" d="M27.251,48.008v6.642c0,2.201,1.784,3.985,3.985,3.985c2.201,0,3.985-1.784,3.985-3.985v-6.642 c0-3.455,1.201-6.63,3.195-9.15v26.976h0.043V90.06c0,2.728,2.212,4.94,4.94,4.94h0c2.728,0,4.94-2.212,4.94-4.94V65.833h3.321 V90.06c0,2.728,2.212,4.94,4.94,4.94h0c2.728,0,4.94-2.212,4.94-4.94V65.833h0.043V38.858c1.994,2.519,3.195,5.695,3.195,9.15v6.642 c0,2.201,1.784,3.985,3.985,3.985c2.201,0,3.985-1.784,3.985-3.985v-6.642c0-10.971-7.806-20.152-18.156-22.283 C55.047,25.513,55.483,25.27,55.9,25H44.1c0.417,0.27,0.853,0.513,1.306,0.725C35.057,27.855,27.251,37.037,27.251,48.008z"/><metadata xmlns:d="https://loading.io/stock/"><d:name>man</d:name><d:tags>man,people,character,person,figure,idol,doll,percent,ratio</d:tags><d:license>cc-by</d:license><d:slug>cvqkzq</d:slug></metadata></g>
  <g id="id-0.8306620227747947-2">
    
<!-- Generator: Adobe Illustrator 21.0.0, SVG Export Plug-In . SVG Version: 6.00 Build 0)  -->







    <g transform=" translate(192,191.9995) scale(0.8888888888888888)"><g class="ld ld-pulse" style="animation-delay:0s"><g data-icon="">  <use href="#id-0.8306620227747947" x="-50" y="-50"/>
</g></g></g><g transform=" translate(192,63.9995) scale(0.5555555555555556)"><g class="ld ld-pulse" style="animation-delay:-0.125s"><g data-icon="">  <use href="#id-0.8306620227747947" x="-50" y="-50"/>
</g></g></g><g transform=" translate(64,63.9995) scale(0.8888888888888888)"><g class="ld ld-pulse" style="animation-delay:-0.25s"><g data-icon="">  <use href="#id-0.8306620227747947" x="-50" y="-50"/>
</g></g></g><g transform=" translate(64,191.9995) scale(0.5555555555555556)"><g class="ld ld-pulse" style="animation-delay:-0.375s"><g data-icon="">  <use href="#id-0.8306620227747947" x="-50" y="-50"/>
</g></g></g>
  </g>
</defs>
<g>
  <use href="#id-0.8306620227747947-2" x="0" y="0"/>
  <use href="#id-0.8306620227747947-2" x="-256" y="0"/>
  <animateTransform attributeName="transform" type="translate" repeatCount="indefinite" dur="4s"
  keyTimes="0;1" values="0;256"/>
</g>
</svg>