<?xml version="1.0" encoding="utf-8"?>
<svg xmlns="http://www.w3.org/2000/svg" xmlns:xlink="http://www.w3.org/1999/xlink" viewBox="0 0 256 256" width="256px" height="256px">
<style type="text/css">@keyframes ld-pulse
{
  0% {
    animation-timing-function: cubic-bezier(0.0413,0.3905,0.5086,0.6902);
    transform: scale(1);
  }
  24.3% {
    animation-timing-function: cubic-bezier(0.2248,0.6332,0.5246,1);
    transform: scale(0.8458);
  }
  55% {
    animation-timing-function: cubic-bezier(0.3036,0.3393,0.655,0.6144);
    transform: scale(0.8022);
  }
  70.2% {
    animation-timing-function: cubic-bezier(0.4464,0.2728,0.5562,0.7288);
    transform: scale(0.8294);
  }
  82.3% {
    animation-timing-function: cubic-bezier(0.6826,0.1845,1,0.7358);
    transform: scale(0.869);
  }
  100% {
    transform: scale(1);
  }
}
.ld.ld-pulse {
  animation: ld-pulse 0.5s infinite;
}</style>
<rect x="0" y="0" width="256" height="256" fill="#eee"/>
<defs>
  <g id="id-0.3010861662085038"><!--Generator: Adobe Illustrator 21.0.0, SVG Export Plug-In . SVG Version: 6.00 Build 0)--><g><path id="XMLID_1_" style="fill:#ffb281;stroke:#000;stroke-width:3;stroke-miterlimit:10" d="M72.4,49.2 c-0.8,0-1.5,0.1-2.2,0.4V45c0-3-2.8-5.4-6.3-5.4H31.6c-3.5,0-6.3,2.4-6.3,5.4v4.6c-0.7-0.2-1.5-0.4-2.2-0.4c-3.7,0-6.7,2.8-6.7,6.2 c0,3.4,3,6.2,6.7,6.2c0.8,0,1.5-0.1,2.2-0.4V63c0,3,2.8,5.4,6.3,5.4h32.3c3.5,0,6.3-2.4,6.3-5.4v-1.7c0.7,0.2,1.5,0.4,2.2,0.4 c3.7,0,6.7-2.8,6.7-6.2C79.2,52,76.1,49.2,72.4,49.2z"/><path style="fill:#fff;stroke:#000;stroke-width:3;stroke-miterlimit:10" d="M69.9,66.7c0.6-3.8,0.7-7.3,0.7-10.1 c0-4.1-0.4-7.6-0.8-10.5c-1.3,0-2.7,0-4,0c0.6,4,0.8,7.6,0.8,10.5c0,3.7-0.3,6.9-0.7,9.6c0.3,0,0.5,0,0.8,0 C67.8,66.2,68.9,66.4,69.9,66.7z"/><ellipse style="stroke:#000;stroke-width:3;stroke-miterlimit:10" cx="39.3" cy="55.1" rx="1.8" ry="1.6"/><ellipse style="stroke:#000;stroke-width:3;stroke-miterlimit:10" cx="54" cy="55.1" rx="1.8" ry="1.6"/><path style="fill:#fff;stroke:#000;stroke-width:3;stroke-miterlimit:10" d="M29.8,66.2c-0.5-3.6-0.7-6.9-0.7-9.6 c0-4.1,0.4-7.6,0.8-10.5c-1.4,0-2.8,0-4.1,0C25.4,48.8,25,52,25,55.6c-0.1,4.4,0.3,8.1,0.8,11.2c1.1-0.4,2.2-0.6,3.4-0.6 C29.4,66.2,29.6,66.2,29.8,66.2z"/><path style="fill:#fff;stroke:#000;stroke-width:3;stroke-linecap:round;stroke-linejoin:round;stroke-miterlimit:10" d=" M76,70.2c-1.4-5.9-7.1-10.5-12.7-9.8c-3.5,0.4-5.9,2.7-6.8,3.7c-0.9-0.8-2.4-1.7-4.3-2.5c-0.5-0.2-2.7-1-5.3-0.9 c-5.2,0.1-9,3.4-10.2,4.5c-1-1-4-3.7-8.3-3.7c-5.5,0-12.1,4.4-12.1,11c0,5.5,4.4,10,10.2,10.8c0.5,3.6,4.1,6.4,8.4,6.4 c1.7,0,3.3-0.4,4.6-1.2c0.1,0.2,2.8,4.1,7.2,3.6c3.4-0.4,5.3-3.2,5.6-3.6c1.5,1.4,3.7,2.2,6.1,2.2c4.3,0,7.8-2.7,8.4-6.2 c1.2,0.1,3,0.1,4.7-0.8C75.7,81.5,77.2,75.1,76,70.2z"/><path style="fill:none;stroke:#000;stroke-width:3;stroke-linecap:round;stroke-miterlimit:10" d="M40.2,73.1 c0.2,0.2,3.5,3.7,8.6,3.1c3.7-0.4,5.7-2.7,6.1-3.1"/><g><path style="fill:#ed1c24;stroke:#000;stroke-width:3;stroke-miterlimit:10" d="M75,19.7c-1.7-2.3-5.8-7.3-13.1-10 c-11.2-4.3-21.1,0.2-22.6,0.9C37.6,11.3,24,17.8,24.3,28c0.3,9.5,12.3,16.4,22.2,17.2c10.8,0.8,18.6-5.9,20.4-7.5 c1.3-0.2,5.2-0.4,9,2c2.1,1.3,3.3,2.9,4,4C80.4,41.5,82.4,29.9,75,19.7z"/><path style="fill:#fff;stroke:#000;stroke-width:3;stroke-miterlimit:10" d="M66.3,46.1H27.6c-3.9,0-7-3.1-7-7V39 c0-3.9,3.1-7,7-7h38.7c3.9,0,7,3.1,7,7v0.1C73.3,42.9,70.2,46.1,66.3,46.1z"/><ellipse style="fill:#fff;stroke:#000;stroke-width:3;stroke-miterlimit:10" cx="79.4" cy="47.5" rx="4.3" ry="3.7"/></g><circle style="fill:red;stroke:#000;stroke-width:3;stroke-miterlimit:10" cx="47.3" cy="62.1" r="4"/></g><metadata xmlns:d="https://loading.io/stock/"><d:name>santa claus</d:name><d:tags>santa claus ,christmas</d:tags><d:license>cc-by</d:license><d:slug>drp8mr</d:slug></metadata></g>
  <g id="id-0.3010861662085038-2">
    
<!-- Generator: Adobe Illustrator 21.0.0, SVG Export Plug-In . SVG Version: 6.00 Build 0)  -->






<polygon fill="#B3B4B4" points="98,100 70.606,96.559 71.699,89.53 97,93.464 "/>
<path fill="#B3B4B4" d="M38.106,227.244c-0.062,0-0.124,0-0.187-0.001c-3.679-0.049-7.118-1.527-9.685-4.162
	c-5.299-5.44-5.184-14.177,0.257-19.476c2.635-2.567,6.105-3.946,9.791-3.905c3.679,0.049,7.118,1.527,9.685,4.162
	c5.299,5.44,5.184,14.177-0.257,19.476C45.119,225.861,41.715,227.244,38.106,227.244z M38.098,205.999
	c-1.958,0-3.805,0.75-5.211,2.119c-2.952,2.875-3.014,7.615-0.139,10.567c1.393,1.43,3.259,2.232,5.254,2.258
	c2.012,0.018,3.882-0.726,5.312-2.119c2.952-2.875,3.014-7.615,0.139-10.566l0,0c-1.393-1.43-3.259-2.232-5.254-2.258
	C38.165,205.999,38.131,205.999,38.098,205.999z"/>
<ellipse transform="matrix(0.7249 -0.6888 0.6888 0.7249 31.7828 174.5914)" fill="#B3B4B4" cx="234.5" cy="47.5" rx="5.5" ry="5.5"/>
<path fill="#B3B4B4" d="M156.241,162.307l-2.142-6.316c4.911-1.666,7.552-7.017,5.886-11.929c-0.807-2.379-2.492-4.302-4.745-5.414
	c-2.254-1.112-4.805-1.28-7.183-0.473l-2.143-6.316c4.067-1.379,8.427-1.092,12.277,0.808c3.851,1.9,6.731,5.186,8.11,9.253
	C169.148,150.314,164.635,159.46,156.241,162.307z"/>
<ellipse transform="matrix(0.7249 -0.6888 0.6888 0.7249 -74.7837 111.7244)" fill="#B3B4B4" cx="102.5" cy="149.5" rx="5.5" ry="5.5"/>
<polygon fill="#B3B4B4" points="228.814,250.299 248.288,233.674 255.528,237.31 233.433,255.709 "/>
<polygon fill="#B3B4B4" points="117.258,19.675 103,46 98.348,38.347 111.088,16.136 "/>
<path fill="#B3B4B4" d="M222.105,133c-0.055,0-0.109,0-0.165-0.001c-3.245-0.043-6.28-1.347-8.544-3.672
	c-4.675-4.8-4.573-12.507,0.226-17.182c2.325-2.265,5.386-3.481,8.638-3.445c3.245,0.043,6.28,1.347,8.544,3.672
	c4.674,4.799,4.573,12.507-0.226,17.182C228.293,131.78,225.289,133,222.105,133z M222.098,114.257c-1.728,0-3.357,0.662-4.597,1.87
	c-2.604,2.536-2.659,6.718-0.123,9.322c1.229,1.261,2.875,1.969,4.636,1.992c1.775,0.016,3.425-0.641,4.686-1.869
	c2.604-2.536,2.659-6.718,0.123-9.322l0,0c-1.229-1.261-2.875-1.969-4.636-1.992C222.157,114.257,222.128,114.257,222.098,114.257z"
	/>
<path fill="#B3B4B4" d="M186.97,10.317l-5.018,1.322c-1.028-3.902-5.04-6.241-8.942-5.213c-1.89,0.498-3.474,1.702-4.458,3.391
	c-0.985,1.689-1.253,3.661-0.754,5.55l-5.018,1.322c-0.851-3.232-0.393-6.6,1.289-9.486c1.683-2.886,4.389-4.945,7.62-5.796
	C178.357-0.349,185.213,3.648,186.97,10.317z"/>


    <g transform="matrix(0.9912 0.1325 -0.1325 0.9912 30.542 -14.083) translate(121.067,222.398) scale(0.6786666666666666)"><g class="ld ld-pulse" style="animation-delay:0s"><g data-icon="">  <use href="#id-0.3010861662085038" x="-50" y="-50"/>
</g></g></g><g transform="matrix(-0.0456 0.999 -0.999 -0.0456 243.7065 -82.5047) translate(161.268,75.17099999999999) scale(0.47706666666666664)"><g class="ld ld-pulse" style="animation-delay:-0.1s"><g data-icon="">  <use href="#id-0.3010861662085038" x="-50" y="-50"/>
</g></g></g><g transform="matrix(0.5905 -0.8071 0.8071 0.5905 -67.6584 252.8308) translate(215.293,193.0815) scale(0.5214666666666667)"><g class="ld ld-pulse" style="animation-delay:-0.2s"><g data-icon="">  <use href="#id-0.3010861662085038" x="-50" y="-50"/>
</g></g></g><g transform="matrix(-0.4749 -0.8801 0.8801 -0.4749 38.8277 99.7848) translate(49.185,38.308499999999995) scale(0.5980444444444444)"><g class="ld ld-pulse" style="animation-delay:-0.3s"><g data-icon="">  <use href="#id-0.3010861662085038" x="-50" y="-50"/>
</g></g></g><g transform="matrix(0.7381 -0.6747 0.6747 0.7381 -85.9069 63.1885) translate(38.434,142.243) scale(0.607688888888889)"><g class="ld ld-pulse" style="animation-delay:-0.4s"><g data-icon="">  <use href="#id-0.3010861662085038" x="-50" y="-50"/>
</g></g></g>
  </g>
</defs>
<g>
  <use href="#id-0.3010861662085038-2" x="0" y="0"/>
  <use href="#id-0.3010861662085038-2" x="-256" y="0"/>
  <animateTransform attributeName="transform" type="translate" repeatCount="indefinite" dur="4s"
  keyTimes="0;1" values="0;256"/>
</g>
</svg>