<?xml version="1.0" encoding="utf-8"?>
<svg xmlns="http://www.w3.org/2000/svg" xmlns:xlink="http://www.w3.org/1999/xlink" viewBox="0 0 256 256" width="256px" height="256px">
<style type="text/css">@keyframes ld-pulse
{
  0% {
    animation-timing-function: cubic-bezier(0.0413,0.3905,0.5086,0.6902);
    transform: scale(1);
  }
  24.3% {
    animation-timing-function: cubic-bezier(0.2248,0.6332,0.5246,1);
    transform: scale(0.8458);
  }
  55% {
    animation-timing-function: cubic-bezier(0.3036,0.3393,0.655,0.6144);
    transform: scale(0.8022);
  }
  70.2% {
    animation-timing-function: cubic-bezier(0.4464,0.2728,0.5562,0.7288);
    transform: scale(0.8294);
  }
  82.3% {
    animation-timing-function: cubic-bezier(0.6826,0.1845,1,0.7358);
    transform: scale(0.869);
  }
  100% {
    transform: scale(1);
  }
}
.ld.ld-pulse {
  animation: ld-pulse 0.5s infinite;
}</style>
<rect x="0" y="0" width="256" height="256" fill="#eee"/>
<defs>
  <g id="id-0.3285432053726929"><!--Generator: Adobe Illustrator 21.0.0, SVG Export Plug-In . SVG Version: 6.00 Build 0)--><path style="fill:#333" d="M24.015,86.058c0-6.076,2.112-11.658,5.619-16.088v16.088c0,1.935,1.569,3.503,3.503,3.503h33.727 c1.935,0,3.503-1.569,3.503-3.503V69.97c3.507,4.43,5.619,10.013,5.619,16.088l0,0c0,1.935,1.569,3.503,3.503,3.503h7.008 c1.935,0,3.503-1.569,3.503-3.503l0,0c0-19.29-13.726-35.434-31.923-39.18c7.096-3.316,11.833-10.84,10.939-19.375 c-0.922-8.814-8.021-15.966-16.829-16.943c-11.541-1.28-21.311,7.72-21.311,19.002c0,7.672,4.528,14.27,11.047,17.316 C23.726,50.624,10,66.769,10,86.058l0,0c0,1.935,1.569,3.503,3.503,3.503h7.008C22.446,89.562,24.015,87.993,24.015,86.058 L24.015,86.058z"/><metadata xmlns:d="https://loading.io/stock/"><d:name>avatar</d:name><d:tags>avatar,man,person,user,administrator,profile,people</d:tags><d:license>cc-by</d:license><d:slug>ie2opq</d:slug></metadata></g>
  <g id="id-0.3285432053726929-2">
    
<!-- Generator: Adobe Illustrator 21.0.0, SVG Export Plug-In . SVG Version: 6.00 Build 0)  -->







    <g transform=" translate(192,191.9995) scale(0.8888888888888888)"><g class="ld ld-pulse" style="animation-delay:0s"><g data-icon="">  <use href="#id-0.3285432053726929" x="-50" y="-50"/>
</g></g></g><g transform=" translate(192,63.9995) scale(0.5555555555555556)"><g class="ld ld-pulse" style="animation-delay:-0.125s"><g data-icon="">  <use href="#id-0.3285432053726929" x="-50" y="-50"/>
</g></g></g><g transform=" translate(64,63.9995) scale(0.8888888888888888)"><g class="ld ld-pulse" style="animation-delay:-0.25s"><g data-icon="">  <use href="#id-0.3285432053726929" x="-50" y="-50"/>
</g></g></g><g transform=" translate(64,191.9995) scale(0.5555555555555556)"><g class="ld ld-pulse" style="animation-delay:-0.375s"><g data-icon="">  <use href="#id-0.3285432053726929" x="-50" y="-50"/>
</g></g></g>
  </g>
</defs>
<g>
  <use href="#id-0.3285432053726929-2" x="0" y="0"/>
  <use href="#id-0.3285432053726929-2" x="-256" y="0"/>
  <animateTransform attributeName="transform" type="translate" repeatCount="indefinite" dur="4s"
  keyTimes="0;1" values="0;256"/>
</g>
</svg>