<?xml version="1.0" encoding="utf-8"?>
<svg xmlns="http://www.w3.org/2000/svg" xmlns:xlink="http://www.w3.org/1999/xlink" viewBox="0 0 256 256" width="256px" height="256px">
<style type="text/css">@keyframes ld-pulse
{
  0% {
    animation-timing-function: cubic-bezier(0.0413,0.3905,0.5086,0.6902);
    transform: scale(1);
  }
  24.3% {
    animation-timing-function: cubic-bezier(0.2248,0.6332,0.5246,1);
    transform: scale(0.8458);
  }
  55% {
    animation-timing-function: cubic-bezier(0.3036,0.3393,0.655,0.6144);
    transform: scale(0.8022);
  }
  70.2% {
    animation-timing-function: cubic-bezier(0.4464,0.2728,0.5562,0.7288);
    transform: scale(0.8294);
  }
  82.3% {
    animation-timing-function: cubic-bezier(0.6826,0.1845,1,0.7358);
    transform: scale(0.869);
  }
  100% {
    transform: scale(1);
  }
}
.ld.ld-pulse {
  animation: ld-pulse 0.5s infinite;
}</style>
<rect x="0" y="0" width="256" height="256" fill="#eee"/>
<defs>
  <g id="id-0.32586913681243335"><!--Generator: Adobe Illustrator 21.0.0, SVG Export Plug-In . SVG Version: 6.00 Build 0)--><g><g><ellipse transform="matrix(0.9016 -0.4325 0.4325 0.9016 -28.8385 30.6331)" style="fill:#f7931e;stroke:#000;stroke-width:3;stroke-linecap:round;stroke-miterlimit:10" cx="52.9" cy="78.7" rx="6.4" ry="6.4"/></g><path style="fill:#f7931e;stroke:#000;stroke-width:3;stroke-linecap:round;stroke-miterlimit:10" d="M82.6,62.8 c10.8,9.9-10,5.3-24.9,5.3s-43.9,3.9-33.4-6.4c14-13.7,9.5-47.4,31.8-46.6C79.9,15.9,62.7,44.6,82.6,62.8z"/><path style="fill:#fbb03b;stroke:#000;stroke-width:3;stroke-linecap:round;stroke-miterlimit:10" d="M81.5,76.5H24.3 c-3.5,0-6.4-2.8-6.4-6.4v0c0-3.5,2.8-6.4,6.4-6.4h57.2c3.5,0,6.4,2.8,6.4,6.4v0C87.9,73.7,85,76.5,81.5,76.5z"/><g><path style="fill:#ed1c24;stroke:#000;stroke-width:2;stroke-linecap:round;stroke-miterlimit:10" d="M37.9,31.9L27.5,16.2 c-1-1.5-3.2-1.7-4.4-0.4l-10.3,11c-1.5,1.6-0.7,4.2,1.4,4.6l20.6,4.7C37.4,36.7,39.3,34,37.9,31.9z"/><path style="fill:#ed1c24;stroke:#000;stroke-width:2;stroke-linecap:round;stroke-miterlimit:10" d="M40.6,34l18.1-4.9 c1.8-0.5,3.5,0.8,3.5,2.6l0.4,15c0.1,2.2-2.2,3.6-4.1,2.5L40,39.2C37.8,38,38.2,34.7,40.6,34z"/><path style="fill:#ed1c24;stroke:#000;stroke-width:2;stroke-linecap:round;stroke-miterlimit:10" d="M36.2,39L22.9,51.7 c-0.7,0.7-1.9,0.2-1.9-0.8l0-5.2c0-0.6-0.5-1.1-1.1-1.1h0c-1.3,0-1.6-1.8-0.4-2.2l15.5-5.2C36.2,36.8,37.1,38.2,36.2,39z"/><path style="fill:#ed1c24;stroke:#000;stroke-width:2;stroke-linecap:round;stroke-miterlimit:10" d="M36.7,38.1l1.7,18.3 c0.1,1,1.3,1.4,2,0.6l3.4-3.9c0.4-0.5,1.1-0.5,1.6-0.1l0,0c1,0.8,2.3-0.3,1.7-1.4l-8.2-14.2C38.2,36.4,36.6,36.9,36.7,38.1z"/></g></g><metadata xmlns:d="https://loading.io/stock/"><d:name>bell</d:name><d:tags>bell,christmas</d:tags><d:license>cc-by</d:license><d:slug>39ne56</d:slug></metadata></g>
  <g id="id-0.32586913681243335-2">
    
<!-- Generator: Adobe Illustrator 21.0.0, SVG Export Plug-In . SVG Version: 6.00 Build 0)  -->













    <g transform=" translate(151,149.9995) scale(0.6222222222222222)"><g class="ld ld-pulse" style="animation-delay:0s"><g data-icon="">  <use href="#id-0.32586913681243335" x="-50" y="-50"/>
</g></g></g><g transform="matrix(0.9628 0.2703 -0.2703 0.9628 41.3411 -58.0147) translate(231.293,121.08149999999999) scale(0.5214666666666667)"><g class="ld ld-pulse" style="animation-delay:-0.05s"><g data-icon="">  <use href="#id-0.32586913681243335" x="-50" y="-50"/>
</g></g></g><g transform="matrix(-0.0456 0.999 -0.999 -0.0456 207.6542 -74.2389) translate(139.293,62.081500000000005) scale(0.5214666666666667)"><g class="ld ld-pulse" style="animation-delay:-0.1s"><g data-icon="">  <use href="#id-0.32586913681243335" x="-50" y="-50"/>
</g></g></g><g transform="matrix(0.2398 -0.9708 0.9708 0.2398 127.6881 219.61) translate(204.074,28.271) scale(0.3916444444444444)"><g class="ld ld-pulse" style="animation-delay:-0.15s"><g data-icon="">  <use href="#id-0.32586913681243335" x="-50" y="-50"/>
</g></g></g><g transform="matrix(0.5905 -0.8071 0.8071 0.5905 -96.797 253.4085) translate(201.293,222.0815) scale(0.5214666666666667)"><g class="ld ld-pulse" style="animation-delay:-0.2s"><g data-icon="">  <use href="#id-0.32586913681243335" x="-50" y="-50"/>
</g></g></g><g transform="matrix(0.8618 0.5073 -0.5073 0.8618 120.0863 -26.4095) translate(108.50649999999999,207.1645) scale(0.44135555555555556)"><g class="ld ld-pulse" style="animation-delay:-0.25s"><g data-icon="">  <use href="#id-0.32586913681243335" x="-50" y="-50"/>
</g></g></g><g transform="matrix(0.9981 0.0609 -0.0609 0.9981 7.8271 -4.6047) translate(79.461,126.11449999999999) scale(0.43675555555555556)"><g class="ld ld-pulse" style="animation-delay:-0.3s"><g data-icon="">  <use href="#id-0.32586913681243335" x="-50" y="-50"/>
</g></g></g><g transform="matrix(-0.7024 0.7118 -0.7118 -0.7024 125.7862 11.6317) translate(60.461,32.1145) scale(0.43675555555555556)"><g class="ld ld-pulse" style="animation-delay:-0.35s"><g data-icon="">  <use href="#id-0.32586913681243335" x="-50" y="-50"/>
</g></g></g><g transform="matrix(0.8596 0.511 -0.511 0.8596 47.5053 -5.4135) translate(33.602,83.7265) scale(0.3879111111111111)"><g class="ld ld-pulse" style="animation-delay:-0.4s"><g data-icon="">  <use href="#id-0.32586913681243335" x="-50" y="-50"/>
</g></g></g><g transform="matrix(0.5692 -0.8222 0.8222 0.5692 -149.2038 124.5031) translate(44.2025,204.6265) scale(0.5011777777777778)"><g class="ld ld-pulse" style="animation-delay:-0.45s"><g data-icon="">  <use href="#id-0.32586913681243335" x="-50" y="-50"/>
</g></g></g>
  </g>
</defs>
<g>
  <use href="#id-0.32586913681243335-2" x="0" y="0"/>
  <use href="#id-0.32586913681243335-2" x="-256" y="0"/>
  <animateTransform attributeName="transform" type="translate" repeatCount="indefinite" dur="4s"
  keyTimes="0;1" values="0;256"/>
</g>
</svg>