<?xml version="1.0" encoding="utf-8"?>
<svg xmlns="http://www.w3.org/2000/svg" xmlns:xlink="http://www.w3.org/1999/xlink" viewBox="0 0 256 256" width="256px" height="256px">
<style type="text/css">@keyframes ld-pulse
{
  0% {
    animation-timing-function: cubic-bezier(0.0413,0.3905,0.5086,0.6902);
    transform: scale(1);
  }
  24.3% {
    animation-timing-function: cubic-bezier(0.2248,0.6332,0.5246,1);
    transform: scale(0.8458);
  }
  55% {
    animation-timing-function: cubic-bezier(0.3036,0.3393,0.655,0.6144);
    transform: scale(0.8022);
  }
  70.2% {
    animation-timing-function: cubic-bezier(0.4464,0.2728,0.5562,0.7288);
    transform: scale(0.8294);
  }
  82.3% {
    animation-timing-function: cubic-bezier(0.6826,0.1845,1,0.7358);
    transform: scale(0.869);
  }
  100% {
    transform: scale(1);
  }
}
.ld.ld-pulse {
  animation: ld-pulse 0.5s infinite;
}</style>
<rect x="0" y="0" width="256" height="256" fill="#eee"/>
<defs>
  <g id="id-0.4128824186540596"><!--Generator: Adobe Illustrator 21.0.0, SVG Export Plug-In . SVG Version: 6.00 Build 0)--><style type="text/css">.st13{fill:#333}</style><path id="XMLID_284_" class="st13" d="M78.1,92.2c-6.6-2.8-9.8-8.7-11-16.1c-5.2,2.5-10.8,3.5-16.9,1.3l2.3-6.4 c4.3,1.6,8.6,0.9,13.7-2.2c-0.6-7.9,0.2-15.7,1-24.5c0.6-5.6,1.1-11.3,1.5-18c0.2-4.7-1.6-11.3-5.7-11.6c-3.5-0.3-6.7,3.8-7.5,7.6 c-2.5,13.4-5.2,40.2-5.2,40.5l-6.8-0.4c0-0.3,0.6-26.1,0.1-39.6c-0.1-3.6-3.2-5.6-4.8-5.7c-1.7-0.1-4.5,1.9-5,4.7 c-2,12.1-3.5,29.7-4.1,37.1c-0.1,2-0.2,3.3-0.3,3.5l-6.8-0.5c0-0.2,0.1-1.3,0.2-3.2c0.5-7.2,1.4-25.3-1.1-36 c-0.5-2.4-2.6-4.2-4.5-4.2c0,0,0,0,0,0c-0.3,0-2.8,1-3.1,4l-6.8-0.8c0.8-6.4,6.2-9.9,9.8-10c0,0,0.1,0,0.1,0c4.3,0,8.4,2.9,10.3,7.1 c1.7-5,6.6-8.8,11.6-8.5c4.1,0.2,8.5,3.4,10.4,8.1C51.8,12.4,57,7.4,63.5,7.8C72,8.4,76,18,75.6,26.6c-0.2,3.3-0.4,6.5-0.7,9.4 c0.3-0.2,0.5-0.4,0.8-0.6c2.7-1.8,5.8-2.3,8.8-1.4c5.4,1.6,7.9,7.1,8,11.6c0,9.1-4.9,13.8-11.3,19.7l-1.1,1c-2.1,2-4.4,4-6.7,5.8 c1.3,9.2,3.7,12.1,7.4,13.9L78.1,92.2z M81.7,40.4c-0.7,0-1.5,0.2-2.2,0.7c-2.5,1.7-4.5,5.9-5.1,11.2c-0.5,4.1-0.9,7.7-1,11 c0.7-0.6,1.4-1.3,2.2-2l1.1-1c6.3-6,9.1-8.9,9.1-14.8c0-1.4-0.7-4.4-3-5C82.3,40.5,82,40.4,81.7,40.4z"/><metadata xmlns:d="https://loading.io/stock/"><d:name>virgo</d:name><d:tags>star,zodiac,horoscope,virgo,astrology</d:tags><d:license>rf</d:license><d:slug>6dl88j</d:slug></metadata></g>
  <g id="id-0.4128824186540596-2">
    
<!-- Generator: Adobe Illustrator 21.0.0, SVG Export Plug-In . SVG Version: 6.00 Build 0)  -->






<ellipse transform="matrix(0.7249 -0.6888 0.6888 0.7249 -96.2592 93.9447)" fill="#B3B4B4" cx="69.5" cy="167.5" rx="5.5" ry="5.5"/>
<ellipse transform="matrix(0.7249 -0.6888 0.6888 0.7249 15.9378 184.9119)" fill="#B3B4B4" cx="239.5" cy="72.5" rx="5.5" ry="5.5"/>
<g>
	
		<line fill="none" stroke="#B3B4B5" stroke-width="6.3333" stroke-linecap="round" stroke-linejoin="round" stroke-miterlimit="10" x1="192" y1="125.5" x2="211" y2="125.5"/>
	
		<line fill="none" stroke="#B3B4B5" stroke-width="6.3333" stroke-linecap="round" stroke-linejoin="round" stroke-miterlimit="10" x1="201.5" y1="135" x2="201.5" y2="116"/>
</g>
<g>
	
		<line fill="none" stroke="#B3B4B5" stroke-width="4" stroke-linecap="round" stroke-linejoin="round" stroke-miterlimit="10" x1="186" y1="244" x2="198" y2="244"/>
	
		<line fill="none" stroke="#B3B4B5" stroke-width="4" stroke-linecap="round" stroke-linejoin="round" stroke-miterlimit="10" x1="192" y1="250" x2="192" y2="238"/>
</g>
<g>
	
		<line fill="none" stroke="#B3B4B5" stroke-width="7.3333" stroke-linecap="round" stroke-linejoin="round" stroke-miterlimit="10" x1="9.5" y1="46.5" x2="31.5" y2="46.5"/>
	
		<line fill="none" stroke="#B3B4B5" stroke-width="7.3333" stroke-linecap="round" stroke-linejoin="round" stroke-miterlimit="10" x1="20.5" y1="57.5" x2="20.5" y2="35.5"/>
</g>
<ellipse transform="matrix(0.4903 -0.8715 0.8715 0.4903 7.2038 156.6452)" fill="#B3B4B4" cx="137.531" cy="72.163" rx="6.525" ry="6.525"/>
<ellipse transform="matrix(0.7249 -0.6888 0.6888 0.7249 -109.6566 158.3945)" fill="#B3B4B4" cx="143.5" cy="216.5" rx="5.5" ry="5.5"/>
<ellipse transform="matrix(0.7249 -0.6888 0.6888 0.7249 0.2332 72.5839)" fill="#B3B4B4" cx="91" cy="36" rx="4" ry="4"/>
<ellipse transform="matrix(0.7249 -0.6888 0.6888 0.7249 -34.1432 212.4976)" fill="#B3B4B4" cx="249" cy="149" rx="4" ry="4"/>
<ellipse transform="matrix(0.7249 -0.6888 0.6888 0.7249 -163.3891 70.8358)" fill="#B3B4B4" cx="7" cy="240" rx="4" ry="4"/>


    <g transform="matrix(0.9912 0.1325 -0.1325 0.9912 19.5946 -16.4002) translate(133,138.9995) scale(0.6222222222222222)"><g class="ld ld-pulse" style="animation-delay:0s"><g data-icon="">  <use href="#id-0.4128824186540596" x="-50" y="-50"/>
</g></g></g><g transform="matrix(0.8102 -0.5862 0.5862 0.8102 21.907 110.1873) translate(181.074,21.271) scale(0.3916444444444444)"><g class="ld ld-pulse" style="animation-delay:-0.1s"><g data-icon="">  <use href="#id-0.4128824186540596" x="-50" y="-50"/>
</g></g></g><g transform="matrix(0.7153 0.6988 -0.6988 0.7153 199.1367 -101.9661) translate(224.712,193.41799999999998) scale(0.3647555555555556)"><g class="ld ld-pulse" style="animation-delay:-0.2s"><g data-icon="">  <use href="#id-0.4128824186540596" x="-50" y="-50"/>
</g></g></g><g transform="matrix(0.7812 0.6242 -0.6242 0.7812 76.8196 -5.7423) translate(46.602000000000004,106.7265) scale(0.3879111111111111)"><g class="ld ld-pulse" style="animation-delay:-0.3s"><g data-icon="">  <use href="#id-0.4128824186540596" x="-50" y="-50"/>
</g></g></g><g transform="matrix(0.7381 -0.6747 0.6747 0.7381 -136.8065 106.8361) translate(69.2025,229.6265) scale(0.5011777777777778)"><g class="ld ld-pulse" style="animation-delay:-0.4s"><g data-icon="">  <use href="#id-0.4128824186540596" x="-50" y="-50"/>
</g></g></g>
  </g>
</defs>
<g>
  <use href="#id-0.4128824186540596-2" x="0" y="0"/>
  <use href="#id-0.4128824186540596-2" x="-256" y="0"/>
  <animateTransform attributeName="transform" type="translate" repeatCount="indefinite" dur="4s"
  keyTimes="0;1" values="0;256"/>
</g>
</svg>