<?xml version="1.0" encoding="utf-8"?>
<svg xmlns="http://www.w3.org/2000/svg" xmlns:xlink="http://www.w3.org/1999/xlink" viewBox="0 0 256 256" width="256px" height="256px">
<style type="text/css">@keyframes ld-pulse
{
  0% {
    animation-timing-function: cubic-bezier(0.0413,0.3905,0.5086,0.6902);
    transform: scale(1);
  }
  24.3% {
    animation-timing-function: cubic-bezier(0.2248,0.6332,0.5246,1);
    transform: scale(0.8458);
  }
  55% {
    animation-timing-function: cubic-bezier(0.3036,0.3393,0.655,0.6144);
    transform: scale(0.8022);
  }
  70.2% {
    animation-timing-function: cubic-bezier(0.4464,0.2728,0.5562,0.7288);
    transform: scale(0.8294);
  }
  82.3% {
    animation-timing-function: cubic-bezier(0.6826,0.1845,1,0.7358);
    transform: scale(0.869);
  }
  100% {
    transform: scale(1);
  }
}
.ld.ld-pulse {
  animation: ld-pulse 0.5s infinite;
}</style>
<rect x="0" y="0" width="256" height="256" fill="#eee"/>
<defs>
  <g id="id-0.40806164031706915"><!--Generator: Adobe Illustrator 21.0.0, SVG Export Plug-In . SVG Version: 6.00 Build 0)--><g><path style="fill:#333" d="M54.5,66.1L54.5,66.1c2.5,0,4.5,0.8,5.3,2.3c1.5,2.7-0.8,8-6.5,11.3C50.7,81.2,48,82,45.5,82 c-2.5,0-4.5-0.8-5.3-2.3c-1.5-2.7,0.8-8,6.5-11.3C49.3,66.9,52,66.1,54.5,66.1 M54.5,63.1c-2.9,0-6.2,0.9-9.3,2.7 c-6.8,4-10.3,10.9-7.6,15.4C39,83.7,42,85,45.5,85c2.9,0,6.2-0.9,9.3-2.7c6.8-4,10.3-10.9,7.6-15.4C61,64.4,58,63.1,54.5,63.1 L54.5,63.1z"/></g><line style="fill:none;stroke:#333;stroke-width:3;stroke-linecap:round;stroke-miterlimit:10" x1="61.7" y1="68.7" x2="61.7" y2="15"/><circle style="fill:#333" cx="71.7" cy="73.3" r="3"/><line style="fill:none;stroke:#333;stroke-width:3;stroke-linecap:round;stroke-miterlimit:10" x1="26.8" y1="64.1" x2="73.2" y2="64.1"/><line style="fill:none;stroke:#333;stroke-width:3;stroke-linecap:round;stroke-miterlimit:10" x1="26.8" y1="49.1" x2="73.2" y2="49.1"/><metadata xmlns:d="https://loading.io/stock/"><d:name>note</d:name><d:tags>note,half,minim</d:tags><d:license>cc-by</d:license><d:slug>1od0y7</d:slug></metadata></g>
  <g id="id-0.40806164031706915-2">
    
<!-- Generator: Adobe Illustrator 21.0.0, SVG Export Plug-In . SVG Version: 6.00 Build 0)  -->







    <g transform=" translate(192,191.9995) scale(0.8888888888888888)"><g class="ld ld-pulse" style="animation-delay:0s"><g data-icon="">  <use href="#id-0.40806164031706915" x="-50" y="-50"/>
</g></g></g><g transform=" translate(192,63.9995) scale(0.5555555555555556)"><g class="ld ld-pulse" style="animation-delay:-0.125s"><g data-icon="">  <use href="#id-0.40806164031706915" x="-50" y="-50"/>
</g></g></g><g transform=" translate(64,63.9995) scale(0.8888888888888888)"><g class="ld ld-pulse" style="animation-delay:-0.25s"><g data-icon="">  <use href="#id-0.40806164031706915" x="-50" y="-50"/>
</g></g></g><g transform=" translate(64,191.9995) scale(0.5555555555555556)"><g class="ld ld-pulse" style="animation-delay:-0.375s"><g data-icon="">  <use href="#id-0.40806164031706915" x="-50" y="-50"/>
</g></g></g>
  </g>
</defs>
<g>
  <use href="#id-0.40806164031706915-2" x="0" y="0"/>
  <use href="#id-0.40806164031706915-2" x="-256" y="0"/>
  <animateTransform attributeName="transform" type="translate" repeatCount="indefinite" dur="4s"
  keyTimes="0;1" values="0;256"/>
</g>
</svg>