<?xml version="1.0" encoding="utf-8"?>
<svg xmlns="http://www.w3.org/2000/svg" xmlns:xlink="http://www.w3.org/1999/xlink" viewBox="0 0 256 256" width="256px" height="256px">
<style type="text/css">@keyframes ld-pulse
{
  0% {
    animation-timing-function: cubic-bezier(0.0413,0.3905,0.5086,0.6902);
    transform: scale(1);
  }
  24.3% {
    animation-timing-function: cubic-bezier(0.2248,0.6332,0.5246,1);
    transform: scale(0.8458);
  }
  55% {
    animation-timing-function: cubic-bezier(0.3036,0.3393,0.655,0.6144);
    transform: scale(0.8022);
  }
  70.2% {
    animation-timing-function: cubic-bezier(0.4464,0.2728,0.5562,0.7288);
    transform: scale(0.8294);
  }
  82.3% {
    animation-timing-function: cubic-bezier(0.6826,0.1845,1,0.7358);
    transform: scale(0.869);
  }
  100% {
    transform: scale(1);
  }
}
.ld.ld-pulse {
  animation: ld-pulse 0.5s infinite;
}</style>
<rect x="0" y="0" width="256" height="256" fill="#eee"/>
<defs>
  <g id="id-0.003530088117476682"><!--Generator: Adobe Illustrator 21.0.0, SVG Export Plug-In . SVG Version: 6.00 Build 0)--><path style="fill:#998675;stroke:#000;stroke-width:3;stroke-linecap:round;stroke-miterlimit:10" d="M74.7,20.8 c0.9-2.2,0.7-5,0.4-7.6c-0.1-0.9-0.2-1.7-0.3-2.6c0-0.1,0-0.2-0.1-0.3c-0.1-0.1-0.2-0.2-0.3-0.2c-2.7-0.8-5.7,0.5-7.2,3.3 c-0.3,0.6-0.6,1.2-0.7,1.9c-0.3,1.4-0.2,3,0.3,4.4L74.7,20.8z"/><path style="fill:#c69c6d;stroke:#000;stroke-width:3;stroke-linecap:round;stroke-miterlimit:10" d="M27.3,39.4 c-4.4,0-8.1,2.6-9.7,6.3c-0.2,0.4-0.5,0.7-0.9,1c-2.6,1.4-4.4,4.1-4.4,7.2c0,1.9,0.7,3.7,1.8,5.1c0.4,0.6,0.6,1.3,0.3,2 c-0.3,0.8-0.3,1.8-0.3,2.9c0,1.3,0.8,2.5,1.5,3.3c0.7,0.8,1.8,0.9,2.6,0.4c1.3-0.8,3.1-2.2,3.1-3.8c0,0,0-0.1,0-0.1 c0-1,0.6-1.8,1.5-2.1c1.4-0.4,2.7-1.3,3.7-2.4c0.2,0,0.5,0,0.7,0c5.7,0,10.4-4.4,10.4-9.9S33.1,39.4,27.3,39.4z"/><path style="fill:#c69c6d;stroke:#000;stroke-width:3;stroke-linecap:round;stroke-miterlimit:10" d="M56.8,44.3l-11.7-3.2 c0-0.3-3.6-2.2-4.3-3.2c-0.9-1.3,1.6-4,4-8c3.9-6.6,2.4-8.3,5.9-11.6c0.9-0.8,3.9-3.6,8-4c0.6-0.1,1.3-0.1,2,0 c3.2,0.4,5.4,2.3,6.4,3.3c0.2,0.5,1.2,1.7,0.3,2.3c-2.6,1.7-6.5,5.1-8.4,10.7c-1.7,4.9-1.2,9.4-0.6,12.1 C58.6,43.7,57.7,44.6,56.8,44.3z"/><circle style="stroke:#000;stroke-width:3;stroke-linecap:round;stroke-miterlimit:10" cx="80.6" cy="30" r="0.5"/><path style="fill:#998675;stroke:#000;stroke-width:3;stroke-linecap:round;stroke-miterlimit:10" d="M87.7,28.6 c-0.2-0.3-0.4-0.7-0.6-1c-1.5-1.9-5-5.8-10.8-8.1c-1.9-0.7-3.2-1.3-5.1-1.5c-0.5-0.1-2.7-0.3-5.4,0.4c-3.3,0.8-5.4,2.5-6,3 c-1.8,1.5-2.7,2.9-4,5c-2.8,4.5-2.4,6.3-4.7,8.4c-1.8,1.7-3.9,2.4-5.4,2.7c-1.8-0.4-7.3-1.3-12.6,1.8c-0.9,0.5-2.8,1.7-4.5,3.8 c-1.4,1.7-4.1,5.8-3.6,17.9c0.2,5.1,1,12.3,3.6,20.8c3.9,0,7.9,0,11.8,0v-7.4c0-4,3.2-7.2,7.2-7.2c4,0,7.2,3.2,7.2,7.2v7.4h11.8 V67.2v-7.7V49.2c-0.1-6.2,2.5-6.2,5.4-6.2c3.6,0,6.1-0.2,8.8-0.6c-1-1.4-1.6-3.1-1.6-4.8C79,32.9,82.8,29.1,87.7,28.6z"/><path style="fill:#c69c6d;stroke:#000;stroke-width:3;stroke-linecap:round;stroke-miterlimit:10" d="M88.2,37.6 c1.5-2.7,1.3-6-0.3-8.8c-5,0.5-8.9,4.2-8.9,8.8c0,1.7,0.6,3.4,1.6,4.7c0.7-0.1,1.4-0.2,2.1-0.3C83.4,41.8,86.5,40.7,88.2,37.6z"/><path style="fill:#754c24;stroke:#000;stroke-width:3;stroke-linecap:round;stroke-miterlimit:10" d="M46.7,54h-9.4 c-2.3,0-4.1-1.8-4.1-4.1v-9.8c0-2.3,1.8-4.1,4.1-4.1h9.4c2.3,0,4.1,1.8,4.1,4.1v9.8C50.8,52.2,49,54,46.7,54z"/><path style="fill:#a67c52;stroke:#000;stroke-width:3;stroke-linecap:round;stroke-miterlimit:10" d="M80.8,80.3 c0,2.6-1.8,4.9-4.5,5.7c-5.8,1.8-14.5,3.7-25.3,4.1C36.5,90.7,24.9,88.1,18,86c-2.7-0.8-4.5-3.1-4.5-5.7v-0.2c0-4.3,4.6-7.2,8.9-5.6 c6.1,2.3,14.9,4.6,26,4.4c9.9-0.2,17.8-2.3,23.4-4.4c4.3-1.6,9,1.2,9,5.6V80.3z"/><circle style="stroke:#000;stroke-width:3;stroke-linecap:round;stroke-miterlimit:10" cx="73.4" cy="27.8" r="1.8"/><metadata xmlns:d="https://loading.io/stock/"><d:name>trojan horse</d:name><d:tags>trojan horse, toy, child, christmas, hobbyhorse-</d:tags><d:license>cc-by</d:license><d:slug>k8wzpy</d:slug></metadata></g>
  <g id="id-0.003530088117476682-2">
    
<!-- Generator: Adobe Illustrator 21.0.0, SVG Export Plug-In . SVG Version: 6.00 Build 0)  -->







    <g transform=" translate(192,191.9995) scale(0.8888888888888888)"><g class="ld ld-pulse" style="animation-delay:0s"><g data-icon="">  <use xlink:href="#id-0.003530088117476682" x="-50" y="-50"/>
</g></g></g><g transform=" translate(192,63.9995) scale(0.5555555555555556)"><g class="ld ld-pulse" style="animation-delay:-0.125s"><g data-icon="">  <use xlink:href="#id-0.003530088117476682" x="-50" y="-50"/>
</g></g></g><g transform=" translate(64,63.9995) scale(0.8888888888888888)"><g class="ld ld-pulse" style="animation-delay:-0.25s"><g data-icon="">  <use xlink:href="#id-0.003530088117476682" x="-50" y="-50"/>
</g></g></g><g transform=" translate(64,191.9995) scale(0.5555555555555556)"><g class="ld ld-pulse" style="animation-delay:-0.375s"><g data-icon="">  <use xlink:href="#id-0.003530088117476682" x="-50" y="-50"/>
</g></g></g>
  </g>
</defs>
<g>
  <use xlink:href="#id-0.003530088117476682-2" x="0" y="0"/>
  <use xlink:href="#id-0.003530088117476682-2" x="-256" y="0"/>
  <animateTransform attributeName="transform" type="translate" repeatCount="indefinite" dur="4s"
  keyTimes="0;1" values="0;256"/>
</g>
</svg>