<?xml version="1.0" encoding="utf-8"?>
<svg xmlns="http://www.w3.org/2000/svg" xmlns:xlink="http://www.w3.org/1999/xlink" viewBox="0 0 256 256" width="256px" height="256px">
<style type="text/css">@keyframes ld-pulse
{
  0% {
    animation-timing-function: cubic-bezier(0.0413,0.3905,0.5086,0.6902);
    transform: scale(1);
  }
  24.3% {
    animation-timing-function: cubic-bezier(0.2248,0.6332,0.5246,1);
    transform: scale(0.8458);
  }
  55% {
    animation-timing-function: cubic-bezier(0.3036,0.3393,0.655,0.6144);
    transform: scale(0.8022);
  }
  70.2% {
    animation-timing-function: cubic-bezier(0.4464,0.2728,0.5562,0.7288);
    transform: scale(0.8294);
  }
  82.3% {
    animation-timing-function: cubic-bezier(0.6826,0.1845,1,0.7358);
    transform: scale(0.869);
  }
  100% {
    transform: scale(1);
  }
}
.ld.ld-pulse {
  animation: ld-pulse 0.5s infinite;
}</style>
<rect x="0" y="0" width="256" height="256" fill="#eee"/>
<defs>
  <g id="id-0.6149233943582966"><!--Generator: Adobe Illustrator 21.0.0, SVG Export Plug-In . SVG Version: 6.00 Build 0)--><path style="fill:#abbd81" d="M86.66,69.125H31.331c-0.74,0-1.396,0.474-1.629,1.176l-4.078,12.324l-4.078-12.324 c-0.232-0.702-0.889-1.176-1.629-1.176H13.34c-2.811,0-5.09-2.279-5.09-5.09V22.465c0-2.811,2.279-5.09,5.09-5.09H86.66 c2.811,0,5.09,2.279,5.09,5.09v41.569C91.75,66.846,89.471,69.125,86.66,69.125z"/><line style="fill:none;stroke:#fff;stroke-width:3;stroke-linecap:round;stroke-miterlimit:10" x1="19" y1="43.667" x2="80.792" y2="43.667"/><line style="fill:none;stroke:#fff;stroke-width:3;stroke-linecap:round;stroke-miterlimit:10" x1="19" y1="53.667" x2="80.792" y2="53.667"/><line style="fill:none;stroke:#fff;stroke-width:3;stroke-linecap:round;stroke-miterlimit:10" x1="19" y1="33.667" x2="80.792" y2="33.667"/><metadata xmlns:d="https://loading.io/stock/"><d:name>conversation</d:name><d:tags>conversation,speak,say,comment,discuss,soliloquy,subtitle,narration</d:tags><d:license>cc-by</d:license><d:slug>u10h81</d:slug></metadata></g>
  <g id="id-0.6149233943582966-2">
    
<!-- Generator: Adobe Illustrator 21.0.0, SVG Export Plug-In . SVG Version: 6.00 Build 0)  -->





    <g transform=" translate(192,191.9995) scale(0.8888888888888888)"><g class="ld ld-pulse" style="animation-delay:0s"><g data-icon="">  <use href="#id-0.6149233943582966" x="-50" y="-50"/>
</g></g></g><g transform=" translate(64,63.9995) scale(0.8888888888888888)"><g class="ld ld-pulse" style="animation-delay:-0.25s"><g data-icon="">  <use href="#id-0.6149233943582966" x="-50" y="-50"/>
</g></g></g>
  </g>
</defs>
<g>
  <use href="#id-0.6149233943582966-2" x="0" y="0"/>
  <use href="#id-0.6149233943582966-2" x="-256" y="0"/>
  <animateTransform attributeName="transform" type="translate" repeatCount="indefinite" dur="4s"
  keyTimes="0;1" values="0;256"/>
</g>
</svg>