<?xml version="1.0" encoding="utf-8"?>
<svg xmlns="http://www.w3.org/2000/svg" xmlns:xlink="http://www.w3.org/1999/xlink" viewBox="0 0 256 256" width="256px" height="256px">
<style type="text/css">@keyframes ld-pulse
{
  0% {
    animation-timing-function: cubic-bezier(0.0413,0.3905,0.5086,0.6902);
    transform: scale(1);
  }
  24.3% {
    animation-timing-function: cubic-bezier(0.2248,0.6332,0.5246,1);
    transform: scale(0.8458);
  }
  55% {
    animation-timing-function: cubic-bezier(0.3036,0.3393,0.655,0.6144);
    transform: scale(0.8022);
  }
  70.2% {
    animation-timing-function: cubic-bezier(0.4464,0.2728,0.5562,0.7288);
    transform: scale(0.8294);
  }
  82.3% {
    animation-timing-function: cubic-bezier(0.6826,0.1845,1,0.7358);
    transform: scale(0.869);
  }
  100% {
    transform: scale(1);
  }
}
.ld.ld-pulse {
  animation: ld-pulse 0.5s infinite;
}</style>
<rect x="0" y="0" width="256" height="256" fill="#eee"/>
<defs>
  <g id="id-0.7449073348784301"><!--Generator: Adobe Illustrator 21.0.0, SVG Export Plug-In . SVG Version: 6.00 Build 0)--><g><g><path style="fill:#d4145a;stroke:#000;stroke-width:3;stroke-linecap:round;stroke-linejoin:round;stroke-miterlimit:10" d=" M58,14.5c1,0.2,1.7,1.3,1.7,2.3c0,1.4-1.7,2.3-2.5,2.9c-1.8,1.4-3.2,4.9-1.4,14.3c-7-1.9-14-3.8-20.9-5.7c1-0.8,4.4-3.9,5.3-9.3 c0.3-1.7,0.2-3.3,0.1-4.7c-0.3-2.4,3-3.3,3.8-1c0,0,0,0.1,0,0.1c0.2,0.6,0.4,2.4,0.8,2.7c0.8,0.5,3-3.8,5.1-3.5 c0.8,0.1,1.3,0.9,1.5,1.2c1.2,1.7,0.1,3.5,0.8,3.9C53.3,18.2,55.8,14,58,14.5z"/><path style="fill:#d4145a;stroke:#000;stroke-width:3;stroke-linecap:round;stroke-linejoin:round;stroke-miterlimit:10" d=" M68.3,55.6c0.6,2.7,4.1,17.1-3.8,24.6c-4.1,3.9-10.9,3.8-24.3,3.5c-14.5-0.3-21.7-0.5-25.9-5.1C7.8,71.5,11,59.3,12,55.6 c2.6-9.7,11.7-28.1,28.1-28.1C56.1,27.5,65.7,44.8,68.3,55.6z"/><path style="fill:#8cc63f;stroke:#000;stroke-width:3;stroke-linecap:round;stroke-linejoin:round;stroke-miterlimit:10" d=" M52.1,35.3l-15.8-3.4c-1.8-0.4-2.9-2.1-2.5-3.9l0.1-0.6c0.4-1.8,2.1-2.9,3.9-2.5l15.8,3.4c1.8,0.4,2.9,2.1,2.5,3.9L56,32.7 C55.6,34.5,53.9,35.7,52.1,35.3z"/></g><g><g><line style="fill:none;stroke:#000;stroke-linecap:round;stroke-miterlimit:10" x1="40" y1="42.4" x2="40" y2="55.5"/><line style="fill:none;stroke:#000;stroke-linecap:round;stroke-miterlimit:10" x1="36.9" y1="44.1" x2="40" y2="47"/><line style="fill:none;stroke:#000;stroke-linecap:round;stroke-miterlimit:10" x1="43.1" y1="44.1" x2="40" y2="47"/></g><g><line style="fill:none;stroke:#000;stroke-linecap:round;stroke-miterlimit:10" x1="35.2" y1="46.7" x2="40" y2="51.7"/><line style="fill:none;stroke:#000;stroke-linecap:round;stroke-miterlimit:10" x1="34.6" y1="48.4" x2="36.9" y2="48.5"/><line style="fill:none;stroke:#000;stroke-linecap:round;stroke-miterlimit:10" x1="37" y1="46.3" x2="36.9" y2="48.5"/></g><g><line style="fill:none;stroke:#000;stroke-linecap:round;stroke-miterlimit:10" x1="44.9" y1="46.7" x2="40" y2="51.7"/><line style="fill:none;stroke:#000;stroke-linecap:round;stroke-miterlimit:10" x1="45.5" y1="48.4" x2="43.1" y2="48.5"/><line style="fill:none;stroke:#000;stroke-linecap:round;stroke-miterlimit:10" x1="43" y1="46.3" x2="43.1" y2="48.5"/></g><g><line style="fill:none;stroke:#000;stroke-linecap:round;stroke-miterlimit:10" x1="25" y1="56.4" x2="38.8" y2="56.4"/><line style="fill:none;stroke:#000;stroke-linecap:round;stroke-miterlimit:10" x1="26.8" y1="59.3" x2="29.9" y2="56.4"/><line style="fill:none;stroke:#000;stroke-linecap:round;stroke-miterlimit:10" x1="26.8" y1="53.4" x2="29.9" y2="56.4"/></g><g><line style="fill:none;stroke:#000;stroke-linecap:round;stroke-miterlimit:10" x1="29.5" y1="61" x2="34.8" y2="56.4"/><line style="fill:none;stroke:#000;stroke-linecap:round;stroke-miterlimit:10" x1="31.3" y1="61.5" x2="31.4" y2="59.3"/><line style="fill:none;stroke:#000;stroke-linecap:round;stroke-miterlimit:10" x1="29.1" y1="59.2" x2="31.4" y2="59.3"/></g><g><line style="fill:none;stroke:#000;stroke-linecap:round;stroke-miterlimit:10" x1="29.5" y1="51.7" x2="34.8" y2="56.4"/><line style="fill:none;stroke:#000;stroke-linecap:round;stroke-miterlimit:10" x1="31.3" y1="51.2" x2="31.4" y2="53.4"/><line style="fill:none;stroke:#000;stroke-linecap:round;stroke-miterlimit:10" x1="29.1" y1="53.5" x2="31.4" y2="53.4"/></g><g><line style="fill:none;stroke:#000;stroke-linecap:round;stroke-miterlimit:10" x1="39.7" y1="70.7" x2="39.7" y2="57.6"/><line style="fill:none;stroke:#000;stroke-linecap:round;stroke-miterlimit:10" x1="42.8" y1="69" x2="39.7" y2="66"/><line style="fill:none;stroke:#000;stroke-linecap:round;stroke-miterlimit:10" x1="36.6" y1="69" x2="39.7" y2="66"/></g><g><line style="fill:none;stroke:#000;stroke-linecap:round;stroke-miterlimit:10" x1="44.6" y1="66.4" x2="39.7" y2="61.4"/><line style="fill:none;stroke:#000;stroke-linecap:round;stroke-miterlimit:10" x1="45.1" y1="64.6" x2="42.8" y2="64.5"/><line style="fill:none;stroke:#000;stroke-linecap:round;stroke-miterlimit:10" x1="42.7" y1="66.8" x2="42.8" y2="64.5"/></g><g><line style="fill:none;stroke:#000;stroke-linecap:round;stroke-miterlimit:10" x1="34.8" y1="66.4" x2="39.7" y2="61.4"/><line style="fill:none;stroke:#000;stroke-linecap:round;stroke-miterlimit:10" x1="34.3" y1="64.6" x2="36.6" y2="64.5"/><line style="fill:none;stroke:#000;stroke-linecap:round;stroke-miterlimit:10" x1="36.7" y1="66.8" x2="36.6" y2="64.5"/></g><g><line style="fill:none;stroke:#000;stroke-linecap:round;stroke-miterlimit:10" x1="54.7" y1="56.7" x2="41" y2="56.7"/><line style="fill:none;stroke:#000;stroke-linecap:round;stroke-miterlimit:10" x1="53" y1="53.7" x2="49.8" y2="56.7"/><line style="fill:none;stroke:#000;stroke-linecap:round;stroke-miterlimit:10" x1="53" y1="59.6" x2="49.8" y2="56.7"/></g><g><line style="fill:none;stroke:#000;stroke-linecap:round;stroke-miterlimit:10" x1="50.2" y1="52.1" x2="45" y2="56.7"/><line style="fill:none;stroke:#000;stroke-linecap:round;stroke-miterlimit:10" x1="48.4" y1="51.5" x2="48.3" y2="53.7"/><line style="fill:none;stroke:#000;stroke-linecap:round;stroke-miterlimit:10" x1="50.6" y1="53.8" x2="48.3" y2="53.7"/></g><g><line style="fill:none;stroke:#000;stroke-linecap:round;stroke-miterlimit:10" x1="50.2" y1="61.3" x2="45" y2="56.7"/><line style="fill:none;stroke:#000;stroke-linecap:round;stroke-miterlimit:10" x1="48.4" y1="61.9" x2="48.3" y2="59.6"/><line style="fill:none;stroke:#000;stroke-linecap:round;stroke-miterlimit:10" x1="50.6" y1="59.5" x2="48.3" y2="59.6"/></g></g><g><rect x="49.9" y="54.6" style="fill:#8cc63f;stroke:#000;stroke-width:3;stroke-miterlimit:10" width="38.8" height="6.1"/><rect x="54.4" y="60.7" style="fill:#8cc63f;stroke:#000;stroke-width:3;stroke-miterlimit:10" width="29.8" height="27.4"/><g><path style="fill:#f15a24;stroke:#000;stroke-width:3;stroke-miterlimit:10" d="M74.1,54.3c0-2.5-2.2-4.6-4.9-4.6 s-4.9,2-4.9,4.6c0,0.1,0,0.2,0,0.3h9.7C74.1,54.5,74.1,54.4,74.1,54.3z"/></g><path style="fill:#f15a24;stroke:#000;stroke-width:3;stroke-miterlimit:10" d="M83.2,42.4c-3.5-0.4-5.9,1.7-6.5,2.1 c-2.7,2.2-4.4,6.2-3,7.9c1.8,2.2,7.6-0.1,8.7-0.5c0,0,0.1,0,0.1-0.1c3.7-1.6,6.9-2.9,7.1-4.6C89.9,45.4,86.6,42.8,83.2,42.4z"/><path style="fill:#f15a24;stroke:#000;stroke-width:3;stroke-miterlimit:10" d="M54.5,42.4c3.5-0.4,5.9,1.7,6.5,2.1 c2.7,2.2,4.4,6.2,3,7.9c-1.8,2.2-7.6-0.1-8.7-0.5c0,0-0.1,0-0.1-0.1c-3.7-1.6-6.9-2.9-7.1-4.6C47.7,45.4,51,42.8,54.5,42.4z"/><path style="fill:#f15a24;stroke:#000;stroke-width:3;stroke-miterlimit:10" d="M74.1,52.1c0.3-0.7,1.7-3.5,5.2-4.9 c2.2-0.9,4.2-0.7,5.2-0.6"/><path style="fill:#f15a24;stroke:#000;stroke-width:3;stroke-miterlimit:10" d="M63.1,52.1c-0.3-0.7-1.7-3.5-5.2-4.9 c-2.2-0.9-4.2-0.7-5.2-0.6"/><polyline style="fill:#009245;stroke:#000;stroke-width:3;stroke-miterlimit:10" points="74.1,54.6 74.1,60.1 64.4,60.1 64.4,54.6 		"/><rect x="67.3" y="60.7" style="fill:#009245;stroke:#000;stroke-width:3;stroke-miterlimit:10" width="3.9" height="27.4"/></g></g><metadata xmlns:d="https://loading.io/stock/"><d:name>christmas present</d:name><d:tags>christmas present,christmas</d:tags><d:license>cc-by</d:license><d:slug>72hkuk</d:slug></metadata></g>
  <g id="id-0.7449073348784301-2">
    
<!-- Generator: Adobe Illustrator 21.0.0, SVG Export Plug-In . SVG Version: 6.00 Build 0)  -->





    <g transform=" translate(192,191.9995) scale(0.8888888888888888)"><g class="ld ld-pulse" style="animation-delay:0s"><g data-icon="">  <use href="#id-0.7449073348784301" x="-50" y="-50"/>
</g></g></g><g transform=" translate(64,63.9995) scale(0.8888888888888888)"><g class="ld ld-pulse" style="animation-delay:-0.25s"><g data-icon="">  <use href="#id-0.7449073348784301" x="-50" y="-50"/>
</g></g></g>
  </g>
</defs>
<g>
  <use href="#id-0.7449073348784301-2" x="0" y="0"/>
  <use href="#id-0.7449073348784301-2" x="-256" y="0"/>
  <animateTransform attributeName="transform" type="translate" repeatCount="indefinite" dur="4s"
  keyTimes="0;1" values="0;256"/>
</g>
</svg>