<?xml version="1.0" encoding="utf-8"?>
<svg xmlns="http://www.w3.org/2000/svg" xmlns:xlink="http://www.w3.org/1999/xlink" viewBox="0 0 256 256" width="256px" height="256px">
<style type="text/css">@keyframes ld-pulse
{
  0% {
    animation-timing-function: cubic-bezier(0.0413,0.3905,0.5086,0.6902);
    transform: scale(1);
  }
  24.3% {
    animation-timing-function: cubic-bezier(0.2248,0.6332,0.5246,1);
    transform: scale(0.8458);
  }
  55% {
    animation-timing-function: cubic-bezier(0.3036,0.3393,0.655,0.6144);
    transform: scale(0.8022);
  }
  70.2% {
    animation-timing-function: cubic-bezier(0.4464,0.2728,0.5562,0.7288);
    transform: scale(0.8294);
  }
  82.3% {
    animation-timing-function: cubic-bezier(0.6826,0.1845,1,0.7358);
    transform: scale(0.869);
  }
  100% {
    transform: scale(1);
  }
}
.ld.ld-pulse {
  animation: ld-pulse 0.5s infinite;
}</style>
<rect x="0" y="0" width="256" height="256" fill="#eee"/>
<defs>
  <g id="id-0.7433211751734203"><!--Generator: Adobe Illustrator 21.0.0, SVG Export Plug-In . SVG Version: 6.00 Build 0)--><g><g><ellipse transform="matrix(0.9016 -0.4325 0.4325 0.9016 -28.8385 30.6331)" style="fill:#f7931e;stroke:#000;stroke-width:3;stroke-linecap:round;stroke-miterlimit:10" cx="52.9" cy="78.7" rx="6.4" ry="6.4"/></g><path style="fill:#f7931e;stroke:#000;stroke-width:3;stroke-linecap:round;stroke-miterlimit:10" d="M82.6,62.8 c10.8,9.9-10,5.3-24.9,5.3s-43.9,3.9-33.4-6.4c14-13.7,9.5-47.4,31.8-46.6C79.9,15.9,62.7,44.6,82.6,62.8z"/><path style="fill:#fbb03b;stroke:#000;stroke-width:3;stroke-linecap:round;stroke-miterlimit:10" d="M81.5,76.5H24.3 c-3.5,0-6.4-2.8-6.4-6.4v0c0-3.5,2.8-6.4,6.4-6.4h57.2c3.5,0,6.4,2.8,6.4,6.4v0C87.9,73.7,85,76.5,81.5,76.5z"/><g><path style="fill:#ed1c24;stroke:#000;stroke-width:2;stroke-linecap:round;stroke-miterlimit:10" d="M37.9,31.9L27.5,16.2 c-1-1.5-3.2-1.7-4.4-0.4l-10.3,11c-1.5,1.6-0.7,4.2,1.4,4.6l20.6,4.7C37.4,36.7,39.3,34,37.9,31.9z"/><path style="fill:#ed1c24;stroke:#000;stroke-width:2;stroke-linecap:round;stroke-miterlimit:10" d="M40.6,34l18.1-4.9 c1.8-0.5,3.5,0.8,3.5,2.6l0.4,15c0.1,2.2-2.2,3.6-4.1,2.5L40,39.2C37.8,38,38.2,34.7,40.6,34z"/><path style="fill:#ed1c24;stroke:#000;stroke-width:2;stroke-linecap:round;stroke-miterlimit:10" d="M36.2,39L22.9,51.7 c-0.7,0.7-1.9,0.2-1.9-0.8l0-5.2c0-0.6-0.5-1.1-1.1-1.1h0c-1.3,0-1.6-1.8-0.4-2.2l15.5-5.2C36.2,36.8,37.1,38.2,36.2,39z"/><path style="fill:#ed1c24;stroke:#000;stroke-width:2;stroke-linecap:round;stroke-miterlimit:10" d="M36.7,38.1l1.7,18.3 c0.1,1,1.3,1.4,2,0.6l3.4-3.9c0.4-0.5,1.1-0.5,1.6-0.1l0,0c1,0.8,2.3-0.3,1.7-1.4l-8.2-14.2C38.2,36.4,36.6,36.9,36.7,38.1z"/></g></g><metadata xmlns:d="https://loading.io/stock/"><d:name>bell</d:name><d:tags>bell,christmas</d:tags><d:license>cc-by</d:license><d:slug>39ne56</d:slug></metadata></g>
  <g id="id-0.7433211751734203-2">
    
<!-- Generator: Adobe Illustrator 21.0.0, SVG Export Plug-In . SVG Version: 6.00 Build 0)  -->






<ellipse transform="matrix(0.7249 -0.6888 0.6888 0.7249 -96.2592 93.9447)" fill="#B3B4B4" cx="69.5" cy="167.5" rx="5.5" ry="5.5"/>
<ellipse transform="matrix(0.7249 -0.6888 0.6888 0.7249 15.9378 184.9119)" fill="#B3B4B4" cx="239.5" cy="72.5" rx="5.5" ry="5.5"/>
<g>
	
		<line fill="none" stroke="#B3B4B5" stroke-width="4" stroke-linecap="round" stroke-linejoin="round" stroke-miterlimit="10" x1="194" y1="125.5" x2="209" y2="125.5"/>
	
		<line fill="none" stroke="#B3B4B5" stroke-width="4" stroke-linecap="round" stroke-linejoin="round" stroke-miterlimit="10" x1="201.5" y1="133" x2="201.5" y2="118"/>
</g>
<g>
	
		<line fill="none" stroke="#B3B4B5" stroke-width="4" stroke-linecap="round" stroke-linejoin="round" stroke-miterlimit="10" x1="186" y1="244" x2="198" y2="244"/>
	
		<line fill="none" stroke="#B3B4B5" stroke-width="4" stroke-linecap="round" stroke-linejoin="round" stroke-miterlimit="10" x1="192" y1="250" x2="192" y2="238"/>
</g>
<g>
	
		<line fill="none" stroke="#B3B4B5" stroke-width="4" stroke-linecap="round" stroke-linejoin="round" stroke-miterlimit="10" x1="12" y1="46.5" x2="29" y2="46.5"/>
	
		<line fill="none" stroke="#B3B4B5" stroke-width="4" stroke-linecap="round" stroke-linejoin="round" stroke-miterlimit="10" x1="20.5" y1="55" x2="20.5" y2="38"/>
</g>
<ellipse transform="matrix(0.4903 -0.8715 0.8715 0.4903 7.2038 156.6452)" fill="#B3B4B4" cx="137.531" cy="72.163" rx="6.525" ry="6.525"/>
<ellipse transform="matrix(0.7249 -0.6888 0.6888 0.7249 -109.6566 158.3945)" fill="#B3B4B4" cx="143.5" cy="216.5" rx="5.5" ry="5.5"/>
<ellipse transform="matrix(0.7249 -0.6888 0.6888 0.7249 0.2332 72.5839)" fill="#B3B4B4" cx="91" cy="36" rx="4" ry="4"/>
<ellipse transform="matrix(0.7249 -0.6888 0.6888 0.7249 -34.1432 212.4976)" fill="#B3B4B4" cx="249" cy="149" rx="4" ry="4"/>
<ellipse transform="matrix(0.7249 -0.6888 0.6888 0.7249 -163.3891 70.8358)" fill="#B3B4B4" cx="7" cy="240" rx="4" ry="4"/>


    <g transform="matrix(0.9912 0.1325 -0.1325 0.9912 19.5946 -16.4002) translate(133,138.9995) scale(0.6222222222222222)"><g class="ld ld-pulse" style="animation-delay:0s"><g data-icon="">  <use xlink:href="#id-0.7433211751734203" x="-50" y="-50"/>
</g></g></g><g transform="matrix(0.8102 -0.5862 0.5862 0.8102 10.3558 116.5189) translate(185.074,42.271) scale(0.3916444444444444)"><g class="ld ld-pulse" style="animation-delay:-0.1s"><g data-icon="">  <use xlink:href="#id-0.7433211751734203" x="-50" y="-50"/>
</g></g></g><g transform="matrix(0.7153 0.6988 -0.6988 0.7153 199.1367 -101.9661) translate(224.712,193.41799999999998) scale(0.3647555555555556)"><g class="ld ld-pulse" style="animation-delay:-0.2s"><g data-icon="">  <use xlink:href="#id-0.7433211751734203" x="-50" y="-50"/>
</g></g></g><g transform="matrix(0.7812 0.6242 -0.6242 0.7812 76.8196 -5.7423) translate(46.602000000000004,106.7265) scale(0.3879111111111111)"><g class="ld ld-pulse" style="animation-delay:-0.3s"><g data-icon="">  <use xlink:href="#id-0.7433211751734203" x="-50" y="-50"/>
</g></g></g><g transform="matrix(0.7381 -0.6747 0.6747 0.7381 -136.8065 106.8361) translate(69.2025,229.6265) scale(0.5011777777777778)"><g class="ld ld-pulse" style="animation-delay:-0.4s"><g data-icon="">  <use xlink:href="#id-0.7433211751734203" x="-50" y="-50"/>
</g></g></g>
  </g>
</defs>
<g>
  <use xlink:href="#id-0.7433211751734203-2" x="0" y="0"/>
  <use xlink:href="#id-0.7433211751734203-2" x="-256" y="0"/>
  <animateTransform attributeName="transform" type="translate" repeatCount="indefinite" dur="4s"
  keyTimes="0;1" values="0;256"/>
</g>
</svg>