<?xml version="1.0" encoding="utf-8"?>
<svg xmlns="http://www.w3.org/2000/svg" xmlns:xlink="http://www.w3.org/1999/xlink" viewBox="0 0 256 256" width="256px" height="256px">
<style type="text/css">@keyframes ld-pulse
{
  0% {
    animation-timing-function: cubic-bezier(0.0413,0.3905,0.5086,0.6902);
    transform: scale(1);
  }
  24.3% {
    animation-timing-function: cubic-bezier(0.2248,0.6332,0.5246,1);
    transform: scale(0.8458);
  }
  55% {
    animation-timing-function: cubic-bezier(0.3036,0.3393,0.655,0.6144);
    transform: scale(0.8022);
  }
  70.2% {
    animation-timing-function: cubic-bezier(0.4464,0.2728,0.5562,0.7288);
    transform: scale(0.8294);
  }
  82.3% {
    animation-timing-function: cubic-bezier(0.6826,0.1845,1,0.7358);
    transform: scale(0.869);
  }
  100% {
    transform: scale(1);
  }
}
.ld.ld-pulse {
  animation: ld-pulse 0.5s infinite;
}</style>
<rect x="0" y="0" width="256" height="256" fill="#eee"/>
<defs>
  <g id="id-0.3825508830308988"><!--Generator: Adobe Illustrator 21.0.0, SVG Export Plug-In . SVG Version: 6.00 Build 0)--><g><g><polygon style="fill:#d4145a;stroke:#000;stroke-width:3;stroke-miterlimit:10" points="37.1,73.5 14.4,73.5 14.4,73.7 85.6,73.7 85.6,73.5 65.7,73.5 		"/><rect x="14.4" y="19.1" style="fill:#d4145a;stroke:#000;stroke-width:3;stroke-miterlimit:10" width="8.4" height="9.1"/><polygon style="fill:#d4145a;stroke:#000;stroke-width:3;stroke-miterlimit:10" points="37.1,37.3 37.1,28.2 22.9,28.2 14.4,28.2 14.4,37.3 22.9,37.3 		"/><polygon style="fill:#d4145a;stroke:#000;stroke-width:3;stroke-miterlimit:10" points="51.4,37.3 65.7,37.3 65.7,28.2 51.4,28.2 37.1,28.2 37.1,37.3 		"/><polygon style="fill:#d4145a;stroke:#000;stroke-width:3;stroke-miterlimit:10" points="80,28.2 65.7,28.2 65.7,37.3 80,37.3 85.6,37.3 85.6,28.2 		"/><polygon style="fill:#d4145a;stroke:#000;stroke-width:3;stroke-miterlimit:10" points="37.1,28.2 51.4,28.2 51.4,19.1 22.9,19.1 22.9,28.2 		"/><polygon style="fill:#d4145a;stroke:#000;stroke-width:3;stroke-miterlimit:10" points="65.7,28.2 80,28.2 80,19.1 51.4,19.1 51.4,28.2 		"/><rect x="80" y="19.1" style="fill:#d4145a;stroke:#000;stroke-width:3;stroke-miterlimit:10" width="5.6" height="9.1"/><rect x="14.4" y="37.3" style="fill:#d4145a;stroke:#000;stroke-width:3;stroke-miterlimit:10" width="8.4" height="9.1"/><polygon style="fill:#d4145a;stroke:#000;stroke-width:3;stroke-miterlimit:10" points="37.1,55.4 37.1,46.3 22.9,46.3 14.4,46.3 14.4,55.4 22.9,55.4 		"/><polygon style="fill:#d4145a;stroke:#000;stroke-width:3;stroke-miterlimit:10" points="37.1,46.3 37.1,55.4 51.4,55.4 65.7,55.4 65.7,46.3 51.4,46.3 		"/><polygon style="fill:#d4145a;stroke:#000;stroke-width:3;stroke-miterlimit:10" points="65.7,46.3 65.7,55.4 80,55.4 85.6,55.4 85.6,46.3 80,46.3 		"/><polygon style="fill:#d4145a;stroke:#000;stroke-width:3;stroke-miterlimit:10" points="51.4,37.3 37.1,37.3 22.9,37.3 22.9,46.3 37.1,46.3 51.4,46.3 		"/><polygon style="fill:#d4145a;stroke:#000;stroke-width:3;stroke-miterlimit:10" points="51.4,46.3 65.7,46.3 80,46.3 80,37.3 65.7,37.3 51.4,37.3 		"/><rect x="80" y="37.3" style="fill:#d4145a;stroke:#000;stroke-width:3;stroke-miterlimit:10" width="5.6" height="9.1"/><rect x="14.4" y="55.4" style="fill:#d4145a;stroke:#000;stroke-width:3;stroke-miterlimit:10" width="8.4" height="9.1"/><polygon style="fill:#d4145a;stroke:#000;stroke-width:3;stroke-miterlimit:10" points="37.1,64.4 22.9,64.4 14.4,64.4 14.4,73.5 37.1,73.5 		"/><polygon style="fill:#d4145a;stroke:#000;stroke-width:3;stroke-miterlimit:10" points="37.1,64.4 37.1,73.5 65.7,73.5 65.7,64.4 51.4,64.4 		"/><polygon style="fill:#d4145a;stroke:#000;stroke-width:3;stroke-miterlimit:10" points="80,64.4 65.7,64.4 65.7,73.5 85.6,73.5 85.6,64.4 		"/><polygon style="fill:#d4145a;stroke:#000;stroke-width:3;stroke-miterlimit:10" points="51.4,55.4 37.1,55.4 22.9,55.4 22.9,64.4 37.1,64.4 51.4,64.4 		"/><polygon style="fill:#d4145a;stroke:#000;stroke-width:3;stroke-miterlimit:10" points="65.7,55.4 51.4,55.4 51.4,64.4 65.7,64.4 80,64.4 80,55.4 		"/><rect x="80" y="55.4" style="fill:#d4145a;stroke:#000;stroke-width:3;stroke-miterlimit:10" width="5.6" height="9.1"/></g><path style="fill:#a67c52;stroke:#000;stroke-width:3;stroke-linecap:round;stroke-miterlimit:10" d="M87.4,19.4H12.6 c-1.4,0-2.6-1.2-2.6-2.6v0c0-1.4,1.2-2.6,2.6-2.6h74.8c1.4,0,2.6,1.2,2.6,2.6v0C90,18.2,88.8,19.4,87.4,19.4z"/><path style="fill:#a67c52;stroke:#000;stroke-width:3;stroke-linecap:round;stroke-miterlimit:10" d="M14.2,72.5h71.7 c2.3,0,4.2,1.9,4.2,4.2v5c0,2.3-1.9,4.2-4.2,4.2H14.2c-2.3,0-4.2-1.9-4.2-4.2v-5C10,74.4,11.9,72.5,14.2,72.5z"/><path style="stroke:#000;stroke-width:3;stroke-linecap:round;stroke-miterlimit:10" d="M73.1,55.2c0-12.7-10.3-23.1-23.1-23.1 h0c-12.7,0-23.1,10.3-23.1,23.1v16.6h46.1V55.2z"/></g><g><path style="fill:#ff1d25;stroke:#000;stroke-width:3;stroke-linecap:round;stroke-miterlimit:10" d="M66.5,55.1 c-0.3-2.6-1.3-5.1-2.8-7.4c-0.9,3.3-2.9,6-3.6,5.8c-0.8-0.2,0.9-4.9-1.8-9.4c-2.1-3.4-5.5-4.7-7.3-5.5c-0.3-0.1-0.7-0.2-1-0.3 c0,0.1,0,0.1,0,0.2c1.4,2.5,2.1,5.4,1,8c-2.4,5.8-12.1,6.1-15.5,5.4c-0.3,0.3-0.6,0.6-0.8,0.9c-2.7,3.8-1,10.6,2.5,14.6 c4.4,5.1,10.9,5.1,13,5.1c2,0,8.2,0,12.6-4.9C67.2,62.7,66.7,56.6,66.5,55.1z"/><path style="fill:#fcee21;stroke:#000;stroke-width:3;stroke-linecap:round;stroke-miterlimit:10" d="M59.9,62.6 c0.1,0.8,0.3,4.1-2,6.7c-2.4,2.6-5.7,2.6-6.8,2.6c-1.1,0-4.6,0-7-2.7c-1.9-2.2-2.8-5.8-1.3-7.9c1.3-1.9,3.6-1.1,5.9-3.3 c1.5-1.4,2.1-3.1,2.4-4.5C56,54.9,59.5,58.5,59.9,62.6z"/></g><metadata xmlns:d="https://loading.io/stock/"><d:name>fireplace</d:name><d:tags>fireplace, warm, christmas, stovepipe, fire</d:tags><d:license>cc-by</d:license><d:slug>we08tb</d:slug></metadata></g>
  <g id="id-0.3825508830308988-2">
    
<!-- Generator: Adobe Illustrator 21.0.0, SVG Export Plug-In . SVG Version: 6.00 Build 0)  -->







    <g transform=" translate(192,191.9995) scale(0.8888888888888888)"><g class="ld ld-pulse" style="animation-delay:0s"><g data-icon="">  <use xlink:href="#id-0.3825508830308988" x="-50" y="-50"/>
</g></g></g><g transform=" translate(192,63.9995) scale(0.5555555555555556)"><g class="ld ld-pulse" style="animation-delay:-0.125s"><g data-icon="">  <use xlink:href="#id-0.3825508830308988" x="-50" y="-50"/>
</g></g></g><g transform=" translate(64,63.9995) scale(0.8888888888888888)"><g class="ld ld-pulse" style="animation-delay:-0.25s"><g data-icon="">  <use xlink:href="#id-0.3825508830308988" x="-50" y="-50"/>
</g></g></g><g transform=" translate(64,191.9995) scale(0.5555555555555556)"><g class="ld ld-pulse" style="animation-delay:-0.375s"><g data-icon="">  <use xlink:href="#id-0.3825508830308988" x="-50" y="-50"/>
</g></g></g>
  </g>
</defs>
<g>
  <use xlink:href="#id-0.3825508830308988-2" x="0" y="0"/>
  <use xlink:href="#id-0.3825508830308988-2" x="-256" y="0"/>
  <animateTransform attributeName="transform" type="translate" repeatCount="indefinite" dur="4s"
  keyTimes="0;1" values="0;256"/>
</g>
</svg>