<?xml version="1.0" encoding="utf-8"?>
<svg xmlns="http://www.w3.org/2000/svg" xmlns:xlink="http://www.w3.org/1999/xlink" viewBox="0 0 256 256" width="256px" height="256px">
<style type="text/css">@keyframes ld-pulse
{
  0% {
    animation-timing-function: cubic-bezier(0.0413,0.3905,0.5086,0.6902);
    transform: scale(1);
  }
  24.3% {
    animation-timing-function: cubic-bezier(0.2248,0.6332,0.5246,1);
    transform: scale(0.8458);
  }
  55% {
    animation-timing-function: cubic-bezier(0.3036,0.3393,0.655,0.6144);
    transform: scale(0.8022);
  }
  70.2% {
    animation-timing-function: cubic-bezier(0.4464,0.2728,0.5562,0.7288);
    transform: scale(0.8294);
  }
  82.3% {
    animation-timing-function: cubic-bezier(0.6826,0.1845,1,0.7358);
    transform: scale(0.869);
  }
  100% {
    transform: scale(1);
  }
}
.ld.ld-pulse {
  animation: ld-pulse 0.5s infinite;
}</style>
<rect x="0" y="0" width="256" height="256" fill="#eee"/>
<defs>
  <g id="id-0.03530250206120722"><!--Generator: Adobe Illustrator 21.0.0, SVG Export Plug-In . SVG Version: 6.00 Build 0)--><path style="fill:#a0c8d7" d="M50,10c-14.804,0-27.72,8.049-34.637,20.002l15.154,8.749c1.457-2.519,3.388-4.729,5.671-6.509 l5.529,3.315l-0.106-6.429C44.205,28.084,47.033,27.5,50,27.5V10z"/><path style="fill:#849b87" d="M33.371,49.897l-5.633-3.13c0.417-2.884,1.377-5.593,2.779-8.016l-15.154-8.749 C11.958,35.887,10,42.713,10,50s1.958,14.113,5.363,19.998l15.154-8.749c-1.433-2.476-2.409-5.248-2.811-8.204L33.371,49.897z"/><path style="fill:#abbd81" d="M41.509,70.832l0.107-6.537l-5.574,3.341c-2.218-1.759-4.1-3.924-5.526-6.388l-15.154,8.749 C22.28,81.951,35.196,90,50,90V72.5C46.994,72.5,44.13,71.902,41.509,70.832z"/><path style="fill:#f8b26a" d="M69.483,61.249c-1.451,2.507-3.371,4.707-5.64,6.483l-5.635-3.378l0.108,6.546 c-2.573,1.026-5.376,1.6-8.316,1.6V90c14.804,0,27.72-8.049,34.637-20.002L69.483,61.249z"/><path style="fill:#f47e60" d="M84.637,30.002l-15.154,8.749c1.413,2.442,2.379,5.174,2.791,8.084l-5.719,3.178l5.715,3.176 c-0.414,2.901-1.377,5.624-2.787,8.06l15.154,8.749C88.042,64.113,90,57.287,90,50S88.042,35.887,84.637,30.002z"/><path style="fill:#e15b64" d="M50,10v17.5c2.978,0,5.815,0.588,8.415,1.639l-0.106,6.477l5.555-3.33 c2.26,1.773,4.174,3.967,5.62,6.466l15.154-8.749C77.72,18.049,64.804,10,50,10z"/><metadata xmlns:d="https://loading.io/stock/"><d:name>wheel</d:name><d:tags>wheel,ring,cycle,composition,part,circle,infographics</d:tags><d:license>cc-by</d:license><d:slug>fwjc03</d:slug></metadata></g>
  <g id="id-0.03530250206120722-2">
    
<!-- Generator: Adobe Illustrator 21.0.0, SVG Export Plug-In . SVG Version: 6.00 Build 0)  -->





    <g transform=" translate(192,191.9995) scale(0.8888888888888888)"><g class="ld ld-pulse" style="animation-delay:0s"><g data-icon="">  <use href="#id-0.03530250206120722" x="-50" y="-50"/>
</g></g></g><g transform=" translate(64,63.9995) scale(0.8888888888888888)"><g class="ld ld-pulse" style="animation-delay:-0.25s"><g data-icon="">  <use href="#id-0.03530250206120722" x="-50" y="-50"/>
</g></g></g>
  </g>
</defs>
<g>
  <use href="#id-0.03530250206120722-2" x="0" y="0"/>
  <use href="#id-0.03530250206120722-2" x="-256" y="0"/>
  <animateTransform attributeName="transform" type="translate" repeatCount="indefinite" dur="4s"
  keyTimes="0;1" values="0;256"/>
</g>
</svg>