<?xml version="1.0" encoding="utf-8"?>
<svg xmlns="http://www.w3.org/2000/svg" xmlns:xlink="http://www.w3.org/1999/xlink" viewBox="0 0 256 256" width="256px" height="256px">
<style type="text/css">@keyframes ld-pulse
{
  0% {
    animation-timing-function: cubic-bezier(0.0413,0.3905,0.5086,0.6902);
    transform: scale(1);
  }
  24.3% {
    animation-timing-function: cubic-bezier(0.2248,0.6332,0.5246,1);
    transform: scale(0.8458);
  }
  55% {
    animation-timing-function: cubic-bezier(0.3036,0.3393,0.655,0.6144);
    transform: scale(0.8022);
  }
  70.2% {
    animation-timing-function: cubic-bezier(0.4464,0.2728,0.5562,0.7288);
    transform: scale(0.8294);
  }
  82.3% {
    animation-timing-function: cubic-bezier(0.6826,0.1845,1,0.7358);
    transform: scale(0.869);
  }
  100% {
    transform: scale(1);
  }
}
.ld.ld-pulse {
  animation: ld-pulse 0.5s infinite;
}</style>
<rect x="0" y="0" width="256" height="256" fill="#eee"/>
<defs>
  <g id="id-0.3874651249766281"><!--Generator: Adobe Illustrator 21.0.0, SVG Export Plug-In . SVG Version: 6.00 Build 0)--><path style="fill:#f5e169" d="M20.788,71.53l9.562-14.035c0.548-0.734,0.163-1.995-0.609-1.995l-12.398,0.001 c-0.881,0-1.684,0.681-2.066,1.752L6.064,78.968c-0.148,0.394,0.062,0.861,0.39,0.864l14.331,0l-3.169,8.047 c-0.257,0.596-0.158,1.355,0.235,1.795h0c0.393,0.44,0.964,0.433,1.351-0.018L33.83,72.604c0.31-0.362,0.119-1.05-0.292-1.045 L20.788,71.53z"/><path style="fill:#f8b26a" d="M51.827,47.172l22.172-32.545C75.269,12.925,74.377,10,72.587,10l-28.75,0.002 c-2.042,0-3.904,1.579-4.791,4.062l-21.36,50.354c-0.343,0.914,0.145,1.996,0.904,2.004l33.231,0l-7.349,18.66 c-0.596,1.381-0.366,3.142,0.545,4.163h0c0.911,1.021,2.236,1.004,3.132-0.041L82.07,49.661c0.72-0.839,0.275-2.434-0.676-2.424 L51.827,47.172z"/><path style="fill:#f5e169" d="M80.788,71.53l9.562-14.035c0.548-0.734,0.163-1.995-0.609-1.995l-12.398,0.001 c-0.881,0-1.684,0.681-2.066,1.752l-9.212,21.715c-0.148,0.394,0.062,0.861,0.39,0.864l14.331,0l-3.169,8.047 c-0.257,0.596-0.158,1.355,0.235,1.795l0,0c0.393,0.44,0.964,0.433,1.351-0.018L93.83,72.604c0.31-0.362,0.119-1.05-0.292-1.045 L80.788,71.53z"/><metadata xmlns:d="https://loading.io/stock/"><d:name>thunder</d:name><d:tags>thunder,lightning,electronic,electricity,power,energy,supply,plant,percent,ratio,charge</d:tags><d:license>cc-by</d:license><d:slug>q6ugg9</d:slug></metadata></g>
  <g id="id-0.3874651249766281-2">
    
<!-- Generator: Adobe Illustrator 21.0.0, SVG Export Plug-In . SVG Version: 6.00 Build 0)  -->






<ellipse transform="matrix(0.7249 -0.6888 0.6888 0.7249 -96.2592 93.9447)" fill="#B3B4B4" cx="69.5" cy="167.5" rx="5.5" ry="5.5"/>
<ellipse transform="matrix(0.7249 -0.6888 0.6888 0.7249 15.9378 184.9119)" fill="#B3B4B4" cx="239.5" cy="72.5" rx="5.5" ry="5.5"/>
<g>
	
		<line fill="none" stroke="#B3B4B5" stroke-width="6.3333" stroke-linecap="round" stroke-linejoin="round" stroke-miterlimit="10" x1="192" y1="125.5" x2="211" y2="125.5"/>
	
		<line fill="none" stroke="#B3B4B5" stroke-width="6.3333" stroke-linecap="round" stroke-linejoin="round" stroke-miterlimit="10" x1="201.5" y1="135" x2="201.5" y2="116"/>
</g>
<g>
	
		<line fill="none" stroke="#B3B4B5" stroke-width="4" stroke-linecap="round" stroke-linejoin="round" stroke-miterlimit="10" x1="186" y1="244" x2="198" y2="244"/>
	
		<line fill="none" stroke="#B3B4B5" stroke-width="4" stroke-linecap="round" stroke-linejoin="round" stroke-miterlimit="10" x1="192" y1="250" x2="192" y2="238"/>
</g>
<g>
	
		<line fill="none" stroke="#B3B4B5" stroke-width="7.3333" stroke-linecap="round" stroke-linejoin="round" stroke-miterlimit="10" x1="9.5" y1="46.5" x2="31.5" y2="46.5"/>
	
		<line fill="none" stroke="#B3B4B5" stroke-width="7.3333" stroke-linecap="round" stroke-linejoin="round" stroke-miterlimit="10" x1="20.5" y1="57.5" x2="20.5" y2="35.5"/>
</g>
<ellipse transform="matrix(0.4903 -0.8715 0.8715 0.4903 7.2038 156.6452)" fill="#B3B4B4" cx="137.531" cy="72.163" rx="6.525" ry="6.525"/>
<ellipse transform="matrix(0.7249 -0.6888 0.6888 0.7249 -109.6566 158.3945)" fill="#B3B4B4" cx="143.5" cy="216.5" rx="5.5" ry="5.5"/>
<ellipse transform="matrix(0.7249 -0.6888 0.6888 0.7249 0.2332 72.5839)" fill="#B3B4B4" cx="91" cy="36" rx="4" ry="4"/>
<ellipse transform="matrix(0.7249 -0.6888 0.6888 0.7249 -34.1432 212.4976)" fill="#B3B4B4" cx="249" cy="149" rx="4" ry="4"/>
<ellipse transform="matrix(0.7249 -0.6888 0.6888 0.7249 -163.3891 70.8358)" fill="#B3B4B4" cx="7" cy="240" rx="4" ry="4"/>


    <g transform="matrix(0.9912 0.1325 -0.1325 0.9912 19.5946 -16.4002) translate(133,138.9995) scale(0.6222222222222222)"><g class="ld ld-pulse" style="animation-delay:0s"><g data-icon="">  <use href="#id-0.3874651249766281" x="-50" y="-50"/>
</g></g></g><g transform="matrix(0.8102 -0.5862 0.5862 0.8102 21.907 110.1873) translate(181.074,21.271) scale(0.3916444444444444)"><g class="ld ld-pulse" style="animation-delay:-0.1s"><g data-icon="">  <use href="#id-0.3874651249766281" x="-50" y="-50"/>
</g></g></g><g transform="matrix(0.7153 0.6988 -0.6988 0.7153 199.1367 -101.9661) translate(224.712,193.41799999999998) scale(0.3647555555555556)"><g class="ld ld-pulse" style="animation-delay:-0.2s"><g data-icon="">  <use href="#id-0.3874651249766281" x="-50" y="-50"/>
</g></g></g><g transform="matrix(0.7812 0.6242 -0.6242 0.7812 76.8196 -5.7423) translate(46.602000000000004,106.7265) scale(0.3879111111111111)"><g class="ld ld-pulse" style="animation-delay:-0.3s"><g data-icon="">  <use href="#id-0.3874651249766281" x="-50" y="-50"/>
</g></g></g><g transform="matrix(0.7381 -0.6747 0.6747 0.7381 -136.8065 106.8361) translate(69.2025,229.6265) scale(0.5011777777777778)"><g class="ld ld-pulse" style="animation-delay:-0.4s"><g data-icon="">  <use href="#id-0.3874651249766281" x="-50" y="-50"/>
</g></g></g>
  </g>
</defs>
<g>
  <use href="#id-0.3874651249766281-2" x="0" y="0"/>
  <use href="#id-0.3874651249766281-2" x="-256" y="0"/>
  <animateTransform attributeName="transform" type="translate" repeatCount="indefinite" dur="4s"
  keyTimes="0;1" values="0;256"/>
</g>
</svg>