<?xml version="1.0" encoding="utf-8"?>
<svg xmlns="http://www.w3.org/2000/svg" xmlns:xlink="http://www.w3.org/1999/xlink" viewBox="0 0 256 256" width="256px" height="256px">
<style type="text/css">@keyframes ld-pulse
{
  0% {
    animation-timing-function: cubic-bezier(0.0413,0.3905,0.5086,0.6902);
    transform: scale(1);
  }
  24.3% {
    animation-timing-function: cubic-bezier(0.2248,0.6332,0.5246,1);
    transform: scale(0.8458);
  }
  55% {
    animation-timing-function: cubic-bezier(0.3036,0.3393,0.655,0.6144);
    transform: scale(0.8022);
  }
  70.2% {
    animation-timing-function: cubic-bezier(0.4464,0.2728,0.5562,0.7288);
    transform: scale(0.8294);
  }
  82.3% {
    animation-timing-function: cubic-bezier(0.6826,0.1845,1,0.7358);
    transform: scale(0.869);
  }
  100% {
    transform: scale(1);
  }
}
.ld.ld-pulse {
  animation: ld-pulse 0.5s infinite;
}</style>
<rect x="0" y="0" width="256" height="256" fill="#eee"/>
<defs>
  <g id="id-0.9540905679517582"><!--Generator: Adobe Illustrator 21.0.0, SVG Export Plug-In . SVG Version: 6.00 Build 0)--><path style="fill:#77a4bd" d="M49,26.37L49,26.37c-3.039,0.125-5.966,0.84-8.676,2.057C43.034,27.211,45.961,26.496,49,26.37z"/><path style="fill:#a0c8d7" d="M35.708,13.701c0.703-0.277,1.414-0.533,2.133-0.768C37.122,13.168,36.411,13.424,35.708,13.701z"/><path style="fill:#c33737" d="M33.998,32.584c1.894-1.743,4.033-3.127,6.326-4.157C38.031,29.457,35.892,30.841,33.998,32.584 L33.998,32.584z"/><path style="fill:#c33737" d="M28.783,17.261c2.189-1.425,4.51-2.61,6.925-3.56C33.293,14.651,30.972,15.836,28.783,17.261z"/><rect x="49" y="21.527" transform="matrix(0.8944 -0.4472 0.4472 0.8944 -5.537 24.4418)" style="fill:#c33737" width="0" height="4.843"/><path style="fill:#c33737" d="M37.841,12.933c1.314-0.43,2.651-0.798,4.011-1.085C40.492,12.135,39.156,12.503,37.841,12.933z"/><path style="fill:#77a4bd" d="M49,15.896v-4.884c-1.821,0.046-3.62,0.215-5.389,0.505c-0.59,0.097-1.176,0.207-1.758,0.33 c-1.36,0.288-2.697,0.656-4.011,1.085c-0.719,0.235-1.43,0.491-2.133,0.768c-2.415,0.95-4.736,2.135-6.925,3.56 c-0.499,0.325-0.991,0.662-1.476,1.01c-1.456,1.046-2.848,2.199-4.168,3.454l2.74,2.74l7.69-2.387l-2.298,7.778l2.728,2.728 c1.894-1.743,4.033-3.127,6.326-4.157c2.709-1.217,5.637-1.932,8.676-2.057v-4.843l0,0l6-2.861L49,15.896z"/><path style="fill:#a0c8d7" d="M32.584,33.998L32.584,33.998c-2.06,2.237-3.625,4.813-4.68,7.589 C28.96,38.812,30.524,36.236,32.584,33.998z"/><path style="fill:#a0c8d7" d="M25.178,26.592l-3.453-3.453c-1.255,1.32-2.408,2.712-3.454,4.168 c-0.349,0.485-0.685,0.978-1.01,1.476c-0.758,1.165-1.443,2.371-2.069,3.604c-0.342,0.675-0.664,1.358-0.965,2.051 c-1.036,2.38-1.839,4.859-2.379,7.414c-0.123,0.582-0.233,1.169-0.33,1.758c-0.29,1.769-0.459,3.569-0.505,5.389l3.874,0l3.75-7.125 L22.512,49l3.858,0c0.106-2.572,0.64-5.063,1.534-7.412c1.056-2.776,2.62-5.352,4.68-7.59l-3.425-3.425l0,0l2.219-6.266 L25.178,26.592z"/><path style="fill:#849b87" d="M26.37,51L26.37,51c0.125,3.039,0.84,5.966,2.057,8.676C27.211,56.966,26.496,54.039,26.37,51z"/><path style="fill:#849b87" d="M15.896,51h-4.884c0.046,1.821,0.215,3.62,0.505,5.389c0.097,0.59,0.207,1.176,0.33,1.758 c0.288,1.36,0.656,2.697,1.085,4.011c0.235,0.719,0.491,1.43,0.768,2.133c0.95,2.415,2.135,4.736,3.56,6.925 c0.325,0.499,0.662,0.991,1.01,1.476c1.046,1.456,2.199,2.848,3.454,4.168l2.74-2.74l-2.387-7.69l7.778,2.298l2.728-2.728 c-1.743-1.894-3.127-4.033-4.157-6.326c-1.217-2.709-1.932-5.637-2.057-8.676h-4.843l0,0l-2.861-6L15.896,51z"/><path style="fill:#a0c8d7" d="M33.998,67.416L33.998,67.416c2.237,2.06,4.813,3.625,7.589,4.68 C38.812,71.04,36.236,69.476,33.998,67.416z"/><path style="fill:#abbd81" d="M26.592,74.822l-3.453,3.453c1.32,1.255,2.712,2.408,4.168,3.454c0.485,0.349,0.978,0.685,1.476,1.01 c1.165,0.758,2.371,1.443,3.604,2.069c0.675,0.342,1.358,0.664,2.051,0.965c2.38,1.036,4.859,1.839,7.414,2.379 c0.582,0.123,1.169,0.233,1.758,0.33c1.769,0.29,3.569,0.459,5.389,0.505l0-3.874l-7.125-3.75L49,77.488l0-3.858 c-2.572-0.106-5.063-0.64-7.412-1.534c-2.776-1.056-5.352-2.62-7.59-4.68l-3.425,3.425l0,0l-6.266-2.219L26.592,74.822z"/><path style="fill:#a0c8d7" d="M51,73.63L51,73.63c3.039-0.125,5.966-0.84,8.676-2.057C56.966,72.789,54.039,73.504,51,73.63z"/><path style="fill:#f8b26a" d="M51,84.104v4.884c1.821-0.046,3.62-0.215,5.389-0.505c0.59-0.097,1.176-0.207,1.758-0.33 c1.36-0.288,2.697-0.656,4.011-1.085c0.719-0.235,1.43-0.491,2.133-0.768c2.415-0.95,4.736-2.135,6.925-3.56 c0.499-0.325,0.991-0.662,1.476-1.01c1.456-1.046,2.848-2.199,4.168-3.454l-2.74-2.74l-7.69,2.387l2.298-7.778l-2.728-2.728 c-1.894,1.743-4.033,3.127-6.326,4.157c-2.709,1.217-5.637,1.932-8.676,2.057v4.843l0,0l-6,2.861L51,84.104z"/><path style="fill:#a0c8d7" d="M67.416,66.002L67.416,66.002c2.06-2.237,3.625-4.813,4.68-7.589 C71.04,61.188,69.476,63.764,67.416,66.002z"/><path style="fill:#f47e60" d="M74.822,73.408l3.453,3.453c1.255-1.32,2.408-2.712,3.454-4.168c0.349-0.485,0.685-0.978,1.01-1.476 c0.758-1.165,1.443-2.371,2.069-3.604c0.342-0.675,0.664-1.358,0.965-2.051c1.036-2.38,1.839-4.859,2.379-7.414 c0.123-0.582,0.233-1.169,0.33-1.758c0.29-1.769,0.459-3.569,0.505-5.389l-3.874,0l-3.75,7.125L77.488,51l-3.858,0 c-0.106,2.572-0.64,5.063-1.534,7.412c-1.056,2.776-2.62,5.352-4.68,7.59l3.425,3.425l0,0l-2.219,6.266L74.822,73.408z"/><path style="fill:#a0c8d7" d="M73.63,49L73.63,49c-0.125-3.039-0.84-5.966-2.057-8.676C72.789,43.034,73.504,45.961,73.63,49z"/><path style="fill:#e15b64" d="M84.104,49h4.884c-0.046-1.821-0.215-3.62-0.505-5.389c-0.097-0.59-0.207-1.176-0.33-1.758 c-0.288-1.36-0.656-2.697-1.085-4.011c-0.235-0.719-0.491-1.43-0.768-2.133c-0.95-2.415-2.135-4.736-3.56-6.925 c-0.325-0.499-0.662-0.991-1.01-1.476c-1.046-1.456-2.199-2.848-3.454-4.168l-2.74,2.74l2.387,7.69l-7.778-2.298l-2.728,2.728 c1.743,1.894,3.127,4.033,4.157,6.326c1.217,2.709,1.932,5.637,2.057,8.676h4.843l0,0l2.861,6L84.104,49z"/><path style="fill:#a0c8d7" d="M66.002,32.584L66.002,32.584c-2.237-2.06-4.813-3.625-7.589-4.68 C61.188,28.96,63.764,30.524,66.002,32.584z"/><path style="fill:#c33737" d="M73.408,25.178l3.453-3.453c-1.32-1.255-2.712-2.408-4.168-3.454 c-0.485-0.349-0.978-0.685-1.476-1.01c-1.165-0.758-2.371-1.443-3.604-2.069c-0.675-0.342-1.358-0.664-2.051-0.965 c-2.38-1.036-4.859-1.839-7.414-2.379c-0.582-0.123-1.169-0.233-1.758-0.33c-1.769-0.29-3.569-0.459-5.389-0.505l0,3.874l7.125,3.75 L51,22.512l0,3.858c2.572,0.106,5.063,0.64,7.412,1.534c2.776,1.056,5.352,2.62,7.59,4.68l3.425-3.425l0,0l6.266,2.219 L73.408,25.178z"/><metadata xmlns:d="https://loading.io/stock/"><d:name>ball</d:name><d:tags>ball,step,group,layer,cluster,ring,infographics</d:tags><d:license>cc-by</d:license><d:slug>ixt933</d:slug></metadata></g>
  <g id="id-0.9540905679517582-2">
    
<!-- Generator: Adobe Illustrator 21.0.0, SVG Export Plug-In . SVG Version: 6.00 Build 0)  -->






<polygon fill="#B3B4B4" points="98,100 70.606,96.559 71.699,89.53 97,93.464 "/>
<path fill="#B3B4B4" d="M38.106,227.244c-0.062,0-0.124,0-0.187-0.001c-3.679-0.049-7.118-1.527-9.685-4.162
	c-5.299-5.44-5.184-14.177,0.257-19.476c2.635-2.567,6.105-3.946,9.791-3.905c3.679,0.049,7.118,1.527,9.685,4.162
	c5.299,5.44,5.184,14.177-0.257,19.476C45.119,225.861,41.715,227.244,38.106,227.244z M38.098,205.999
	c-1.958,0-3.805,0.75-5.211,2.119c-2.952,2.875-3.014,7.615-0.139,10.567c1.393,1.43,3.259,2.232,5.254,2.258
	c2.012,0.018,3.882-0.726,5.312-2.119c2.952-2.875,3.014-7.615,0.139-10.566l0,0c-1.393-1.43-3.259-2.232-5.254-2.258
	C38.165,205.999,38.131,205.999,38.098,205.999z"/>
<ellipse transform="matrix(0.7249 -0.6888 0.6888 0.7249 31.7828 174.5914)" fill="#B3B4B4" cx="234.5" cy="47.5" rx="5.5" ry="5.5"/>
<path fill="#B3B4B4" d="M156.241,162.307l-2.142-6.316c4.911-1.666,7.552-7.017,5.886-11.929c-0.807-2.379-2.492-4.302-4.745-5.414
	c-2.254-1.112-4.805-1.28-7.183-0.473l-2.143-6.316c4.067-1.379,8.427-1.092,12.277,0.808c3.851,1.9,6.731,5.186,8.11,9.253
	C169.148,150.314,164.635,159.46,156.241,162.307z"/>
<ellipse transform="matrix(0.7249 -0.6888 0.6888 0.7249 -74.7837 111.7244)" fill="#B3B4B4" cx="102.5" cy="149.5" rx="5.5" ry="5.5"/>
<polygon fill="#B3B4B4" points="228.814,250.299 248.288,233.674 255.528,237.31 233.433,255.709 "/>
<polygon fill="#B3B4B4" points="117.258,19.675 103,46 98.348,38.347 111.088,16.136 "/>
<path fill="#B3B4B4" d="M222.105,133c-0.055,0-0.109,0-0.165-0.001c-3.245-0.043-6.28-1.347-8.544-3.672
	c-4.675-4.8-4.573-12.507,0.226-17.182c2.325-2.265,5.386-3.481,8.638-3.445c3.245,0.043,6.28,1.347,8.544,3.672
	c4.674,4.799,4.573,12.507-0.226,17.182C228.293,131.78,225.289,133,222.105,133z M222.098,114.257c-1.728,0-3.357,0.662-4.597,1.87
	c-2.604,2.536-2.659,6.718-0.123,9.322c1.229,1.261,2.875,1.969,4.636,1.992c1.775,0.016,3.425-0.641,4.686-1.869
	c2.604-2.536,2.659-6.718,0.123-9.322l0,0c-1.229-1.261-2.875-1.969-4.636-1.992C222.157,114.257,222.128,114.257,222.098,114.257z"
	/>
<path fill="#B3B4B4" d="M186.97,10.317l-5.018,1.322c-1.028-3.902-5.04-6.241-8.942-5.213c-1.89,0.498-3.474,1.702-4.458,3.391
	c-0.985,1.689-1.253,3.661-0.754,5.55l-5.018,1.322c-0.851-3.232-0.393-6.6,1.289-9.486c1.683-2.886,4.389-4.945,7.62-5.796
	C178.357-0.349,185.213,3.648,186.97,10.317z"/>


    <g transform="matrix(0.9912 0.1325 -0.1325 0.9912 30.542 -14.083) translate(121.067,222.398) scale(0.6786666666666666)"><g class="ld ld-pulse" style="animation-delay:0s"><g data-icon="">  <use href="#id-0.9540905679517582" x="-50" y="-50"/>
</g></g></g><g transform="matrix(-0.0456 0.999 -0.999 -0.0456 243.7065 -82.5047) translate(161.268,75.17099999999999) scale(0.47706666666666664)"><g class="ld ld-pulse" style="animation-delay:-0.1s"><g data-icon="">  <use href="#id-0.9540905679517582" x="-50" y="-50"/>
</g></g></g><g transform="matrix(0.5905 -0.8071 0.8071 0.5905 -67.6584 252.8308) translate(215.293,193.0815) scale(0.5214666666666667)"><g class="ld ld-pulse" style="animation-delay:-0.2s"><g data-icon="">  <use href="#id-0.9540905679517582" x="-50" y="-50"/>
</g></g></g><g transform="matrix(-0.4749 -0.8801 0.8801 -0.4749 38.8277 99.7848) translate(49.185,38.308499999999995) scale(0.5980444444444444)"><g class="ld ld-pulse" style="animation-delay:-0.3s"><g data-icon="">  <use href="#id-0.9540905679517582" x="-50" y="-50"/>
</g></g></g><g transform="matrix(0.7381 -0.6747 0.6747 0.7381 -85.9069 63.1885) translate(38.434,142.243) scale(0.607688888888889)"><g class="ld ld-pulse" style="animation-delay:-0.4s"><g data-icon="">  <use href="#id-0.9540905679517582" x="-50" y="-50"/>
</g></g></g>
  </g>
</defs>
<g>
  <use href="#id-0.9540905679517582-2" x="0" y="0"/>
  <use href="#id-0.9540905679517582-2" x="-256" y="0"/>
  <animateTransform attributeName="transform" type="translate" repeatCount="indefinite" dur="4s"
  keyTimes="0;1" values="0;256"/>
</g>
</svg>