<?xml version="1.0" encoding="utf-8"?>
<svg xmlns="http://www.w3.org/2000/svg" xmlns:xlink="http://www.w3.org/1999/xlink" viewBox="0 0 256 256" width="256px" height="256px">
<style type="text/css">@keyframes ld-pulse
{
  0% {
    animation-timing-function: cubic-bezier(0.0413,0.3905,0.5086,0.6902);
    transform: scale(1);
  }
  24.3% {
    animation-timing-function: cubic-bezier(0.2248,0.6332,0.5246,1);
    transform: scale(0.8458);
  }
  55% {
    animation-timing-function: cubic-bezier(0.3036,0.3393,0.655,0.6144);
    transform: scale(0.8022);
  }
  70.2% {
    animation-timing-function: cubic-bezier(0.4464,0.2728,0.5562,0.7288);
    transform: scale(0.8294);
  }
  82.3% {
    animation-timing-function: cubic-bezier(0.6826,0.1845,1,0.7358);
    transform: scale(0.869);
  }
  100% {
    transform: scale(1);
  }
}
.ld.ld-pulse {
  animation: ld-pulse 0.5s infinite;
}</style>
<rect x="0" y="0" width="256" height="256" fill="#eee"/>
<defs>
  <g id="id-0.46143000950540713"><!--Generator: Adobe Illustrator 21.0.0, SVG Export Plug-In . SVG Version: 6.00 Build 0)--><path style="fill:none" d="M61.583,38.858V50h3.195v-1.992C64.779,44.552,63.578,41.377,61.583,38.858z"/><path style="fill:none" d="M35.221,48.008V50h3.195V38.858C36.422,41.377,35.221,44.552,35.221,48.008z"/><path style="fill:#e0e0e0" d="M35.221,48.008c0-3.455,1.201-6.63,3.195-9.15V50h23.167V38.858c1.994,2.519,3.195,5.695,3.195,9.15 V50h7.971v-1.992c0-10.971-7.806-20.152-18.156-22.283c3.708-1.733,6.283-5.485,6.283-9.848C60.876,9.87,56.007,5,50,5 S39.124,9.87,39.124,15.876c0,4.363,2.575,8.116,6.283,9.848c-10.35,2.13-18.156,11.312-18.156,22.283V50h7.971V48.008z"/><g><path style="fill:#849b87" d="M64.779,54.649c0,2.201,1.784,3.985,3.985,3.985c2.201,0,3.985-1.784,3.985-3.985V50h-7.971V54.649z "/><path style="fill:#849b87" d="M31.236,58.635c2.201,0,3.985-1.784,3.985-3.985V50h-7.971v4.649 C27.251,56.85,29.035,58.635,31.236,58.635z"/><path style="fill:#849b87" d="M38.417,65.833h0.043V90.06c0,2.728,2.212,4.94,4.94,4.94h0c2.728,0,4.94-2.212,4.94-4.94V65.833 h3.321V90.06c0,2.728,2.212,4.94,4.94,4.94h0c2.728,0,4.94-2.212,4.94-4.94V65.833h0.043V50H38.417V65.833z"/></g><metadata xmlns:d="https://loading.io/stock/"><d:name>man</d:name><d:tags>man,people,character,person,figure,idol,doll,percent,ratio</d:tags><d:license>cc-by</d:license><d:slug>c85302</d:slug></metadata></g>
  <g id="id-0.46143000950540713-2">
    
<!-- Generator: Adobe Illustrator 21.0.0, SVG Export Plug-In . SVG Version: 6.00 Build 0)  -->







    <g transform=" translate(192,191.9995) scale(0.8888888888888888)"><g class="ld ld-pulse" style="animation-delay:0s"><g data-icon="">  <use xlink:href="#id-0.46143000950540713" x="-50" y="-50"/>
</g></g></g><g transform=" translate(192,63.9995) scale(0.5555555555555556)"><g class="ld ld-pulse" style="animation-delay:-0.125s"><g data-icon="">  <use xlink:href="#id-0.46143000950540713" x="-50" y="-50"/>
</g></g></g><g transform=" translate(64,63.9995) scale(0.8888888888888888)"><g class="ld ld-pulse" style="animation-delay:-0.25s"><g data-icon="">  <use xlink:href="#id-0.46143000950540713" x="-50" y="-50"/>
</g></g></g><g transform=" translate(64,191.9995) scale(0.5555555555555556)"><g class="ld ld-pulse" style="animation-delay:-0.375s"><g data-icon="">  <use xlink:href="#id-0.46143000950540713" x="-50" y="-50"/>
</g></g></g>
  </g>
</defs>
<g>
  <use xlink:href="#id-0.46143000950540713-2" x="0" y="0"/>
  <use xlink:href="#id-0.46143000950540713-2" x="-256" y="0"/>
  <animateTransform attributeName="transform" type="translate" repeatCount="indefinite" dur="4s"
  keyTimes="0;1" values="0;256"/>
</g>
</svg>