<?xml version="1.0" encoding="utf-8"?>
<svg xmlns="http://www.w3.org/2000/svg" xmlns:xlink="http://www.w3.org/1999/xlink" viewBox="0 0 256 256" width="256px" height="256px">
<style type="text/css">@keyframes ld-pulse
{
  0% {
    animation-timing-function: cubic-bezier(0.0413,0.3905,0.5086,0.6902);
    transform: scale(1);
  }
  24.3% {
    animation-timing-function: cubic-bezier(0.2248,0.6332,0.5246,1);
    transform: scale(0.8458);
  }
  55% {
    animation-timing-function: cubic-bezier(0.3036,0.3393,0.655,0.6144);
    transform: scale(0.8022);
  }
  70.2% {
    animation-timing-function: cubic-bezier(0.4464,0.2728,0.5562,0.7288);
    transform: scale(0.8294);
  }
  82.3% {
    animation-timing-function: cubic-bezier(0.6826,0.1845,1,0.7358);
    transform: scale(0.869);
  }
  100% {
    transform: scale(1);
  }
}
.ld.ld-pulse {
  animation: ld-pulse 0.5s infinite;
}</style>
<rect x="0" y="0" width="256" height="256" fill="#eee"/>
<defs>
  <g id="id-0.2602800893225312"><!--Generator: Adobe Illustrator 21.0.0, SVG Export Plug-In . SVG Version: 6.00 Build 0)--><path style="fill:#e0e0e0" d="M50,25.333c-15.976,0-30.012,8.269-38.084,20.756c-1.535,2.375-1.535,5.445,0,7.821 C19.988,66.397,34.024,74.667,50,74.667s30.012-8.269,38.084-20.756c1.535-2.375,1.535-5.445,0-7.821 C80.012,33.603,65.976,25.333,50,25.333z"/><g><path style="fill:#77a4bd" d="M50,30c-1.725,0-3.389,0.241-4.986,0.652c2.026,1.612,3.329,4.094,3.329,6.884 c0,4.859-3.939,8.797-8.797,8.797c-3.342,0-6.249-1.864-7.738-4.609C30.658,44.248,30,47.045,30,50c0,11.046,8.954,20,20,20 s20-8.954,20-20C70,38.954,61.046,30,50,30z"/><path style="fill:#333" d="M50,36.5c-0.579,0-1.145,0.049-1.704,0.119c0.031,0.301,0.048,0.607,0.048,0.917 c0,4.859-3.939,8.797-8.797,8.797c-0.847,0-1.664-0.126-2.439-0.35C36.713,47.252,36.5,48.601,36.5,50 c0,7.456,6.044,13.5,13.5,13.5S63.5,57.456,63.5,50C63.5,42.544,57.456,36.5,50,36.5z"/></g><path style="fill:#e15b64" d="M50,25.333c-15.976,0-30.012,8.269-38.084,20.756c-0.768,1.188-1.152,2.549-1.152,3.91h78.471 c0-1.361-0.384-2.723-1.152-3.91C80.012,33.603,65.976,25.333,50,25.333z"/><metadata xmlns:d="https://loading.io/stock/"><d:name>eye</d:name><d:tags>eye,privacy,see,view,look,publish,open,pupil</d:tags><d:license>cc-by</d:license><d:slug>v87bxe</d:slug></metadata></g>
  <g id="id-0.2602800893225312-2">
    
<!-- Generator: Adobe Illustrator 21.0.0, SVG Export Plug-In . SVG Version: 6.00 Build 0)  -->







    <g transform=" translate(192,191.9995) scale(0.8888888888888888)"><g class="ld ld-pulse" style="animation-delay:0s"><g data-icon="">  <use href="#id-0.2602800893225312" x="-50" y="-50"/>
</g></g></g><g transform=" translate(192,63.9995) scale(0.5555555555555556)"><g class="ld ld-pulse" style="animation-delay:-0.125s"><g data-icon="">  <use href="#id-0.2602800893225312" x="-50" y="-50"/>
</g></g></g><g transform=" translate(64,63.9995) scale(0.8888888888888888)"><g class="ld ld-pulse" style="animation-delay:-0.25s"><g data-icon="">  <use href="#id-0.2602800893225312" x="-50" y="-50"/>
</g></g></g><g transform=" translate(64,191.9995) scale(0.5555555555555556)"><g class="ld ld-pulse" style="animation-delay:-0.375s"><g data-icon="">  <use href="#id-0.2602800893225312" x="-50" y="-50"/>
</g></g></g>
  </g>
</defs>
<g>
  <use href="#id-0.2602800893225312-2" x="0" y="0"/>
  <use href="#id-0.2602800893225312-2" x="-256" y="0"/>
  <animateTransform attributeName="transform" type="translate" repeatCount="indefinite" dur="4s"
  keyTimes="0;1" values="0;256"/>
</g>
</svg>