<?xml version="1.0" encoding="utf-8"?>
<svg xmlns="http://www.w3.org/2000/svg" xmlns:xlink="http://www.w3.org/1999/xlink" viewBox="0 0 256 256" width="256px" height="256px">
<style type="text/css">@keyframes ld-pulse
{
  0% {
    animation-timing-function: cubic-bezier(0.0413,0.3905,0.5086,0.6902);
    transform: scale(1);
  }
  24.3% {
    animation-timing-function: cubic-bezier(0.2248,0.6332,0.5246,1);
    transform: scale(0.8458);
  }
  55% {
    animation-timing-function: cubic-bezier(0.3036,0.3393,0.655,0.6144);
    transform: scale(0.8022);
  }
  70.2% {
    animation-timing-function: cubic-bezier(0.4464,0.2728,0.5562,0.7288);
    transform: scale(0.8294);
  }
  82.3% {
    animation-timing-function: cubic-bezier(0.6826,0.1845,1,0.7358);
    transform: scale(0.869);
  }
  100% {
    transform: scale(1);
  }
}
.ld.ld-pulse {
  animation: ld-pulse 0.5s infinite;
}</style>
<rect x="0" y="0" width="256" height="256" fill="#eee"/>
<defs>
  <g id="id-0.9040806312384859"><!--Generator: Adobe Illustrator 21.0.0, SVG Export Plug-In . SVG Version: 6.00 Build 0)--><g><g><line style="fill:none;stroke:#000;stroke-width:3;stroke-linecap:round;stroke-miterlimit:10" x1="29.7" y1="53.6" x2="12.2" y2="37.6"/><line style="fill:none;stroke:#000;stroke-width:3;stroke-linecap:round;stroke-miterlimit:10" x1="12.1" y1="52" x2="21.5" y2="46.3"/></g><circle style="fill:#f2f2f2;stroke:#000;stroke-width:3;stroke-linecap:round;stroke-miterlimit:10" cx="46.8" cy="68.9" r="23.8"/><ellipse transform="matrix(0.998 -6.353559e-02 6.353559e-02 0.998 -2.3872 2.9834)" style="fill:#f2f2f2;stroke:#000;stroke-width:3;stroke-linecap:round;stroke-miterlimit:10" cx="45.7" cy="39" rx="13.8" ry="13.8"/><g><line style="fill:none;stroke:#000;stroke-width:3;stroke-linecap:round;stroke-miterlimit:10" x1="61.8" y1="56.1" x2="84.9" y2="39"/><line style="fill:none;stroke:#000;stroke-width:3;stroke-linecap:round;stroke-miterlimit:10" x1="87.9" y1="49.5" x2="72.5" y2="48.2"/></g><g><path style="fill:red;stroke:#000;stroke-width:3;stroke-miterlimit:10" d="M72.4,14.9c-3.8,2.9-6.2,7.3-6.6,12.1 c-0.3,3.7-1.1,5-2,5.2c-6.3,1.7-15-2.5-23.1-7.9c-0.6-0.4-1.5-1.1-1.8-2.2c-0.2-0.8-0.1-1.6,0.7-3.5c0.4-1,1.3-3.2,2.4-4.6 c2.9-3.8,9.5-5,11.6-5.3c9.7-1.5,19-0.2,25.1,1.1C77.4,11.1,77.1,11.4,72.4,14.9z"/></g><path style="fill:#fff;stroke:#000;stroke-width:3;stroke-miterlimit:10" d="M64.1,37.2L34,27.1c-2-0.7-3.1-2.9-2.5-5 l0.1-0.3c0.7-2,2.9-3.1,5-2.5l30,10.1c2,0.7,3.1,2.9,2.5,5L69,34.8C68.3,36.8,66.1,37.9,64.1,37.2z"/><ellipse transform="matrix(0.3192 -0.9477 0.9477 0.3192 41.985 79.5104)" style="fill:#fff;stroke:#000;stroke-width:3;stroke-miterlimit:10" cx="76.3" cy="10.5" rx="3.2" ry="3.2"/><circle style="stroke:#000;stroke-width:3;stroke-miterlimit:10" cx="39.9" cy="37.6" r="1"/><circle style="stroke:#000;stroke-width:3;stroke-miterlimit:10" cx="49.4" cy="39.7" r="1"/><path style="fill:#ed1c24;stroke:#000;stroke-width:3;stroke-miterlimit:10" d="M35.2,50.9c1.8-2.6,3.5-5.2,5.3-7.8 c0.5-0.7,1.5-0.8,2-0.1c1.1,1.6,2.2,3.3,3.4,4.9c0.4,0.6,0.1,1.5-0.7,1.8l-8.7,2.9C35.5,52.9,34.6,51.8,35.2,50.9z"/><circle style="fill:#8cc63f;stroke:#000;stroke-width:3;stroke-linecap:round;stroke-miterlimit:10" cx="45.7" cy="63.5" r="2.7"/><circle style="fill:#8cc63f;stroke:#000;stroke-width:3;stroke-linecap:round;stroke-miterlimit:10" cx="45.7" cy="73" r="2.7"/><circle style="fill:#8cc63f;stroke:#000;stroke-width:3;stroke-linecap:round;stroke-miterlimit:10" cx="45.7" cy="82.5" r="2.7"/></g><metadata xmlns:d="https://loading.io/stock/"><d:name>snow man</d:name><d:tags>snow man,christmas</d:tags><d:license>cc-by</d:license><d:slug>iqy9lt</d:slug></metadata></g>
  <g id="id-0.9040806312384859-2">
    
<!-- Generator: Adobe Illustrator 21.0.0, SVG Export Plug-In . SVG Version: 6.00 Build 0)  -->






<polygon fill="#B3B4B4" points="95.261,98.953 73.345,96.2 74.22,90.577 94.461,93.724 "/>
<path fill="#B3B4B4" d="M38.105,224.49c-0.05,0-0.099,0-0.149-0.001c-2.943-0.039-5.694-1.221-7.748-3.33
	c-4.239-4.352-4.147-11.342,0.205-15.581c2.108-2.054,4.884-3.157,7.833-3.124c2.943,0.039,5.694,1.222,7.748,3.33
	c4.239,4.352,4.147,11.342-0.205,15.58C43.716,223.383,40.992,224.49,38.105,224.49z M38.098,207.494
	c-1.567,0-3.044,0.6-4.169,1.695c-2.361,2.3-2.411,6.092-0.111,8.453c1.114,1.144,2.607,1.785,4.204,1.806
	c1.609,0.014,3.106-0.581,4.25-1.695c2.361-2.3,2.411-6.092,0.112-8.453l0,0c-1.114-1.144-2.607-1.785-4.204-1.806
	C38.152,207.494,38.125,207.494,38.098,207.494z"/>
<ellipse transform="matrix(0.7249 -0.6888 0.6888 0.7249 31.7828 174.5914)" fill="#B3B4B4" cx="234.5" cy="47.5" rx="4.4" ry="4.4"/>
<path fill="#B3B4B4" d="M156.299,159.176l-1.714-5.053c3.929-1.333,6.042-5.614,4.709-9.543c-0.645-1.903-1.994-3.442-3.796-4.331
	c-1.803-0.89-3.844-1.024-5.747-0.378l-1.714-5.053c3.254-1.103,6.741-0.874,9.822,0.646c3.08,1.52,5.385,4.149,6.488,7.402
	C166.625,149.582,163.015,156.898,156.299,159.176z"/>
<ellipse transform="matrix(0.7249 -0.6888 0.6888 0.7249 -74.7837 111.7244)" fill="#B3B4B4" cx="102.5" cy="149.5" rx="4.4" ry="4.4"/>
<polygon fill="#B3B4B4" points="231.486,249.178 247.065,235.877 252.857,238.786 235.18,253.505 "/>
<polygon fill="#B3B4B4" points="115.367,21.954 103.961,43.014 100.239,36.891 110.431,19.123 "/>
<path fill="#B3B4B4" d="M222.104,130.57c-0.044,0-0.088,0-0.132-0.001c-2.596-0.034-5.024-1.077-6.835-2.937
	c-3.74-3.84-3.659-10.006,0.181-13.746c1.86-1.812,4.308-2.785,6.91-2.756c2.596,0.034,5.024,1.078,6.835,2.938
	c3.74,3.839,3.659,10.006-0.181,13.745C227.054,129.594,224.651,130.57,222.104,130.57z M222.099,115.576
	c-1.382,0-2.686,0.53-3.678,1.496c-2.083,2.029-2.127,5.374-0.098,7.458c0.983,1.009,2.3,1.575,3.708,1.594
	c1.42,0.013,2.74-0.512,3.749-1.495c2.083-2.029,2.127-5.374,0.098-7.457l0,0c-0.983-1.009-2.3-1.575-3.708-1.594
	C222.146,115.576,222.122,115.576,222.099,115.576z"/>
<path fill="#B3B4B4" d="M184.509,10.022l-4.015,1.058c-0.822-3.122-4.032-4.993-7.154-4.17c-1.512,0.398-2.779,1.362-3.567,2.713
	c-0.788,1.352-1.003,2.929-0.603,4.44l-4.015,1.058c-0.681-2.585-0.315-5.28,1.031-7.589c1.346-2.309,3.511-3.956,6.096-4.637
	C177.619,1.489,183.103,4.687,184.509,10.022z"/>


    <g transform="matrix(0.9912 0.1325 -0.1325 0.9912 30.542 -14.083) translate(121.067,222.398) scale(0.6786666666666666)"><g class="ld ld-pulse" style="animation-delay:0s"><g data-icon="">  <use xlink:href="#id-0.9040806312384859" x="-50" y="-50"/>
</g></g></g><g transform="matrix(-0.0456 0.999 -0.999 -0.0456 243.7065 -82.5047) translate(161.268,75.17099999999999) scale(0.47706666666666664)"><g class="ld ld-pulse" style="animation-delay:-0.1s"><g data-icon="">  <use xlink:href="#id-0.9040806312384859" x="-50" y="-50"/>
</g></g></g><g transform="matrix(0.5905 -0.8071 0.8071 0.5905 -67.6584 252.8308) translate(215.293,193.0815) scale(0.5214666666666667)"><g class="ld ld-pulse" style="animation-delay:-0.2s"><g data-icon="">  <use xlink:href="#id-0.9040806312384859" x="-50" y="-50"/>
</g></g></g><g transform="matrix(-0.4749 -0.8801 0.8801 -0.4749 38.8277 99.7848) translate(49.185,38.308499999999995) scale(0.5980444444444444)"><g class="ld ld-pulse" style="animation-delay:-0.3s"><g data-icon="">  <use xlink:href="#id-0.9040806312384859" x="-50" y="-50"/>
</g></g></g><g transform="matrix(0.7381 -0.6747 0.6747 0.7381 -85.9069 63.1885) translate(38.434,142.243) scale(0.607688888888889)"><g class="ld ld-pulse" style="animation-delay:-0.4s"><g data-icon="">  <use xlink:href="#id-0.9040806312384859" x="-50" y="-50"/>
</g></g></g>
  </g>
</defs>
<g>
  <use xlink:href="#id-0.9040806312384859-2" x="0" y="0"/>
  <use xlink:href="#id-0.9040806312384859-2" x="-256" y="0"/>
  <animateTransform attributeName="transform" type="translate" repeatCount="indefinite" dur="4s"
  keyTimes="0;1" values="0;256"/>
</g>
</svg>