<?xml version="1.0" encoding="utf-8"?>
<svg xmlns="http://www.w3.org/2000/svg" xmlns:xlink="http://www.w3.org/1999/xlink" viewBox="0 0 256 256" width="256px" height="256px">
<style type="text/css">@keyframes ld-pulse
{
  0% {
    animation-timing-function: cubic-bezier(0.0413,0.3905,0.5086,0.6902);
    transform: scale(1);
  }
  24.3% {
    animation-timing-function: cubic-bezier(0.2248,0.6332,0.5246,1);
    transform: scale(0.8458);
  }
  55% {
    animation-timing-function: cubic-bezier(0.3036,0.3393,0.655,0.6144);
    transform: scale(0.8022);
  }
  70.2% {
    animation-timing-function: cubic-bezier(0.4464,0.2728,0.5562,0.7288);
    transform: scale(0.8294);
  }
  82.3% {
    animation-timing-function: cubic-bezier(0.6826,0.1845,1,0.7358);
    transform: scale(0.869);
  }
  100% {
    transform: scale(1);
  }
}
.ld.ld-pulse {
  animation: ld-pulse 0.5s infinite;
}</style>
<rect x="0" y="0" width="256" height="256" fill="#eee"/>
<defs>
  <g id="id-0.5467539036614562"><!--Generator: Adobe Illustrator 21.0.0, SVG Export Plug-In . SVG Version: 6.00 Build 0)--><g><g><line style="fill:none;stroke:#000;stroke-width:3;stroke-linecap:round;stroke-miterlimit:10" x1="50.4" y1="10" x2="50.4" y2="43.8"/><line style="fill:none;stroke:#000;stroke-width:3;stroke-linecap:round;stroke-miterlimit:10" x1="45.2" y1="12.9" x2="50.4" y2="18.1"/><line style="fill:none;stroke:#000;stroke-width:3;stroke-linecap:round;stroke-miterlimit:10" x1="55.5" y1="12.9" x2="50.4" y2="18.1"/></g><g><line style="fill:none;stroke:#000;stroke-width:3;stroke-linecap:round;stroke-miterlimit:10" x1="42.4" y1="17.5" x2="50.4" y2="26.1"/><line style="fill:none;stroke:#000;stroke-width:3;stroke-linecap:round;stroke-miterlimit:10" x1="41.4" y1="20.5" x2="45.3" y2="20.6"/><line style="fill:none;stroke:#000;stroke-width:3;stroke-linecap:round;stroke-miterlimit:10" x1="45.5" y1="16.8" x2="45.3" y2="20.6"/></g><g><line style="fill:none;stroke:#000;stroke-width:3;stroke-linecap:round;stroke-miterlimit:10" x1="58.5" y1="17.5" x2="50.4" y2="26.1"/><line style="fill:none;stroke:#000;stroke-width:3;stroke-linecap:round;stroke-miterlimit:10" x1="59.4" y1="20.5" x2="55.5" y2="20.6"/><line style="fill:none;stroke:#000;stroke-width:3;stroke-linecap:round;stroke-miterlimit:10" x1="55.4" y1="16.8" x2="55.5" y2="20.6"/></g></g><g><g><line style="fill:none;stroke:#000;stroke-width:3;stroke-linecap:round;stroke-miterlimit:10" x1="22" y1="21.5" x2="45.8" y2="45.3"/><line style="fill:none;stroke:#000;stroke-width:3;stroke-linecap:round;stroke-miterlimit:10" x1="20.4" y1="27.2" x2="27.7" y2="27.2"/><line style="fill:none;stroke:#000;stroke-width:3;stroke-linecap:round;stroke-miterlimit:10" x1="27.7" y1="19.9" x2="27.7" y2="27.2"/></g><g><line style="fill:none;stroke:#000;stroke-width:3;stroke-linecap:round;stroke-miterlimit:10" x1="21.6" y1="32.4" x2="33.4" y2="32.9"/><line style="fill:none;stroke:#000;stroke-width:3;stroke-linecap:round;stroke-miterlimit:10" x1="23.1" y1="35.2" x2="25.9" y2="32.6"/><line style="fill:none;stroke:#000;stroke-width:3;stroke-linecap:round;stroke-miterlimit:10" x1="23.3" y1="29.7" x2="25.9" y2="32.6"/></g><g><line style="fill:none;stroke:#000;stroke-width:3;stroke-linecap:round;stroke-miterlimit:10" x1="33" y1="21" x2="33.4" y2="32.9"/><line style="fill:none;stroke:#000;stroke-width:3;stroke-linecap:round;stroke-miterlimit:10" x1="35.8" y1="22.5" x2="33.2" y2="25.3"/><line style="fill:none;stroke:#000;stroke-width:3;stroke-linecap:round;stroke-miterlimit:10" x1="30.3" y1="22.7" x2="33.2" y2="25.3"/></g></g><g><g><line style="fill:none;stroke:#000;stroke-width:3;stroke-linecap:round;stroke-miterlimit:10" x1="10" y1="49.6" x2="43.8" y2="49.6"/><line style="fill:none;stroke:#000;stroke-width:3;stroke-linecap:round;stroke-miterlimit:10" x1="12.9" y1="54.8" x2="18.1" y2="49.6"/><line style="fill:none;stroke:#000;stroke-width:3;stroke-linecap:round;stroke-miterlimit:10" x1="12.9" y1="44.5" x2="18.1" y2="49.6"/></g><g><line style="fill:none;stroke:#000;stroke-width:3;stroke-linecap:round;stroke-miterlimit:10" x1="17.5" y1="57.6" x2="26.1" y2="49.6"/><line style="fill:none;stroke:#000;stroke-width:3;stroke-linecap:round;stroke-miterlimit:10" x1="20.5" y1="58.6" x2="20.6" y2="54.7"/><line style="fill:none;stroke:#000;stroke-width:3;stroke-linecap:round;stroke-miterlimit:10" x1="16.8" y1="54.5" x2="20.6" y2="54.7"/></g><g><line style="fill:none;stroke:#000;stroke-width:3;stroke-linecap:round;stroke-miterlimit:10" x1="17.5" y1="41.5" x2="26.1" y2="49.6"/><line style="fill:none;stroke:#000;stroke-width:3;stroke-linecap:round;stroke-miterlimit:10" x1="20.5" y1="40.6" x2="20.6" y2="44.5"/><line style="fill:none;stroke:#000;stroke-width:3;stroke-linecap:round;stroke-miterlimit:10" x1="16.8" y1="44.6" x2="20.6" y2="44.5"/></g></g><g><g><line style="fill:none;stroke:#000;stroke-width:3;stroke-linecap:round;stroke-miterlimit:10" x1="21.5" y1="78" x2="45.3" y2="54.2"/><line style="fill:none;stroke:#000;stroke-width:3;stroke-linecap:round;stroke-miterlimit:10" x1="27.2" y1="79.6" x2="27.2" y2="72.3"/><line style="fill:none;stroke:#000;stroke-width:3;stroke-linecap:round;stroke-miterlimit:10" x1="19.9" y1="72.3" x2="27.2" y2="72.3"/></g><g><line style="fill:none;stroke:#000;stroke-width:3;stroke-linecap:round;stroke-miterlimit:10" x1="32.4" y1="78.4" x2="32.9" y2="66.6"/><line style="fill:none;stroke:#000;stroke-width:3;stroke-linecap:round;stroke-miterlimit:10" x1="35.2" y1="76.9" x2="32.6" y2="74.1"/><line style="fill:none;stroke:#000;stroke-width:3;stroke-linecap:round;stroke-miterlimit:10" x1="29.7" y1="76.7" x2="32.6" y2="74.1"/></g><g><line style="fill:none;stroke:#000;stroke-width:3;stroke-linecap:round;stroke-miterlimit:10" x1="21" y1="67" x2="32.9" y2="66.6"/><line style="fill:none;stroke:#000;stroke-width:3;stroke-linecap:round;stroke-miterlimit:10" x1="22.5" y1="64.2" x2="25.3" y2="66.8"/><line style="fill:none;stroke:#000;stroke-width:3;stroke-linecap:round;stroke-miterlimit:10" x1="22.7" y1="69.7" x2="25.3" y2="66.8"/></g></g><g><g><line style="fill:none;stroke:#000;stroke-width:3;stroke-linecap:round;stroke-miterlimit:10" x1="49.6" y1="90" x2="49.6" y2="56.2"/><line style="fill:none;stroke:#000;stroke-width:3;stroke-linecap:round;stroke-miterlimit:10" x1="54.8" y1="87.1" x2="49.6" y2="81.9"/><line style="fill:none;stroke:#000;stroke-width:3;stroke-linecap:round;stroke-miterlimit:10" x1="44.5" y1="87.1" x2="49.6" y2="81.9"/></g><g><line style="fill:none;stroke:#000;stroke-width:3;stroke-linecap:round;stroke-miterlimit:10" x1="57.6" y1="82.5" x2="49.6" y2="73.9"/><line style="fill:none;stroke:#000;stroke-width:3;stroke-linecap:round;stroke-miterlimit:10" x1="58.6" y1="79.5" x2="54.7" y2="79.4"/><line style="fill:none;stroke:#000;stroke-width:3;stroke-linecap:round;stroke-miterlimit:10" x1="54.5" y1="83.2" x2="54.7" y2="79.4"/></g><g><line style="fill:none;stroke:#000;stroke-width:3;stroke-linecap:round;stroke-miterlimit:10" x1="41.5" y1="82.5" x2="49.6" y2="73.9"/><line style="fill:none;stroke:#000;stroke-width:3;stroke-linecap:round;stroke-miterlimit:10" x1="40.6" y1="79.5" x2="44.5" y2="79.4"/><line style="fill:none;stroke:#000;stroke-width:3;stroke-linecap:round;stroke-miterlimit:10" x1="44.6" y1="83.2" x2="44.5" y2="79.4"/></g></g><g><g><line style="fill:none;stroke:#000;stroke-width:3;stroke-linecap:round;stroke-miterlimit:10" x1="78" y1="78.5" x2="54.2" y2="54.7"/><line style="fill:none;stroke:#000;stroke-width:3;stroke-linecap:round;stroke-miterlimit:10" x1="79.6" y1="72.8" x2="72.3" y2="72.8"/><line style="fill:none;stroke:#000;stroke-width:3;stroke-linecap:round;stroke-miterlimit:10" x1="72.3" y1="80.1" x2="72.3" y2="72.8"/></g><g><line style="fill:none;stroke:#000;stroke-width:3;stroke-linecap:round;stroke-miterlimit:10" x1="78.4" y1="67.6" x2="66.6" y2="67.1"/><line style="fill:none;stroke:#000;stroke-width:3;stroke-linecap:round;stroke-miterlimit:10" x1="76.9" y1="64.8" x2="74.1" y2="67.4"/><line style="fill:none;stroke:#000;stroke-width:3;stroke-linecap:round;stroke-miterlimit:10" x1="76.7" y1="70.3" x2="74.1" y2="67.4"/></g><g><line style="fill:none;stroke:#000;stroke-width:3;stroke-linecap:round;stroke-miterlimit:10" x1="67" y1="79" x2="66.6" y2="67.1"/><line style="fill:none;stroke:#000;stroke-width:3;stroke-linecap:round;stroke-miterlimit:10" x1="64.2" y1="77.5" x2="66.8" y2="74.7"/><line style="fill:none;stroke:#000;stroke-width:3;stroke-linecap:round;stroke-miterlimit:10" x1="69.7" y1="77.3" x2="66.8" y2="74.7"/></g></g><g><g><line style="fill:none;stroke:#000;stroke-width:3;stroke-linecap:round;stroke-miterlimit:10" x1="90" y1="50.4" x2="56.2" y2="50.4"/><line style="fill:none;stroke:#000;stroke-width:3;stroke-linecap:round;stroke-miterlimit:10" x1="87.1" y1="45.2" x2="81.9" y2="50.4"/><line style="fill:none;stroke:#000;stroke-width:3;stroke-linecap:round;stroke-miterlimit:10" x1="87.1" y1="55.5" x2="81.9" y2="50.4"/></g><g><line style="fill:none;stroke:#000;stroke-width:3;stroke-linecap:round;stroke-miterlimit:10" x1="82.5" y1="42.4" x2="73.9" y2="50.4"/><line style="fill:none;stroke:#000;stroke-width:3;stroke-linecap:round;stroke-miterlimit:10" x1="79.5" y1="41.4" x2="79.4" y2="45.3"/><line style="fill:none;stroke:#000;stroke-width:3;stroke-linecap:round;stroke-miterlimit:10" x1="83.2" y1="45.5" x2="79.4" y2="45.3"/></g><g><line style="fill:none;stroke:#000;stroke-width:3;stroke-linecap:round;stroke-miterlimit:10" x1="82.5" y1="58.5" x2="73.9" y2="50.4"/><line style="fill:none;stroke:#000;stroke-width:3;stroke-linecap:round;stroke-miterlimit:10" x1="79.5" y1="59.4" x2="79.4" y2="55.5"/><line style="fill:none;stroke:#000;stroke-width:3;stroke-linecap:round;stroke-miterlimit:10" x1="83.2" y1="55.4" x2="79.4" y2="55.5"/></g></g><g><g><line style="fill:none;stroke:#000;stroke-width:3;stroke-linecap:round;stroke-miterlimit:10" x1="78.5" y1="22" x2="54.7" y2="45.8"/><line style="fill:none;stroke:#000;stroke-width:3;stroke-linecap:round;stroke-miterlimit:10" x1="72.8" y1="20.4" x2="72.8" y2="27.7"/><line style="fill:none;stroke:#000;stroke-width:3;stroke-linecap:round;stroke-miterlimit:10" x1="80.1" y1="27.7" x2="72.8" y2="27.7"/></g><g><line style="fill:none;stroke:#000;stroke-width:3;stroke-linecap:round;stroke-miterlimit:10" x1="67.6" y1="21.6" x2="67.1" y2="33.4"/><line style="fill:none;stroke:#000;stroke-width:3;stroke-linecap:round;stroke-miterlimit:10" x1="64.8" y1="23.1" x2="67.4" y2="25.9"/><line style="fill:none;stroke:#000;stroke-width:3;stroke-linecap:round;stroke-miterlimit:10" x1="70.3" y1="23.3" x2="67.4" y2="25.9"/></g><g><line style="fill:none;stroke:#000;stroke-width:3;stroke-linecap:round;stroke-miterlimit:10" x1="79" y1="33" x2="67.1" y2="33.4"/><line style="fill:none;stroke:#000;stroke-width:3;stroke-linecap:round;stroke-miterlimit:10" x1="77.5" y1="35.8" x2="74.7" y2="33.2"/><line style="fill:none;stroke:#000;stroke-width:3;stroke-linecap:round;stroke-miterlimit:10" x1="77.3" y1="30.3" x2="74.7" y2="33.2"/></g></g><g><line style="fill:none;stroke:#000;stroke-width:3;stroke-linecap:round;stroke-miterlimit:10" x1="59.4" y1="28" x2="53.2" y2="43.9"/><line style="fill:none;stroke:#000;stroke-width:3;stroke-linecap:round;stroke-miterlimit:10" x1="55.1" y1="28.7" x2="57.2" y2="33.6"/><line style="fill:none;stroke:#000;stroke-width:3;stroke-linecap:round;stroke-miterlimit:10" x1="62" y1="31.4" x2="57.2" y2="33.6"/></g><g><line style="fill:none;stroke:#000;stroke-width:3;stroke-linecap:round;stroke-miterlimit:10" x1="41.1" y1="27.8" x2="47.9" y2="43.4"/><line style="fill:none;stroke:#000;stroke-width:3;stroke-linecap:round;stroke-miterlimit:10" x1="38.6" y1="31.3" x2="43.5" y2="33.4"/><line style="fill:none;stroke:#000;stroke-width:3;stroke-linecap:round;stroke-miterlimit:10" x1="45.3" y1="28.3" x2="43.5" y2="33.4"/></g><g><line style="fill:none;stroke:#000;stroke-width:3;stroke-linecap:round;stroke-miterlimit:10" x1="28" y1="40.6" x2="43.9" y2="46.8"/><line style="fill:none;stroke:#000;stroke-width:3;stroke-linecap:round;stroke-miterlimit:10" x1="28.7" y1="44.9" x2="33.6" y2="42.8"/><line style="fill:none;stroke:#000;stroke-width:3;stroke-linecap:round;stroke-miterlimit:10" x1="31.4" y1="38" x2="33.6" y2="42.8"/></g><g><line style="fill:none;stroke:#000;stroke-width:3;stroke-linecap:round;stroke-miterlimit:10" x1="27.8" y1="58.9" x2="43.4" y2="52.1"/><line style="fill:none;stroke:#000;stroke-width:3;stroke-linecap:round;stroke-miterlimit:10" x1="31.3" y1="61.4" x2="33.4" y2="56.5"/><line style="fill:none;stroke:#000;stroke-width:3;stroke-linecap:round;stroke-miterlimit:10" x1="28.3" y1="54.7" x2="33.4" y2="56.5"/></g><g><line style="fill:none;stroke:#000;stroke-width:3;stroke-linecap:round;stroke-miterlimit:10" x1="40.6" y1="72" x2="46.8" y2="56.1"/><line style="fill:none;stroke:#000;stroke-width:3;stroke-linecap:round;stroke-miterlimit:10" x1="44.9" y1="71.3" x2="42.8" y2="66.4"/><line style="fill:none;stroke:#000;stroke-width:3;stroke-linecap:round;stroke-miterlimit:10" x1="38" y1="68.6" x2="42.8" y2="66.4"/></g><g><line style="fill:none;stroke:#000;stroke-width:3;stroke-linecap:round;stroke-miterlimit:10" x1="58.9" y1="72.2" x2="52.1" y2="56.6"/><line style="fill:none;stroke:#000;stroke-width:3;stroke-linecap:round;stroke-miterlimit:10" x1="61.4" y1="68.7" x2="56.5" y2="66.6"/><line style="fill:none;stroke:#000;stroke-width:3;stroke-linecap:round;stroke-miterlimit:10" x1="54.7" y1="71.7" x2="56.5" y2="66.6"/></g><g><line style="fill:none;stroke:#000;stroke-width:3;stroke-linecap:round;stroke-miterlimit:10" x1="72" y1="59.4" x2="56.1" y2="53.2"/><line style="fill:none;stroke:#000;stroke-width:3;stroke-linecap:round;stroke-miterlimit:10" x1="71.3" y1="55.1" x2="66.4" y2="57.2"/><line style="fill:none;stroke:#000;stroke-width:3;stroke-linecap:round;stroke-miterlimit:10" x1="68.6" y1="62" x2="66.4" y2="57.2"/></g><g><line style="fill:none;stroke:#000;stroke-width:3;stroke-linecap:round;stroke-miterlimit:10" x1="72.2" y1="41.1" x2="56.6" y2="47.9"/><line style="fill:none;stroke:#000;stroke-width:3;stroke-linecap:round;stroke-miterlimit:10" x1="68.7" y1="38.6" x2="66.6" y2="43.5"/><line style="fill:none;stroke:#000;stroke-width:3;stroke-linecap:round;stroke-miterlimit:10" x1="71.7" y1="45.3" x2="66.6" y2="43.5"/></g><circle style="fill:none;stroke:#000;stroke-width:3;stroke-linecap:round;stroke-miterlimit:10" cx="50" cy="50" r="5.5"/><metadata xmlns:d="https://loading.io/stock/"><d:name>snow flake</d:name><d:tags>snow flake, freeze, christmas, winter, ice</d:tags><d:license>cc-by</d:license><d:slug>5f7wt6</d:slug></metadata></g>
  <g id="id-0.5467539036614562-2">
    
<!-- Generator: Adobe Illustrator 21.0.0, SVG Export Plug-In . SVG Version: 6.00 Build 0)  -->





    <g transform=" translate(192,191.9995) scale(0.8888888888888888)"><g class="ld ld-pulse" style="animation-delay:0s"><g data-icon="">  <use href="#id-0.5467539036614562" x="-50" y="-50"/>
</g></g></g><g transform=" translate(64,63.9995) scale(0.8888888888888888)"><g class="ld ld-pulse" style="animation-delay:-0.25s"><g data-icon="">  <use href="#id-0.5467539036614562" x="-50" y="-50"/>
</g></g></g>
  </g>
</defs>
<g>
  <use href="#id-0.5467539036614562-2" x="0" y="0"/>
  <use href="#id-0.5467539036614562-2" x="-256" y="0"/>
  <animateTransform attributeName="transform" type="translate" repeatCount="indefinite" dur="4s"
  keyTimes="0;1" values="0;256"/>
</g>
</svg>