<?xml version="1.0" encoding="utf-8"?>
<svg xmlns="http://www.w3.org/2000/svg" xmlns:xlink="http://www.w3.org/1999/xlink" viewBox="0 0 256 256" width="256px" height="256px">
<style type="text/css">@keyframes ld-pulse
{
  0% {
    animation-timing-function: cubic-bezier(0.0413,0.3905,0.5086,0.6902);
    transform: scale(1);
  }
  24.3% {
    animation-timing-function: cubic-bezier(0.2248,0.6332,0.5246,1);
    transform: scale(0.8458);
  }
  55% {
    animation-timing-function: cubic-bezier(0.3036,0.3393,0.655,0.6144);
    transform: scale(0.8022);
  }
  70.2% {
    animation-timing-function: cubic-bezier(0.4464,0.2728,0.5562,0.7288);
    transform: scale(0.8294);
  }
  82.3% {
    animation-timing-function: cubic-bezier(0.6826,0.1845,1,0.7358);
    transform: scale(0.869);
  }
  100% {
    transform: scale(1);
  }
}
.ld.ld-pulse {
  animation: ld-pulse 0.5s infinite;
}</style>
<rect x="0" y="0" width="256" height="256" fill="#eee"/>
<defs>
  <g id="id-0.100740682863933"><!--Generator: Adobe Illustrator 21.0.0, SVG Export Plug-In . SVG Version: 6.00 Build 0)--><g><path style="fill:#a26c3d;stroke:#000;stroke-width:3;stroke-linecap:round;stroke-miterlimit:10" d="M53.1,89.4l-4,0.6 c-2.1,0.3-4.1-1.2-4.4-3.3l-0.6-4c-0.3-2.1,1.2-4.1,3.3-4.4l4-0.6c2.1-0.3,4.1,1.2,4.4,3.3l0.6,4C56.7,87.1,55.3,89.1,53.1,89.4z"/><path style="fill:#2b1c0e;stroke:#000;stroke-width:3;stroke-linecap:round;stroke-miterlimit:10" d="M73.7,41.6 c1.4,4.4,6,18.3-2,29.1c-6.6,9-17.7,10.1-20.9,10.5c-3.2,0.3-15.1,1.6-23.6-6.6c-7.7-7.4-7.7-17.6-7.8-22.9 C19.2,38.2,25.2,15,40.7,12.4C55.6,9.8,69.2,28.1,73.7,41.6z"/><path style="fill:#9f6a3d;stroke:#000;stroke-width:3;stroke-linecap:round;stroke-miterlimit:10" d="M38.2,23.9 c0.6,1.6-3.4,6.8-8.6,7.5c-5.1,0.7-10.4-3.1-10.3-4.8c0-0.5,0.6-0.9,8.8-2.1C37.5,23.2,38,23.5,38.2,23.9z"/><path style="fill:#9f6a3d;stroke:#000;stroke-width:3;stroke-linecap:round;stroke-miterlimit:10" d="M45.2,36.9 c0.8,1.8-5,8-12.3,9c-7.2,1-14.5-3.2-14.2-5.1c0.1-0.6,0.9-1.1,12.3-2.8C44.3,36.1,45,36.4,45.2,36.9z"/><path style="fill:#9f6a3d;stroke:#000;stroke-width:3;stroke-linecap:round;stroke-miterlimit:10" d="M70.2,22 c0.6,1.3-3.6,5.7-8.7,6.4c-5.1,0.7-10.3-2.3-10.1-3.7c0.1-0.4,0.6-0.7,8.8-2C69.5,21.4,70.1,21.7,70.2,22z"/><path style="fill:#9f6a3d;stroke:#000;stroke-width:3;stroke-linecap:round;stroke-miterlimit:10" d="M41.3,17.3 c0.6,1.8-2.8,7.3-7.3,8c-4.5,0.6-9.3-3.7-9.2-5.6c0-0.5,0.5-1,7.6-2C40.7,16.5,41.1,16.9,41.3,17.3z"/><path style="fill:#9f6a3d;stroke:#000;stroke-width:3;stroke-linecap:round;stroke-miterlimit:10" d="M75.8,33.4 c0.8,1.8-5,8-12.3,9c-7.2,1-14.5-3.2-14.2-5.1c0.1-0.6,0.9-1.1,12.3-2.8C74.8,32.6,75.6,33,75.8,33.4z"/><path style="fill:#9f6a3d;stroke:#000;stroke-width:3;stroke-linecap:round;stroke-miterlimit:10" d="M63.4,29.6 c0.8,1.8-5,8-12.3,9c-7.2,1-14.5-3.2-14.2-5.1c0.1-0.6,0.9-1.1,12.3-2.8C62.5,28.8,63.2,29.1,63.4,29.6z"/><path style="fill:#9f6a3d;stroke:#000;stroke-width:3;stroke-linecap:round;stroke-miterlimit:10" d="M45.8,43.6 c0.8,1.8-5,8-12.3,9c-7.2,1-14.5-3.2-14.2-5.1c0.1-0.6,0.9-1.1,12.3-2.8C44.8,42.8,45.5,43.2,45.8,43.6z"/><path style="fill:#9f6a3d;stroke:#000;stroke-width:3;stroke-linecap:round;stroke-miterlimit:10" d="M77.1,42.6 c0.8,1.8-5,8-12.3,9c-7.2,1-14.5-3.2-14.2-5.1c0.1-0.6,0.9-1.1,12.3-2.8C76.2,41.7,76.9,42.1,77.1,42.6z"/><path style="fill:#9f6a3d;stroke:#000;stroke-width:3;stroke-linecap:round;stroke-miterlimit:10" d="M44.8,51.9 c0.8,1.8-5,8-12.3,9c-7.2,1-14.5-3.2-14.2-5.1c0.1-0.6,0.9-1.1,12.3-2.8C43.8,51.1,44.6,51.5,44.8,51.9z"/><path style="fill:#9f6a3d;stroke:#000;stroke-width:3;stroke-linecap:round;stroke-miterlimit:10" d="M78.9,51.1 c0.7,1.5-4.6,6.8-11.2,7.8c-6.5,0.9-13.1-2.6-12.8-4.2c0.1-0.5,0.8-0.9,11.2-2.4C78,50.4,78.7,50.7,78.9,51.1z"/><path style="fill:#9f6a3d;stroke:#000;stroke-width:3;stroke-linecap:round;stroke-miterlimit:10" d="M62.1,48.4 c0.8,1.8-5,8-12.3,9c-7.2,1-14.5-3.2-14.2-5.1c0.1-0.6,0.9-1.1,12.3-2.8C61.1,47.6,61.8,47.9,62.1,48.4z"/><path style="fill:#9f6a3d;stroke:#000;stroke-width:3;stroke-linecap:round;stroke-miterlimit:10" d="M52.8,17.9 c0.6,2-2.3,8.2-6.5,8.8c-4.1,0.6-8.7-4.5-8.7-6.5c0-0.6,0.4-1.1,7-2C52.2,17,52.6,17.4,52.8,17.9z"/><path style="fill:#9f6a3d;stroke:#000;stroke-width:3;stroke-linecap:round;stroke-miterlimit:10" d="M63.1,15.4 c0.6,1.6-2.5,6.7-6.6,7.3c-4.1,0.6-8.4-3.4-8.3-5.1c0-0.5,0.4-0.9,6.9-1.8C62.5,14.7,63,15,63.1,15.4z"/><path style="fill:#9f6a3d;stroke:#000;stroke-width:3;stroke-linecap:round;stroke-miterlimit:10" d="M49.2,10.5 c0.5,1.8-2,7.2-5.5,7.7c-3.5,0.5-7.4-4-7.4-5.8c0-0.5,0.4-0.9,6-1.8C48.7,9.6,49.1,10,49.2,10.5z"/><path style="fill:#9f6a3d;stroke:#000;stroke-width:3;stroke-linecap:round;stroke-miterlimit:10" d="M63.3,40 c0.8,1.8-5,8-12.3,9c-7.2,1-14.5-3.2-14.2-5.1c0.1-0.6,0.9-1.1,12.3-2.8C62.3,39.2,63.1,39.6,63.3,40z"/><path style="fill:#9f6a3d;stroke:#000;stroke-width:3;stroke-linecap:round;stroke-miterlimit:10" d="M45,62.6 c0.8,1.3-5.3,6-12.6,7.1c-7.2,1-14.3-1.8-13.9-3.2c0.1-0.4,0.9-0.8,12.4-2.5C44,62,44.8,62.2,45,62.6z"/><path style="fill:#9f6a3d;stroke:#000;stroke-width:3;stroke-linecap:round;stroke-miterlimit:10" d="M81.6,61.1 c0.8,1.3-5.3,6-12.6,7.1c-7.2,1-14.3-1.8-13.9-3.2c0.1-0.4,0.9-0.8,12.4-2.5C80.7,60.6,81.4,60.8,81.6,61.1z"/><path style="fill:#9f6a3d;stroke:#000;stroke-width:3;stroke-linecap:round;stroke-miterlimit:10" d="M63.4,57.9 c0.8,1.3-5.3,6-12.6,7.1c-7.2,1-14.3-1.8-13.9-3.2c0.1-0.4,0.9-0.8,12.4-2.5C62.5,57.3,63.2,57.5,63.4,57.9z"/><path style="fill:#9f6a3d;stroke:#000;stroke-width:3;stroke-linecap:round;stroke-miterlimit:10" d="M57.4,68.4 c0.7,1-5.5,4.8-12.7,5.9c-7.2,1-14.1-0.9-13.7-2c0.1-0.3,0.9-0.6,12.4-2.3C56.5,68,57.2,68.2,57.4,68.4z"/><path style="fill:#9f6a3d;stroke:#000;stroke-width:3;stroke-linecap:round;stroke-miterlimit:10" d="M73.7,67.8 c0.8,1.5-5.2,6.6-12.5,7.7c-7.2,1-14.3-2.2-14-3.8c0.1-0.5,0.9-0.9,12.4-2.6C72.7,67.2,73.5,67.4,73.7,67.8z"/><path style="fill:#9f6a3d;stroke:#000;stroke-width:3;stroke-linecap:round;stroke-miterlimit:10" d="M50.3,71.2 c0.8,1.3-5.3,6.1-12.6,7.1c-7.2,1-14.3-1.8-13.9-3.2c0.1-0.4,0.9-0.8,12.4-2.5C49.3,70.6,50.1,70.8,50.3,71.2z"/><path style="fill:#9f6a3d;stroke:#000;stroke-width:3;stroke-linecap:round;stroke-miterlimit:10" d="M64.1,72.8 c0.8,1.3-5.3,6.1-12.6,7.1c-7.2,1-14.3-1.8-13.9-3.2c0.1-0.4,0.9-0.8,12.4-2.5C63.1,72.3,63.9,72.5,64.1,72.8z"/><path style="fill:#9f6a3d;stroke:#000;stroke-width:3;stroke-linecap:round;stroke-miterlimit:10" d="M63.2,67 c0.8,1.3-5.3,6.1-12.6,7.1c-7.2,1-14.3-1.8-13.9-3.2c0.1-0.4,0.9-0.8,12.4-2.5C62.3,66.4,63,66.7,63.2,67z"/><path style="fill:#9f6a3d;stroke:#000;stroke-width:3;stroke-linecap:round;stroke-miterlimit:10" d="M74.5,27.3 c0.6,1.3-3.5,5.7-8.7,6.5c-5.1,0.8-10.3-2.2-10.1-3.6c0.1-0.4,0.6-0.8,8.8-2.1C73.8,26.8,74.3,27,74.5,27.3z"/><path style="fill:#9f6a3d;stroke:#000;stroke-width:3;stroke-linecap:round;stroke-miterlimit:10" d="M39.9,30 c0.6,1.6-3.4,6.8-8.6,7.5c-5.1,0.7-10.4-3.1-10.3-4.8c0-0.5,0.6-0.9,8.8-2.1C39.2,29.3,39.7,29.6,39.9,30z"/><path style="fill:#9f6a3d;stroke:#000;stroke-width:3;stroke-linecap:round;stroke-miterlimit:10" d="M52.3,26.4 c0.6,1.3-3.5,5.7-8.7,6.5c-5.1,0.8-10.3-2.2-10.1-3.6c0.1-0.4,0.6-0.8,8.8-2.1C51.6,25.9,52.1,26.1,52.3,26.4z"/><path style="fill:#9f6a3d;stroke:#000;stroke-width:3;stroke-linecap:round;stroke-miterlimit:10" d="M57.6,11 c0.5,1.8-1.6,7.2-4.6,7.6c-3,0.4-6.5-4.1-6.5-6c0-0.5,0.3-0.9,5.1-1.7C57.1,10.2,57.5,10.5,57.6,11z"/></g><metadata xmlns:d="https://loading.io/stock/"><d:name>pine cone</d:name><d:tags>pine cone, tree, fruit, gains, conifer</d:tags><d:license>cc-by</d:license><d:slug>1axtfk</d:slug></metadata></g>
  <g id="id-0.100740682863933-2">
    
<!-- Generator: Adobe Illustrator 21.0.0, SVG Export Plug-In . SVG Version: 6.00 Build 0)  -->







    <g transform=" translate(192,191.9995) scale(0.8888888888888888)"><g class="ld ld-pulse" style="animation-delay:0s"><g data-icon="">  <use href="#id-0.100740682863933" x="-50" y="-50"/>
</g></g></g><g transform=" translate(192,63.9995) scale(0.5555555555555556)"><g class="ld ld-pulse" style="animation-delay:-0.125s"><g data-icon="">  <use href="#id-0.100740682863933" x="-50" y="-50"/>
</g></g></g><g transform=" translate(64,63.9995) scale(0.8888888888888888)"><g class="ld ld-pulse" style="animation-delay:-0.25s"><g data-icon="">  <use href="#id-0.100740682863933" x="-50" y="-50"/>
</g></g></g><g transform=" translate(64,191.9995) scale(0.5555555555555556)"><g class="ld ld-pulse" style="animation-delay:-0.375s"><g data-icon="">  <use href="#id-0.100740682863933" x="-50" y="-50"/>
</g></g></g>
  </g>
</defs>
<g>
  <use href="#id-0.100740682863933-2" x="0" y="0"/>
  <use href="#id-0.100740682863933-2" x="-256" y="0"/>
  <animateTransform attributeName="transform" type="translate" repeatCount="indefinite" dur="4s"
  keyTimes="0;1" values="0;256"/>
</g>
</svg>