<?xml version="1.0" encoding="utf-8"?>
<svg xmlns="http://www.w3.org/2000/svg" xmlns:xlink="http://www.w3.org/1999/xlink" viewBox="0 0 256 256" width="256px" height="256px">
<style type="text/css">@keyframes ld-pulse
{
  0% {
    animation-timing-function: cubic-bezier(0.0413,0.3905,0.5086,0.6902);
    transform: scale(1);
  }
  24.3% {
    animation-timing-function: cubic-bezier(0.2248,0.6332,0.5246,1);
    transform: scale(0.8458);
  }
  55% {
    animation-timing-function: cubic-bezier(0.3036,0.3393,0.655,0.6144);
    transform: scale(0.8022);
  }
  70.2% {
    animation-timing-function: cubic-bezier(0.4464,0.2728,0.5562,0.7288);
    transform: scale(0.8294);
  }
  82.3% {
    animation-timing-function: cubic-bezier(0.6826,0.1845,1,0.7358);
    transform: scale(0.869);
  }
  100% {
    transform: scale(1);
  }
}
.ld.ld-pulse {
  animation: ld-pulse 0.5s infinite;
}</style>
<rect x="0" y="0" width="256" height="256" fill="#eee"/>
<defs>
  <g id="id-0.2018368298767108"><!--Generator: Adobe Illustrator 21.0.0, SVG Export Plug-In . SVG Version: 6.00 Build 0)--><g><ellipse transform="matrix(0.866 -0.5 0.5 0.866 -31.1938 31.7111)" style="fill:#333" cx="43.6" cy="74.1" rx="14.3" ry="9.5"/></g><g><path style="fill:#333" d="M56.8,15c0,1.2,0.5,2.4,1.5,3.2c0.5,0.4,1,0.8,1.5,1.2c0.5,0.4,1.1,0.8,1.5,1.3 c1.8,2,3.9,4.2,5.8,6.7c0.9,1.3,1.8,2.7,2.5,4.2c0.2,0.4,0.3,0.8,0.5,1.2c0.1,0.4,0.3,0.8,0.4,1.2c0.2,0.8,0.4,1.6,0.5,2.4 c0.2,1.7-0.1,3.5-0.7,4.9c-0.3,0.7-0.7,1.4-1.1,2.1c-0.4,0.6-0.6,1.3-1.2,1.8l0,0c-0.3,0.2-0.7,0.2-0.9,0c-0.1-0.1-0.2-0.3-0.2-0.4 c-0.1-0.9,0.3-1.5,0.6-2.2c0.3-0.7,0.5-1.4,0.7-2c0.4-1.3,0.4-2.5,0.1-3.7c-0.7-2.5-2.3-4.6-4.4-6.4c-2-1.8-4.5-3.4-6.7-5.7 c-0.6-0.6-1.1-1.2-1.4-2c-0.4-0.8-0.7-1.6-1-2.4c-0.2-0.9-0.4-1.7-0.5-2.6c-0.2-0.8-0.2-1.7-0.4-2.6c-0.2-0.8,0.4-1.6,1.2-1.8 c0.8-0.2,1.6,0.4,1.8,1.2c0,0.1,0,0.2,0,0.3L56.8,15z"/></g><line style="fill:none;stroke:#333;stroke-width:3;stroke-linecap:round;stroke-linejoin:round;stroke-miterlimit:10" x1="55.3" y1="68.7" x2="55.3" y2="15"/><g><path style="fill:#333" d="M56.8,26.2c0,1.2,0.5,2.4,1.5,3.2c0.5,0.4,1,0.8,1.5,1.2c0.5,0.4,1.1,0.8,1.5,1.3 c1.8,2,3.9,4.2,5.8,6.7c0.9,1.3,1.8,2.7,2.5,4.2c0.2,0.4,0.3,0.8,0.5,1.2c0.1,0.4,0.3,0.8,0.4,1.2c0.2,0.8,0.4,1.6,0.5,2.4 c0.2,1.7-0.1,3.5-0.7,4.9c-0.3,0.7-0.7,1.4-1.1,2.1c-0.4,0.6-0.6,1.3-1.2,1.8l0,0c-0.3,0.2-0.7,0.2-0.9,0c-0.1-0.1-0.2-0.3-0.2-0.4 c-0.1-0.9,0.3-1.5,0.6-2.2c0.3-0.7,0.5-1.4,0.7-2c0.4-1.3,0.4-2.5,0.1-3.7c-0.7-2.5-2.3-4.6-4.4-6.4c-2-1.8-4.5-3.4-6.7-5.7 c-0.6-0.6-1.1-1.2-1.4-2c-0.4-0.8-0.7-1.6-1-2.4c-0.2-0.9-0.4-1.7-0.5-2.6c-0.2-0.8-0.2-1.7-0.4-2.6c-0.2-0.8,0.4-1.6,1.2-1.8 c0.8-0.2,1.6,0.4,1.8,1.2c0,0.1,0,0.2,0,0.3L56.8,26.2z"/></g><g><path style="fill:#333" d="M56.8,37.5c0,1.2,0.5,2.4,1.5,3.2c0.5,0.4,1,0.8,1.5,1.2c0.5,0.4,1.1,0.8,1.5,1.3 c1.8,2,3.9,4.2,5.8,6.7c0.9,1.3,1.8,2.7,2.5,4.2c0.2,0.4,0.3,0.8,0.5,1.2c0.1,0.4,0.3,0.8,0.4,1.2c0.2,0.8,0.4,1.6,0.5,2.4 c0.2,1.7-0.1,3.5-0.7,4.9c-0.3,0.7-0.7,1.4-1.1,2.1c-0.4,0.6-0.6,1.3-1.2,1.8l0,0c-0.3,0.2-0.7,0.2-0.9,0c-0.1-0.1-0.2-0.3-0.2-0.4 c-0.1-0.9,0.3-1.5,0.6-2.2c0.3-0.7,0.5-1.4,0.7-2c0.4-1.3,0.4-2.5,0.1-3.7c-0.7-2.5-2.3-4.6-4.4-6.4c-2-1.8-4.5-3.4-6.7-5.7 c-0.6-0.6-1.1-1.2-1.4-2c-0.4-0.8-0.7-1.6-1-2.4c-0.2-0.9-0.4-1.7-0.5-2.6c-0.2-0.8-0.2-1.7-0.4-2.6c-0.2-0.8,0.4-1.6,1.2-1.8 c0.8-0.2,1.6,0.4,1.8,1.2c0,0.1,0,0.2,0,0.3L56.8,37.5z"/></g><line style="fill:none;stroke:#333;stroke-width:3;stroke-linecap:round;stroke-miterlimit:10" x1="20.8" y1="64.1" x2="67.2" y2="64.1"/><metadata xmlns:d="https://loading.io/stock/"><d:name>note</d:name><d:tags>note,thirty-second,demisemiquaver</d:tags><d:license>cc-by</d:license><d:slug>ev0x6a</d:slug></metadata></g>
  <g id="id-0.2018368298767108-2">
    
<!-- Generator: Adobe Illustrator 21.0.0, SVG Export Plug-In . SVG Version: 6.00 Build 0)  -->






<ellipse transform="matrix(0.7249 -0.6888 0.6888 0.7249 -96.2592 93.9447)" fill="#B3B4B4" cx="69.5" cy="167.5" rx="5.5" ry="5.5"/>
<ellipse transform="matrix(0.7249 -0.6888 0.6888 0.7249 15.9378 184.9119)" fill="#B3B4B4" cx="239.5" cy="72.5" rx="5.5" ry="5.5"/>
<g>
	
		<line fill="none" stroke="#B3B4B5" stroke-width="4" stroke-linecap="round" stroke-linejoin="round" stroke-miterlimit="10" x1="194" y1="125.5" x2="209" y2="125.5"/>
	
		<line fill="none" stroke="#B3B4B5" stroke-width="4" stroke-linecap="round" stroke-linejoin="round" stroke-miterlimit="10" x1="201.5" y1="133" x2="201.5" y2="118"/>
</g>
<g>
	
		<line fill="none" stroke="#B3B4B5" stroke-width="4" stroke-linecap="round" stroke-linejoin="round" stroke-miterlimit="10" x1="186" y1="244" x2="198" y2="244"/>
	
		<line fill="none" stroke="#B3B4B5" stroke-width="4" stroke-linecap="round" stroke-linejoin="round" stroke-miterlimit="10" x1="192" y1="250" x2="192" y2="238"/>
</g>
<g>
	
		<line fill="none" stroke="#B3B4B5" stroke-width="4" stroke-linecap="round" stroke-linejoin="round" stroke-miterlimit="10" x1="12" y1="46.5" x2="29" y2="46.5"/>
	
		<line fill="none" stroke="#B3B4B5" stroke-width="4" stroke-linecap="round" stroke-linejoin="round" stroke-miterlimit="10" x1="20.5" y1="55" x2="20.5" y2="38"/>
</g>
<ellipse transform="matrix(0.4903 -0.8715 0.8715 0.4903 7.2038 156.6452)" fill="#B3B4B4" cx="137.531" cy="72.163" rx="6.525" ry="6.525"/>
<ellipse transform="matrix(0.7249 -0.6888 0.6888 0.7249 -109.6566 158.3945)" fill="#B3B4B4" cx="143.5" cy="216.5" rx="5.5" ry="5.5"/>
<ellipse transform="matrix(0.7249 -0.6888 0.6888 0.7249 0.2332 72.5839)" fill="#B3B4B4" cx="91" cy="36" rx="4" ry="4"/>
<ellipse transform="matrix(0.7249 -0.6888 0.6888 0.7249 -34.1432 212.4976)" fill="#B3B4B4" cx="249" cy="149" rx="4" ry="4"/>
<ellipse transform="matrix(0.7249 -0.6888 0.6888 0.7249 -163.3891 70.8358)" fill="#B3B4B4" cx="7" cy="240" rx="4" ry="4"/>


    <g transform="matrix(0.9912 0.1325 -0.1325 0.9912 19.5946 -16.4002) translate(133,138.9995) scale(0.6222222222222222)"><g class="ld ld-pulse" style="animation-delay:0s"><g data-icon="">  <use xlink:href="#id-0.2018368298767108" x="-50" y="-50"/>
</g></g></g><g transform="matrix(0.8102 -0.5862 0.5862 0.8102 10.3558 116.5189) translate(185.074,42.271) scale(0.3916444444444444)"><g class="ld ld-pulse" style="animation-delay:-0.1s"><g data-icon="">  <use xlink:href="#id-0.2018368298767108" x="-50" y="-50"/>
</g></g></g><g transform="matrix(0.7153 0.6988 -0.6988 0.7153 199.1367 -101.9661) translate(224.712,193.41799999999998) scale(0.3647555555555556)"><g class="ld ld-pulse" style="animation-delay:-0.2s"><g data-icon="">  <use xlink:href="#id-0.2018368298767108" x="-50" y="-50"/>
</g></g></g><g transform="matrix(0.7812 0.6242 -0.6242 0.7812 76.8196 -5.7423) translate(46.602000000000004,106.7265) scale(0.3879111111111111)"><g class="ld ld-pulse" style="animation-delay:-0.3s"><g data-icon="">  <use xlink:href="#id-0.2018368298767108" x="-50" y="-50"/>
</g></g></g><g transform="matrix(0.7381 -0.6747 0.6747 0.7381 -136.8065 106.8361) translate(69.2025,229.6265) scale(0.5011777777777778)"><g class="ld ld-pulse" style="animation-delay:-0.4s"><g data-icon="">  <use xlink:href="#id-0.2018368298767108" x="-50" y="-50"/>
</g></g></g>
  </g>
</defs>
<g>
  <use xlink:href="#id-0.2018368298767108-2" x="0" y="0"/>
  <use xlink:href="#id-0.2018368298767108-2" x="-256" y="0"/>
  <animateTransform attributeName="transform" type="translate" repeatCount="indefinite" dur="4s"
  keyTimes="0;1" values="0;256"/>
</g>
</svg>