<?xml version="1.0" encoding="utf-8"?>
<svg xmlns="http://www.w3.org/2000/svg" xmlns:xlink="http://www.w3.org/1999/xlink" viewBox="0 0 256 256" width="256px" height="256px">
<style type="text/css">@keyframes ld-pulse
{
  0% {
    animation-timing-function: cubic-bezier(0.0413,0.3905,0.5086,0.6902);
    transform: scale(1);
  }
  24.3% {
    animation-timing-function: cubic-bezier(0.2248,0.6332,0.5246,1);
    transform: scale(0.8458);
  }
  55% {
    animation-timing-function: cubic-bezier(0.3036,0.3393,0.655,0.6144);
    transform: scale(0.8022);
  }
  70.2% {
    animation-timing-function: cubic-bezier(0.4464,0.2728,0.5562,0.7288);
    transform: scale(0.8294);
  }
  82.3% {
    animation-timing-function: cubic-bezier(0.6826,0.1845,1,0.7358);
    transform: scale(0.869);
  }
  100% {
    transform: scale(1);
  }
}
.ld.ld-pulse {
  animation: ld-pulse 0.5s infinite;
}</style>
<rect x="0" y="0" width="256" height="256" fill="#eee"/>
<defs>
  <g id="id-0.10214024373012842"><!--Generator: Adobe Illustrator 21.0.0, SVG Export Plug-In . SVG Version: 6.00 Build 0)--><path style="fill:none" d="M50,27.5c-8.327,0-15.593,4.527-19.483,11.251C28.602,42.061,27.5,45.901,27.5,50 s1.102,7.939,3.017,11.249C34.407,67.973,41.673,72.5,50,72.5s15.593-4.527,19.483-11.251C71.398,57.939,72.5,54.099,72.5,50 s-1.102-7.939-3.017-11.249C65.593,32.027,58.327,27.5,50,27.5z"/><path style="fill:#a0c8d7" d="M50,15.066V10c-14.804,0-27.72,8.049-34.637,20.002l4.383,2.53l6.107-3.21l0.274,6.894l4.39,2.534 C34.407,32.027,41.673,27.5,50,27.5v-5.066l5.833-3.684L50,15.066z"/><path style="fill:#849b87" d="M30.517,38.751l-4.39-2.534l-0.274-6.894l-6.107,3.21l-4.383-2.53C11.958,35.887,10,42.713,10,50 s1.958,14.113,5.363,19.998l4.383-2.53l0.274-6.894l6.107,3.21l4.389-2.534C28.602,57.939,27.5,54.099,27.5,50 S28.602,42.061,30.517,38.751z"/><path style="fill:#abbd81" d="M50,72.5c-8.327,0-15.593-4.527-19.483-11.251l-4.389,2.534l-6.107-3.21l-0.274,6.894l-4.383,2.53 C22.28,81.951,35.196,90,50,90v-5.066l-5.833-3.684L50,77.566V72.5z"/><path style="fill:#f8b26a" d="M80.254,67.467l-6.107,3.21l-0.274-6.894l-4.39-2.534C65.593,67.973,58.327,72.5,50,72.5v5.066 l-5.833,3.684L50,84.934V90c14.804,0,27.72-8.049,34.637-20.002L80.254,67.467z"/><path style="fill:#f47e60" d="M84.637,30.002l-4.383,2.53l-0.274,6.894l-6.107-3.21l-4.39,2.534C71.398,42.061,72.5,45.901,72.5,50 s-1.102,7.939-3.017,11.249l4.39,2.534l0.274,6.894l6.107-3.21l4.383,2.531C88.042,64.113,90,57.287,90,50 S88.042,35.887,84.637,30.002z"/><path style="fill:#e15b64" d="M50,10v5.066l5.833,3.684L50,22.434V27.5c8.327,0,15.593,4.527,19.483,11.251l4.39-2.534l6.107,3.21 l0.274-6.894l4.383-2.53C77.72,18.049,64.804,10,50,10z"/><metadata xmlns:d="https://loading.io/stock/"><d:name>step</d:name><d:tags>step,flow,process,progress,direction,followup,infographics,wheel,ring,circle</d:tags><d:license>cc-by</d:license><d:slug>azmkf2</d:slug></metadata></g>
  <g id="id-0.10214024373012842-2">
    
<!-- Generator: Adobe Illustrator 21.0.0, SVG Export Plug-In . SVG Version: 6.00 Build 0)  -->













    <g transform=" translate(151,149.9995) scale(0.6222222222222222)"><g class="ld ld-pulse" style="animation-delay:0s"><g data-icon="">  <use href="#id-0.10214024373012842" x="-50" y="-50"/>
</g></g></g><g transform="matrix(0.9628 0.2703 -0.2703 0.9628 41.3411 -58.0147) translate(231.293,121.08149999999999) scale(0.5214666666666667)"><g class="ld ld-pulse" style="animation-delay:-0.05s"><g data-icon="">  <use href="#id-0.10214024373012842" x="-50" y="-50"/>
</g></g></g><g transform="matrix(-0.0456 0.999 -0.999 -0.0456 207.6542 -74.2389) translate(139.293,62.081500000000005) scale(0.5214666666666667)"><g class="ld ld-pulse" style="animation-delay:-0.1s"><g data-icon="">  <use href="#id-0.10214024373012842" x="-50" y="-50"/>
</g></g></g><g transform="matrix(0.2398 -0.9708 0.9708 0.2398 127.6881 219.61) translate(204.074,28.271) scale(0.3916444444444444)"><g class="ld ld-pulse" style="animation-delay:-0.15s"><g data-icon="">  <use href="#id-0.10214024373012842" x="-50" y="-50"/>
</g></g></g><g transform="matrix(0.5905 -0.8071 0.8071 0.5905 -96.797 253.4085) translate(201.293,222.0815) scale(0.5214666666666667)"><g class="ld ld-pulse" style="animation-delay:-0.2s"><g data-icon="">  <use href="#id-0.10214024373012842" x="-50" y="-50"/>
</g></g></g><g transform="matrix(0.8618 0.5073 -0.5073 0.8618 120.0863 -26.4095) translate(108.50649999999999,207.1645) scale(0.44135555555555556)"><g class="ld ld-pulse" style="animation-delay:-0.25s"><g data-icon="">  <use href="#id-0.10214024373012842" x="-50" y="-50"/>
</g></g></g><g transform="matrix(0.9981 0.0609 -0.0609 0.9981 7.8271 -4.6047) translate(79.461,126.11449999999999) scale(0.43675555555555556)"><g class="ld ld-pulse" style="animation-delay:-0.3s"><g data-icon="">  <use href="#id-0.10214024373012842" x="-50" y="-50"/>
</g></g></g><g transform="matrix(-0.7024 0.7118 -0.7118 -0.7024 125.7862 11.6317) translate(60.461,32.1145) scale(0.43675555555555556)"><g class="ld ld-pulse" style="animation-delay:-0.35s"><g data-icon="">  <use href="#id-0.10214024373012842" x="-50" y="-50"/>
</g></g></g><g transform="matrix(0.8596 0.511 -0.511 0.8596 47.5053 -5.4135) translate(33.602,83.7265) scale(0.3879111111111111)"><g class="ld ld-pulse" style="animation-delay:-0.4s"><g data-icon="">  <use href="#id-0.10214024373012842" x="-50" y="-50"/>
</g></g></g><g transform="matrix(0.5692 -0.8222 0.8222 0.5692 -149.2038 124.5031) translate(44.2025,204.6265) scale(0.5011777777777778)"><g class="ld ld-pulse" style="animation-delay:-0.45s"><g data-icon="">  <use href="#id-0.10214024373012842" x="-50" y="-50"/>
</g></g></g>
  </g>
</defs>
<g>
  <use href="#id-0.10214024373012842-2" x="0" y="0"/>
  <use href="#id-0.10214024373012842-2" x="-256" y="0"/>
  <animateTransform attributeName="transform" type="translate" repeatCount="indefinite" dur="4s"
  keyTimes="0;1" values="0;256"/>
</g>
</svg>