<?xml version="1.0" encoding="utf-8"?>
<svg xmlns="http://www.w3.org/2000/svg" xmlns:xlink="http://www.w3.org/1999/xlink" viewBox="0 0 256 256" width="256px" height="256px">
<style type="text/css">@keyframes ld-pulse
{
  0% {
    animation-timing-function: cubic-bezier(0.0413,0.3905,0.5086,0.6902);
    transform: scale(1);
  }
  24.3% {
    animation-timing-function: cubic-bezier(0.2248,0.6332,0.5246,1);
    transform: scale(0.8458);
  }
  55% {
    animation-timing-function: cubic-bezier(0.3036,0.3393,0.655,0.6144);
    transform: scale(0.8022);
  }
  70.2% {
    animation-timing-function: cubic-bezier(0.4464,0.2728,0.5562,0.7288);
    transform: scale(0.8294);
  }
  82.3% {
    animation-timing-function: cubic-bezier(0.6826,0.1845,1,0.7358);
    transform: scale(0.869);
  }
  100% {
    transform: scale(1);
  }
}
.ld.ld-pulse {
  animation: ld-pulse 0.5s infinite;
}</style>
<rect x="0" y="0" width="256" height="256" fill="#eee"/>
<defs>
  <g id="id-0.7455685397775023"><!--Generator: Adobe Illustrator 21.0.0, SVG Export Plug-In . SVG Version: 6.00 Build 0)--><g><g><path style="fill:#ff5a24;stroke:#000;stroke-width:3;stroke-miterlimit:10" d="M70.1,87.6H58c-2.8,0-5-2.3-5-5V39.7 c0-2.8,2.3-5,5-5h12.1c2.8,0,5,2.3,5,5v42.8C75.1,85.3,72.9,87.6,70.1,87.6z"/><g><path style="fill:#fbb03b;stroke:#000;stroke-width:3;stroke-miterlimit:10" d="M73.1,32.8H56.4c-1.5,0-2.8,0.5-3.8,1.4 c-1.5,1.4-1.6,3.1-1.6,3.4c0,1.3,0,2.5,0,3.8c0,1,0,2,0,2.9c0,1-0.3,1.9,0.5,2.6c0.4,0.4,1,0.6,1.5,0.5c0.7-0.1,1.3-0.6,1.9-0.4 c0.5,0.1,1,0.5,1.3,0.9c0.6,0.8,0.8,1.8,1,2.8c0.3,1.3,1.1,2.8,2.8,2.7c0.9,0,1.6-0.5,2.1-1.1c1.4-2,0.5-4.4,1.9-6.3 c0.5-0.7,1.2-1.1,2.1-1.1c1.9,0,2.7,1.9,3.1,3.5c0.5,1.9,0.6,4.9,3.2,5.4c1.1,0.2,2.4-0.5,3-1.3c1.2-1.6,1.7-3.7,2.1-5.6 c0.3-1.2,0.5-2.3,0.6-3.5c0.1-1.6,0.2-3.2,0.1-4.8c0-0.2-0.1-0.7-0.1-0.9C78.4,34.9,76,32.8,73.1,32.8z"/></g><rect x="62" y="27.8" style="fill:#999;stroke:#000;stroke-width:3;stroke-miterlimit:10" width="5.6" height="4.9"/><g><path style="fill:#fcee21;stroke:#000;stroke-width:3;stroke-miterlimit:10" d="M64.8,7.3c0,0-6.7,4-6.7,8.9s3,8.9,6.7,8.9 c3.7,0,6.7-4,6.7-8.9S64.8,7.3,64.8,7.3z"/><path style="fill:#fbb03b;stroke:#000;stroke-width:3;stroke-miterlimit:10" d="M63.3,15.1c-0.6-0.2-1.3,0.2-1.8,0.6 c-1.7,1.4-2.3,3.2-1.8,5.3c0.4,1.7,1.8,3.4,3.7,3.4c2.4,0,3.6-2.2,4.3-4.1c0.2-0.5,0.3-1,0.3-1.4s-0.4-1-0.9-1 c-0.2,0-0.5,0.1-0.7,0.1c-0.9,0.1-1.7-0.7-2-1.5c-0.2-0.4-0.3-0.9-0.6-1.1C63.5,15.2,63.4,15.2,63.3,15.1z"/></g></g><g><path style="fill:#ff5a24;stroke:#000;stroke-width:3;stroke-miterlimit:10" d="M40.4,87.6H28.3c-2.8,0-5-2.3-5-5V53.2 c0-2.8,2.3-5,5-5h12.1c2.8,0,5,2.3,5,5v29.4C45.4,85.3,43.2,87.6,40.4,87.6z"/><g><path style="fill:#fbb03b;stroke:#000;stroke-width:3;stroke-miterlimit:10" d="M42.5,47.2H27.2c-1.3,0-2.6,0.5-3.4,1.4 c-1.4,1.4-1.4,3.1-1.4,3.4c0,1.3,0,2.5,0,3.8c0,1,0,2,0,2.9c0,1-0.3,1.9,0.5,2.6c0.4,0.4,0.9,0.6,1.4,0.5 c0.6-0.1,1.2-0.6,1.8-0.4c0.5,0.1,0.9,0.5,1.2,0.9c0.6,0.8,0.7,1.8,1,2.8c0.3,1.3,1,2.8,2.6,2.7c0.8,0,1.5-0.5,1.9-1.1 c1.3-2,0.4-4.4,1.7-6.3c0.4-0.7,1.1-1.1,1.9-1.1c1.8,0,2.5,1.9,2.8,3.5c0.4,1.9,0.5,4.9,3,5.4c1,0.2,2.2-0.5,2.8-1.3 c1.1-1.6,1.5-3.7,2-5.6c0.3-1.2,0.4-2.3,0.5-3.5c0.1-1.6,0.2-3.2,0.1-4.8c0-0.2-0.1-0.7,0-0.9C47.3,49.3,45.2,47.2,42.5,47.2z"/></g><g><path style="fill:#fcee21;stroke:#000;stroke-width:3;stroke-miterlimit:10" d="M34.9,23.5c0,0-6.1,3.6-6.1,8.1 s2.7,8.1,6.1,8.1c3.4,0,6.1-3.6,6.1-8.1S34.9,23.5,34.9,23.5z"/><path style="fill:#fbb03b;stroke:#000;stroke-width:3;stroke-miterlimit:10" d="M33.5,30.7c-0.5-0.2-1.2,0.2-1.7,0.6 c-1.6,1.3-2.1,2.9-1.6,4.8c0.4,1.6,1.6,3.1,3.3,3.1c2.2,0,3.3-2,3.9-3.8c0.1-0.4,0.3-0.9,0.2-1.3c-0.1-0.4-0.4-0.9-0.8-0.9 c-0.2,0-0.4,0.1-0.6,0.1c-0.8,0.1-1.5-0.6-1.8-1.4c-0.2-0.4-0.3-0.8-0.6-1C33.7,30.8,33.6,30.7,33.5,30.7z"/></g><rect x="32.2" y="42.3" style="fill:#b3b3b3;stroke:#000;stroke-width:3;stroke-miterlimit:10" width="5.6" height="4.9"/></g><path style="fill:#f2f2f2;stroke:#000;stroke-width:3;stroke-miterlimit:10" d="M82,92.7H18c-1.1,0-2.1-0.7-2.5-1.8 c-0.5-1.4-1.1-2.9-1.6-4.3c-0.7-1.8,0.6-3.7,2.5-3.7h67.1c1.9,0,3.2,1.9,2.6,3.6l-1.6,4.3C84.2,92,83.1,92.7,82,92.7z"/></g><metadata xmlns:d="https://loading.io/stock/"><d:name>candle</d:name><d:tags>candle,christmas</d:tags><d:license>cc-by</d:license><d:slug>53s6zd</d:slug></metadata></g>
  <g id="id-0.7455685397775023-2">
    
<!-- Generator: Adobe Illustrator 21.0.0, SVG Export Plug-In . SVG Version: 6.00 Build 0)  -->





    <g transform=" translate(192,191.9995) scale(0.8888888888888888)"><g class="ld ld-pulse" style="animation-delay:0s"><g data-icon="">  <use href="#id-0.7455685397775023" x="-50" y="-50"/>
</g></g></g><g transform=" translate(64,63.9995) scale(0.8888888888888888)"><g class="ld ld-pulse" style="animation-delay:-0.25s"><g data-icon="">  <use href="#id-0.7455685397775023" x="-50" y="-50"/>
</g></g></g>
  </g>
</defs>
<g>
  <use href="#id-0.7455685397775023-2" x="0" y="0"/>
  <use href="#id-0.7455685397775023-2" x="-256" y="0"/>
  <animateTransform attributeName="transform" type="translate" repeatCount="indefinite" dur="4s"
  keyTimes="0;1" values="0;256"/>
</g>
</svg>