<?xml version="1.0" encoding="utf-8"?>
<svg xmlns="http://www.w3.org/2000/svg" style="margin: auto; background: rgb(255, 251, 243); display: block; shape-rendering: auto;" width="345" height="116" preserveAspectRatio="xMidYMid">
<style type="text/css">
  text {
    text-anchor: middle; font-size: 80px; opacity: 0;
  }
</style>
<g transform="translate(172.5,58)">
  <g transform="translate(0,0)"><g class="path" style="transform-origin: -133.88px -7.54294px; transform: scale(0.91); animation: 1s linear -0.605s infinite normal forwards running breath-84a8f385-df64-4115-885b-d27797b91f48;"><path d="M19.36-2.88L19.36-2.88L19.36-2.88Q18.32-1.52 16.52-0.40L16.52-0.40L16.52-0.40Q14.72 0.72 11.84 0.72L11.84 0.72L11.84 0.72Q8.96 0.72 6.96-1.12L6.96-1.12L6.96-1.12Q4.96-2.96 4.96-6.32L4.96-6.32L4.96-6.32Q4.96-6.96 5.12-8.40L5.12-8.40L10.32-37.20L10.32-37.20Q11.76-45.12 14.28-48.48L14.28-48.48L14.28-48.48Q16.80-51.84 20.96-51.84L20.96-51.84L20.96-51.84Q23.84-51.84 25.72-49.68L25.72-49.68L25.72-49.68Q27.60-47.52 27.60-43.12L27.60-43.12L27.60-43.12Q27.60-38.72 24.20-30.56L24.20-30.56L24.20-30.56Q20.80-22.40 20.80-18.64L20.80-18.64L19.36-18.64L19.36-18.64Q19.36-22.88 22.72-30.76L22.72-30.76L22.72-30.76Q26.08-38.64 26.08-43.36L26.08-43.36L26.08-43.36Q26.08-46.24 24.76-48.32L24.76-48.32L24.76-48.32Q23.44-50.40 21.52-50.40L21.52-50.40L21.52-50.40Q21.44-48.32 18.76-31.72L18.76-31.72L18.76-31.72Q16.08-15.12 13.44-0.88L13.44-0.88L13.44-0.88Q15.68-0.88 17.60-3.20L17.60-3.20L17.60-3.20Q19.52-5.52 20.32-7.84L20.32-7.84L21.20-10.24L22.64-9.60L22.64-9.60Q22.40-8.48 21.40-6.36L21.40-6.36L21.40-6.36Q20.40-4.24 19.36-2.88" fill="#9df871" stroke="none" stroke-width="none" transform="translate(-150.16000366210938,18.01706639607748)" style="fill: rgb(81, 202, 204);"></path></g><g class="path" style="transform-origin: -107.52px 2.81706px; transform: scale(0.91); animation: 1s linear -0.55s infinite normal forwards running breath-84a8f385-df64-4115-885b-d27797b91f48;"><path d="M39.52 0.72L39.52 0.72Q33.36 0.72 30.16-2.36L30.16-2.36L30.16-2.36Q26.96-5.44 26.96-10.12L26.96-10.12L26.96-10.12Q26.96-14.80 27.80-18.12L27.80-18.12L27.80-18.12Q28.64-21.44 30.56-24.52L30.56-24.52L30.56-24.52Q32.48-27.60 36.36-29.36L36.36-29.36L36.36-29.36Q40.24-31.12 46.04-31.12L46.04-31.12L46.04-31.12Q51.84-31.12 55.08-28.04L55.08-28.04L55.08-28.04Q58.32-24.96 58.32-19.60L58.32-19.60L58.32-19.60Q58.32-10.48 53.48-4.88L53.48-4.88L53.48-4.88Q48.64 0.72 39.52 0.72L39.52 0.72zM36-7.52L36-7.52L36-7.52Q36-1.12 39.72-1.12L39.72-1.12L39.72-1.12Q43.44-1.12 46.36-7.56L46.36-7.56L46.36-7.56Q49.28-14 49.28-22.88L49.28-22.88L49.28-22.88Q49.28-29.60 45.64-29.60L45.64-29.60L45.64-29.60Q42-29.60 39-23.48L39-23.48L39-23.48Q36-17.36 36-7.52" fill="#9df871" stroke="none" stroke-width="none" transform="translate(-150.16000366210938,18.01706639607748)" style="fill: rgb(157, 248, 113);"></path></g><g class="path" style="transform-origin: -70.64px 2.81706px; transform: scale(0.91); animation: 1s linear -0.495s infinite normal forwards running breath-84a8f385-df64-4115-885b-d27797b91f48;"><path d="M90.48 0.72L90.48 0.72L90.48 0.72Q83.44 0.72 82.80-5.44L82.80-5.44L82.80-5.44Q79.28 0.72 73.92 0.72L73.92 0.72L73.92 0.72Q68.56 0.72 65.40-2.52L65.40-2.52L65.40-2.52Q62.24-5.76 62.24-11.60L62.24-11.60L62.24-11.60Q62.24-20.72 66.72-25.92L66.72-25.92L66.72-25.92Q71.20-31.12 78.32-31.12L78.32-31.12L78.32-31.12Q84.16-31.12 86.08-25.60L86.08-25.60L86.08-25.60Q86.48-28 86.96-30.40L86.96-30.40L86.96-30.40Q92.88-30.40 95.76-30.88L95.76-30.88L96.80-31.12L91.28-0.88L91.28-0.88Q93.68-1.12 95.28-3.12L95.28-3.12L96.48-2.16L96.48-2.16Q94.08 0.72 90.48 0.72zM71.28-7.52L71.28-7.52Q71.28-3.92 72.20-2.52L72.20-2.52L72.20-2.52Q73.12-1.12 75.04-1.12L75.04-1.12L75.04-1.12Q76.96-1.12 78.96-3.20L78.96-3.20L78.96-3.20Q81.60-5.92 83.20-10.08L83.20-10.08L83.20-10.08Q83.44-11.12 84.12-15.08L84.12-15.08L84.12-15.08Q84.80-19.04 85.28-21.60L85.28-21.60L85.28-21.60Q85.04-24.64 83.60-26.88L83.60-26.88L83.60-26.88Q82.16-29.12 80-29.12L80-29.12L80-29.12Q76.08-29.12 73.68-22.12L73.68-22.12L73.68-22.12Q71.28-15.12 71.28-7.52L71.28-7.52" fill="#9df871" stroke="none" stroke-width="none" transform="translate(-150.16000366210938,18.01706639607748)" style="fill: rgb(224, 255, 119);"></path></g><g class="path" style="transform-origin: -31.08px -7.54294px; transform: scale(0.91); animation: 1s linear -0.44s infinite normal forwards running breath-84a8f385-df64-4115-885b-d27797b91f48;"><path d="M128.72 0.72L128.72 0.72L128.72 0.72Q121.68 0.72 121.04-5.28L121.04-5.28L121.04-5.28Q117.52 0.72 112.08 0.72L112.08 0.72L112.08 0.72Q106.64 0.72 103.76-2.36L103.76-2.36L103.76-2.36Q100.88-5.44 100.88-10.80L100.88-10.80L100.88-10.80Q100.88-20.24 105.36-25.68L105.36-25.68L105.36-25.68Q109.84-31.12 116.96-31.12L116.96-31.12L116.96-31.12Q121.04-31.12 123.28-28.64L123.28-28.64L123.28-28.64Q124.24-27.36 124.48-26.72L124.48-26.72L128.80-50.24L128.80-50.24Q126.40-50 124.80-48L124.80-48L123.60-48.96L123.60-48.96Q126.00-51.84 129.64-51.84L129.64-51.84L129.64-51.84Q133.28-51.84 135.28-50L135.28-50L135.28-50Q137.28-48.16 137.28-44.80L137.28-44.80L137.28-44.80Q137.28-44.16 137.12-42.72L137.12-42.72L137.12-42.72Q133.20-20.72 129.52-0.88L129.52-0.88L129.52-0.88Q131.92-1.12 133.52-3.12L133.52-3.12L134.72-2.16L134.72-2.16Q132.32 0.72 128.72 0.72zM109.92-7.52L109.92-7.52Q109.92-3.84 110.68-2.48L110.68-2.48L110.68-2.48Q111.44-1.12 113.08-1.12L113.08-1.12L113.08-1.12Q114.72-1.12 116.24-2.24L116.24-2.24L116.24-2.24Q117.76-3.36 118.80-5.12L118.80-5.12L118.80-5.12Q120.72-8.08 121.52-10.16L121.52-10.16L123.84-22.80L123.84-22.80Q123.68-25.36 122.16-27.48L122.16-27.48L122.16-27.48Q120.64-29.60 116.96-29.60L116.96-29.60L116.96-29.60Q114.40-29.60 112.16-22.08L112.16-22.08L112.16-22.08Q109.92-14.56 109.92-7.52L109.92-7.52" fill="#9df871" stroke="none" stroke-width="none" transform="translate(-150.16000366210938,18.01706639607748)" style="fill: rgb(222, 157, 214);"></path></g><g class="path" style="transform-origin: -2.91998px 2.81706px; transform: scale(0.91); animation: 1s linear -0.385s infinite normal forwards running breath-84a8f385-df64-4115-885b-d27797b91f48;"><path d="M153.92-2.16L153.92-2.16Q151.52 0.72 147.92 0.72L147.92 0.72L147.92 0.72Q144.32 0.72 142.28-1.12L142.28-1.12L142.28-1.12Q140.24-2.96 140.24-5.92L140.24-5.92L140.24-5.92Q140.24-6.96 141.52-14.64L141.52-14.64L144.16-28.96L140.80-28.96L140.96-30.40L144.40-30.40L144.40-30.40Q150.32-30.40 153.12-30.88L153.12-30.88L154.24-31.12L148.72-0.88L148.72-0.88Q151.12-1.12 152.72-3.12L152.72-3.12L153.92-2.16" fill="#9df871" stroke="none" stroke-width="none" transform="translate(-150.16000366210938,18.01706639607748)" style="fill: rgb(255, 112, 142);"></path></g><g class="path" style="transform-origin: 0.839996px -24.9029px; transform: scale(0.91); animation: 1s linear -0.33s infinite normal forwards running breath-84a8f385-df64-4115-885b-d27797b91f48;"><path d="M146.88-38.80L146.88-38.80L146.88-38.80Q145.20-40.48 145.20-42.88L145.20-42.88L145.20-42.88Q145.20-45.28 146.88-47L146.88-47L146.88-47Q148.56-48.72 150.96-48.72L150.96-48.72L150.96-48.72Q153.36-48.72 155.08-47L155.08-47L155.08-47Q156.80-45.28 156.80-42.88L156.80-42.88L156.80-42.88Q156.80-40.48 155.08-38.80L155.08-38.80L155.08-38.80Q153.36-37.12 150.96-37.12L150.96-37.12L150.96-37.12Q148.56-37.12 146.88-38.80" fill="#9df871" stroke="none" stroke-width="none" transform="translate(-150.16000366210938,18.01706639607748)" style="fill: rgb(81, 202, 204);"></path></g><g class="path" style="transform-origin: 26.52px 2.81706px; transform: scale(0.91); animation: 1s linear -0.275s infinite normal forwards running breath-84a8f385-df64-4115-885b-d27797b91f48;"><path d="M189.44-0.88L189.44-0.88L189.44-0.88Q191.36-0.88 193.44-3.12L193.44-3.12L194.64-2.16L194.64-2.16Q194.08-1.04 192.16-0.16L192.16-0.16L192.16-0.16Q190.24 0.72 187.92 0.72L187.92 0.72L187.92 0.72Q180.64 0.72 180.64-5.84L180.64-5.84L180.64-5.84Q180.64-8.64 182.08-15.84L182.08-15.84L182.08-15.84Q183.52-23.04 183.52-25.28L183.52-25.28L183.52-25.28Q183.52-28.72 180.24-28.72L180.24-28.72L180.24-28.72Q177.60-28.72 175.16-25.28L175.16-25.28L175.16-25.28Q172.72-21.84 171.12-15.84L171.12-15.84L168.40-0.88L168.40-0.88Q170.88-1.12 172.48-3.12L172.48-3.12L173.68-2.16L173.68-2.16Q171.28 0.72 167.68 0.72L167.68 0.72L167.68 0.72Q164.08 0.72 162.04-1.12L162.04-1.12L162.04-1.12Q160.00-2.96 160.00-5.92L160.00-5.92L160.00-5.92Q160.00-7.04 161.28-14.72L161.28-14.72L163.92-29.52L163.92-29.52Q161.52-29.28 159.92-27.28L159.92-27.28L158.72-28.24L158.72-28.24Q161.12-31.12 164.76-31.12L164.76-31.12L164.76-31.12Q168.40-31.12 170.40-29.28L170.40-29.28L170.40-29.28Q172.40-27.44 172.40-24.08L172.40-24.08L172.40-23.60L172.40-23.60Q175.68-31.12 182.64-31.12L182.64-31.12L182.64-31.12Q187.36-31.12 190.00-28.44L190.00-28.44L190.00-28.44Q192.64-25.76 192.64-21.04L192.64-21.04L192.64-21.04Q192.64-18.56 191.12-11.48L191.12-11.48L191.12-11.48Q189.60-4.40 189.44-0.88" fill="#9df871" stroke="none" stroke-width="none" transform="translate(-150.16000366210938,18.01706639607748)" style="fill: rgb(157, 248, 113);"></path></g><g class="path" style="transform-origin: 64.4px 9.81706px; transform: scale(0.91); animation: 1s linear -0.22s infinite normal forwards running breath-84a8f385-df64-4115-885b-d27797b91f48;"><path d="M224.72 8.72L224.72 8.72L224.72 8.72Q227.60 8.72 229.68 6.48L229.68 6.48L230.80 7.44L230.80 7.44Q228.88 10.16 224.72 10.16L224.72 10.16L224.72 10.16Q222.96 10.16 221.12 9.76L221.12 9.76L221.12 9.76Q215.68 14.72 207.20 14.72L207.20 14.72L207.20 14.72Q202.16 14.72 199.40 13L199.40 13L199.40 13Q196.64 11.28 196.64 8.52L196.64 8.52L196.64 8.52Q196.64 5.76 198.36 4.12L198.36 4.12L198.36 4.12Q200.08 2.48 204.48 2.48L204.48 2.48L204.48 2.48Q208.88 2.48 216.08 6.08L216.08 6.08L218.56-7.20L218.56-7.20Q214.96-0.56 209.28-0.56L209.28-0.56L209.28-0.56Q198.40-0.56 198.40-11.28L198.40-11.28L198.40-11.28Q198.40-20.24 202.92-25.68L202.92-25.68L202.92-25.68Q207.44-31.12 214.48-31.12L214.48-31.12L214.48-31.12Q218.56-31.12 220.80-28.64L220.80-28.64L220.80-28.64Q221.44-27.92 222.08-26.48L222.08-26.48L222.80-30.40L222.80-30.40Q228.72-30.40 231.44-30.88L231.44-30.88L232.48-31.12L227.20-1.60L227.20-1.60Q226.00 4.64 222.40 8.48L222.40 8.48L222.40 8.48Q223.44 8.72 224.72 8.72zM207.44-8.80L207.44-8.80Q207.44-5.12 208.16-3.88L208.16-3.88L208.16-3.88Q208.88-2.64 210.88-2.64L210.88-2.64L210.88-2.64Q212.88-2.64 214.96-4.80L214.96-4.80L214.96-4.80Q217.04-6.96 217.96-8.84L217.96-8.84L217.96-8.84Q218.88-10.72 219.52-12.48L219.52-12.48L221.20-21.68L221.20-22.24L221.20-22.24Q221.20-29.60 214.48-29.60L214.48-29.60L214.48-29.60Q211.92-29.60 209.68-22.64L209.68-22.64L209.68-22.64Q207.44-15.68 207.44-8.80L207.44-8.80zM206.88 13.12L206.88 13.12L206.88 13.12Q213.28 13.12 215.52 7.60L215.52 7.60L214.40 7.04L214.40 7.04Q213.44 6.56 213.24 6.44L213.24 6.44L213.24 6.44Q213.04 6.32 212.16 5.92L212.16 5.92L212.16 5.92Q211.28 5.52 210.88 5.40L210.88 5.40L210.88 5.40Q210.48 5.28 209.64 4.96L209.64 4.96L209.64 4.96Q208.80 4.64 208.24 4.52L208.24 4.52L208.24 4.52Q207.68 4.40 206.96 4.24L206.96 4.24L206.96 4.24Q205.76 4 203.44 4L203.44 4L203.44 4Q201.12 4 199.72 5.12L199.72 5.12L199.72 5.12Q198.32 6.24 198.32 8.40L198.32 8.40L198.32 8.40Q198.32 10.56 200.64 11.84L200.64 11.84L200.64 11.84Q202.96 13.12 206.88 13.12" fill="#9df871" stroke="none" stroke-width="none" transform="translate(-150.16000366210938,18.01706639607748)" style="fill: rgb(224, 255, 119);"></path></g><g class="path" style="transform-origin: 91.4px 12.8571px; transform: scale(0.91); animation: 1s linear -0.165s infinite normal forwards running breath-84a8f385-df64-4115-885b-d27797b91f48;"><path d="M237.44-1.04L237.44-1.04L237.44-1.04Q235.76-2.72 235.76-5.12L235.76-5.12L235.76-5.12Q235.76-7.52 237.44-9.24L237.44-9.24L237.44-9.24Q239.12-10.96 241.52-10.96L241.52-10.96L241.52-10.96Q243.92-10.96 245.64-9.24L245.64-9.24L245.64-9.24Q247.36-7.52 247.36-5.12L247.36-5.12L247.36-5.12Q247.36-2.72 245.64-1.04L245.64-1.04L245.64-1.04Q243.92 0.64 241.52 0.64L241.52 0.64L241.52 0.64Q239.12 0.64 237.44-1.04" fill="#9df871" stroke="none" stroke-width="none" transform="translate(-150.16000366210938,18.01706639607748)" style="fill: rgb(222, 157, 214);"></path></g><g class="path" style="transform-origin: 112.52px 2.81706px; transform: scale(0.91); animation: 1s linear -0.11s infinite normal forwards running breath-84a8f385-df64-4115-885b-d27797b91f48;"><path d="M269.36-2.16L269.36-2.16Q266.96 0.72 263.36 0.72L263.36 0.72L263.36 0.72Q259.76 0.72 257.72-1.12L257.72-1.12L257.72-1.12Q255.68-2.96 255.68-5.92L255.68-5.92L255.68-5.92Q255.68-6.96 256.96-14.64L256.96-14.64L259.60-28.96L256.24-28.96L256.40-30.40L259.84-30.40L259.84-30.40Q265.76-30.40 268.56-30.88L268.56-30.88L269.68-31.12L264.16-0.88L264.16-0.88Q266.56-1.12 268.16-3.12L268.16-3.12L269.36-2.16" fill="#9df871" stroke="none" stroke-width="none" transform="translate(-150.16000366210938,18.01706639607748)" style="fill: rgb(255, 112, 142);"></path></g><g class="path" style="transform-origin: 116.28px -24.9029px; transform: scale(0.91); animation: 1s linear -0.055s infinite normal forwards running breath-84a8f385-df64-4115-885b-d27797b91f48;"><path d="M262.32-38.80L262.32-38.80L262.32-38.80Q260.64-40.48 260.64-42.88L260.64-42.88L260.64-42.88Q260.64-45.28 262.32-47L262.32-47L262.32-47Q264.00-48.72 266.40-48.72L266.40-48.72L266.40-48.72Q268.80-48.72 270.52-47L270.52-47L270.52-47Q272.24-45.28 272.24-42.88L272.24-42.88L272.24-42.88Q272.24-40.48 270.52-38.80L270.52-38.80L270.52-38.80Q268.80-37.12 266.40-37.12L266.40-37.12L266.40-37.12Q264.00-37.12 262.32-38.80" fill="#9df871" stroke="none" stroke-width="none" transform="translate(-150.16000366210938,18.01706639607748)" style="fill: rgb(81, 202, 204);"></path></g><g class="path" style="transform-origin: 139.44px 2.81706px; transform: scale(0.91); animation: 1s linear 0s infinite normal forwards running breath-84a8f385-df64-4115-885b-d27797b91f48;"><path d="M286.48 0.72L286.48 0.72Q280.32 0.72 277.12-2.36L277.12-2.36L277.12-2.36Q273.92-5.44 273.92-10.12L273.92-10.12L273.92-10.12Q273.92-14.80 274.76-18.12L274.76-18.12L274.76-18.12Q275.60-21.44 277.52-24.52L277.52-24.52L277.52-24.52Q279.44-27.60 283.32-29.36L283.32-29.36L283.32-29.36Q287.20-31.12 293.00-31.12L293.00-31.12L293.00-31.12Q298.80-31.12 302.04-28.04L302.04-28.04L302.04-28.04Q305.28-24.96 305.28-19.60L305.28-19.60L305.28-19.60Q305.28-10.48 300.44-4.88L300.44-4.88L300.44-4.88Q295.60 0.72 286.48 0.72L286.48 0.72zM282.96-7.52L282.96-7.52L282.96-7.52Q282.96-1.12 286.68-1.12L286.68-1.12L286.68-1.12Q290.40-1.12 293.32-7.56L293.32-7.56L293.32-7.56Q296.24-14 296.24-22.88L296.24-22.88L296.24-22.88Q296.24-29.60 292.60-29.60L292.60-29.60L292.60-29.60Q288.96-29.60 285.96-23.48L285.96-23.48L285.96-23.48Q282.96-17.36 282.96-7.52" fill="#9df871" stroke="none" stroke-width="none" transform="translate(-150.16000366210938,18.01706639607748)" style="fill: rgb(157, 248, 113);"></path></g></g>
</g>
<style id="breath-84a8f385-df64-4115-885b-d27797b91f48" data-anikit="">@keyframes breath-84a8f385-df64-4115-885b-d27797b91f48
{
  0% {
    animation-timing-function: cubic-bezier(0.9647,0.2413,-0.0705,0.7911);
    transform: scale(0.9099999999999999);
  }
  51% {
    animation-timing-function: cubic-bezier(0.9226,0.2631,-0.0308,0.7628);
    transform: scale(1.02994);
  }
  100% {
    transform: scale(0.9099999999999999);
  }
}</style><style id="breath-84a8f385-df64-4115-885b-d27797b91f48" data-anikit="">@keyframes breath-84a8f385-df64-4115-885b-d27797b91f48
{
  0% {
    animation-timing-function: cubic-bezier(0.9647,0.2413,-0.0705,0.7911);
    transform: scale(0.9099999999999999);
  }
  51% {
    animation-timing-function: cubic-bezier(0.9226,0.2631,-0.0308,0.7628);
    transform: scale(1.02994);
  }
  100% {
    transform: scale(0.9099999999999999);
  }
}</style></svg>